<svg width="78" height="169" viewBox="0 0 78 169" fill="none" xmlns="http://www.w3.org/2000/svg">
<g id="Group 102">
<path id="Vector" fill-rule="evenodd" clip-rule="evenodd" d="M60.7142 0.391602C78.1702 0.391602 92.3142 14.5356 92.3142 31.9916V97.1916H29.1143V31.9916C29.1143 14.5356 43.2662 0.391602 60.7142 0.391602Z" fill="#393DF0"/>
<path id="Vector_2" d="M92.3148 97.592H29.1148C28.8908 97.592 28.7148 97.416 28.7148 97.192V31.992C28.7148 27.672 29.5628 23.48 31.2268 19.536C32.8348 15.728 35.1468 12.304 38.0828 9.368C41.0188 6.432 44.4428 4.12 48.2508 2.512C52.1948 0.839999 56.3868 0 60.7068 0C65.0268 0 69.2188 0.848 73.1628 2.512C76.9708 4.12 80.3948 6.432 83.3308 9.368C86.2668 12.304 88.5788 15.728 90.1868 19.536C91.8588 23.48 92.6988 27.672 92.6988 31.992V97.192C92.7148 97.416 92.5388 97.592 92.3148 97.592ZM29.5148 96.792H91.9148V31.992C91.9148 14.792 77.9148 0.792 60.7148 0.792C43.5148 0.792 29.5148 14.792 29.5148 31.992V96.792Z" fill="#BBEB6E"/>
<g id="Group">
<g id="Group-Copy-4">
<g id="Path-187">
<path id="Vector_3" fill-rule="evenodd" clip-rule="evenodd" d="M31.227 120.53C28.627 129.194 28.627 142.722 31.227 161.114C30.259 163.066 28.683 164.442 26.507 165.242C24.323 166.042 23.195 167.138 23.123 168.53H40.171C40.907 165.81 40.907 163.338 40.171 161.114C39.067 157.786 38.347 133.49 41.923 120.53H31.227Z" fill="white"/>
</g>
<g id="Path-275-Copy">
<path id="Vector_4" d="M39.9787 161.41H31.3867C31.2107 161.41 31.0507 161.29 31.0027 161.122C30.9547 160.954 31.0267 160.77 31.1787 160.674L38.6907 156.026L30.4267 151.93C30.2907 151.866 30.2027 151.722 30.2027 151.57C30.2027 151.418 30.2907 151.282 30.4267 151.21L38.1867 147.386L29.6907 144.506C29.4827 144.434 29.3707 144.21 29.4427 144.002C29.5147 143.794 29.7387 143.682 29.9467 143.754L39.3627 146.938C39.5147 146.994 39.6267 147.13 39.6347 147.29C39.6427 147.45 39.5547 147.602 39.4107 147.674L31.5067 151.57L39.6827 155.618C39.8107 155.682 39.8987 155.81 39.9067 155.954C39.9147 156.098 39.8427 156.234 39.7147 156.314L32.7947 160.61H39.9787C40.2027 160.61 40.3787 160.786 40.3787 161.01C40.3787 161.234 40.2027 161.41 39.9787 161.41Z" fill="#2E2E30"/>
</g>
<g id="Path-187-Copy">
<path id="Vector_5" d="M40.1707 168.93H23.1227C23.0107 168.93 22.9067 168.882 22.8347 168.802C22.7627 168.722 22.7227 168.618 22.7227 168.506C22.8027 166.938 24.0267 165.714 26.3627 164.866C28.3947 164.122 29.8907 162.842 30.8107 161.05C29.5227 151.93 28.8747 143.89 28.8747 137.17C28.8747 130.402 29.5387 124.762 30.8427 120.41C30.8907 120.242 31.0427 120.13 31.2267 120.13H41.9227C42.0507 120.13 42.1627 120.186 42.2427 120.29C42.3147 120.386 42.3467 120.522 42.3067 120.642C40.2427 128.13 39.7787 138.77 39.6907 144.45C39.5627 152.674 40.0347 159.45 40.5467 161.002C41.2987 163.282 41.2987 165.858 40.5547 168.642C40.5067 168.81 40.3467 168.93 40.1707 168.93ZM23.5867 168.13H39.8587C40.4907 165.61 40.4667 163.298 39.7867 161.242C39.2427 159.594 38.7547 152.85 38.8907 144.426C38.9787 138.834 39.4267 128.466 41.4027 120.93H31.5227C29.0347 129.514 29.0667 143.01 31.6187 161.058C31.6267 161.138 31.6187 161.218 31.5787 161.29C30.5707 163.33 28.9067 164.786 26.6347 165.618C24.8667 166.266 23.8427 167.106 23.5867 168.13Z" fill="#2E2E30"/>
</g>
<g id="Group-5">
<g id="Path-187-Copy-2">
<path id="Vector_6" fill-rule="evenodd" clip-rule="evenodd" d="M29.315 163.658C28.531 164.338 27.587 164.874 26.499 165.274C24.323 166.058 23.195 167.146 23.123 168.53H40.171C40.907 165.826 40.907 163.378 40.171 161.178C39.795 160.05 35.771 164.946 34.195 165.274C31.171 165.89 29.835 163.21 29.315 163.658Z" fill="#BBEB6E"/>
</g>
<g id="Path-187-Copy-4">
<path id="Vector_7" d="M40.1707 168.93H23.1227C23.0107 168.93 22.9067 168.882 22.8347 168.802C22.7627 168.722 22.7227 168.618 22.7227 168.506C22.8027 166.954 24.0267 165.738 26.3627 164.89C27.4027 164.514 28.3067 163.994 29.0507 163.354C29.4827 162.978 29.9467 163.346 30.4347 163.738C31.1867 164.338 32.3227 165.242 34.1147 164.874C34.7387 164.746 36.0427 163.57 37.0907 162.626C38.6667 161.202 39.5227 160.466 40.1227 160.626C40.3307 160.682 40.4827 160.826 40.5547 161.042C41.3067 163.306 41.3147 165.858 40.5627 168.626C40.5147 168.81 40.3547 168.93 40.1707 168.93ZM23.5867 168.13H39.8667C40.4827 165.69 40.4747 163.442 39.8427 161.442C39.4027 161.626 38.3547 162.578 37.6347 163.226C36.3387 164.394 35.1227 165.49 34.2827 165.666C32.1227 166.106 30.7627 165.018 29.9467 164.37C29.7947 164.25 29.6107 164.098 29.4987 164.034C28.6987 164.706 27.7387 165.25 26.6427 165.65C24.8747 166.282 23.8507 167.122 23.5867 168.13Z" fill="#2E2E30"/>
</g>
</g>
</g>
<g id="Group-Copy-3_1_">
<g id="Path-187_1_">
<path id="Vector_8" fill-rule="evenodd" clip-rule="evenodd" d="M43.8616 120.531C41.2616 129.195 41.2616 142.723 43.8616 161.115C42.8936 163.067 41.3176 164.443 39.1416 165.243C36.9576 166.043 35.8376 167.131 35.7656 168.531H52.8136C53.5496 165.811 53.5496 163.339 52.8136 161.115C51.7096 157.787 50.9896 133.491 54.5656 120.531H43.8616Z" fill="white"/>
</g>
<g id="Path-275">
<path id="Vector_9" d="M43.9651 161.41C43.7571 161.41 43.5811 161.25 43.5651 161.034C43.5491 160.81 43.7171 160.626 43.9331 160.61L50.7731 160.138L43.0611 156.818C42.9251 156.762 42.8291 156.634 42.8211 156.482C42.8131 156.33 42.8771 156.194 43.0051 156.114L50.7171 151.234L42.4451 148.186C42.2931 148.13 42.1891 147.986 42.1811 147.826C42.1731 147.666 42.2691 147.514 42.4131 147.45L51.4451 143.29C51.6451 143.194 51.8851 143.282 51.9731 143.482C52.0691 143.682 51.9811 143.922 51.7811 144.01L43.6291 147.762L51.7491 150.754C51.8931 150.81 51.9891 150.938 52.0051 151.09C52.0211 151.242 51.9491 151.386 51.8211 151.474L44.0691 156.386L52.6051 160.058C52.7731 160.13 52.8691 160.314 52.8451 160.49C52.8211 160.666 52.6611 160.81 52.4771 160.818L43.9971 161.41C43.9891 161.41 43.9811 161.41 43.9651 161.41Z" fill="#2E2E30"/>
</g>
<g id="Path-187-Copy_1_">
<path id="Vector_10" d="M52.8052 168.93H35.7652C35.6532 168.93 35.5492 168.882 35.4772 168.802C35.4052 168.722 35.3652 168.618 35.3652 168.506C35.4452 166.938 36.6692 165.714 39.0052 164.866C41.0372 164.122 42.5332 162.842 43.4532 161.05C42.1652 151.93 41.5172 143.898 41.5172 137.17C41.5172 130.402 42.1812 124.762 43.4852 120.41C43.5332 120.242 43.6932 120.122 43.8692 120.122H54.5652C54.6932 120.122 54.8052 120.178 54.8852 120.282C54.9572 120.378 54.9892 120.514 54.9492 120.634C52.8852 128.122 52.4212 138.762 52.3332 144.442C52.2052 152.666 52.6772 159.442 53.1892 160.994C53.9412 163.274 53.9412 165.85 53.1972 168.634C53.1492 168.81 52.9892 168.93 52.8052 168.93ZM36.2212 168.13H52.5012C53.1332 165.61 53.1092 163.298 52.4292 161.242C51.8852 159.594 51.3972 152.85 51.5332 144.426C51.6212 138.842 52.0692 128.466 54.0372 120.93H44.1652C41.6772 129.514 41.7092 143.01 44.2612 161.058C44.2692 161.138 44.2612 161.218 44.2212 161.29C43.2132 163.33 41.5492 164.786 39.2772 165.618C37.5092 166.266 36.4852 167.106 36.2212 168.13Z" fill="#2E2E30"/>
</g>
<g id="Path-7">
<path id="Vector_11" d="M52.9571 144.554C52.6611 144.554 52.3331 144.538 51.9651 144.498C51.7491 144.474 51.5891 144.274 51.6131 144.058C51.6131 144.058 51.6131 144.058 51.6131 144.05C51.5411 144.05 51.4691 144.026 51.4051 143.986C51.2211 143.866 51.1651 143.618 51.2851 143.434C52.2371 141.978 53.2691 141.33 54.3491 141.514C55.1731 141.65 55.7571 142.37 55.6531 143.122C55.5971 143.482 55.2531 144.554 52.9571 144.554ZM52.0691 143.698C53.9011 143.898 54.7891 143.49 54.8531 143.002C54.8931 142.69 54.5971 142.354 54.2131 142.29C53.5171 142.178 52.7891 142.65 52.0691 143.698Z" fill="#2E2E30"/>
</g>
<g id="Path-7-Copy">
<path id="Vector_12" d="M28.3973 144.715C26.1013 144.715 25.7573 143.643 25.7093 143.275C25.6053 142.523 26.1893 141.803 27.0133 141.667C28.0933 141.483 29.1253 142.131 30.0693 143.587C30.1893 143.771 30.1413 144.019 29.9493 144.139C29.8853 144.179 29.8133 144.203 29.7413 144.203C29.7413 144.203 29.7413 144.203 29.7413 144.211C29.7653 144.427 29.6053 144.627 29.3893 144.651C29.0293 144.691 28.7013 144.715 28.3973 144.715ZM27.3573 142.435C27.2853 142.435 27.2213 142.443 27.1493 142.451C26.7653 142.515 26.4693 142.851 26.5093 143.163C26.5733 143.651 27.4613 144.051 29.2933 143.859C28.6373 142.915 27.9893 142.435 27.3573 142.435Z" fill="#2E2E30"/>
</g>
<g id="Group-2">
<g id="Path-187-Copy-2_1_">
<path id="Vector_13" fill-rule="evenodd" clip-rule="evenodd" d="M41.8736 163.658C41.0896 164.338 40.1456 164.874 39.0576 165.274C36.8816 166.058 35.7536 167.146 35.6816 168.53H52.7296C53.4656 165.826 53.4656 163.378 52.7296 161.178C52.3536 160.05 48.3296 164.946 46.7536 165.274C43.7296 165.89 42.3936 163.21 41.8736 163.658Z" fill="#BBEB6E"/>
</g>
<g id="Path-187-Copy-3">
<path id="Vector_14" d="M52.7302 168.93H35.6822C35.5702 168.93 35.4662 168.882 35.3942 168.802C35.3222 168.722 35.2822 168.618 35.2822 168.506C35.3622 166.954 36.5862 165.738 38.9222 164.89C39.9622 164.514 40.8662 163.994 41.6102 163.354C42.0422 162.978 42.5062 163.346 42.9942 163.738C43.7462 164.338 44.8822 165.242 46.6742 164.874C47.2982 164.746 48.6022 163.57 49.6502 162.626C51.2262 161.202 52.0822 160.466 52.6822 160.626C52.8902 160.682 53.0422 160.826 53.1142 161.042C53.8662 163.306 53.8742 165.858 53.1222 168.626C53.0742 168.81 52.9142 168.93 52.7302 168.93ZM36.1462 168.13H52.4262C53.0422 165.69 53.0342 163.442 52.4022 161.442C51.9622 161.626 50.9142 162.578 50.1942 163.226C48.8982 164.394 47.6822 165.49 46.8422 165.666C44.6822 166.106 43.3222 165.018 42.5062 164.37C42.3542 164.25 42.1702 164.098 42.0582 164.034C41.2582 164.706 40.2982 165.25 39.2022 165.65C37.4342 166.282 36.4102 167.122 36.1462 168.13Z" fill="#2E2E30"/>
</g>
</g>
</g>
<g id="Group-6">
<g id="Group-13_1_">
<g id="Group-4_3_">
<g id="Group-3_1_">
<g id="Path-5">
<path id="Vector_15" fill-rule="evenodd" clip-rule="evenodd" d="M36.8393 59.8581C40.4873 58.0581 43.3433 57.8901 45.4073 59.3541C47.4713 60.8181 47.7913 64.5701 46.3913 70.5941C47.5513 70.0261 48.8633 70.2021 50.3273 71.1301C52.5273 72.5221 52.3593 77.3941 46.3913 78.5941C40.4233 79.7941 35.6473 68.7941 36.4153 65.1541C36.9273 62.7301 37.0633 60.9621 36.8393 59.8581Z" fill="#2E2E30"/>
</g>
<g id="Oval-Copy-2_1_">
<path id="Vector_16" d="M34.8031 67.9102C35.8203 67.54 36.2848 66.2503 35.8405 65.0297C35.3963 63.809 34.2116 63.1196 33.1944 63.4898C32.1771 63.86 31.7127 65.1497 32.1569 66.3703C32.6012 67.591 33.7859 68.2804 34.8031 67.9102Z" fill="#2E2E30"/>
</g>
<g id="Group-4_2_">
<g id="Path-90_1_">
<path id="Vector_17" fill-rule="evenodd" clip-rule="evenodd" d="M41.7115 74.0106C46.1835 73.6826 49.8475 74.7306 52.6795 77.1626C56.9355 80.8186 57.5995 86.0826 57.5995 86.0826L48.9435 87.2506C47.3195 90.5626 46.8635 92.9546 47.5595 94.4186C48.2635 95.8826 48.7195 97.1466 48.9435 98.1946C57.2075 113.403 60.7675 123.083 59.6155 127.251C59.4155 127.987 58.1515 131.587 55.9915 131.843C53.4395 132.139 52.6875 129.451 51.4795 129.675C50.2635 129.899 49.2475 132.251 46.8315 132.443C44.4155 132.635 44.2395 130.379 42.5755 130.131C41.9835 130.043 40.8155 132.427 38.9675 132.427C37.1195 132.427 36.4955 130.043 35.7115 130.003C34.7035 129.955 34.5115 132.427 32.1675 132.139C29.8315 131.851 30.0635 129.603 28.8635 129.451C27.8555 129.315 26.8475 131.019 25.1355 130.643C22.8635 130.147 22.3355 127.963 22.1035 127.251C20.6875 122.875 22.9115 113.107 28.7835 97.9466C29.6155 93.7146 29.6155 89.0186 28.7835 83.8666C27.0635 78.1066 26.3355 75.0986 26.6075 74.8346C27.6315 73.8506 31.2555 73.4986 32.8075 73.9866C34.3035 74.4506 37.2715 74.4586 41.7115 74.0106Z" fill="#BBEB6E"/>
</g>
<g id="Path-276">
<path id="Vector_18" d="M28.8718 129.114C28.8638 129.114 28.8478 129.114 28.8398 129.114C28.6158 129.098 28.4558 128.898 28.4718 128.682L28.8158 124.674C28.8318 124.45 29.0318 124.29 29.2478 124.306C29.4718 124.322 29.6318 124.522 29.6158 124.738L29.2718 128.746C29.2478 128.954 29.0718 129.114 28.8718 129.114Z" fill="#2E2E30"/>
</g>
<g id="Path-276-Copy">
<path id="Vector_19" d="M35.8316 129.914C35.6236 129.914 35.4476 129.746 35.4316 129.538L35.1836 125.114C35.1676 124.89 35.3436 124.706 35.5596 124.69C35.7836 124.682 35.9676 124.85 35.9836 125.066L36.2316 129.49C36.2476 129.714 36.0716 129.898 35.8556 129.914C35.8476 129.914 35.8396 129.914 35.8316 129.914Z" fill="#2E2E30"/>
</g>
<g id="Path-276-Copy-2">
<path id="Vector_20" d="M43.0318 129.914C42.8238 129.914 42.6478 129.746 42.6318 129.538L42.3838 125.114C42.3678 124.89 42.5438 124.706 42.7598 124.69C42.9758 124.682 43.1678 124.85 43.1838 125.066L43.4318 129.49C43.4478 129.714 43.2718 129.898 43.0558 129.914C43.0478 129.914 43.0398 129.914 43.0318 129.914Z" fill="#2E2E30"/>
</g>
<g id="Path-276-Copy-3">
<path id="Vector_21" d="M51.8316 129.755C51.6236 129.755 51.4476 129.587 51.4316 129.379L51.1836 124.955C51.1676 124.731 51.3436 124.547 51.5596 124.531C51.7756 124.523 51.9676 124.691 51.9836 124.907L52.2316 129.331C52.2476 129.555 52.0716 129.739 51.8556 129.755C51.8476 129.755 51.8396 129.755 51.8316 129.755Z" fill="#2E2E30"/>
</g>
<g id="Path-274">
<path id="Vector_22" d="M39.1679 95.5229C36.2079 95.5229 32.8639 95.3309 29.1679 94.9389C28.9519 94.9149 28.7919 94.7149 28.8159 94.4989C28.8399 94.2829 29.0319 94.1229 29.2559 94.1469C36.9039 94.9549 42.9839 94.9149 47.3439 94.0509C47.5599 94.0109 47.7679 94.1469 47.8159 94.3629C47.8559 94.5789 47.7199 94.7869 47.5039 94.8349C45.1839 95.2909 42.3999 95.5229 39.1679 95.5229Z" fill="#2E2E30"/>
</g>
<g id="Path-89_1_">
<path id="Vector_23" fill-rule="evenodd" clip-rule="evenodd" d="M39.8396 69.6584L40.2396 73.4984L46.3676 74.1544C43.8796 78.1384 40.7836 80.1304 37.0796 80.1304C33.3756 80.1304 30.7596 78.0104 29.2236 73.7624L34.7996 73.4904L35.1036 69.6504H39.8396V69.6584Z" fill="white"/>
</g>
<g id="Path-270">
<path id="Vector_24" d="M36.8316 80.5306C36.8156 80.5306 36.7996 80.5306 36.7836 80.5306C36.5676 80.5066 36.4076 80.3066 36.4396 80.0826L36.6796 78.1786C36.7036 77.9626 36.9036 77.8026 37.1276 77.8346C37.3436 77.8586 37.5036 78.0586 37.4716 78.2826L37.2316 80.1866C37.2076 80.3866 37.0316 80.5306 36.8316 80.5306Z" fill="#2E2E30"/>
</g>
</g>
<g id="Group-12-Copy_1_">
<g id="Path_4_">
<path id="Vector_25" fill-rule="evenodd" clip-rule="evenodd" d="M39.9316 63.667H33.6756V65.427C33.5236 67.643 33.7556 69.203 34.3796 70.107C35.3236 71.459 38.8596 71.819 40.1236 68.755C40.9636 66.707 40.8996 65.011 39.9316 63.667Z" fill="white"/>
</g>
<g id="Path-14_1_">
<path id="Vector_26" d="M36.4271 71.459C35.6911 71.459 35.0591 71.283 34.5551 70.931C33.7151 70.355 33.2111 69.315 33.0431 67.835C33.0191 67.619 33.1791 67.419 33.3951 67.395C33.6111 67.371 33.8111 67.531 33.8351 67.747C33.9711 68.979 34.3711 69.835 35.0031 70.267C35.6431 70.707 36.5791 70.771 37.7791 70.459C37.9951 70.403 38.2111 70.531 38.2671 70.747C38.3231 70.963 38.1951 71.179 37.9791 71.235C37.4191 71.387 36.8991 71.459 36.4271 71.459Z" fill="#2E2E30"/>
</g>
</g>
<g id="Path-88-Copy_1_">
<path id="Vector_27" fill-rule="evenodd" clip-rule="evenodd" d="M40.1271 63.9545C38.1191 64.6425 36.2311 64.7145 34.4711 64.1625C31.8311 63.3305 32.1671 60.9065 34.1591 59.6825C36.1511 58.4585 40.3511 57.5705 43.1751 60.3705C45.0631 62.2265 44.0471 63.4265 40.1271 63.9545Z" fill="#2E2E30"/>
</g>
</g>
<g id="Group-Copy_2_">
<g id="Path-8_1_">
<path id="Vector_28" d="M36.5783 68.7174C36.2743 68.7174 35.9623 68.6374 35.6343 68.4694C35.4343 68.3654 35.3623 68.1254 35.4583 67.9334C35.5623 67.7334 35.8023 67.6614 35.9943 67.7574C36.6183 68.0774 37.0743 67.9334 37.5143 67.2774C37.6343 67.0934 37.8903 67.0454 38.0663 67.1734C38.2503 67.2934 38.2983 67.5494 38.1703 67.7254C37.7383 68.3814 37.1863 68.7174 36.5783 68.7174Z" fill="#2E2E30"/>
</g>
<g id="Oval_4_">
<path id="Vector_29" d="M38.2726 66.0055C38.4221 65.9511 38.4844 65.7455 38.4119 65.5462C38.3394 65.3469 38.1594 65.2294 38.0099 65.2838C37.8605 65.3382 37.7981 65.5439 37.8706 65.7432C37.9432 65.9424 38.1231 66.0599 38.2726 66.0055Z" fill="#2E2E30"/>
</g>
<g id="Oval-Copy-3_1_">
<path id="Vector_30" d="M35.2101 66.007C35.3596 65.9526 35.4219 65.7469 35.3494 65.5476C35.2769 65.3483 35.0969 65.2309 34.9474 65.2853C34.798 65.3397 34.7356 65.5453 34.8081 65.7446C34.8807 65.9439 35.0606 66.0614 35.2101 66.007Z" fill="#2E2E30"/>
</g>
<g id="Path-4_1_">
<path id="Vector_31" d="M36.4747 67.677C36.4667 67.677 36.4587 67.677 36.4507 67.677C36.2027 67.661 35.4427 67.613 35.2747 67.061C35.1707 66.725 35.3627 66.317 36.6187 65.117C36.7787 64.965 37.0347 64.973 37.1867 65.133C37.3387 65.293 37.3307 65.549 37.1707 65.701C36.4987 66.341 36.2267 66.669 36.1227 66.829C36.1947 66.853 36.3147 66.877 36.4987 66.885C36.7227 66.901 36.8827 67.093 36.8747 67.309C36.8587 67.517 36.6827 67.677 36.4747 67.677Z" fill="#2E2E30"/>
</g>
</g>
</g>
<g id="Group-8">
<g id="Path-3_2_">
<path id="Vector_32" d="M41.5962 64.5545C41.4762 64.5545 41.3642 64.5145 41.2602 64.4425C41.0122 64.2585 40.9642 63.9065 41.1482 63.6585L42.1802 62.2745C43.0362 61.1305 42.8042 59.5065 41.6602 58.6425C41.0842 58.2105 40.3562 58.0425 39.6522 58.1625C39.3482 58.2185 39.0602 58.0105 39.0042 57.7065C38.9482 57.4025 39.1562 57.1145 39.4602 57.0585C40.4682 56.8745 41.5162 57.1305 42.3402 57.7385C43.1322 58.3305 43.6522 59.2025 43.7882 60.1865C43.9322 61.1705 43.6842 62.1465 43.0842 62.9385L42.0522 64.3225C41.9322 64.4825 41.7642 64.5545 41.5962 64.5545Z" fill="#BBEB6E"/>
</g>
<g id="Oval_5_">
<path id="Vector_33" d="M41.0894 68.9779C42.4429 69.4705 44.0179 68.5572 44.6072 66.9379C45.1965 65.3187 44.577 63.6067 43.2235 63.1141C41.87 62.6215 40.295 63.5348 39.7057 65.1541C39.1164 66.7733 39.7359 68.4853 41.0894 68.9779Z" fill="#2E2E30"/>
</g>
<g id="Oval-Copy_1_">
<path id="Vector_34" d="M41.6241 68.2024C42.6123 68.5621 43.7649 67.8876 44.1986 66.6961C44.6322 65.5045 44.1828 64.247 43.1946 63.8873C42.2065 63.5277 41.0539 64.2021 40.6202 65.3937C40.1865 66.5853 40.636 67.8428 41.6241 68.2024Z" fill="white"/>
<path id="Vector_35" d="M42.4126 68.5387C41.2526 68.5387 40.3086 67.4187 40.3086 66.0427C40.3086 64.6667 41.2526 63.5547 42.4126 63.5547C43.5726 63.5547 44.5166 64.6747 44.5166 66.0507C44.5166 67.4267 43.5726 68.5387 42.4126 68.5387ZM42.4126 63.9547C41.4686 63.9547 40.7086 64.8907 40.7086 66.0507C40.7086 67.2107 41.4766 68.1467 42.4126 68.1467C43.3486 68.1467 44.1166 67.2107 44.1166 66.0507C44.1166 64.8907 43.3566 63.9547 42.4126 63.9547Z" fill="#2E2E30"/>
</g>
</g>
</g>
<g id="Group-17-Copy">
<g id="Group-16_1_">
<g id="Path-95_1_">
<path id="Vector_36" fill-rule="evenodd" clip-rule="evenodd" d="M29.5725 83.113C21.0518 90.2184 14.3483 90.9638 9.44459 85.3453C4.54087 79.7268 5.60426 72.7344 12.6338 64.3569L16.679 68.2108C13.807 73.6124 13.2151 77.4915 14.8982 79.8541C16.5813 82.2167 20.1878 81.3163 25.7178 77.1529L29.5725 83.113Z" fill="white"/>
</g>
<g id="Path-9_1_">
<path id="Vector_37" d="M16.5997 68.542C16.4123 68.5413 16.2417 68.4086 16.2024 68.219C16.1611 68.0068 16.3011 67.7902 16.5194 67.754C18.3173 67.4037 19.2536 66.7482 19.2906 65.808C19.2996 65.5858 19.4835 65.4164 19.7057 65.4253C19.928 65.4343 20.0974 65.6182 20.0885 65.8404C20.0367 67.1964 18.8844 68.1093 16.6674 68.5361C16.6509 68.5432 16.6284 68.5451 16.5997 68.542Z" fill="#2E2E30"/>
</g>
<g id="Path-10_1_">
<path id="Vector_38" d="M14.9579 67.4243C14.8841 67.4251 14.8145 67.4085 14.7481 67.3632C14.5621 67.2488 14.5004 66.9987 14.6148 66.8127C15.5387 65.3009 16.2867 64.3098 16.8949 63.7967C17.5728 63.2376 18.3416 63.0682 19.191 63.3005C19.4007 63.3616 19.528 63.5833 19.4669 63.7931C19.4057 64.0029 19.1841 64.1302 18.9743 64.069C18.392 63.9042 17.8795 64.0172 17.4141 64.4099C16.88 64.8598 16.1679 65.808 15.3038 67.2237C15.2244 67.3556 15.0941 67.4237 14.9579 67.4243Z" fill="#2E2E30"/>
</g>
<g id="Path-11_1_">
<path id="Vector_39" d="M14.0016 66.6224C13.9616 66.6202 13.9268 66.6119 13.892 66.6036C13.6822 66.5424 13.555 66.3208 13.6212 66.1049C14.184 64.1647 15.0638 62.9918 16.2184 62.6239C16.4286 62.5601 16.6546 62.6766 16.7235 62.8806C16.7925 63.0847 16.6708 63.3168 16.4668 63.3858C15.5716 63.6685 14.8748 64.6607 14.3846 66.3277C14.3379 66.5078 14.1716 66.6189 14.0016 66.6224Z" fill="#2E2E30"/>
</g>
<g id="Path-12_1_">
<path id="Vector_40" d="M12.9108 65.446C12.7121 65.4464 12.5405 65.3024 12.5125 65.1118C12.2991 63.7108 12.7484 62.6153 13.8572 61.8539C14.0389 61.7245 14.2877 61.7765 14.411 61.9531C14.5405 62.1348 14.4884 62.3836 14.3118 62.5069C13.471 63.0859 13.1445 63.8981 13.3129 64.9793C13.3491 65.1976 13.1968 65.404 12.9785 65.4401C12.9447 65.443 12.9282 65.4502 12.9108 65.446Z" fill="#2E2E30"/>
</g>
</g>
<g id="Path_5_">
<path id="Vector_41" d="M17.2487 89.5862C17.0387 89.5875 16.839 89.5766 16.6393 89.5657C13.82 89.4035 11.3016 88.0736 9.16198 85.6203C6.6438 82.7345 5.63159 79.4728 6.14353 75.913C6.64814 72.3993 8.67099 68.52 12.1472 64.3772C12.2912 64.2056 12.5391 64.1839 12.7107 64.3279C12.8823 64.4719 12.904 64.7199 12.76 64.8914C9.38153 68.9178 7.4206 72.6611 6.93698 76.0253C6.46069 79.3434 7.40908 82.395 9.76912 85.0959C11.7577 87.3807 14.0859 88.6136 16.683 88.7669C20.4445 88.9886 24.6981 86.9811 29.3236 82.8002C29.487 82.6553 29.7379 82.6674 29.888 82.8246C30.0329 82.988 30.0207 83.2389 29.8635 83.389C25.3119 87.5066 21.0816 89.5859 17.2487 89.5862Z" fill="#2E2E30"/>
</g>
<g id="Path_6_">
<path id="Vector_42" d="M18.239 81.5613C18.2277 81.5623 18.2103 81.5581 18.199 81.5591C16.7845 81.5522 15.4782 81.0305 14.628 80.1396C12.8266 78.2416 13.3942 74.2795 16.352 68.0413C16.4479 67.8398 16.6848 67.7566 16.8863 67.8526C17.0878 67.9485 17.171 68.1854 17.075 68.3869C14.3142 74.216 13.6899 77.9843 15.2106 79.5946C15.9118 80.3396 17.0053 80.7663 18.2099 80.7745C18.2212 80.7735 18.2324 80.7725 18.2437 80.7716C19.817 80.7759 22.335 80.0899 25.4496 76.876C25.6058 76.7147 25.8557 76.7155 26.0109 76.8666C26.1722 77.0229 26.1714 77.2728 26.0203 77.428C22.7125 80.8349 19.9711 81.5631 18.239 81.5613Z" fill="#2E2E30"/>
</g>
</g>
<g id="Path-2">
<path id="Vector_43" fill-rule="evenodd" clip-rule="evenodd" d="M26.8101 74.6904C24.9301 76.5704 23.3461 77.9064 22.0421 78.6904C20.7381 79.4744 19.4501 80.0744 18.1621 80.4744L22.1621 89.0904L31.6021 83.1224L26.8101 74.6904Z" fill="#BBEB6E"/>
</g>
<g id="Combined-Shape">
<path id="Vector_44" fill-rule="evenodd" clip-rule="evenodd" d="M18.4023 79.5708C19.5543 79.5708 20.4823 80.4988 20.4823 81.6508C20.4823 81.9788 20.4103 82.2828 20.2743 82.5628C21.0903 82.8428 21.6823 83.6188 21.6823 84.5308C21.6823 85.0188 21.5143 85.4668 21.2343 85.8188C21.3063 85.8108 21.3703 85.8108 21.4423 85.8108C22.5943 85.8108 23.5223 86.7388 23.5223 87.8908C23.5223 89.0428 22.5943 89.9708 21.4423 89.9708C20.2903 89.9708 19.3623 89.0428 19.3623 87.8908C19.3623 87.4028 19.5303 86.9548 19.8103 86.6028C19.7383 86.6108 19.6743 86.6108 19.6023 86.6108C18.4503 86.6108 17.5223 85.6828 17.5223 84.5308C17.5223 84.2028 17.5943 83.8988 17.7303 83.6188C16.9143 83.3388 16.3223 82.5628 16.3223 81.6508C16.3223 80.4988 17.2503 79.5708 18.4023 79.5708Z" fill="#BBEB6E"/>
</g>
<g id="Path-6">
<path id="Vector_45" d="M29.2021 86.4501C29.0181 86.4501 28.8581 86.3221 28.8101 86.1381L28.0101 82.6981C27.9621 82.4821 28.0901 82.2661 28.3061 82.2181C28.5221 82.1701 28.7381 82.2981 28.7861 82.5141L29.5861 85.9541C29.6341 86.1701 29.5061 86.3861 29.2901 86.4341C29.2661 86.4501 29.2341 86.4501 29.2021 86.4501Z" fill="#2E2E30"/>
</g>
<g id="Group-14-Copy-3">
<g id="Group-17_1_">
<g id="Group-16_2_">
<g id="Path-95_2_">
<path id="Vector_46" fill-rule="evenodd" clip-rule="evenodd" d="M57.3238 86.6837C60.8151 96.3628 59.3378 102.444 52.8892 104.939C46.4365 107.426 40.6781 104.285 35.6061 95.4997L40.2457 93.1997C44.0362 97.413 47.2342 99.16 49.8328 98.4449C52.4314 97.7298 52.7882 94.2999 50.9102 88.1511L50.3213 86.9392L56.7046 84.9073L57.3238 86.6837Z" fill="white"/>
</g>
<g id="Path-9_2_">
<path id="Vector_47" d="M40.1681 93.6423C40.1503 93.6434 40.1284 93.6375 40.1106 93.6386C39.8971 93.6048 39.7413 93.3991 39.7821 93.1816C40.0475 91.5134 39.7791 90.5045 38.9818 90.1796C38.776 90.0951 38.6797 89.8644 38.7642 89.6586C38.8486 89.4528 39.0794 89.3565 39.2851 89.4409C40.4681 89.9219 40.8976 91.2258 40.5675 93.3101C40.5287 93.4988 40.3616 93.6415 40.1681 93.6423Z" fill="#2E2E30"/>
</g>
<g id="Path-10_2_">
<path id="Vector_48" d="M38.6663 94.721C38.5482 94.7245 38.4338 94.6704 38.356 94.5675C37.3252 93.2782 36.7047 92.3154 36.4476 91.6141C36.1643 90.8354 36.2602 90.1056 36.7395 89.4317C36.8687 89.2555 37.1206 89.2117 37.2968 89.3409C37.473 89.4701 37.5168 89.722 37.3876 89.8982C37.0631 90.3442 37.0017 90.8138 37.1945 91.3398C37.4135 91.9432 38.017 92.8603 38.9779 94.0607C39.1136 94.2317 39.086 94.4879 38.9149 94.6236C38.8398 94.6854 38.7555 94.7156 38.6663 94.721Z" fill="#2E2E30"/>
</g>
<g id="Path-11_2_">
<path id="Vector_49" d="M37.6577 95.294C37.5754 95.2954 37.4949 95.268 37.4202 95.2187C35.898 94.1022 35.1488 92.9644 35.1953 91.829C35.2072 91.6096 35.394 91.4372 35.6094 91.4421C35.8287 91.4541 36.0012 91.6408 35.9962 91.8562C35.9613 92.7077 36.6004 93.6228 37.8936 94.5666C38.0698 94.6958 38.1136 94.9477 37.9775 95.1279C37.9056 95.2433 37.7867 95.2934 37.6577 95.294Z" fill="#2E2E30"/>
</g>
<g id="Path-12_2_">
<path id="Vector_50" d="M36.2949 95.8779C36.2662 95.8761 36.2374 95.8742 36.2155 95.8684C34.9204 95.6092 34.1014 94.8627 33.7815 93.6525C33.722 93.4375 33.856 93.2215 34.0641 93.166C34.2792 93.1065 34.4951 93.2405 34.5506 93.4487C34.7878 94.3555 35.3826 94.8897 36.3659 95.0888C36.5833 95.1295 36.7252 95.3432 36.6845 95.5607C36.6526 95.7454 36.4815 95.8811 36.2949 95.8779Z" fill="#2E2E30"/>
</g>
</g>
<g id="Path_7_">
<path id="Vector_51" d="M48.6516 106.176C46.8993 106.181 45.2025 105.738 43.5772 104.875C40.6738 103.318 37.9248 100.332 35.4168 95.9885C35.3048 95.7945 35.3692 95.5541 35.5632 95.4421C35.7572 95.3301 35.9976 95.3945 36.1096 95.5885C38.5485 99.7968 41.184 102.682 43.9611 104.164C46.6904 105.627 49.648 105.758 52.7446 104.561C55.3647 103.547 57.1842 101.915 58.1408 99.6997C59.5257 96.4984 59.1293 92.1638 56.9563 86.832L56.9483 86.8182L56.4849 85.4876C56.4116 85.2805 56.5197 85.0518 56.7268 84.9784C56.9338 84.9051 57.1625 85.0132 57.2359 85.2203L57.7022 86.5399C59.9555 92.0748 60.3458 96.6068 58.8765 100.014C57.8286 102.439 55.8638 104.22 53.0297 105.311C51.5409 105.884 50.0815 106.173 48.6516 106.176Z" fill="#2E2E30"/>
</g>
<g id="Path_8_">
<path id="Vector_52" d="M48.6945 99.0653C46.5442 99.0689 43.6703 97.2271 39.9613 93.4749C39.8048 93.3158 39.8076 93.0648 39.9667 92.9083C40.1258 92.7518 40.3768 92.7546 40.5333 92.9137C44.7268 97.1529 47.7987 98.8896 49.6744 98.0746C50.537 97.6966 51.2518 96.8867 51.6412 95.849C52.1471 94.4854 52.3686 92.085 50.5519 88.3304L50.1222 87.4422C50.0241 87.2402 50.1104 87.0056 50.3054 86.9115C50.5074 86.8133 50.742 86.8996 50.8361 87.0947L51.2698 87.9898C53.2127 91.9949 52.9515 94.6306 52.3896 96.1374C51.9268 97.3838 51.05 98.3612 49.9884 98.8263C49.5892 98.9829 49.1609 99.0731 48.6945 99.0653Z" fill="#2E2E30"/>
</g>
</g>
</g>
</g>
</g>
<g id="Combined-Shape-Copy">
<path id="Vector_53" fill-rule="evenodd" clip-rule="evenodd" d="M48.6426 87.5927C48.6426 86.4407 49.5706 85.5127 50.7226 85.5127C51.0506 85.5127 51.3546 85.5847 51.6346 85.7207C51.9146 84.9047 52.6906 84.3127 53.6026 84.3127C54.0906 84.3127 54.5386 84.4807 54.8906 84.7607C54.8826 84.6887 54.8826 84.6247 54.8826 84.5527C54.8826 83.4007 55.8106 82.4727 56.9626 82.4727C58.1146 82.4727 59.0426 83.4007 59.0426 84.5527C59.0426 85.7047 58.1146 86.6327 56.9626 86.6327C56.4746 86.6327 56.0266 86.4647 55.6746 86.1847C55.6826 86.2567 55.6826 86.3207 55.6826 86.3927C55.6826 87.5447 54.7546 88.4727 53.6026 88.4727C53.2746 88.4727 52.9706 88.4007 52.6906 88.2647C52.4106 89.0807 51.6346 89.6727 50.7226 89.6727C49.5706 89.6727 48.6426 88.7447 48.6426 87.5927Z" fill="#BBEB6E"/>
</g>
<path id="Vector_54" fill-rule="evenodd" clip-rule="evenodd" d="M81.3308 17.833C80.8028 19.793 79.5868 21.385 77.6748 22.609C79.4428 23.577 80.7548 25.345 81.6028 27.913C82.4668 24.817 83.6588 23.049 85.1788 22.609C84.5308 22.201 83.8268 21.593 83.0668 20.777C82.3068 19.961 81.7308 18.985 81.3308 17.833Z" fill="white"/>
<path id="Vector_55" d="M81.6028 28.313C81.4268 28.313 81.2748 28.201 81.2268 28.041C80.4188 25.585 79.1628 23.873 77.4908 22.961C77.3708 22.897 77.2908 22.761 77.2828 22.625C77.2748 22.489 77.3468 22.353 77.4668 22.273C79.2828 21.113 80.4508 19.585 80.9548 17.729C81.0028 17.561 81.1548 17.441 81.3308 17.433C81.5068 17.425 81.6668 17.537 81.7228 17.705C82.0988 18.801 82.6588 19.745 83.3708 20.505C84.0988 21.289 84.7868 21.881 85.4028 22.273C85.5388 22.353 85.6108 22.513 85.5868 22.665C85.5628 22.817 85.4508 22.953 85.2988 22.993C83.9228 23.385 82.8108 25.081 81.9948 28.017C81.9468 28.185 81.7948 28.305 81.6188 28.313C81.6028 28.313 81.6028 28.313 81.6028 28.313ZM78.4108 22.585C79.7388 23.481 80.7948 24.849 81.5628 26.665C82.2908 24.529 83.2188 23.153 84.3548 22.513C83.8508 22.121 83.3228 21.633 82.7708 21.041C82.2108 20.441 81.7388 19.745 81.3628 18.961C80.7708 20.385 79.7788 21.593 78.4108 22.585Z" fill="#2E2E30"/>
<path id="Vector_56" fill-rule="evenodd" clip-rule="evenodd" d="M9.85073 125.592C9.41073 127.232 8.39473 128.56 6.80273 129.576C8.28273 130.384 9.37074 131.856 10.0747 134C10.7947 131.416 11.7867 129.944 13.0587 129.576C12.5147 129.232 11.9307 128.728 11.2987 128.048C10.6587 127.368 10.1787 126.552 9.85073 125.592Z" fill="white"/>
<path id="Vector_57" d="M10.075 134.4C9.89895 134.4 9.74694 134.288 9.69894 134.128C9.02694 132.096 7.98695 130.688 6.61095 129.928C6.49095 129.864 6.41095 129.728 6.40295 129.592C6.39495 129.448 6.46694 129.32 6.58694 129.24C8.08294 128.28 9.05094 127.024 9.46694 125.488C9.51494 125.32 9.66695 125.2 9.84295 125.192C10.0189 125.184 10.179 125.296 10.235 125.464C10.547 126.368 11.003 127.144 11.595 127.776C12.203 128.424 12.763 128.912 13.275 129.24C13.411 129.32 13.4829 129.48 13.4589 129.632C13.4349 129.792 13.3229 129.92 13.1709 129.96C12.0509 130.28 11.1389 131.68 10.4589 134.104C10.4109 134.272 10.2589 134.392 10.0829 134.4H10.075ZM7.53095 129.552C8.57095 130.28 9.41095 131.36 10.035 132.776C10.619 131.12 11.3549 130.032 12.2509 129.488C11.8509 129.168 11.435 128.776 10.995 128.312C10.555 127.84 10.179 127.296 9.87495 126.688C9.38695 127.808 8.60295 128.768 7.53095 129.552Z" fill="#2E2E30"/>
<path id="Vector_58" d="M199.304 168.8H18.4C18.176 168.8 18 168.624 18 168.4C18 168.176 18.176 168 18.4 168H199.304C199.528 168 199.704 168.176 199.704 168.4C199.704 168.624 199.528 168.8 199.304 168.8Z" fill="#2E2E30"/>
</g>
</svg>
