<svg width="52" height="58" viewBox="0 0 52 58" fill="none" xmlns="http://www.w3.org/2000/svg">
<g id="Group-3">
<g id="Group-12-Copy">
<g id="Path-37">
<path id="Vector" fill-rule="evenodd" clip-rule="evenodd" d="M37.7045 22.3457C38.7399 28.147 40.7586 30.7952 43.7555 30.2853C48.2508 29.5257 43.9844 18.8702 50.3683 20.6548L49.9677 24.6558C51.3725 30.7224 50.566 34.739 47.538 36.7057C42.9958 39.6558 37.9594 36.5861 35.4152 31.3936L37.7045 22.3457Z" fill="white"/>
</g>
<g id="Path">
<path id="Vector_2" d="M43.0537 30.6089C43.2982 30.6089 43.5428 30.588 43.8029 30.5464C44.8123 30.3747 45.5042 29.7452 45.9309 28.6161C46.2899 27.664 46.4148 26.4674 46.5344 25.3071C46.7217 23.5433 46.909 21.7223 47.9236 21.0355C48.4751 20.6609 49.2555 20.6193 50.3013 20.9107C50.4418 20.9471 50.5823 20.869 50.6239 20.7286C50.6603 20.5881 50.5823 20.4476 50.4418 20.406C49.2399 20.0678 48.319 20.1354 47.6322 20.5985C46.42 21.4257 46.2118 23.3664 46.0141 25.2499C45.7748 27.5496 45.5459 29.7192 43.7145 30.0313C42.3045 30.2707 41.1598 29.7764 40.2025 28.5225C39.2243 27.2374 38.4699 25.1458 37.96 22.2998C37.934 22.1594 37.7988 22.0657 37.6583 22.0917C37.5178 22.1177 37.4241 22.253 37.4502 22.3935C37.9757 25.3227 38.7613 27.4923 39.7915 28.8399C40.6864 30.0157 41.779 30.6089 43.0537 30.6089Z" fill="#2E2E30"/>
</g>
<g id="Path_1_">
<path id="Vector_3" d="M43.8227 38.1161C45.1547 38.1161 46.4606 37.7155 47.6781 36.9247C49.2442 35.9049 50.2535 34.3388 50.6698 32.2681C51.0808 30.2337 50.9299 27.6479 50.2223 24.5938C50.1911 24.4533 50.0506 24.3649 49.9101 24.4013C49.7697 24.4325 49.6812 24.573 49.7176 24.7134C50.3992 27.6999 50.5501 30.2077 50.1547 32.1692C49.7645 34.0995 48.8331 35.5511 47.3919 36.4928C45.7478 37.5594 43.9268 37.8612 42.1266 37.3669C39.5928 36.6697 37.1682 34.396 35.6438 31.2847C35.5814 31.1546 35.4253 31.1026 35.2952 31.165C35.1651 31.2275 35.1131 31.3836 35.1755 31.5136C35.9508 33.0901 36.9705 34.5001 38.1204 35.5875C39.3066 36.7061 40.6438 37.4918 41.9861 37.8664C42.6001 38.0329 43.214 38.1161 43.8227 38.1161Z" fill="#2E2E30"/>
</g>
<g id="Path-38">
<path id="Vector_4" d="M51.742 21.2633C51.8565 21.2633 51.9658 21.1853 51.9918 21.0656C52.0282 20.9251 51.9397 20.7847 51.8045 20.7482C51.1801 20.5921 50.2904 20.41 49.1562 20.1967C49.0157 20.1707 48.8804 20.2644 48.8544 20.4048C48.8284 20.5453 48.9221 20.6806 49.0625 20.7066C50.1864 20.9147 51.0657 21.0968 51.6796 21.2477C51.7004 21.2581 51.7212 21.2633 51.742 21.2633Z" fill="#2E2E30"/>
</g>
<g id="Path-39">
<path id="Vector_5" d="M51.4713 22.5798C51.5441 22.5798 51.6169 22.5486 51.669 22.4862C51.7626 22.3769 51.747 22.2104 51.6378 22.122C50.3891 21.0554 49.6242 21.2167 49.5462 21.2375L49.6815 21.7422H49.6763C49.6815 21.7422 50.2694 21.6329 51.3048 22.5174C51.3516 22.559 51.414 22.5798 51.4713 22.5798Z" fill="#2E2E30"/>
</g>
<g id="Path-40">
<path id="Vector_6" d="M50.8683 23.7298C50.8892 23.7298 50.91 23.7246 50.936 23.7194C51.0765 23.683 51.1597 23.5425 51.1233 23.402C50.8892 22.5228 50.296 22.3354 49.8382 22.3354C49.6925 22.3354 49.578 22.4499 49.578 22.5956C49.578 22.7413 49.6925 22.8557 49.8382 22.8557C50.2544 22.8557 50.4937 23.0639 50.6186 23.5373C50.6446 23.6518 50.7487 23.7298 50.8683 23.7298Z" fill="#2E2E30"/>
</g>
</g>
<g id="Path-36">
<path id="Vector_7" fill-rule="evenodd" clip-rule="evenodd" d="M42.9902 53.9546C42.2722 55.2605 38.0059 55.9109 30.1911 55.9109C18.469 55.9109 3.94248 62.0815 0.253628 49.6674L11.4711 48.1846L31.419 49.017L42.9902 53.9546Z" fill="black"/>
</g>
<g id="Group">
<g id="Path-30">
<path id="Vector_8" fill-rule="evenodd" clip-rule="evenodd" d="M22.7988 0.837891C20.1141 0.874311 18.4492 1.82644 17.804 3.70989C15.7229 3.68388 14.5106 5.11988 14.1672 8.00748C13.0902 8.11674 12.5179 8.56419 12.4451 9.34463C13.5064 11.7952 15.8061 12.4612 19.3389 11.3373C24.6406 9.6516 25.317 4.77128 24.8592 3.10115C24.5574 1.98773 23.8706 1.23331 22.7988 0.837891Z" fill="#8B54FF"/>
</g>
<g id="Path-29">
<path id="Vector_9" fill-rule="evenodd" clip-rule="evenodd" d="M23.1783 3.66801C23.5164 2.84595 23.1626 1.83659 22.1273 0.63992C27.7724 0.364167 32.1793 2.11754 35.3426 5.90525C40.0929 11.5868 37.1168 26.0925 41.1647 35.5253C45.2125 44.9582 46.2895 55.5513 41.1647 54.7188C36.0398 53.8864 30.3739 50.6346 21.0243 53.6106C11.6746 56.5867 2.81411 56.2173 0.488415 50.6918C-1.84248 45.1663 13.787 27.4817 11.6955 21.5139C9.60389 15.5514 12.3562 8.42866 12.3562 8.42866C15.1294 11.0561 17.018 10.9833 18.0326 8.21534C20.6653 8.33501 21.7423 7.22679 21.2532 4.89069C22.2001 4.90109 22.8401 4.49006 23.1783 3.66801Z" fill="white"/>
</g>
<g id="Path-41">
<path id="Vector_10" d="M2.78811 50.9059C2.93379 50.9059 3.04825 50.7914 3.04825 50.6457C3.04825 47.5032 5.4728 42.524 10.2543 35.8487C10.3375 35.7342 10.3115 35.5678 10.1918 35.4845C10.0774 35.4013 9.91087 35.4273 9.82763 35.5469C7.41348 38.9184 5.57166 41.8945 4.36458 44.3867C3.1419 46.9049 2.52276 49.0068 2.52276 50.6457C2.52796 50.7914 2.64763 50.9059 2.78811 50.9059Z" fill="#2E2E30"/>
</g>
<g id="Path-42">
<path id="Vector_11" d="M38.0747 52.066C38.0851 52.066 38.0903 52.066 38.1007 52.066C38.2412 52.0504 38.3453 51.9255 38.3349 51.7799C38.0487 48.9911 37.8926 46.8163 37.8718 45.3231C37.8458 43.502 38.0331 43.0754 38.1007 42.987C38.1632 43.0182 38.3401 43.1535 38.6939 43.6946C38.9956 44.1524 39.3234 44.7507 39.6772 45.3855C40.6866 47.2013 41.3369 48.3147 41.9613 48.3616C42.1486 48.3772 42.3203 48.2887 42.4451 48.1274C42.851 47.5967 43.0851 45.9058 40.4628 37.3938C40.4212 37.2586 40.2755 37.1805 40.1403 37.2221C40.005 37.2638 39.9269 37.4095 39.9686 37.5447C40.9207 40.6457 41.5763 43.0962 41.9092 44.8288C42.3307 47.014 42.1694 47.6384 42.0341 47.8152C42.0133 47.8413 42.0029 47.8465 42.0029 47.8465C42.0029 47.8465 41.8104 47.8569 41.2849 47.0868C40.9259 46.5561 40.5253 45.8329 40.1351 45.1358C39.1881 43.4292 38.621 42.4615 38.0851 42.4615C38.0799 42.4615 38.0747 42.4615 38.0747 42.4615C37.9811 42.4615 37.851 42.4979 37.7313 42.6332C37.3775 43.039 37.0653 44.449 37.825 51.8371C37.8302 51.9672 37.9446 52.066 38.0747 52.066Z" fill="#2E2E30"/>
</g>
<g id="Path-29-Copy">
<path id="Vector_12" d="M10.4263 55.7233C13.5948 55.7233 17.2368 55.0886 21.1078 53.8607C28.1473 51.6182 33.0016 52.9241 37.2836 54.074C38.6208 54.433 39.8851 54.7712 41.1286 54.9741C42.2628 55.1614 43.1681 54.8336 43.8132 54.0064C45.1452 52.305 44.9943 48.9491 44.6353 46.4309C44.1514 43.0542 43.0068 39.1417 41.4095 35.4216C39.5261 31.0304 39.1775 25.5673 38.8445 20.2864C38.4699 14.3863 38.1213 8.81398 35.5458 5.73387C33.9434 3.814 31.9975 2.3884 29.7654 1.49871C27.5386 0.609012 24.9632 0.234403 22.1172 0.369678C22.0183 0.374881 21.9299 0.437316 21.8882 0.525765C21.8466 0.619417 21.8674 0.723475 21.9299 0.796316C22.8924 1.90974 23.2306 2.83585 22.9392 3.55385C22.6427 4.27185 22.0912 4.62045 21.2535 4.62045C21.1754 4.62045 21.1026 4.65687 21.0506 4.7141C20.9985 4.77653 20.9829 4.85458 20.9985 4.93262C21.2119 5.95239 21.1078 6.71721 20.6916 7.20629C20.2285 7.75259 19.3336 8.00233 18.0433 7.9451C17.9288 7.93989 17.8248 8.00753 17.7884 8.11679C17.3825 9.23021 16.831 9.87537 16.1494 10.0367C15.2441 10.25 14.0267 9.64124 12.5386 8.23126C12.4762 8.17402 12.3877 8.14801 12.3045 8.16882C12.2213 8.18963 12.1484 8.24687 12.1172 8.33011C12.0912 8.40295 11.4148 10.1615 10.9882 12.6849C10.5927 15.021 10.3534 18.4602 11.4564 21.5923C12.4658 24.4643 9.0631 30.4008 5.78007 36.1396C2.31494 42.1906 -0.957687 47.9033 0.259792 50.7806C1.39923 53.4757 4.10994 55.1406 8.10576 55.5828C8.83937 55.6817 9.6146 55.7233 10.4263 55.7233ZM28.5948 52.1229C26.0818 52.1229 23.5636 52.5339 20.9465 53.3664C16.2275 54.87 11.6802 55.4788 8.15259 55.0834C4.35447 54.6567 1.78424 53.1062 0.728054 50.5932C-0.385368 47.9502 2.9705 42.0865 6.22231 36.4154C7.88204 33.5225 9.59379 30.5257 10.7332 27.9294C12.0548 24.9222 12.4398 22.8566 11.9403 21.4362C10.8789 18.4133 11.113 15.0679 11.4928 12.7994C11.7998 10.9836 12.2473 9.54239 12.4658 8.89723C13.7457 10.0523 14.8331 10.6194 15.7696 10.6194C15.9413 10.6194 16.1078 10.5986 16.2639 10.5622C17.086 10.3696 17.7363 9.67246 18.2046 8.4914C19.5677 8.52262 20.5355 8.21045 21.087 7.56529C21.5657 7.00337 21.7269 6.19172 21.5605 5.14594C22.4554 5.06269 23.0797 4.59963 23.4179 3.76717C23.7509 2.95032 23.4959 1.98258 22.6583 0.879562C27.9444 0.739084 32.1484 2.48205 35.1452 6.07205C37.6062 9.01689 37.9548 14.5112 38.3242 20.3228C38.6624 25.6454 39.011 31.1552 40.9308 35.6297C42.5125 39.3134 43.6468 43.1791 44.1202 46.509C44.6093 49.9221 44.3543 52.4715 43.4022 53.689C42.8767 54.3654 42.1587 54.6151 41.2118 54.459C39.9995 54.2613 38.7456 53.9231 37.4189 53.5693C35.3377 53.0074 32.9756 52.3726 30.2857 52.1801C29.7186 52.1437 29.1567 52.1229 28.5948 52.1229Z" fill="#2E2E30"/>
</g>
<g id="Path-31">
<path id="Vector_13" d="M20.4367 5.16107C20.5356 5.16107 20.6344 5.10384 20.676 4.99978C20.7333 4.86971 20.6708 4.71362 20.5356 4.65639L18.1318 3.64182C18.0018 3.58459 17.8457 3.64703 17.7884 3.7823C17.7312 3.91238 17.7936 4.06846 17.9289 4.12569L20.3327 5.14026C20.3691 5.15066 20.4003 5.16107 20.4367 5.16107Z" fill="#2E2E30"/>
</g>
<g id="Path-32">
<path id="Vector_14" d="M19.2349 7.21641C19.3493 7.21641 19.4586 7.13837 19.4846 7.0187C19.521 6.87822 19.4378 6.73774 19.2973 6.70132L17.0132 6.1186L15.9779 4.52651C15.8998 4.40684 15.7385 4.37042 15.6189 4.44847C15.4992 4.52651 15.4628 4.6878 15.5408 4.80747L16.6855 6.57125L19.1672 7.2008C19.1933 7.21641 19.2141 7.21641 19.2349 7.21641Z" fill="#2E2E30"/>
</g>
<g id="Path-33">
<path id="Vector_15" d="M16.7318 8.33039C16.8671 8.33039 16.9815 8.22633 16.992 8.09105L17.1116 6.3741C17.122 6.22841 17.0128 6.10875 16.8723 6.09834C16.7318 6.08794 16.6069 6.1972 16.5965 6.33768L16.4769 8.05463C16.4665 8.20031 16.5757 8.31998 16.7162 8.33039C16.7162 8.33039 16.7214 8.33039 16.7318 8.33039Z" fill="#2E2E30"/>
</g>
</g>
<g id="Group-13">
<g id="Oval">
<path id="Vector_16" d="M18.0326 5.03641C16.6418 5.03641 15.5144 3.90897 15.5144 2.5182C15.5144 1.12744 16.6418 0 18.0326 0C19.4233 0 20.5508 1.12744 20.5508 2.5182C20.5508 3.90897 19.4233 5.03641 18.0326 5.03641Z" fill="white"/>
</g>
<g id="Oval-Copy-4">
<path id="Vector_17" d="M18.6985 4.03752C17.8595 4.03752 17.1793 3.35733 17.1793 2.51827C17.1793 1.67921 17.8595 0.999023 18.6985 0.999023C19.5376 0.999023 20.2178 1.67921 20.2178 2.51827C20.2178 3.35733 19.5376 4.03752 18.6985 4.03752Z" fill="#2E2E30"/>
</g>
</g>
<g id="Path-34">
<path id="Vector_18" fill-rule="evenodd" clip-rule="evenodd" d="M22.9131 11.7225C21.399 10.5206 19.1254 10.9785 19.1254 13.6944C19.1254 16.4103 19.552 20.9681 22.6373 20.4113C25.7227 19.8598 24.4271 12.9192 22.9131 11.7225Z" fill="#2E2E30"/>
</g>
<g id="Path-34-Copy">
<path id="Vector_19" fill-rule="evenodd" clip-rule="evenodd" d="M31.4711 11.8728C30.0871 10.5253 27.777 10.7386 27.4909 13.4337C27.2099 16.1288 27.1579 20.6917 30.29 20.468C33.4222 20.2443 32.855 13.2204 31.4711 11.8728Z" fill="#2E2E30"/>
</g>
<g id="Path-35">
<path id="Vector_20" d="M26.0968 21.5343C26.6795 21.5343 27.2726 21.3314 27.871 20.9255C27.9906 20.8423 28.0219 20.681 27.9386 20.5665C27.8554 20.4469 27.6941 20.4156 27.5796 20.4989C26.5702 21.1857 25.6181 21.1857 24.6712 20.5041C24.5567 20.4208 24.3902 20.4469 24.307 20.5613C24.2237 20.6758 24.2498 20.8423 24.3642 20.9255C24.9313 21.3262 25.5141 21.5343 26.0968 21.5343Z" fill="#2E2E30"/>
</g>
<g id="Group-12">
<g id="Path-37_1_">
<path id="Vector_21" fill-rule="evenodd" clip-rule="evenodd" d="M17.0434 25.4009C18.0787 31.2021 20.0975 33.8504 23.0943 33.3405C27.5896 32.5809 23.3232 21.9254 29.7072 23.71L29.3066 27.711C30.7114 33.7776 29.9049 37.7942 26.8768 39.7609C22.3347 42.7109 17.2983 39.6412 14.7541 34.4487L17.0434 25.4009Z" fill="white"/>
</g>
<g id="Path_2_">
<path id="Vector_22" d="M22.3916 33.6631C22.6361 33.6631 22.8806 33.6422 23.1408 33.6006C24.1502 33.4289 24.8421 32.7994 25.2688 31.6703C25.6278 30.7182 25.7526 29.5215 25.8723 28.3613C26.0596 26.5975 26.2469 24.7765 27.2615 24.0897C27.813 23.7151 28.5934 23.6735 29.6392 23.9649C29.7797 24.0013 29.9202 23.9232 29.9618 23.7828C29.9982 23.6423 29.9202 23.5018 29.7797 23.4602C28.5778 23.122 27.6569 23.1896 26.9701 23.6527C25.7578 24.4799 25.5497 26.4206 25.352 28.3041C25.1127 30.6038 24.8838 32.7734 23.0523 33.0855C21.6424 33.3249 20.4977 32.8306 19.5404 31.5767C18.5622 30.2916 17.8078 28.2 17.2979 25.354C17.2719 25.2135 17.1366 25.1199 16.9962 25.1459C16.8557 25.1719 16.762 25.3072 16.7881 25.4477C17.3135 28.3769 18.0992 30.5465 19.1294 31.8941C20.0243 33.0699 21.1221 33.6631 22.3916 33.6631Z" fill="#2E2E30"/>
</g>
<g id="Path_3_">
<path id="Vector_23" d="M23.1616 41.1708C24.4936 41.1708 25.7995 40.7702 27.017 39.9793C28.583 38.9596 29.5924 37.3935 30.0086 35.3227C30.4197 33.2884 30.2688 30.7026 29.5612 27.6485C29.53 27.508 29.3895 27.4195 29.249 27.456C29.1085 27.4872 29.0201 27.6277 29.0565 27.7681C29.7485 30.7494 29.8994 33.2572 29.5039 35.2239C29.1137 37.1542 28.1824 38.6058 26.7412 39.5475C25.0867 40.6089 23.2657 40.9107 21.4655 40.4164C18.9317 39.7192 16.5071 37.4455 14.9827 34.3342C14.9202 34.2041 14.7641 34.1521 14.6341 34.2145C14.504 34.277 14.452 34.433 14.5144 34.5631C15.2896 36.1396 16.3094 37.5496 17.4592 38.637C18.6455 39.7556 19.9826 40.5413 21.325 40.9159C21.9389 41.0876 22.5529 41.1708 23.1616 41.1708Z" fill="#2E2E30"/>
</g>
<g id="Path-38_1_">
<path id="Vector_24" d="M31.0809 24.3131C31.1954 24.3131 31.3046 24.2351 31.3306 24.1154C31.3671 23.9749 31.2786 23.8345 31.1433 23.798C30.519 23.6419 29.6293 23.4598 28.4951 23.2465C28.3546 23.2205 28.2193 23.3142 28.1933 23.4546C28.1673 23.5951 28.2609 23.7304 28.4014 23.7564C29.5252 23.9697 30.4045 24.157 31.0185 24.3079C31.0393 24.3131 31.0601 24.3131 31.0809 24.3131Z" fill="#2E2E30"/>
</g>
<g id="Path-39_1_">
<path id="Vector_25" d="M30.816 25.6345C30.8888 25.6345 30.9617 25.6033 31.0137 25.5409C31.1074 25.4316 31.0917 25.2651 30.9825 25.1767C29.7338 24.1101 28.969 24.2714 28.8909 24.2922L29.0262 24.7968H29.021C29.0262 24.7968 29.6141 24.6876 30.6495 25.5721C30.6963 25.6137 30.7536 25.6345 30.816 25.6345Z" fill="#2E2E30"/>
</g>
<g id="Path-40_1_">
<path id="Vector_26" d="M30.2072 26.7848C30.228 26.7848 30.2488 26.7796 30.2749 26.7744C30.4153 26.738 30.4986 26.5975 30.4622 26.4571C30.2332 25.5726 29.6349 25.3853 29.177 25.3853C29.0314 25.3853 28.9169 25.4997 28.9169 25.6454C28.9169 25.7911 29.0314 25.9055 29.177 25.9055C29.5933 25.9055 29.8326 26.1137 29.9575 26.5871C29.9887 26.7068 30.0927 26.7848 30.2072 26.7848Z" fill="#2E2E30"/>
</g>
</g>
</g>
</svg>
