<svg width="49" height="125" viewBox="0 0 49 125" fill="none" xmlns="http://www.w3.org/2000/svg">
<g id="Group-4_1_">
<g id="Group-3-Copy-2_1_">
<g id="Path-13">
<path id="Vector" fill-rule="evenodd" clip-rule="evenodd" d="M32.4138 112.326H38.577V116.205C38.577 117.254 39.3002 118.169 40.3178 118.419C41.5914 118.726 46.641 120.32 45.393 123.219C45.1562 123.776 31.7482 123.507 31.5434 123.219C31.0314 122.496 31.3194 118.867 32.4138 112.326Z" fill="white"/>
</g>
<g id="Path-13-Copy-4">
<path id="Vector_2" fill-rule="evenodd" clip-rule="evenodd" d="M38.5776 116.16V116.205C38.5776 117.255 39.3008 118.17 40.3184 118.419C41.592 118.727 46.6416 120.32 45.3936 123.219C45.1568 123.776 31.7488 123.507 31.544 123.219C31.2944 122.867 31.384 120.698 31.8128 116.723L38.5776 116.16Z" fill="#2E2E30"/>
</g>
<g id="Path-13-Copy-2">
<path id="Vector_3" d="M39.9599 123.866C41.8608 123.866 43.6911 123.827 44.6895 123.718C45.3615 123.648 45.5919 123.558 45.688 123.347C45.9951 122.63 45.9823 121.926 45.6495 121.254C44.6127 119.181 40.8239 118.208 40.3951 118.106C39.5119 117.894 38.8975 117.107 38.8975 116.198V112.006H32.1455L32.1007 112.275C30.6031 121.184 30.9167 122.893 31.2879 123.405C31.3903 123.552 31.4415 123.622 33.2527 123.712C34.2703 123.763 35.6335 123.808 37.0927 123.834C38.0015 123.853 38.9871 123.866 39.9599 123.866ZM45.1375 123.008C44.6767 123.149 42.4751 123.264 38.4111 123.219C35.0383 123.187 32.3247 123.059 31.7679 122.957C31.6655 122.72 31.5375 122.022 31.6975 119.981C31.8319 118.234 32.1711 115.763 32.6895 112.646H38.2575V116.205C38.2575 117.408 39.0767 118.445 40.2479 118.733C41.5983 119.059 44.344 120.07 45.08 121.549C45.3103 122.016 45.3295 122.496 45.1375 123.008Z" fill="#2E2E30"/>
</g>
<g id="Group-5_1_">
<g id="Path-13-Copy">
<path id="Vector_4" fill-rule="evenodd" clip-rule="evenodd" d="M39.9787 115.193C40.6315 115.532 40.3371 117.747 41.7835 118.099C43.2299 118.451 48.9835 120.262 47.5627 123.571C47.2875 124.204 31.9851 123.904 31.7867 123.571C31.2747 122.732 31.1851 120.838 31.5051 117.888L35.3451 117.612C35.8635 117.574 36.3179 117.254 36.5291 116.78C36.8939 115.974 37.2715 115.443 37.6747 115.193C38.4427 114.713 39.3259 114.854 39.9787 115.193Z" fill="white"/>
</g>
<g id="Path-21">
<path id="Vector_5" d="M42.3919 122.835C42.5711 122.835 42.7119 122.694 42.7119 122.515C42.7119 121.363 42.9615 120.556 43.4543 120.121C43.8575 119.769 44.4527 119.635 45.2271 119.731C45.3999 119.75 45.5599 119.628 45.5855 119.456C45.6111 119.283 45.4831 119.123 45.3103 119.097C44.3439 118.976 43.5823 119.161 43.0383 119.641C42.4047 120.204 42.0783 121.171 42.0783 122.515C42.0719 122.688 42.2127 122.835 42.3919 122.835Z" fill="#2E2E30"/>
</g>
<g id="Group-6_1_">
<g id="Path-20">
<path id="Vector_6" d="M39.13 119.139C39.1748 119.139 39.226 119.127 39.2708 119.107L41.0884 118.218C41.2484 118.141 41.3124 117.949 41.2356 117.789C41.1588 117.629 40.9668 117.565 40.8068 117.642L38.9892 118.531C38.8292 118.608 38.7652 118.8 38.842 118.96C38.8996 119.069 39.0148 119.139 39.13 119.139Z" fill="#2E2E30"/>
</g>
<g id="Path-20-Copy">
<path id="Vector_7" d="M40.4354 119.62C40.4802 119.62 40.525 119.613 40.5698 119.594L41.6194 119.12C41.7794 119.05 41.8498 118.858 41.7794 118.698C41.709 118.538 41.517 118.468 41.357 118.538L40.3074 119.012C40.1474 119.082 40.077 119.274 40.1474 119.434C40.1986 119.549 40.3138 119.62 40.4354 119.62Z" fill="#2E2E30"/>
</g>
</g>
<g id="Path-19">
<path id="Vector_8" d="M41.918 123.167C43.5436 123.167 45.1756 123.142 46.8076 123.084C46.9868 123.078 47.1212 122.931 47.1148 122.751C47.1084 122.572 46.9612 122.438 46.782 122.444C41.886 122.611 37.0028 122.527 32.2668 122.195C32.0876 122.182 31.9404 122.316 31.9276 122.489C31.9148 122.668 32.0492 122.815 32.222 122.828C35.4028 123.052 38.6476 123.167 41.918 123.167Z" fill="#2E2E30"/>
</g>
<g id="Path-13-Copy-3">
<path id="Vector_9" d="M41.2332 124.262C43.1276 124.262 44.9644 124.23 46.1932 124.14C47.5052 124.051 47.7548 123.935 47.8572 123.692C48.2028 122.886 48.19 122.099 47.8188 121.35C46.6476 119.007 42.3468 117.9 41.8604 117.785C41.214 117.631 41.0028 117.011 40.7788 116.147C40.6316 115.59 40.5036 115.103 40.126 114.905C39.2364 114.444 38.2572 114.444 37.502 114.918C37.0476 115.206 36.6316 115.769 36.2348 116.646C36.0684 117.011 35.7228 117.254 35.3196 117.286L31.2236 117.58L31.1852 117.836C30.6604 120.895 30.6732 122.828 31.23 123.737C31.3324 123.903 31.3772 123.98 33.3036 124.083C34.3724 124.14 35.8444 124.191 37.438 124.223C38.6092 124.243 39.934 124.262 41.2332 124.262ZM47.3068 123.359C46.814 123.519 44.2604 123.66 39.4732 123.615C35.4988 123.577 32.3308 123.43 31.7292 123.315C31.4412 122.745 31.2492 121.388 31.7804 118.195L35.3708 117.932C36.0044 117.887 36.5612 117.497 36.8236 116.915C37.1564 116.166 37.502 115.679 37.8412 115.468C38.6476 114.963 39.4988 115.308 39.8316 115.481C39.9596 115.545 40.0748 115.993 40.1644 116.313C40.3692 117.087 40.6444 118.15 41.7132 118.412C41.8924 118.457 46.1868 119.519 47.2492 121.638C47.5244 122.195 47.5436 122.758 47.3068 123.359Z" fill="#2E2E30"/>
</g>
</g>
</g>
<g id="Group-3-Copy-3">
<g id="Path-13_1_">
<path id="Vector_10" fill-rule="evenodd" clip-rule="evenodd" d="M8.54173 112.326H14.7049V116.205C14.7049 117.254 15.4281 118.169 16.4457 118.419C17.7193 118.726 22.7689 120.32 21.5209 123.219C21.2841 123.776 7.87613 123.507 7.67133 123.219C7.15933 122.496 7.44733 118.867 8.54173 112.326Z" fill="white"/>
</g>
<g id="Path-13-Copy-4_1_">
<path id="Vector_11" fill-rule="evenodd" clip-rule="evenodd" d="M14.7055 116.16V116.205C14.7055 117.255 15.4287 118.17 16.4463 118.419C17.7199 118.727 22.7695 120.32 21.5215 123.219C21.2847 123.776 7.87673 123.507 7.67193 123.219C7.42233 122.867 7.51193 120.698 7.94073 116.723L14.7055 116.16Z" fill="#2E2E30"/>
</g>
<g id="Path-13-Copy-2_1_">
<path id="Vector_12" d="M16.0879 123.866C17.9887 123.866 19.8191 123.827 20.8175 123.718C21.4895 123.648 21.7199 123.558 21.8159 123.347C22.1231 122.63 22.1103 121.926 21.7775 121.254C20.7407 119.181 16.9519 118.208 16.5231 118.106C15.6399 117.894 15.0255 117.107 15.0255 116.198V112.006H8.27348L8.22868 112.275C6.73108 121.184 7.04468 122.893 7.41588 123.405C7.51828 123.552 7.56948 123.622 9.38068 123.712C10.3983 123.763 11.7615 123.808 13.2207 123.834C14.1295 123.853 15.1151 123.866 16.0879 123.866ZM21.2655 123.008C20.8047 123.149 18.6031 123.264 14.5391 123.219C11.1663 123.187 8.45268 123.059 7.89588 122.957C7.79348 122.72 7.66548 122.022 7.82548 119.981C7.95988 118.234 8.29908 115.763 8.81748 112.646H14.3855V116.205C14.3855 117.408 15.2047 118.445 16.3759 118.733C17.7263 119.059 20.4719 120.07 21.2079 121.549C21.4383 122.016 21.4575 122.496 21.2655 123.008Z" fill="#2E2E30"/>
</g>
<g id="Group-5_2_">
<g id="Path-13-Copy_1_">
<path id="Vector_13" fill-rule="evenodd" clip-rule="evenodd" d="M16.1066 115.193C16.7594 115.532 16.465 117.747 17.9114 118.099C19.3578 118.451 25.1114 120.262 23.6906 123.571C23.4154 124.204 8.11303 123.904 7.91463 123.571C7.40263 122.732 7.31303 120.838 7.63303 117.888L11.473 117.612C11.9914 117.574 12.4458 117.254 12.657 116.78C13.0218 115.974 13.3994 115.443 13.8026 115.193C14.5706 114.713 15.4538 114.854 16.1066 115.193Z" fill="white"/>
</g>
<g id="Path-21_1_">
<path id="Vector_14" d="M18.5199 122.835C18.6991 122.835 18.8399 122.694 18.8399 122.515C18.8399 121.363 19.0895 120.556 19.5823 120.121C19.9855 119.769 20.5807 119.635 21.3551 119.731C21.5279 119.75 21.6879 119.628 21.7135 119.456C21.7391 119.283 21.6111 119.123 21.4383 119.097C20.4719 118.976 19.7103 119.161 19.1663 119.641C18.5327 120.204 18.2063 121.171 18.2063 122.515C18.1999 122.688 18.3407 122.835 18.5199 122.835Z" fill="#2E2E30"/>
</g>
<g id="Group-6_2_">
<g id="Path-20_1_">
<path id="Vector_15" d="M15.2579 119.139C15.3027 119.139 15.3539 119.127 15.3987 119.107L17.2163 118.218C17.3763 118.141 17.4403 117.949 17.3635 117.789C17.2867 117.629 17.0947 117.565 16.9347 117.642L15.1171 118.531C14.9571 118.608 14.8931 118.8 14.9699 118.96C15.0275 119.069 15.1427 119.139 15.2579 119.139Z" fill="#2E2E30"/>
</g>
<g id="Path-20-Copy_1_">
<path id="Vector_16" d="M16.5633 119.62C16.6081 119.62 16.6529 119.613 16.6977 119.594L17.7473 119.12C17.9073 119.05 17.9777 118.858 17.9073 118.698C17.8369 118.538 17.6449 118.468 17.4849 118.538L16.4353 119.012C16.2753 119.082 16.2049 119.274 16.2753 119.434C16.3265 119.549 16.4417 119.62 16.5633 119.62Z" fill="#2E2E30"/>
</g>
</g>
<g id="Path-19_1_">
<path id="Vector_17" d="M18.0459 123.167C19.6715 123.167 21.3035 123.142 22.9355 123.084C23.1147 123.078 23.2491 122.931 23.2427 122.751C23.2363 122.572 23.0891 122.438 22.9099 122.444C18.0139 122.611 13.1307 122.527 8.39473 122.195C8.21553 122.182 8.06833 122.316 8.05553 122.489C8.04273 122.668 8.17713 122.815 8.34993 122.828C11.5307 123.052 14.7755 123.167 18.0459 123.167Z" fill="#2E2E30"/>
</g>
<g id="Path-13-Copy-3_1_">
<path id="Vector_18" d="M17.3612 124.262C19.2556 124.262 21.0924 124.23 22.3212 124.14C23.6332 124.051 23.8828 123.935 23.9852 123.692C24.3308 122.886 24.318 122.099 23.9468 121.35C22.7756 119.007 18.4748 117.9 17.9884 117.785C17.342 117.631 17.1308 117.011 16.9068 116.147C16.7596 115.59 16.6316 115.103 16.254 114.905C15.3644 114.444 14.3852 114.444 13.63 114.918C13.1756 115.206 12.7596 115.769 12.3628 116.646C12.1964 117.011 11.8508 117.254 11.4476 117.286L7.35158 117.58L7.31318 117.836C6.78838 120.895 6.80118 122.828 7.35798 123.737C7.46038 123.903 7.50517 123.98 9.43157 124.083C10.5004 124.14 11.9724 124.191 13.566 124.223C14.7372 124.243 16.062 124.262 17.3612 124.262ZM23.4348 123.359C22.942 123.519 20.3884 123.66 15.6012 123.615C11.6268 123.577 8.45877 123.43 7.85717 123.315C7.56918 122.745 7.37718 121.388 7.90837 118.195L11.4988 117.932C12.1324 117.887 12.6892 117.497 12.9516 116.915C13.2844 116.166 13.63 115.679 13.9692 115.468C14.7756 114.963 15.6268 115.308 15.9596 115.481C16.0876 115.545 16.2028 115.993 16.2924 116.313C16.4972 117.087 16.7724 118.15 17.8412 118.412C18.0204 118.457 22.3148 119.519 23.3772 121.638C23.6524 122.195 23.6716 122.758 23.4348 123.359Z" fill="#2E2E30"/>
</g>
</g>
</g>
<g id="Group-11">
<g id="Group_2_">
<g id="Path-127">
<path id="Vector_19" fill-rule="evenodd" clip-rule="evenodd" d="M22.8868 59.5264C23.4948 73.4272 23.4948 82.8544 22.8868 87.8144C22.2788 92.7744 20.4932 101.261 17.5236 113.286H4.58917C8.08998 94.7456 9.84357 84.6016 9.84357 82.8672C9.84357 80.2624 7.91078 63.4368 11.3412 59.5264L18.8228 59.3984L22.8868 59.5264Z" fill="black"/>
</g>
<g id="Path-128">
<path id="Vector_20" fill-rule="evenodd" clip-rule="evenodd" d="M31.5907 57.5425C38.5603 68.9921 42.4323 77.3697 43.2003 82.6817C43.9683 87.9937 43.2643 98.1953 41.0947 113.286H28.7363C30.5219 95.9361 30.8931 86.0545 29.8499 83.6481C28.8067 81.2417 25.3827 73.2161 19.5651 59.5521L31.5907 57.5425Z" fill="black"/>
</g>
<g id="Path-129">
<path id="Vector_21" d="M23.3411 71.3023C23.5203 71.3023 23.6611 71.1615 23.6611 70.9823V61.8239C23.6611 61.6447 23.5203 61.5039 23.3411 61.5039C23.1619 61.5039 23.0211 61.6447 23.0211 61.8239V70.9823C23.0211 71.1551 23.1619 71.3023 23.3411 71.3023Z" fill="white"/>
</g>
</g>
<g id="Group-3_1_">
<g id="Path-6">
<path id="Vector_22" fill-rule="evenodd" clip-rule="evenodd" d="M14.6998 26.9502L13.6502 32.4286C11.007 33.363 9.04215 34.259 7.76855 35.1102C25.1318 36.6718 32.7158 36.755 30.5142 35.3662C28.319 33.9774 25.055 32.755 20.7222 31.699V26.963L14.6998 26.9502Z" fill="white"/>
</g>
<g id="Path-16">
<path id="Vector_23" d="M28.735 47.7632C28.7734 47.7632 28.8182 47.7568 28.8566 47.7376C29.023 47.6736 29.0998 47.4816 29.0358 47.3216L27.519 43.584C27.455 43.4176 27.263 43.3408 27.103 43.4048C26.9366 43.4688 26.8598 43.6608 26.9238 43.8208L28.4406 47.5584C28.4918 47.6864 28.607 47.7632 28.735 47.7632Z" fill="#2E2E30"/>
</g>
<g id="Oval-Copy-2">
<path id="Vector_24" d="M22.2582 21.4272C23.5377 21.4272 24.575 22.668 24.575 24.1984C24.575 25.7289 23.5377 26.9696 22.2582 26.9696C20.9787 26.9696 19.9414 25.7289 19.9414 24.1984C19.9414 22.668 20.9787 21.4272 22.2582 21.4272Z" fill="#2E2E30"/>
</g>
<g id="Path_8_">
<path id="Vector_25" fill-rule="evenodd" clip-rule="evenodd" d="M14.8274 20.7104H22.181V22.7712C22.3602 25.3632 22.085 27.1872 21.349 28.2496C20.2482 29.8368 16.0882 30.2528 14.6034 26.6624C13.6178 24.2624 13.6946 22.2784 14.8274 20.7104Z" fill="white"/>
</g>
<g id="Path-8">
<path id="Vector_26" d="M19.704 27.2129C19.992 27.2129 20.2992 27.1681 20.6192 27.0849C20.792 27.0401 20.888 26.8609 20.8432 26.6945C20.7984 26.5217 20.6192 26.4257 20.4528 26.4705C19.2752 26.7905 18.4624 26.4257 17.8992 25.3249C17.816 25.1649 17.624 25.1073 17.4704 25.1841C17.3104 25.2673 17.2528 25.4593 17.3296 25.6129C17.8736 26.6689 18.6864 27.2129 19.704 27.2129Z" fill="#2E2E30"/>
</g>
<g id="Group-7">
<g id="Path-Copy-4">
<path id="Vector_27" d="M16.8766 24.1182C17.0558 24.1182 17.1966 23.9774 17.1966 23.7982C17.1966 23.5678 17.3822 23.3822 17.6126 23.3822C17.843 23.3822 18.0286 23.5678 18.0286 23.7982C18.0286 23.9774 18.1694 24.1182 18.3486 24.1182C18.5278 24.1182 18.6686 23.9774 18.6686 23.7982C18.6686 23.2158 18.195 22.7422 17.6126 22.7422C17.0302 22.7422 16.5566 23.2158 16.5566 23.7982C16.5566 23.9774 16.6974 24.1182 16.8766 24.1182Z" fill="#2E2E30"/>
</g>
<g id="Path-Copy-5">
<path id="Vector_28" d="M20.7809 24.1182C20.9601 24.1182 21.1009 23.9774 21.1009 23.7982C21.1009 23.5678 21.2865 23.3822 21.5169 23.3822C21.7473 23.3822 21.9329 23.5678 21.9329 23.7982C21.9329 23.9774 22.0737 24.1182 22.2529 24.1182C22.4321 24.1182 22.5729 23.9774 22.5729 23.7982C22.5729 23.2158 22.0993 22.7422 21.5169 22.7422C20.9345 22.7422 20.4609 23.2158 20.4609 23.7982C20.4609 23.9774 20.6017 24.1182 20.7809 24.1182Z" fill="#2E2E30"/>
</g>
</g>
<g id="Path-2">
<path id="Vector_29" fill-rule="evenodd" clip-rule="evenodd" d="M15.1026 24.8446L15.6786 21.6766C19.8578 23.0014 23.1026 22.675 25.4002 20.7102C28.8498 17.7598 26.4818 13.235 21.9506 13.907C18.9298 14.355 16.645 15.2894 15.1026 16.7102C14.1554 16.467 13.2722 16.9598 12.4594 18.1822C11.2434 20.0126 11.0002 22.6494 12.4594 26.0414C13.4322 28.2878 14.309 27.8974 15.1026 24.8446Z" fill="#2E2E30"/>
</g>
<g id="Group-8">
<g id="Path-24">
<path id="Vector_30" d="M25.5802 17.4149C25.6058 17.4149 25.6314 17.4085 25.6634 17.4021C25.8362 17.3573 25.9386 17.1845 25.8938 17.0117C25.5738 15.7957 24.9594 15.0405 24.0698 14.7781C23.2186 14.5221 22.1178 14.6309 20.7162 15.0981C20.5498 15.1557 20.4602 15.3349 20.5114 15.5013C20.569 15.6677 20.7482 15.7573 20.9146 15.7061C22.1754 15.2837 23.1738 15.1813 23.8842 15.3925C24.5562 15.5909 25.0106 16.1733 25.273 17.1781C25.3114 17.3189 25.4394 17.4149 25.5802 17.4149Z" fill="white"/>
</g>
<g id="Oval_3_">
<path id="Vector_31" d="M25.4328 18.0869C25.6449 18.0869 25.8168 18.2617 25.8168 18.4773C25.8168 18.6929 25.6449 18.8677 25.4328 18.8677C25.2208 18.8677 25.0488 18.6929 25.0488 18.4773C25.0488 18.2617 25.2208 18.0869 25.4328 18.0869Z" fill="white"/>
</g>
</g>
<g id="Path-3">
<path id="Vector_32" d="M13.2919 22.656C13.3879 22.656 13.4775 22.624 13.5607 22.5664C13.7591 22.4192 13.7975 22.1376 13.6503 21.9392L12.4407 20.32C11.3655 18.88 11.6535 16.832 13.0935 15.7568C13.8167 15.2192 14.7383 14.9952 15.6215 15.1552C15.8647 15.2 16.0951 15.0336 16.1399 14.7904C16.1847 14.5472 16.0183 14.3168 15.7751 14.272C14.6423 14.0672 13.4711 14.3488 12.5495 15.04C10.7127 16.416 10.3415 19.0208 11.7175 20.8576L12.9271 22.4768C13.0167 22.592 13.1511 22.656 13.2919 22.656Z" fill="#AFF164"/>
</g>
<g id="Path-4">
<path id="Vector_33" d="M19.5441 25.9009C19.5505 25.9009 19.5569 25.9009 19.5633 25.9009C20.0433 25.8689 20.6897 25.7729 20.8433 25.2865C20.9265 25.0113 20.8689 24.6337 19.2497 23.1425C19.1217 23.0209 18.9169 23.0337 18.7953 23.1617C18.6737 23.2897 18.6865 23.4945 18.8145 23.6161C19.8961 24.6081 20.1457 24.9921 20.2097 25.1201C20.1521 25.1585 19.9793 25.2353 19.5249 25.2673C19.3457 25.2801 19.2177 25.4273 19.2241 25.6065C19.2369 25.7729 19.3777 25.9009 19.5441 25.9009Z" fill="#2E2E30"/>
</g>
<g id="Path-5">
<path id="Vector_34" d="M16.6646 21.4462C16.7222 21.4462 16.7734 21.4142 16.8054 21.363C16.8246 21.331 17.2086 20.6782 18.015 21.0238C18.0982 21.0558 18.1878 21.0238 18.2262 20.9406C18.2582 20.8574 18.2262 20.7678 18.143 20.7294C17.279 20.3646 16.7094 20.883 16.5302 21.2094C16.4854 21.2862 16.5174 21.3822 16.5942 21.427C16.6134 21.4398 16.639 21.4462 16.6646 21.4462Z" fill="#2E2E30"/>
</g>
<g id="Path-5-Copy">
<path id="Vector_35" d="M21.9442 21.5614C21.9698 21.5614 21.9954 21.555 22.021 21.5422C22.0978 21.4974 22.1234 21.4014 22.085 21.3246C21.9058 20.9982 21.3362 20.4798 20.4722 20.8446C20.389 20.8766 20.3506 20.9726 20.389 21.0558C20.421 21.139 20.517 21.1774 20.6002 21.139C21.4066 20.7934 21.7906 21.4526 21.8098 21.4782C21.8354 21.5358 21.893 21.5614 21.9442 21.5614Z" fill="#2E2E30"/>
</g>
<g id="Group-2_1_">
<g id="Group-26-Copy">
<g id="Group-Copy_1_">
<g id="Path-77">
<path id="Vector_36" fill-rule="evenodd" clip-rule="evenodd" d="M32.2734 31.8911C40.6894 23.3087 43.5566 14.2335 40.8814 4.66553H46.3342C49.7454 18.0415 47.147 28.9983 38.539 37.5295L32.2734 31.8911Z" fill="white"/>
</g>
<g id="Path_9_">
<path id="Vector_37" d="M38.5458 37.971L38.7634 37.7598C43.0898 33.4718 45.9506 28.499 47.2562 22.9886C48.5618 17.4846 48.357 11.2958 46.6418 4.58218C46.597 4.40938 46.4242 4.30698 46.2514 4.35178C46.0786 4.39658 45.9762 4.56938 46.021 4.74218C49.3618 17.8302 46.8402 28.7102 38.5266 37.0878L32.7346 31.8718C36.8306 27.635 39.6274 23.219 41.0418 18.739C42.4882 14.163 42.5394 9.39498 41.1954 4.57578C41.1506 4.40298 40.9714 4.30698 40.7986 4.35178C40.6258 4.39658 40.5298 4.57578 40.5746 4.74858C43.205 14.1566 40.3314 23.2126 32.0434 31.6606L31.8066 31.8974L38.5458 37.971Z" fill="#2E2E30"/>
</g>
<g id="Path-78">
<path id="Vector_38" d="M44.9525 5.50411C45.1189 5.50411 45.2597 5.37611 45.2725 5.20971C45.3749 3.86571 45.1573 2.53451 44.6325 1.26091C44.5621 1.09451 44.3765 1.01771 44.2165 1.08811C44.0501 1.15851 43.9733 1.34411 44.0437 1.50411C44.5301 2.68811 44.7349 3.91691 44.6389 5.15851C44.6261 5.33771 44.7605 5.49131 44.9333 5.50411C44.9397 5.50411 44.9461 5.50411 44.9525 5.50411Z" fill="#2E2E30"/>
</g>
<g id="Path-78-Copy">
<path id="Vector_39" d="M46.3349 5.2734C46.5013 5.2734 46.6421 5.1454 46.6549 4.979C46.7573 3.7694 46.5397 2.5662 46.0085 1.4206C45.9317 1.2606 45.7461 1.1902 45.5861 1.267C45.4261 1.3438 45.3557 1.5294 45.4325 1.6894C45.9189 2.739 46.1173 3.827 46.0213 4.9278C46.0085 5.107 46.1365 5.2606 46.3157 5.2734C46.3157 5.2734 46.3285 5.2734 46.3349 5.2734Z" fill="#2E2E30"/>
</g>
<g id="Path-79">
<path id="Vector_40" d="M41.4769 8.19183C41.5857 8.19183 41.6945 8.13423 41.7585 8.03183C41.8481 7.87823 41.7905 7.67983 41.6369 7.59663C40.5873 7.00143 39.9921 6.36783 39.8833 5.72783C39.7937 5.20943 40.0113 4.63343 40.5361 4.02543C40.6513 3.89103 40.6385 3.69263 40.5041 3.57103C40.3697 3.45583 40.1649 3.46863 40.0497 3.60303C39.3905 4.36463 39.1217 5.11343 39.2497 5.83023C39.3969 6.67503 40.0945 7.45583 41.3169 8.14703C41.3745 8.17903 41.4257 8.19183 41.4769 8.19183Z" fill="#2E2E30"/>
</g>
<g id="Path-80">
<path id="Vector_41" d="M41.8545 5.50391C42.0337 5.50391 42.1745 5.36311 42.1745 5.18391C42.1745 3.80151 41.6945 2.58551 40.7473 1.56791C40.6257 1.43991 40.4273 1.43351 40.2929 1.55511C40.1585 1.67671 40.1585 1.87511 40.2801 2.00951C41.1249 2.91831 41.5345 3.95511 41.5345 5.19031C41.5345 5.36311 41.6753 5.50391 41.8545 5.50391Z" fill="#2E2E30"/>
</g>
<g id="Path-81">
<path id="Vector_42" d="M43.6398 5.5039C43.7934 5.5039 43.9342 5.3887 43.9534 5.2287C44.1774 3.6735 43.659 1.9647 42.411 0.140697C42.3086 -0.00650267 42.1102 -0.0449027 41.963 0.0574974C41.8158 0.159897 41.7774 0.358297 41.8798 0.505497C43.0318 2.1887 43.5182 3.7439 43.3134 5.1391C43.2878 5.3119 43.4094 5.4783 43.5822 5.5039C43.6078 5.5039 43.627 5.5039 43.6398 5.5039Z" fill="#2E2E30"/>
</g>
</g>
<g id="Path-7">
<path id="Vector_43" fill-rule="evenodd" clip-rule="evenodd" d="M18.642 33.6573C19.9348 31.9229 22.4628 31.0525 26.2388 31.0525C30.226 31.0525 32.3188 28.8061 35.5636 28.1597L41.8164 38.9885L23.7364 44.9213L18.642 33.6573Z" fill="#AFF164"/>
</g>
</g>
<g id="Path-6-Copy">
<path id="Vector_44" fill-rule="evenodd" clip-rule="evenodd" d="M13.9184 29.4209L13.656 32.4225C11.0128 33.3569 9.04804 34.2529 7.77444 35.1041L7.52484 55.1745L5.68164 59.3793C8.38244 58.5857 13.0544 58.4641 19.7104 59.0017C26.3664 59.5457 30.3728 58.9889 31.736 57.3441C30.3728 55.1873 29.2336 53.3249 28.3184 51.7441V47.2385C27.4032 38.0545 26.1424 33.1905 24.536 32.6529C23.9088 32.4417 22.9104 32.1409 21.5344 31.7505L21.176 29.9265C20.7472 30.3809 19.48 30.5601 17.368 30.4705C15.256 30.3809 14.1104 30.0289 13.9184 29.4209Z" fill="#AFF164"/>
</g>
<g id="Path-16_1_">
<path id="Vector_45" d="M28.6764 47.7632C28.7148 47.7632 28.7596 47.7568 28.798 47.7376C28.9644 47.6736 29.0412 47.4816 28.9772 47.3216L27.4604 43.584C27.3964 43.4176 27.2044 43.3408 27.0444 43.4048C26.878 43.4688 26.8012 43.6608 26.8652 43.8208L28.382 47.5584C28.4268 47.6864 28.5484 47.7632 28.6764 47.7632Z" fill="#2E2E30"/>
</g>
</g>
<g id="Oval_4_">
<path id="Vector_46" d="M13.3813 21.9585C14.6608 21.9585 15.6981 23.1992 15.6981 24.7297C15.6981 26.2602 14.6608 27.5009 13.3813 27.5009C12.1017 27.5009 11.0645 26.2602 11.0645 24.7297C11.0645 23.1992 12.1017 21.9585 13.3813 21.9585Z" fill="#2E2E30"/>
</g>
<g id="Oval-Copy">
<path id="Vector_47" d="M13.1638 22.7139C14.1004 22.7139 14.8598 23.6222 14.8598 24.7427C14.8598 25.8631 14.1004 26.7715 13.1638 26.7715C12.2271 26.7715 11.4678 25.8631 11.4678 24.7427C11.4678 23.6222 12.2271 22.7139 13.1638 22.7139Z" fill="white"/>
<path id="Vector_48" d="M13.1636 26.9313C14.1876 26.9313 15.0196 25.9457 15.0196 24.7425C15.0196 23.5393 14.1876 22.5537 13.1636 22.5537C12.1396 22.5537 11.3076 23.5393 11.3076 24.7425C11.3076 25.9457 12.1396 26.9313 13.1636 26.9313ZM13.1636 22.8737C14.0084 22.8737 14.6996 23.7121 14.6996 24.7425C14.6996 25.7729 14.0084 26.6113 13.1636 26.6113C12.3188 26.6113 11.6276 25.7729 11.6276 24.7425C11.6276 23.7121 12.3188 22.8737 13.1636 22.8737Z" fill="#2E2E30"/>
</g>
<g id="Path-14">
<path id="Vector_49" d="M18.9622 29.7405C19.807 29.7405 20.5174 29.5421 21.0934 29.1453C22.0342 28.4925 22.6102 27.3149 22.8022 25.6381C22.8214 25.4653 22.6934 25.3053 22.5206 25.2861C22.3414 25.2669 22.1878 25.3949 22.1686 25.5677C22.0022 27.0525 21.5158 28.0765 20.735 28.6205C19.9414 29.1645 18.7958 29.2477 17.3238 28.8701C17.151 28.8253 16.9782 28.9277 16.9334 29.1005C16.8886 29.2733 16.991 29.4461 17.1638 29.4909C17.8166 29.6573 18.4182 29.7405 18.9622 29.7405Z" fill="#2E2E30"/>
</g>
<g id="Path-7_1_">
<path id="Vector_50" fill-rule="evenodd" clip-rule="evenodd" d="M7.9924 35.0337C1.6436 36.5697 -0.922802 41.0241 0.293198 48.3905L9.2468 45.7089L7.9924 35.0337Z" fill="#AFF164"/>
</g>
</g>
<g id="Group-10">
<g id="Rectangle-Copy-4">
<path id="Vector_51" fill-rule="evenodd" clip-rule="evenodd" d="M33.8618 32.4541H10.6042L14.4826 59.3981H37.7402L33.8618 32.4541Z" fill="#4321F5"/>
<path id="Vector_52" d="M14.4831 59.7183H37.7407C37.8367 59.7183 37.9199 59.6799 37.9839 59.6095C38.0415 59.5391 38.0735 59.4431 38.0607 59.3535L34.1823 32.4095C34.1567 32.2495 34.0223 32.1343 33.8623 32.1343H10.6047C10.5087 32.1343 10.4255 32.1727 10.3615 32.2431C10.3039 32.3135 10.2719 32.4095 10.2847 32.4991L14.1631 59.4431C14.1887 59.6031 14.3231 59.7183 14.4831 59.7183ZM37.3695 59.0783H14.7583L10.9759 32.7743H33.5871L37.3695 59.0783Z" fill="#AFF164"/>
</g>
<g id="Rectangle_2_">
<path id="Vector_53" fill-rule="evenodd" clip-rule="evenodd" d="M35.0142 32.4541H11.7566L15.635 59.3981H38.8926L35.0142 32.4541Z" fill="#4321F5"/>
<path id="Vector_54" d="M15.6354 59.7183H38.893C38.989 59.7183 39.0722 59.6799 39.1362 59.6095C39.1938 59.5391 39.2258 59.4431 39.213 59.3535L35.3346 32.4095C35.309 32.2495 35.1746 32.1343 35.0146 32.1343H11.757C11.661 32.1343 11.5778 32.1727 11.5138 32.2431C11.4562 32.3135 11.4242 32.4095 11.437 32.4991L15.3154 59.4431C15.341 59.6031 15.4754 59.7183 15.6354 59.7183ZM38.5218 59.0783H15.9106L12.1282 32.7743H34.7394L38.5218 59.0783Z" fill="#AFF164"/>
</g>
<g id="Path-126">
<path id="Vector_55" d="M19.9429 50.1825H32.2757C32.4549 50.1825 32.5957 50.0417 32.5957 49.8625C32.5957 49.6833 32.4549 49.5425 32.2757 49.5425H19.9429C19.7637 49.5425 19.6229 49.6833 19.6229 49.8625C19.6229 50.0417 19.7701 50.1825 19.9429 50.1825Z" fill="#AFF164"/>
</g>
<g id="Path-126-Copy">
<path id="Vector_56" d="M21.8628 53.3822H34.1956C34.3748 53.3822 34.5156 53.2414 34.5156 53.0622C34.5156 52.883 34.3748 52.7422 34.1956 52.7422H21.8628C21.6836 52.7422 21.5428 52.883 21.5428 53.0622C21.5428 53.2414 21.69 53.3822 21.8628 53.3822Z" fill="#AFF164"/>
</g>
<g id="Path-125">
<path id="Vector_57" fill-rule="evenodd" clip-rule="evenodd" d="M26.2141 39.0181L27.1463 44.9374C27.2278 45.4624 26.8703 45.9557 26.3453 46.0371C26.1598 46.0688 25.9697 46.0417 25.8022 45.9647L20.1861 43.444C19.7064 43.2268 19.4847 42.6611 19.7019 42.1724C19.7698 42.023 19.8784 41.8873 20.0142 41.7877L24.6935 38.3936C25.1234 38.0813 25.7253 38.1764 26.0376 38.6063C26.1326 38.7285 26.1914 38.8688 26.2141 39.0181Z" fill="#AFF164"/>
</g>
</g>
<g id="Group-17">
<g id="Group-16">
<g id="Path-95">
<path id="Vector_58" fill-rule="evenodd" clip-rule="evenodd" d="M0.895861 48.2558C2.31026 58.4766 6.43826 63.059 13.2799 61.9902C20.1215 60.9214 23.5391 55.315 23.5391 45.1646L18.3615 45.491C16.7935 51.4622 14.8991 54.579 12.6783 54.835C10.4575 55.091 9.10066 51.8654 8.61426 45.1646L0.895861 48.2558Z" fill="white"/>
</g>
<g id="Path-9">
<path id="Vector_59" d="M18.4572 45.8047C18.5276 45.8047 18.598 45.7791 18.6556 45.7343C18.79 45.6255 18.8156 45.4207 18.7004 45.2863C17.6124 43.9423 17.3372 42.8991 17.8876 42.1887C17.9964 42.0479 17.9708 41.8495 17.83 41.7407C17.6892 41.6319 17.4908 41.6575 17.382 41.7983C16.6268 42.7775 16.902 44.0831 18.2012 45.6959C18.2716 45.7663 18.3612 45.8047 18.4572 45.8047Z" fill="#2E2E30"/>
</g>
<g id="Path-10">
<path id="Vector_60" d="M20.2938 45.9902C20.4474 45.9902 20.5882 45.875 20.6074 45.7214C20.857 44.0958 20.9146 42.9566 20.7866 42.2334C20.6458 41.4462 20.2106 40.8766 19.4874 40.5502C19.3274 40.4798 19.1354 40.5502 19.065 40.7102C18.9946 40.8702 19.065 41.0622 19.225 41.1326C19.7498 41.3694 20.057 41.7662 20.1594 42.3422C20.2746 42.9886 20.2106 44.0894 19.9802 45.619C19.9546 45.7918 20.0762 45.9582 20.249 45.9838C20.2618 45.9838 20.2746 45.9902 20.2938 45.9902Z" fill="#2E2E30"/>
</g>
<g id="Path-11">
<path id="Vector_61" d="M21.4527 45.9902C21.5743 45.9902 21.6959 45.9198 21.7471 45.7982C22.4959 44.0958 22.5727 42.7582 21.9839 41.8174C21.8879 41.6702 21.6895 41.6254 21.5423 41.715C21.3951 41.811 21.3503 42.0094 21.4399 42.1566C21.9135 42.9054 21.8175 44.0382 21.1583 45.5358C21.0879 45.6958 21.1583 45.8878 21.3247 45.9582C21.3695 45.9774 21.4079 45.9902 21.4527 45.9902Z" fill="#2E2E30"/>
</g>
<g id="Path-12">
<path id="Vector_62" d="M22.9308 45.8046C23.0076 45.8046 23.078 45.779 23.142 45.7278C24.1148 44.8766 24.4412 43.8462 24.1148 42.6686C24.07 42.4958 23.8908 42.3998 23.7244 42.4446C23.5516 42.4894 23.4556 42.6686 23.5004 42.835C23.7564 43.7694 23.5068 44.563 22.726 45.2414C22.5916 45.3566 22.5788 45.5614 22.694 45.6958C22.7516 45.7726 22.8412 45.8046 22.9308 45.8046Z" fill="#2E2E30"/>
</g>
</g>
<g id="Path_10_">
<path id="Vector_63" d="M11.4232 62.4573C12.0376 62.4573 12.6712 62.4062 13.3304 62.3038C16.8312 61.7598 19.4936 60.051 21.2472 57.2286C22.9816 54.4446 23.8584 50.4894 23.8584 45.4846C23.8584 45.3054 23.7176 45.1646 23.5384 45.1646C23.3592 45.1646 23.2184 45.3054 23.2184 45.4846C23.2184 55.187 19.8584 60.6334 13.228 61.6702C10.5848 62.0862 8.332 61.6189 6.54 60.2878C3.8328 58.2782 2.0408 54.2142 1.2088 48.211C1.1832 48.0382 1.0232 47.9166 0.850401 47.9358C0.677601 47.9614 0.556 48.1214 0.575199 48.2942C0.997599 51.3662 1.6824 53.9774 2.5976 56.0382C3.5256 58.1246 4.7224 59.7246 6.156 60.7934C7.6408 61.9006 9.4072 62.4573 11.4232 62.4573Z" fill="#2E2E30"/>
</g>
<g id="Path_11_">
<path id="Vector_64" d="M12.435 55.1678C12.5246 55.1678 12.6206 55.1614 12.7166 55.1486C15.1102 54.8734 17.0558 51.7374 18.675 45.5678C18.7198 45.395 18.6174 45.2222 18.4446 45.1774C18.2718 45.1326 18.099 45.235 18.0542 45.4078C16.531 51.2126 14.7134 54.2782 12.6398 54.515C12.1726 54.5662 11.7566 54.4446 11.379 54.1246C10.1118 53.075 9.28623 50.0542 8.93423 45.139C8.92143 44.9598 8.76783 44.8318 8.59503 44.8446C8.41583 44.8574 8.28783 45.011 8.30063 45.1838C8.67823 50.3486 9.55503 53.4334 10.9758 54.6174C11.4046 54.9822 11.8974 55.1678 12.435 55.1678Z" fill="#2E2E30"/>
</g>
</g>
</g>
</g>
</svg>
