<svg width="57" height="93" viewBox="0 0 57 93" fill="none" xmlns="http://www.w3.org/2000/svg">
<g id="Group 104">
<g id="Group-49">
<g id="Path-217">
<path id="Vector" fill-rule="evenodd" clip-rule="evenodd" d="M12.6816 91.9904C11.8375 88.6442 12.2014 86.3444 13.7734 85.0908C15.3454 83.8373 17.1347 83.6958 19.1465 84.6612C17.6452 80.1778 19.3689 77.9386 24.3224 77.9386C26.2785 74.6025 28.543 73.5107 31.1056 74.6581C37.2722 71.3575 41.3614 72.2976 43.3731 77.4786C47.5482 77.3674 49.6863 79.3488 49.7773 83.4228C55.1554 83.9889 57.1368 86.8448 55.7266 91.9904H12.6816Z" fill="white"/>
<path id="Vector_2" d="M55.9192 92.243H12.485L12.4345 92.0509C11.5701 88.6189 11.9694 86.2078 13.6122 84.8936C15.1235 83.6906 16.8421 83.4581 18.7375 84.2062C18.1613 82.2046 18.2624 80.6377 19.0459 79.5459C19.9203 78.3328 21.6439 77.706 24.1712 77.6807C26.1526 74.3801 28.4777 73.268 31.091 74.375C34.5281 72.5553 37.3789 72.0448 39.5625 72.8536C41.2861 73.4904 42.6256 74.9613 43.5354 77.2207C45.6229 77.1955 47.2303 77.7009 48.312 78.7321C49.3583 79.7278 49.9345 81.229 50.0154 83.1953C52.6691 83.5087 54.519 84.4084 55.5148 85.8692C56.5308 87.3502 56.6774 89.4327 55.9596 92.0509L55.9192 92.243ZM12.8793 91.7376H55.53C56.1517 89.3568 56.0051 87.4765 55.1054 86.1573C54.1652 84.7824 52.3658 83.9484 49.7475 83.6755L49.5251 83.6502L49.52 83.4278C49.4745 81.4919 48.9539 80.0362 47.9683 79.096C46.9574 78.1306 45.4107 77.6706 43.3787 77.7262L43.2018 77.7313L43.1361 77.5645C42.2768 75.3556 41.0182 73.9251 39.3906 73.3236C37.3283 72.5655 34.5837 73.0861 31.2274 74.8805L31.1162 74.9411L31.005 74.8906C29.7818 74.3396 28.6698 74.3295 27.5982 74.8451C26.5166 75.3657 25.4905 76.4524 24.5402 78.0649L24.4695 78.1912H24.3229C21.8866 78.1912 20.2539 78.7472 19.4603 79.8441C18.7072 80.8904 18.6819 82.4826 19.3845 84.5802L19.5766 85.1464L19.0358 84.8886C17.0998 83.9585 15.4318 84.0899 13.9306 85.2879C12.485 86.4454 12.1312 88.6138 12.8793 91.7376Z" fill="#2E2E30"/>
</g>
<g id="Path-218">
<path id="Vector_3" d="M16.8621 90.9292C16.7458 90.9292 16.6397 90.8484 16.6144 90.727C16.2707 89.1197 16.5992 87.9066 17.5899 87.113C18.2925 86.5519 19.1063 86.3548 19.8746 86.5519C20.4508 86.7036 20.9411 87.0675 21.2393 87.5578C22.3969 86.5418 23.5392 86.3194 24.6461 86.8957C25.8239 87.5123 26.3344 88.7406 26.1575 90.5451C26.1423 90.6816 26.021 90.7877 25.8795 90.7725C25.743 90.7574 25.6368 90.6361 25.652 90.4945C25.8087 88.8922 25.4043 87.8611 24.4086 87.3455C23.4229 86.8299 22.4171 87.0928 21.3354 88.1492C21.2747 88.2099 21.1888 88.2351 21.1079 88.2149C21.0271 88.1997 20.9563 88.1391 20.926 88.0633C20.7238 87.5629 20.279 87.1787 19.7381 87.0372C19.1265 86.8754 18.4694 87.0422 17.8932 87.5022C17.0541 88.1745 16.7913 89.1904 17.0946 90.6158C17.1249 90.7523 17.039 90.8888 16.9025 90.9141C16.8974 90.9292 16.8823 90.9292 16.8621 90.9292Z" fill="#2E2E30"/>
</g>
</g>
<g id="Group-5">
<g id="Group-11">
<g id="Group">
<g id="Path-Copy">
<path id="Vector_4" fill-rule="evenodd" clip-rule="evenodd" d="M31.144 62.1982C31.1895 60.8335 31.3209 59.9085 31.5332 59.4182C32.0387 58.2556 33.3276 55.238 35.4051 50.3654C36.3755 48.0858 37.5229 45.3967 38.8371 42.3084L30.2949 40.8779C29.2536 42.5864 28.3084 44.2039 27.4643 45.7202C24.29 51.4168 22.4855 55.7536 22.0559 58.7308C21.9447 59.5142 21.8739 60.4493 21.8486 61.5361L31.144 62.1982Z" fill="white"/>
</g>
<g id="Path-Copy-3">
<path id="Vector_5" d="M31.3866 62.472L21.5908 61.7694L21.5959 61.5268C21.6211 60.435 21.6869 59.4797 21.8031 58.6912C22.2378 55.6988 24.0676 51.2912 27.2419 45.5947C28.086 44.0783 29.0413 42.4507 30.0775 40.7423L30.1685 40.5957L39.196 42.102L39.0696 42.3951C37.7554 45.4886 36.608 48.1725 35.6375 50.4522C33.5702 55.3046 32.2661 58.3475 31.7657 59.505C31.5686 59.9649 31.4422 60.8697 31.3967 62.194L31.3866 62.472ZM22.1064 61.2993L30.9014 61.9261C30.957 60.6625 31.0884 59.8082 31.3007 59.3129C31.8011 58.1554 33.1052 55.1075 35.1725 50.2601C36.1127 48.0563 37.2146 45.4683 38.4782 42.5013L30.4212 41.1568C29.4204 42.8046 28.5005 44.3816 27.6816 45.8424C24.5377 51.4884 22.7281 55.8353 22.3035 58.767C22.2024 59.4797 22.1367 60.3289 22.1064 61.2993Z" fill="#2E2E30"/>
</g>
<g id="Path">
<path id="Vector_6" fill-rule="evenodd" clip-rule="evenodd" d="M46.1711 62.1877C45.883 60.3883 45.7414 59.2813 45.7414 58.8618C45.7414 57.0118 47.1163 45.0678 44.68 42.2878L39.3676 42.1968L36.4814 42.2878C36.0518 52.1594 36.0518 58.8517 36.4814 62.3747L46.1711 62.1877Z" fill="white"/>
</g>
<g id="Path-Copy-2">
<path id="Vector_7" d="M36.2547 62.6268L36.2294 62.3993C35.7998 58.8813 35.7947 52.1082 36.2294 42.2719L36.2395 42.0394L39.3683 41.9434H39.3734L44.7969 42.0343L44.8728 42.1203C46.9401 44.4808 46.374 52.9523 46.096 57.0263C46.0404 57.8704 45.9949 58.5376 45.9949 58.8611C45.9949 59.2655 46.1364 60.3724 46.4245 62.1466L46.47 62.4347L36.2547 62.6268ZM36.7197 42.5297C36.3103 52.0071 36.3052 58.5932 36.6995 62.1112L45.8736 61.9394C45.6107 60.2814 45.4844 59.2705 45.4844 58.8611C45.4844 58.5224 45.5299 57.8805 45.5855 56.9909C45.7219 54.964 45.9292 51.9009 45.8534 49.0147C45.7674 45.6939 45.3327 43.5153 44.5543 42.5347L39.3633 42.4488L36.7197 42.5297Z" fill="#2E2E30"/>
</g>
<g id="Path_1_">
<path id="Vector_8" fill-rule="evenodd" clip-rule="evenodd" d="M45.9135 46.1157C45.7063 44.4275 45.3272 43.0274 44.6751 42.2843L39.3628 42.1934L36.4766 42.2843C36.33 45.6355 36.234 48.6178 36.1885 51.2411L45.9135 46.1157Z" fill="black"/>
</g>
<g id="Path_2_">
<path id="Vector_9" fill-rule="evenodd" clip-rule="evenodd" d="M35.4048 50.3654C36.3752 48.0858 37.5226 45.3967 38.8368 42.3084L30.1581 40.8779C29.1168 42.5864 28.8793 43.1121 28.0352 44.6335L35.4048 50.3654Z" fill="black"/>
</g>
<g id="Path-129">
<path id="Vector_10" d="M36.1531 50.6738C36.0116 50.6738 35.9004 50.5626 35.9004 50.4211V43.9158C35.9004 43.7743 36.0116 43.6631 36.1531 43.6631C36.2946 43.6631 36.4059 43.7743 36.4059 43.9158V50.416C36.4059 50.5576 36.2946 50.6738 36.1531 50.6738Z" fill="white"/>
</g>
</g>
<g id="Group-3">
<g id="Path_3_">
<path id="Vector_11" fill-rule="evenodd" clip-rule="evenodd" d="M43.8029 11.7549L41.9529 12.9074C41.4222 12.6294 40.8207 12.4727 40.1788 12.4727C39.7693 12.4727 39.3599 12.5384 38.9454 12.6647L38.3288 11.391C38.2985 11.3253 38.2125 11.295 38.1468 11.3253C38.1165 11.3404 38.0912 11.3708 38.0761 11.4011C37.4998 13.0489 37.1915 13.893 37.1612 13.9335C36.6456 14.5855 36.3373 15.4144 36.3373 16.3091C36.3373 18.432 38.0558 20.1506 40.1788 20.1506C42.3017 20.1506 44.0203 18.432 44.0203 16.3091C44.0203 15.5358 43.7928 14.818 43.3985 14.2115L44.0304 11.9167C44.0506 11.8358 44.0051 11.7549 43.9242 11.7296C43.8838 11.7246 43.8383 11.7296 43.8029 11.7549Z" fill="#2E2E30"/>
</g>
<g id="Path-6">
<path id="Vector_12" fill-rule="evenodd" clip-rule="evenodd" d="M42.2917 19.1548L43.0347 23.0418C44.915 23.7039 46.305 24.3408 47.2148 24.9474C34.8867 26.0543 29.5035 26.115 31.0603 25.1293C32.6222 24.1437 34.9372 23.2743 38.0155 22.5262V19.1649L42.2917 19.1548Z" fill="white"/>
</g>
<g id="Oval-Copy-2">
<path id="Vector_13" d="M36.9237 15.2329C36.0164 15.2329 35.2809 16.1132 35.2809 17.1991C35.2809 18.2851 36.0164 19.1654 36.9237 19.1654C37.8309 19.1654 38.5664 18.2851 38.5664 17.1991C38.5664 16.1132 37.8309 15.2329 36.9237 15.2329Z" fill="#2E2E30"/>
</g>
<g id="Path_4_">
<path id="Vector_14" fill-rule="evenodd" clip-rule="evenodd" d="M42.2007 14.7222H36.9793V16.188C36.8479 18.0279 37.045 19.3269 37.5707 20.075C38.3541 21.2022 41.306 21.5004 42.3574 18.9478C43.06 17.2495 43.0044 15.8392 42.2007 14.7222Z" fill="white"/>
</g>
<g id="Path-209">
<path id="Vector_15" fill-rule="evenodd" clip-rule="evenodd" d="M36.9283 15.7628C37.0193 15.4544 37.1962 15.2169 37.4489 15.04C37.6056 14.9338 37.7573 14.8479 37.8938 14.7923C38.0252 14.7417 38.1718 14.8024 38.2223 14.9338L38.47 15.5555C38.5205 15.687 38.6671 15.7476 38.7985 15.6971C38.8339 15.6819 38.8693 15.6617 38.8946 15.6313L39.6224 14.8075C39.673 14.7519 39.7437 14.7215 39.8145 14.7215C40.4211 14.7316 40.9316 14.8378 41.346 15.04C42.0284 15.3685 42.4176 16.0206 42.5137 16.991C43.1657 16.0307 43.4285 15.3685 43.3072 15.0096C43.196 14.6811 42.6805 14.1908 41.7656 13.5337H38.6974C37.7269 13.5337 36.9334 14.3172 36.9283 15.2927V15.7628Z" fill="#2E2E30"/>
</g>
<g id="Path-8">
<path id="Vector_16" d="M38.7386 19.3672C38.5313 19.3672 38.314 19.3368 38.0815 19.2762C37.945 19.2408 37.8692 19.0993 37.9046 18.9678C37.9399 18.8314 38.0815 18.7556 38.2129 18.7909C39.0368 19.0133 39.6029 18.7606 39.9972 17.9923C40.0629 17.8659 40.2145 17.8205 40.3358 17.8811C40.4622 17.9468 40.5077 18.0985 40.447 18.2198C40.0578 18.978 39.4715 19.3672 38.7386 19.3672Z" fill="#2E2E30"/>
</g>
<g id="Group-7">
<g id="Path-Copy-4">
<path id="Vector_17" d="M40.7443 17.1682C40.6028 17.1682 40.4916 17.057 40.4916 16.9154C40.4916 16.7689 40.3703 16.6475 40.2237 16.6475C40.0771 16.6475 39.9558 16.7689 39.9558 16.9154C39.9558 17.057 39.8446 17.1682 39.7031 17.1682C39.5616 17.1682 39.4504 17.057 39.4504 16.9154C39.4453 16.4909 39.7941 16.1421 40.2237 16.1421C40.6534 16.1421 40.9971 16.4909 40.9971 16.9154C40.9971 17.057 40.8859 17.1682 40.7443 17.1682Z" fill="#2E2E30"/>
</g>
<g id="Path-Copy-5">
<path id="Vector_18" d="M37.9748 17.1682C37.8333 17.1682 37.7221 17.057 37.7221 16.9154C37.7221 16.7689 37.6008 16.6475 37.4542 16.6475C37.3076 16.6475 37.1863 16.7689 37.1863 16.9154C37.1863 17.057 37.0751 17.1682 36.9336 17.1682C36.792 17.1682 36.6808 17.057 36.6808 16.9154C36.6758 16.4909 37.0245 16.1421 37.4491 16.1421C37.8737 16.1421 38.2275 16.4909 38.2275 16.9154C38.2275 17.057 38.1113 17.1682 37.9748 17.1682Z" fill="#2E2E30"/>
</g>
</g>
<g id="Path-3">
<path id="Vector_19" d="M42.9686 16.8205C42.913 16.8205 42.8625 16.8104 42.8069 16.7801C42.635 16.6942 42.5643 16.4768 42.6502 16.305L43.2972 15.0261C43.8633 13.904 43.4135 12.5292 42.2913 11.963C41.7303 11.68 41.0681 11.6396 40.4767 11.8569C40.2948 11.9226 40.0875 11.8316 40.0218 11.6446C39.9561 11.4626 40.0471 11.2554 40.2341 11.1897C41.0075 10.9066 41.8769 10.9572 42.6098 11.3312C43.3225 11.6901 43.8481 12.3068 44.1009 13.065C44.3536 13.8231 44.2879 14.6319 43.929 15.3446L43.282 16.6234C43.2214 16.7498 43.1001 16.8205 42.9686 16.8205Z" fill="#BBEB6E"/>
</g>
<g id="Path-4">
<path id="Vector_20" d="M38.849 18.4374C38.844 18.4374 38.8389 18.4374 38.8339 18.4374C38.4851 18.4172 38.015 18.3464 37.9038 17.9825C37.8381 17.7753 37.8785 17.5023 39.0462 16.4358C39.1473 16.3397 39.309 16.3499 39.405 16.4509C39.5011 16.552 39.491 16.7138 39.3899 16.8098C38.6772 17.4669 38.475 17.7449 38.4194 17.846C38.4699 17.8713 38.5963 17.9168 38.8743 17.937C39.0158 17.9471 39.1169 18.0634 39.1119 18.2049C39.0917 18.3363 38.9804 18.4374 38.849 18.4374Z" fill="#2E2E30"/>
</g>
<g id="Group-2">
<g id="Path-7">
<path id="Vector_21" fill-rule="evenodd" clip-rule="evenodd" d="M47.053 24.8975C51.5617 25.9893 53.3864 29.1484 52.5221 34.3799L46.1634 32.4743L47.053 24.8975Z" fill="white"/>
</g>
<g id="Group-26-Copy">
<g id="Group-Copy">
<g id="Path-77">
<path id="Vector_22" fill-rule="evenodd" clip-rule="evenodd" d="M29.7565 21.9168C26.6631 20.4358 20.8503 13.5262 23.6961 3.33105H19.8242C16.8269 14.2035 17.6356 21.563 22.2504 25.4247C26.8653 29.2864 31.101 31.1313 34.9577 30.9797C36.651 26.1879 37.4951 23.3624 37.4951 22.493C37.4951 22.1695 32.8499 23.4029 29.7565 21.9168Z" fill="white"/>
</g>
<g id="Path_5_">
<path id="Vector_23" d="M34.5129 31.237C32.6882 31.237 30.7624 30.8023 28.7861 29.9329C26.6581 29.0029 24.4037 27.5471 22.0887 25.6112C19.7383 23.65 18.3433 20.7588 17.9338 17.0285C17.5295 13.3336 18.0855 8.69854 19.5816 3.25979C19.617 3.12331 19.7586 3.0475 19.89 3.08288C20.0265 3.11826 20.1023 3.25979 20.0669 3.39121C18.5859 8.7693 18.0349 13.3387 18.4343 16.9729C18.8285 20.5718 20.168 23.3468 22.4122 25.222C26.7845 28.8815 30.8534 30.7315 34.5129 30.7315C34.5989 30.7315 34.6898 30.7315 34.7758 30.7265C36.3023 26.4099 37.1262 23.7056 37.2323 22.6897C37.0503 22.6947 36.7521 22.725 36.4539 22.7554C34.8566 22.9171 31.8896 23.2204 29.6454 22.1438C28.1542 21.426 25.8494 19.389 24.2673 15.9974C23.0188 13.3184 21.8663 8.9361 23.4535 3.26484C23.4889 3.12837 23.6304 3.05255 23.7669 3.08793C23.9033 3.12331 23.9791 3.26484 23.9438 3.40132C22.4021 8.92599 23.5192 13.187 24.7323 15.7851C26.1577 18.8482 28.3413 20.9559 29.8728 21.6889C31.9856 22.6998 34.8617 22.4066 36.4084 22.2499C37.298 22.1589 37.5103 22.1438 37.6569 22.2752C37.7175 22.3308 37.7529 22.4066 37.7529 22.4875C37.7529 23.3923 36.9189 26.1976 35.2004 31.055L35.1448 31.2168L34.9729 31.2218C34.8162 31.237 34.6646 31.237 34.5129 31.237Z" fill="#2E2E30"/>
</g>
<g id="Path-78">
<path id="Vector_24" d="M20.8101 3.95257C20.6786 3.95257 20.5674 3.85148 20.5573 3.72006C20.4866 2.75968 20.6382 1.81447 21.0173 0.904647C21.0729 0.773227 21.2195 0.712572 21.3458 0.768173C21.4773 0.823773 21.5379 0.970357 21.4823 1.09672C21.1386 1.93578 20.992 2.80518 21.0628 3.67962C21.0729 3.82115 20.9667 3.94246 20.8303 3.95257C20.8202 3.95257 20.8151 3.95257 20.8101 3.95257Z" fill="#2E2E30"/>
</g>
<g id="Path-78-Copy">
<path id="Vector_25" d="M19.8238 3.79101C19.6924 3.79101 19.5812 3.68992 19.5711 3.5585C19.5003 2.69417 19.652 1.83994 20.0361 1.01604C20.0968 0.889674 20.2433 0.834073 20.3697 0.894728C20.4961 0.955384 20.5517 1.10197 20.491 1.22833C20.1473 1.97136 20.0058 2.73966 20.0715 3.51301C20.0816 3.65454 19.9805 3.77585 19.839 3.78596C19.839 3.79101 19.8339 3.79101 19.8238 3.79101Z" fill="#2E2E30"/>
</g>
<g id="Path-79">
<path id="Vector_26" d="M23.2763 5.86339C23.1904 5.86339 23.1044 5.8179 23.0539 5.73703C22.9831 5.61572 23.0286 5.45903 23.1499 5.39332C23.893 4.97378 24.3074 4.53403 24.3833 4.08417C24.4439 3.7253 24.2923 3.32093 23.9233 2.89634C23.8323 2.7902 23.8424 2.63351 23.9486 2.53747C24.0547 2.44649 24.2114 2.45659 24.3074 2.56274C24.7775 3.10864 24.9746 3.64948 24.8837 4.16505C24.7775 4.7716 24.2771 5.33266 23.4027 5.82801C23.3572 5.85328 23.3167 5.86339 23.2763 5.86339Z" fill="#2E2E30"/>
</g>
<g id="Path-80">
<path id="Vector_27" d="M23.0086 3.95769C22.8671 3.95769 22.7559 3.84648 22.7559 3.70496C22.7559 2.71425 23.0996 1.84486 23.7769 1.12206C23.8729 1.02096 24.0296 1.01591 24.1358 1.11195C24.2368 1.20798 24.2419 1.36468 24.1459 1.47082C23.5494 2.1077 23.2613 2.84062 23.2613 3.71001C23.2613 3.84143 23.1501 3.95769 23.0086 3.95769Z" fill="#2E2E30"/>
</g>
<g id="Path-81">
<path id="Vector_28" d="M21.7396 3.95767C21.6183 3.95767 21.5071 3.86669 21.4919 3.74032C21.3302 2.62831 21.6992 1.41015 22.5888 0.11112C22.6696 -0.00513567 22.8263 -0.0354633 22.9426 0.0454103C23.0588 0.126284 23.0892 0.282976 23.0083 0.399232C22.1895 1.58706 21.8508 2.68897 21.9923 3.66956C22.0125 3.80603 21.9165 3.93745 21.78 3.95767C21.7649 3.95262 21.7497 3.95767 21.7396 3.95767Z" fill="#2E2E30"/>
</g>
</g>
</g>
<g id="Path-6-Copy">
<path id="Vector_29" fill-rule="evenodd" clip-rule="evenodd" d="M43.0347 23.0429C44.915 23.705 46.305 24.3419 47.2148 24.9485L45.2436 43.9184L30.196 40.739C31.1665 39.2075 31.9752 37.8832 32.6222 36.7611V33.5615C33.2743 27.0411 34.1689 23.5888 35.3113 23.2046C35.7561 23.053 36.4132 22.866 37.2826 22.6284L43.0347 23.0429Z" fill="white"/>
</g>
<g id="Path-2">
<path id="Vector_30" d="M32.8045 31.9991C32.7995 31.9991 32.7944 31.9991 32.7944 31.9991C32.6529 31.994 32.5468 31.8727 32.5518 31.7363C32.663 29.3758 33.0775 27.3539 33.775 25.7263C33.8306 25.6 33.9772 25.5393 34.1086 25.5949C34.235 25.6505 34.2956 25.7971 34.24 25.9285C33.5627 27.5005 33.1685 29.4617 33.0522 31.7565C33.0472 31.8929 32.936 31.9991 32.8045 31.9991Z" fill="#2E2E30"/>
</g>
<g id="Rectangle">
<path id="Vector_31" fill-rule="evenodd" clip-rule="evenodd" d="M45.0971 41.0325L31.9096 38.6266C31.3991 38.5356 30.8937 38.8237 30.7167 39.314L30.1607 40.8809L45.7188 44.1462L45.9564 42.2052C46.0271 41.6492 45.648 41.1336 45.0971 41.0325Z" fill="#BBEB6E"/>
</g>
<g id="Path-213">
<path id="Vector_32" d="M52.5222 34.6324C52.507 34.6324 52.4969 34.6324 52.4817 34.6274C52.3453 34.6071 52.2492 34.4757 52.2694 34.3392C53.0276 29.4211 51.4102 26.4086 47.3311 25.1399L47.3008 25.1298C44.0709 23.6488 43.2268 23.2798 43.0953 23.2343C42.9841 23.209 42.9033 23.1079 42.9033 22.9866C42.9033 22.8451 43.0145 22.7339 43.156 22.7339C43.2369 22.7339 43.2824 22.7339 47.4979 24.6647C51.7893 26.0093 53.5634 29.2897 52.7749 34.4201C52.7496 34.5414 52.6435 34.6324 52.5222 34.6324Z" fill="#2E2E30"/>
</g>
</g>
<g id="Oval">
<path id="Vector_33" d="M43.2264 15.6123C42.3191 15.6123 41.5837 16.4926 41.5837 17.5785C41.5837 18.6645 42.3191 19.5448 43.2264 19.5448C44.1337 19.5448 44.8691 18.6645 44.8691 17.5785C44.8691 16.4926 44.1337 15.6123 43.2264 15.6123Z" fill="#2E2E30"/>
</g>
<g id="Oval-Copy">
<path id="Vector_34" d="M43.379 16.1479C42.7146 16.1479 42.176 16.7929 42.176 17.5885C42.176 18.3841 42.7146 19.0291 43.379 19.0291C44.0434 19.0291 44.582 18.3841 44.582 17.5885C44.582 16.7929 44.0434 16.1479 43.379 16.1479Z" fill="white"/>
<path id="Vector_35" d="M43.3786 19.1553C42.6457 19.1553 42.0493 18.4527 42.0493 17.5884C42.0493 16.7241 42.6457 16.0215 43.3786 16.0215C44.1116 16.0215 44.708 16.7241 44.708 17.5884C44.708 18.4527 44.1166 19.1553 43.3786 19.1553ZM43.3786 16.2742C42.7822 16.2742 42.302 16.8656 42.302 17.5884C42.302 18.3112 42.7873 18.9026 43.3786 18.9026C43.97 18.9026 44.4553 18.3112 44.4553 17.5884C44.4553 16.8656 43.9751 16.2742 43.3786 16.2742Z" fill="#2E2E30"/>
</g>
<g id="Path-14">
<path id="Vector_36" d="M39.2643 21.162C38.6628 21.162 38.1472 21.0205 37.7328 20.7324C37.0555 20.2674 36.646 19.4233 36.5096 18.2253C36.4944 18.0888 36.5955 17.9625 36.732 17.9473C36.8735 17.9321 36.9948 18.0332 37.01 18.1697C37.1262 19.216 37.4699 19.9388 38.0158 20.3179C38.5718 20.7021 39.3806 20.7577 40.4168 20.4948C40.5532 20.4594 40.6897 20.5403 40.7251 20.6768C40.7605 20.8133 40.6796 20.9497 40.5431 20.9851C40.0832 21.1014 39.6535 21.162 39.2643 21.162Z" fill="#2E2E30"/>
</g>
</g>
<g id="Group-17">
<g id="Group-16">
<g id="Path-95">
<path id="Vector_37" fill-rule="evenodd" clip-rule="evenodd" d="M52.5228 34.3797C51.2339 41.5775 48.1607 44.7922 43.3032 44.034C38.4457 43.2758 36.0195 39.2928 36.0195 32.085L39.6993 32.3175C40.8113 36.5583 42.1558 38.7722 43.7379 38.9542C45.3149 39.1361 46.2804 36.8464 46.6241 32.09L52.5228 34.3797Z" fill="white"/>
</g>
<g id="Path-9">
<path id="Vector_38" d="M39.6228 32.5699C39.5672 32.5699 39.5116 32.5496 39.4661 32.5142C39.36 32.4283 39.3398 32.2666 39.4307 32.1604C40.194 31.2152 40.3911 30.4874 40.007 29.992C39.921 29.8808 39.9413 29.7241 40.0525 29.6382C40.1637 29.5523 40.3203 29.5725 40.4063 29.6837C40.9522 30.3863 40.755 31.3315 39.825 32.4789C39.7694 32.5395 39.6986 32.5699 39.6228 32.5699Z" fill="#2E2E30"/>
</g>
<g id="Path-10">
<path id="Vector_39" d="M38.3185 32.6963C38.1972 32.6963 38.086 32.6053 38.0709 32.484C37.8939 31.3265 37.8535 30.5178 37.9445 30.0022C38.0456 29.431 38.359 29.0267 38.8846 28.7891C39.011 28.7335 39.1627 28.7891 39.2183 28.9155C39.2739 29.0418 39.2183 29.1935 39.0919 29.2491C38.728 29.4159 38.5157 29.6888 38.4449 30.0881C38.364 30.5431 38.4095 31.3215 38.5713 32.4082C38.5915 32.5447 38.4954 32.6761 38.359 32.6963C38.3438 32.6963 38.3337 32.6963 38.3185 32.6963Z" fill="#2E2E30"/>
</g>
<g id="Path-11">
<path id="Vector_40" d="M37.4953 32.6963C37.3993 32.6963 37.3033 32.6407 37.2628 32.5447C36.727 31.3265 36.6714 30.3712 37.096 29.6939C37.1718 29.5777 37.3285 29.5423 37.4448 29.613C37.561 29.6889 37.5964 29.8456 37.5257 29.9618C37.1971 30.4824 37.2628 31.2811 37.7278 32.3375C37.7834 32.4638 37.7278 32.6155 37.5964 32.6711C37.5661 32.6913 37.5307 32.6963 37.4953 32.6963Z" fill="#2E2E30"/>
</g>
<g id="Path-12">
<path id="Vector_41" d="M36.4437 32.5705C36.3831 32.5705 36.3275 32.5502 36.2769 32.5098C35.5794 31.8982 35.3469 31.1602 35.5794 30.3111C35.6148 30.1746 35.7563 30.0988 35.8877 30.1341C36.0242 30.1695 36.1 30.3111 36.0646 30.4425C35.8827 31.0996 36.0596 31.6505 36.6105 32.1257C36.7167 32.2166 36.7268 32.3784 36.6358 32.4845C36.5852 32.5401 36.5145 32.5705 36.4437 32.5705Z" fill="#2E2E30"/>
</g>
</g>
<g id="Path_6_">
<path id="Vector_42" d="M44.6679 44.399C44.213 44.399 43.7429 44.3636 43.2627 44.2878C40.7708 43.8986 38.8703 42.6804 37.6218 40.6737C36.3885 38.6873 35.7617 35.8769 35.7617 32.3235C35.7617 32.182 35.8729 32.0708 36.0144 32.0708C36.156 32.0708 36.2672 32.182 36.2672 32.3235C36.2672 35.7859 36.8687 38.5053 38.0515 40.4109C39.2191 42.2912 40.9983 43.4285 43.3386 43.7924C45.325 44.1007 47.0284 43.7368 48.4134 42.7107C50.4099 41.2247 51.709 38.4143 52.27 34.3504C52.2903 34.214 52.4166 34.1179 52.5531 34.1331C52.6896 34.1533 52.7856 34.2797 52.7704 34.4161C52.1892 38.6165 50.8244 41.5431 48.7167 43.11C47.5592 43.9693 46.2045 44.399 44.6679 44.399Z" fill="#2E2E30"/>
</g>
<g id="Path_7_">
<path id="Vector_43" d="M43.8989 39.2172C43.8332 39.2172 43.7675 39.2121 43.6967 39.207C41.9883 39.0099 40.5983 36.7808 39.4458 32.3833C39.4104 32.2469 39.4913 32.1104 39.6278 32.075C39.7642 32.0396 39.9007 32.1205 39.9361 32.257C41.0127 36.3664 42.3017 38.5348 43.7574 38.7066C44.0859 38.742 44.369 38.6561 44.6369 38.4387C45.5315 37.7008 46.1128 35.5576 46.3656 32.075C46.3757 31.9335 46.497 31.8324 46.6385 31.8425C46.78 31.8526 46.8811 31.9739 46.871 32.1104C46.6031 35.7851 45.9763 37.9838 44.9604 38.8279C44.6419 39.0857 44.2881 39.2172 43.8989 39.2172Z" fill="#2E2E30"/>
</g>
</g>
</g>
<g id="Group-12">
<g id="Group-10-Copy">
<g id="Path-211">
<path id="Vector_44" fill-rule="evenodd" clip-rule="evenodd" d="M25.3252 81.0894C24.3395 82.5451 24.1828 84.6478 24.8602 87.3975L25.7397 86.0681C25.7397 88.4539 26.6798 90.4454 28.5601 92.0427C30.4303 90.3089 31.2845 88.3326 31.1177 86.1187L31.9113 87.3975C32.9475 85.3049 33.0031 83.2022 32.0781 81.0894H25.3252Z" fill="white"/>
</g>
<g id="Path-212">
<path id="Vector_45" d="M28.2211 90.6789C28.1048 90.6789 27.9987 90.598 27.9734 90.4767L27.5084 88.1364L27.3921 88.4953C27.3618 88.5913 27.2708 88.6621 27.1697 88.6722C27.0636 88.6773 26.9676 88.6217 26.9221 88.5307C26.5025 87.6714 26.3155 86.246 26.3509 84.1686C26.356 84.0321 26.4672 83.9209 26.6036 83.9209H26.6087C26.7502 83.926 26.8614 84.0372 26.8564 84.1787C26.8311 85.6647 26.9221 86.8222 27.1344 87.631L27.3214 87.0446C27.3568 86.9334 27.4629 86.8627 27.5741 86.8677C27.6904 86.8728 27.7864 86.9587 27.8066 87.0699L28.4637 90.3756C28.489 90.5121 28.4031 90.6435 28.2666 90.6738C28.2565 90.6738 28.2413 90.6789 28.2211 90.6789Z" fill="#2E2E30"/>
</g>
<g id="Path-211-Copy">
<path id="Vector_46" d="M28.555 92.2962C28.4994 92.2962 28.4387 92.276 28.3932 92.2355C26.6747 90.7747 25.7092 88.9652 25.5172 86.8574L25.0673 87.5398C25.0117 87.6257 24.9106 87.6662 24.8146 87.651C24.7135 87.6358 24.6377 87.56 24.6124 87.464C23.9199 84.6536 24.0918 82.4599 25.1128 80.9486C25.1583 80.8778 25.2392 80.8374 25.3251 80.8374H32.073C32.1741 80.8374 32.265 80.8981 32.3055 80.989C33.2608 83.1625 33.2052 85.3562 32.1336 87.5095C32.0932 87.5903 32.0123 87.6459 31.9213 87.651C31.8304 87.6561 31.7444 87.6106 31.6939 87.5297L31.3805 87.0242C31.2794 88.945 30.3898 90.6888 28.7319 92.2305C28.6813 92.2709 28.6207 92.2962 28.555 92.2962ZM25.7345 85.8162C25.7598 85.8162 25.7851 85.8212 25.8053 85.8263C25.9114 85.8566 25.9872 85.9577 25.9872 86.0689C25.9872 88.2929 26.8516 90.1884 28.5499 91.7048C30.2382 90.0671 31.0166 88.1969 30.8649 86.1447C30.8548 86.0285 30.9256 85.9223 31.0368 85.8869C31.148 85.8516 31.2693 85.8971 31.3299 85.9931L31.8758 86.8726C32.6593 85.0428 32.6694 83.1878 31.9062 81.3479H25.4616C24.6528 82.6318 24.4911 84.4514 24.9763 86.7664L25.5273 85.9324C25.5728 85.8566 25.6536 85.8162 25.7345 85.8162Z" fill="#2E2E30"/>
</g>
</g>
<g id="Group-9">
<g id="Rectangle_1_">
<path id="Vector_47" fill-rule="evenodd" clip-rule="evenodd" d="M25.1064 78.8599H31.6521C32.2384 78.8599 32.7136 79.335 32.7136 79.9213V80.4369C32.7136 81.0232 32.2384 81.4984 31.6521 81.4984H25.1064C24.5201 81.4984 24.0449 81.0232 24.0449 80.4369V79.9213C24.0449 79.335 24.5201 78.8599 25.1064 78.8599Z" fill="#BBEB6E"/>
<path id="Vector_48" d="M31.6468 81.7509H25.1062C24.3834 81.7509 23.792 81.1595 23.792 80.4367V79.9211C23.792 79.1983 24.3834 78.6069 25.1062 78.6069H31.6519C32.3747 78.6069 32.9661 79.1983 32.9661 79.9211V80.4367C32.961 81.1595 32.3696 81.7509 31.6468 81.7509ZM25.1062 79.1124C24.6614 79.1124 24.2975 79.4763 24.2975 79.9211V80.4367C24.2975 80.8815 24.6614 81.2454 25.1062 81.2454H31.6519C32.0967 81.2454 32.4606 80.8815 32.4606 80.4367V79.9211C32.4606 79.4763 32.0967 79.1124 31.6519 79.1124H25.1062Z" fill="#2E2E30"/>
</g>
<g id="Group-4-Copy">
<g id="Path-210">
<path id="Vector_49" fill-rule="evenodd" clip-rule="evenodd" d="M22.0791 63.897V77.9488C22.0791 78.8434 22.8019 79.5662 23.6966 79.5662H32.6028C33.4974 79.5662 34.2202 78.8434 34.2202 77.9488C34.2202 77.8426 34.2101 77.7314 34.1899 77.6253L31.3897 63.897H22.0791Z" fill="#BBEB6E"/>
<path id="Vector_50" d="M32.6026 79.8188H23.6964C22.6652 79.8188 21.8262 78.9797 21.8262 77.9486V63.644H31.5917L34.4323 77.5745C34.4576 77.6958 34.4677 77.8222 34.4677 77.9486C34.4728 78.9797 33.6337 79.8188 32.6026 79.8188ZM22.3316 64.1495V77.9486C22.3316 78.7017 22.9432 79.3133 23.6964 79.3133H32.6026C33.3557 79.3133 33.9673 78.7017 33.9673 77.9486C33.9673 77.8576 33.9572 77.7666 33.942 77.6756L31.1822 64.1495H22.3316Z" fill="#2E2E30"/>
</g>
<g id="Path-210-Copy">
<path id="Vector_51" fill-rule="evenodd" clip-rule="evenodd" d="M22.0791 63.897V65.4791L32.0266 66.7225L31.3897 63.897H22.0791Z" fill="#2E2E30"/>
</g>
<g id="Rectangle-Copy">
<path id="Vector_52" fill-rule="evenodd" clip-rule="evenodd" d="M22.6854 60.8042H30.7525C31.6067 60.8042 32.2992 61.4967 32.2992 62.3509C32.2992 63.2051 31.6067 63.8976 30.7525 63.8976H22.6854C21.8312 63.8976 21.1387 63.2051 21.1387 62.3509C21.1387 61.4967 21.8312 60.8042 22.6854 60.8042Z" fill="#BBEB6E"/>
<path id="Vector_53" d="M30.7523 64.1501H22.6852C21.6945 64.1501 20.8857 63.3414 20.8857 62.3507C20.8857 61.36 21.6945 60.5513 22.6852 60.5513H30.7523C31.743 60.5513 32.5518 61.36 32.5518 62.3507C32.5518 63.3414 31.7481 64.1501 30.7523 64.1501ZM22.6852 61.0567C21.9725 61.0567 21.3912 61.638 21.3912 62.3507C21.3912 63.0634 21.9725 63.6447 22.6852 63.6447H30.7523C31.465 63.6447 32.0463 63.0634 32.0463 62.3507C32.0463 61.638 31.465 61.0567 30.7523 61.0567H22.6852Z" fill="#2E2E30"/>
</g>
</g>
</g>
</g>
<g id="Group-14">
<g id="Group-10">
<g id="Path-211_1_">
<path id="Vector_54" fill-rule="evenodd" clip-rule="evenodd" d="M40.1777 81.0894C39.1921 82.5451 39.0354 84.6478 39.7127 87.3975L40.5922 86.0681C40.5922 88.4539 41.5323 90.4454 43.4127 92.0427C45.2829 90.3089 46.1371 88.3326 45.9703 86.1187L46.7639 87.3975C47.8 85.3049 47.8556 83.2022 46.9307 81.0894H40.1777Z" fill="white"/>
</g>
<g id="Path-212_1_">
<path id="Vector_55" d="M43.0736 90.6789C42.9574 90.6789 42.8512 90.598 42.826 90.4767L42.3609 88.1364L42.2447 88.4953C42.2144 88.5913 42.1234 88.6621 42.0223 88.6722C41.9161 88.6773 41.8201 88.6217 41.7746 88.5307C41.3551 87.6714 41.1681 86.246 41.2034 84.1686C41.2085 84.0321 41.3197 83.9209 41.4562 83.9209H41.4612C41.6027 83.926 41.7139 84.0372 41.7089 84.1787C41.6836 85.6647 41.7746 86.8222 41.9869 87.631L42.1739 87.0446C42.2093 86.9334 42.3154 86.8627 42.4266 86.8677C42.5429 86.8728 42.6389 86.9587 42.6592 87.0699L43.3163 90.3756C43.3415 90.5121 43.2556 90.6435 43.1191 90.6738C43.109 90.6738 43.0939 90.6789 43.0736 90.6789Z" fill="#2E2E30"/>
</g>
<g id="Path-211-Copy_1_">
<path id="Vector_56" d="M43.4075 92.2962C43.3519 92.2962 43.2913 92.276 43.2458 92.2355C41.5272 90.7747 40.5618 88.9652 40.3697 86.8574L39.9198 87.5398C39.8642 87.6257 39.7631 87.6662 39.6671 87.651C39.566 87.6358 39.4902 87.56 39.4649 87.464C38.7724 84.6536 38.9443 82.4599 39.9653 80.9486C40.0108 80.8778 40.0917 80.8374 40.1776 80.8374H46.9255C47.0266 80.8374 47.1176 80.8981 47.158 80.989C48.1133 83.1625 48.0577 85.3562 46.9862 87.5095C46.9457 87.5903 46.8649 87.6459 46.7739 87.651C46.6829 87.6561 46.597 87.6106 46.5464 87.5297L46.233 87.0242C46.1319 88.945 45.2423 90.6888 43.5844 92.2305C43.5339 92.2709 43.4732 92.2962 43.4075 92.2962ZM40.587 85.8162C40.6123 85.8162 40.6376 85.8212 40.6578 85.8263C40.764 85.8566 40.8398 85.9577 40.8398 86.0689C40.8398 88.2929 41.7041 90.1884 43.4025 91.7048C45.0907 90.0671 45.8691 88.1969 45.7175 86.1447C45.7074 86.0285 45.7781 85.9223 45.8893 85.8869C46.0005 85.8516 46.1218 85.8971 46.1825 85.9931L46.7284 86.8726C47.5118 85.0428 47.522 83.1878 46.7587 81.3479H40.3141C39.5054 82.6318 39.3436 84.4514 39.8289 86.7664L40.3798 85.9324C40.4253 85.8566 40.5062 85.8162 40.587 85.8162Z" fill="#2E2E30"/>
</g>
</g>
<g id="Group-4">
<g id="Rectangle-Copy-2">
<path id="Vector_57" fill-rule="evenodd" clip-rule="evenodd" d="M40.1396 78.8599H46.6853C47.2716 78.8599 47.7468 79.335 47.7468 79.9213V80.4369C47.7468 81.0232 47.2716 81.4984 46.6853 81.4984H40.1396C39.5533 81.4984 39.0781 81.0232 39.0781 80.4369V79.9213C39.0781 79.335 39.5533 78.8599 40.1396 78.8599Z" fill="#BBEB6E"/>
<path id="Vector_58" d="M46.68 81.7509H40.1394C39.4166 81.7509 38.8252 81.1595 38.8252 80.4367V79.9211C38.8252 79.1983 39.4166 78.6069 40.1394 78.6069H46.6851C47.4079 78.6069 47.9993 79.1983 47.9993 79.9211V80.4367C47.9942 81.1595 47.4079 81.7509 46.68 81.7509ZM40.1394 79.1124C39.6946 79.1124 39.3307 79.4763 39.3307 79.9211V80.4367C39.3307 80.8815 39.6946 81.2454 40.1394 81.2454H46.6851C47.1299 81.2454 47.4938 80.8815 47.4938 80.4367V79.9211C47.4938 79.4763 47.1299 79.1124 46.6851 79.1124H40.1394Z" fill="#2E2E30"/>
</g>
<g id="Path-210_1_">
<path id="Vector_59" fill-rule="evenodd" clip-rule="evenodd" d="M37.2939 63.897V77.7466C37.2939 78.7524 38.1077 79.5662 39.1136 79.5662H47.5699C48.5758 79.5662 49.3896 78.7524 49.3896 77.7466C49.3896 77.6253 49.3795 77.504 49.3542 77.3826L46.6045 63.897H37.2939Z" fill="#BBEB6E"/>
<path id="Vector_60" d="M47.5697 79.8188H39.1134C37.9711 79.8188 37.041 78.8887 37.041 77.7464V63.644H46.8065L49.6017 77.3319C49.627 77.4684 49.6421 77.6048 49.6421 77.7464C49.6421 78.8887 48.7121 79.8188 47.5697 79.8188ZM37.5465 64.1495V77.7464C37.5465 78.6107 38.2491 79.3133 39.1134 79.3133H47.5697C48.4341 79.3133 49.1367 78.6107 49.1367 77.7464C49.1367 77.6402 49.1266 77.5341 49.1063 77.433L46.3971 64.1495H37.5465Z" fill="#2E2E30"/>
</g>
<g id="Path-210-Copy_1_">
<path id="Vector_61" fill-rule="evenodd" clip-rule="evenodd" d="M37.293 63.897V65.4791L47.2404 66.7225L46.6035 63.897H37.293Z" fill="#2E2E30"/>
</g>
<g id="Rectangle-Copy_1_">
<path id="Vector_62" fill-rule="evenodd" clip-rule="evenodd" d="M37.9002 60.8042H45.9674C46.8216 60.8042 47.5141 61.4967 47.5141 62.3509C47.5141 63.2051 46.8216 63.8976 45.9674 63.8976H37.9002C37.046 63.8976 36.3535 63.2051 36.3535 62.3509C36.3535 61.4967 37.046 60.8042 37.9002 60.8042Z" fill="#BBEB6E"/>
<path id="Vector_63" d="M45.9672 64.1501H37.9C36.9093 64.1501 36.1006 63.3414 36.1006 62.3507C36.1006 61.36 36.9093 60.5513 37.9 60.5513H45.9672C46.9579 60.5513 47.7666 61.36 47.7666 62.3507C47.7666 63.3414 46.9629 64.1501 45.9672 64.1501ZM37.9 61.0567C37.1873 61.0567 36.606 61.638 36.606 62.3507C36.606 63.0634 37.1873 63.6447 37.9 63.6447H45.9672C46.6799 63.6447 47.2611 63.0634 47.2611 62.3507C47.2611 61.638 46.6799 61.0567 45.9672 61.0567H37.9Z" fill="#2E2E30"/>
</g>
</g>
</g>
</g>
<g id="Oval_9_">
<path id="Vector_64" d="M17.7517 82.1337C19.1754 82.1337 20.3295 80.9796 20.3295 79.5559C20.3295 78.1322 19.1754 76.978 17.7517 76.978C16.328 76.978 15.1738 78.1322 15.1738 79.5559C15.1738 80.9796 16.328 82.1337 17.7517 82.1337Z" fill="white"/>
<path id="Vector_65" d="M17.7515 82.3862C16.1896 82.3862 14.9209 81.1175 14.9209 79.5557C14.9209 77.9938 16.1896 76.7251 17.7515 76.7251C19.3133 76.7251 20.582 77.9938 20.582 79.5557C20.582 81.1175 19.3133 82.3862 17.7515 82.3862ZM17.7515 77.2306C16.4676 77.2306 15.4264 78.2718 15.4264 79.5557C15.4264 80.8395 16.4676 81.8808 17.7515 81.8808C19.0353 81.8808 20.0766 80.8395 20.0766 79.5557C20.0766 78.2718 19.0353 77.2306 17.7515 77.2306Z" fill="#2E2E30"/>
</g>
<g id="Oval-Copy-3">
<path id="Vector_66" d="M34.9881 82.7404C35.7 82.7404 36.2771 82.1634 36.2771 81.4515C36.2771 80.7397 35.7 80.1626 34.9881 80.1626C34.2763 80.1626 33.6992 80.7397 33.6992 81.4515C33.6992 82.1634 34.2763 82.7404 34.9881 82.7404Z" fill="white"/>
<path id="Vector_67" d="M34.9879 82.993C34.1388 82.993 33.4463 82.3005 33.4463 81.4513C33.4463 80.6021 34.1388 79.9097 34.9879 79.9097C35.8371 79.9097 36.5296 80.6021 36.5296 81.4513C36.5296 82.3005 35.8371 82.993 34.9879 82.993ZM34.9879 80.4151C34.4168 80.4151 33.9517 80.8802 33.9517 81.4513C33.9517 82.0225 34.4168 82.4875 34.9879 82.4875C35.5591 82.4875 36.0241 82.0225 36.0241 81.4513C36.0241 80.8802 35.5591 80.4151 34.9879 80.4151Z" fill="#2E2E30"/>
</g>
<g id="Oval-Copy-4">
<path id="Vector_68" d="M53.134 82.1341C54.0412 82.1341 54.7767 81.3986 54.7767 80.4914C54.7767 79.5841 54.0412 78.8486 53.134 78.8486C52.2267 78.8486 51.4912 79.5841 51.4912 80.4914C51.4912 81.3986 52.2267 82.1341 53.134 82.1341Z" fill="white"/>
<path id="Vector_69" d="M53.1338 82.3867C52.0875 82.3867 51.2383 81.5375 51.2383 80.4912C51.2383 79.4449 52.0875 78.5957 53.1338 78.5957C54.1801 78.5957 55.0292 79.4449 55.0292 80.4912C55.0292 81.5375 54.1801 82.3867 53.1338 82.3867ZM53.1338 79.1012C52.3655 79.1012 51.7437 79.7229 51.7437 80.4912C51.7437 81.2595 52.3655 81.8812 53.1338 81.8812C53.9021 81.8812 54.5238 81.2595 54.5238 80.4912C54.5238 79.7229 53.9021 79.1012 53.1338 79.1012Z" fill="#2E2E30"/>
</g>
<g id="Oval-Copy-6">
<path id="Vector_70" d="M50.6573 65.4034C51.1179 65.4034 51.4913 65.03 51.4913 64.5694C51.4913 64.1088 51.1179 63.7354 50.6573 63.7354C50.1966 63.7354 49.8232 64.1088 49.8232 64.5694C49.8232 65.03 50.1966 65.4034 50.6573 65.4034Z" fill="white"/>
<path id="Vector_71" d="M50.6571 65.6559C50.0556 65.6559 49.5703 65.1707 49.5703 64.5692C49.5703 63.9677 50.0556 63.4824 50.6571 63.4824C51.2585 63.4824 51.7438 63.9677 51.7438 64.5692C51.7438 65.1707 51.2585 65.6559 50.6571 65.6559ZM50.6571 63.9879C50.3386 63.9879 50.0758 64.2507 50.0758 64.5692C50.0758 64.8876 50.3386 65.1504 50.6571 65.1504C50.9755 65.1504 51.2383 64.8876 51.2383 64.5692C51.2383 64.2507 50.9755 63.9879 50.6571 63.9879Z" fill="#2E2E30"/>
</g>
<g id="Path-Copy-10">
<path id="Vector_72" d="M2.88112 25.9281C2.73959 25.9281 2.62839 25.8169 2.62839 25.6753C2.62839 25.089 2.15326 24.6139 1.56693 24.6139C0.980592 24.6139 0.50546 25.089 0.50546 25.6753C0.50546 25.8169 0.394259 25.9281 0.25273 25.9281C0.111201 25.9281 0 25.8169 0 25.6753C0 24.811 0.702589 24.1084 1.56693 24.1084C2.43126 24.1084 3.13385 24.811 3.13385 25.6753C3.13385 25.8169 3.02265 25.9281 2.88112 25.9281Z" fill="#2E2E30"/>
</g>
</g>
</svg>
