<svg width="232" height="183" viewBox="0 0 232 183" fill="none" xmlns="http://www.w3.org/2000/svg">
<g id="Group 62">
<g id="Path-138">
<path id="Vector" d="M230.738 173.279C230.609 173.279 230.48 173.224 230.388 173.113L226.176 168.127C223.697 165.197 219.374 164.754 216.352 167.123L216.333 167.141C214.637 168.468 212.518 169.178 210.361 169.15C208.205 169.114 206.113 168.33 204.454 166.948L203.237 165.934C200.177 163.372 195.671 163.289 192.528 165.75L189.358 168.229C186.04 170.819 181.349 170.892 177.958 168.395L173.718 165.28C170.695 163.059 166.502 163.086 163.516 165.363L160.392 167.731C158.595 169.104 156.365 169.777 154.107 169.639C151.849 169.501 149.72 168.561 148.098 166.985L147.618 166.524C144.642 163.621 140.043 163.289 136.679 165.731L133.159 168.284C129.638 170.846 124.846 170.671 121.519 167.851L119.353 166.017C116.256 163.4 111.713 163.335 108.552 165.86L106.146 167.777C102.617 170.588 97.5755 170.505 94.1379 167.574L92.8477 166.469C89.5391 163.639 84.6546 163.768 81.4843 166.745L81.217 166.994C79.595 168.524 77.4753 169.335 75.2543 169.298C73.0332 169.261 70.9412 168.367 69.3837 166.782C66.4161 163.777 61.6975 163.51 58.4166 166.164L56.2232 167.934C52.8962 170.616 48.0394 170.422 44.9428 167.473C42.1227 164.791 37.7543 164.469 34.5747 166.717L33.0172 167.814C31.3584 168.985 29.4046 169.574 27.377 169.538C25.3495 169.491 23.4234 168.819 21.8198 167.574L21.2299 167.114C18.0228 164.644 13.5161 164.81 10.5117 167.519L5.99585 171.593C5.80232 171.759 5.51662 171.749 5.34152 171.556C5.17563 171.362 5.18484 171.077 5.37838 170.901L9.89423 166.828C13.2304 163.824 18.2347 163.63 21.7921 166.376L22.3819 166.837C25.3587 169.132 29.4138 169.224 32.4827 167.058L34.0402 165.98C37.5792 163.483 42.436 163.833 45.5787 166.819C48.3435 169.445 52.675 169.63 55.6518 167.224L57.8452 165.455C59.6055 164.036 61.8173 163.326 64.0845 163.455C66.3424 163.584 68.4621 164.542 70.0564 166.155C72.9134 169.049 77.6412 169.132 80.5996 166.349L80.8668 166.1C84.3781 162.791 89.7879 162.662 93.4559 165.787L94.7462 166.892C97.8428 169.537 102.395 169.611 105.575 167.068L107.98 165.151C111.492 162.349 116.524 162.423 119.952 165.326L122.118 167.16C125.122 169.694 129.435 169.86 132.615 167.547L136.135 164.994C139.859 162.285 144.964 162.653 148.264 165.87L148.743 166.33C151.738 169.252 156.512 169.538 159.839 167.003L162.963 164.625C164.594 163.381 166.548 162.718 168.603 162.699C168.631 162.699 168.659 162.699 168.686 162.699C170.714 162.699 172.64 163.335 174.271 164.533L178.511 167.648C181.57 169.897 185.8 169.842 188.796 167.501L191.966 165.022C193.662 163.695 195.781 162.985 197.938 163.022C200.095 163.059 202.187 163.842 203.836 165.224L205.053 166.238C208.113 168.809 212.619 168.883 215.771 166.413L215.789 166.395C217.439 165.105 219.485 164.515 221.568 164.727C223.651 164.939 225.54 165.934 226.886 167.528L231.097 172.514C231.263 172.708 231.236 173.003 231.042 173.159C230.941 173.252 230.839 173.279 230.738 173.279Z" fill="#2E2E30"/>
</g>
<g id="Path-138-Copy">
<path id="Vector_2" d="M222.506 182.256C222.377 182.256 222.248 182.2 222.155 182.09L218.248 177.472C215.962 174.763 211.981 174.357 209.188 176.542C207.603 177.786 205.622 178.449 203.613 178.412C201.604 178.376 199.641 177.648 198.102 176.357L197.401 175.767C194.341 173.205 189.835 173.122 186.692 175.583L184.563 177.242C181.246 179.832 176.555 179.905 173.163 177.408L170.03 175.104C167.007 172.883 162.813 172.911 159.827 175.187L157.496 176.956C155.772 178.265 153.634 178.919 151.469 178.79C149.303 178.661 147.266 177.758 145.709 176.247C142.796 173.417 138.308 173.086 135.018 175.473L132.493 177.307C128.972 179.869 124.18 179.693 120.862 176.873L119.664 175.86C116.567 173.242 112.024 173.178 108.863 175.703L107.471 176.809C103.942 179.62 98.9003 179.537 95.4628 176.606L94.7255 175.979C91.6381 173.344 87.0946 173.463 84.1455 176.237L83.952 176.422C82.4405 177.841 80.4775 178.606 78.4039 178.569C76.3303 178.532 74.3949 177.703 72.9388 176.228C70.2016 173.454 65.8517 173.205 62.8196 175.657L60.7921 177.297C57.6955 179.795 53.1796 179.611 50.2858 176.873C47.6777 174.394 43.6595 174.099 40.7196 176.173L39.6782 176.91C38.0193 178.081 36.0655 178.671 34.038 178.634C32.0104 178.588 30.0843 177.915 28.4807 176.671L28.3148 176.542C25.3565 174.256 21.2 174.422 18.426 176.919L14.2419 180.689C14.0484 180.855 13.7627 180.845 13.5876 180.652C13.4217 180.458 13.4309 180.173 13.6245 179.998L17.8085 176.228C20.9143 173.427 25.5684 173.252 28.877 175.804L29.0429 175.933C32.0197 178.228 36.0747 178.32 39.1436 176.155L40.1851 175.417C43.4844 173.095 48.0002 173.427 50.9217 176.201C53.4746 178.624 57.4651 178.79 60.2115 176.578L62.239 174.938C65.6397 172.192 70.5242 172.468 73.5931 175.583C76.2289 178.256 80.5881 178.33 83.3253 175.758L83.5188 175.574C86.8089 172.468 91.8869 172.348 95.3337 175.279L96.071 175.906C99.1676 178.551 103.72 178.624 106.9 176.081L108.291 174.975C111.803 172.173 116.835 172.247 120.263 175.15L121.461 176.164C124.466 178.698 128.779 178.864 131.958 176.551L134.483 174.717C138.133 172.063 143.128 172.422 146.354 175.574C149.211 178.357 153.763 178.634 156.934 176.219L159.265 174.45C160.897 173.205 162.85 172.542 164.906 172.523C164.933 172.523 164.961 172.523 164.988 172.523C167.016 172.523 168.942 173.159 170.573 174.357L173.707 176.661C176.767 178.91 180.997 178.855 183.992 176.514L186.121 174.855C187.817 173.528 189.936 172.818 192.093 172.855C194.249 172.892 196.341 173.675 197.991 175.058L198.691 175.648C201.53 178.025 205.705 178.099 208.617 175.814C211.797 173.316 216.34 173.786 218.948 176.873L222.856 181.491C223.022 181.684 222.994 181.979 222.801 182.136C222.708 182.219 222.607 182.256 222.506 182.256Z" fill="#2E2E30"/>
</g>
<g id="Group-39">
<g id="Group-26-Copy-3">
<g id="Group-Copy">
<g id="Path-77">
<path id="Vector_3" fill-rule="evenodd" clip-rule="evenodd" d="M81.6562 64.5257C95.2419 67.2032 105.282 60.8299 111.782 45.3988L116.78 49.5929C109.085 69.6881 97.8543 77.9973 83.0607 74.5227L81.6562 64.5257Z" fill="white"/>
</g>
<g id="Path">
<path id="Vector_4" d="M92.1134 75.4901C89.6732 75.4877 87.0575 75.0493 84.2061 74.1606L83.9302 74.0735L82.3863 63.0813L83.0712 63.2831C90.2242 65.4113 96.1892 64.353 101.297 60.0728C106.044 56.0922 109.165 50.0365 111.358 45.2C111.469 44.968 111.735 44.8662 111.973 44.9697C112.205 45.0802 112.306 45.346 112.203 45.5841C107.91 55.059 101.581 65.2681 89.8389 65.2684C87.8765 65.27 85.7712 64.9832 83.4995 64.3642L84.7645 73.366C102.349 78.6766 108.753 65.2948 115.527 51.1283C115.81 50.5476 116.08 49.9679 116.362 49.3871C116.473 49.155 116.746 49.0592 116.978 49.1697C117.21 49.2803 117.306 49.5532 117.195 49.7853C116.913 50.366 116.643 50.9457 116.36 51.5265C112.853 58.8459 109.553 65.7612 104.713 70.3385C102.085 72.8253 99.2633 74.3674 96.0927 75.0635C94.809 75.3459 93.487 75.4877 92.1134 75.4901Z" fill="#2E2E30"/>
</g>
<g id="Path-78">
<path id="Vector_5" d="M115.105 49.4643C114.987 49.4615 114.873 49.4257 114.78 49.3357C114.594 49.1558 114.595 48.8678 114.775 48.682C115.808 47.6235 116.56 46.354 117.022 44.9007C117.098 44.6519 117.362 44.5242 117.597 44.6017C117.846 44.6781 117.974 44.9417 117.896 45.1774C117.394 46.7651 116.561 48.1594 115.427 49.325C115.35 49.4167 115.229 49.46 115.105 49.4643Z" fill="#2E2E30"/>
</g>
<g id="Path-78-Copy">
<path id="Vector_6" d="M116.554 50.3187C116.436 50.3159 116.315 50.2742 116.229 50.1901C116.043 50.0102 116.05 49.7152 116.224 49.5364C117.144 48.6121 117.79 47.4697 118.152 46.1493C118.215 45.9017 118.47 45.7551 118.712 45.8255C118.96 45.8889 119.106 46.1443 119.036 46.3859C118.636 47.8666 117.903 49.1409 116.869 50.1864C116.791 50.2652 116.678 50.3144 116.554 50.3187Z" fill="#2E2E30"/>
</g>
<g id="Path-79">
<path id="Vector_7" d="M109.855 49.2568C109.665 49.2538 109.492 49.1446 109.423 48.9544C108.824 47.3452 108.785 46.0731 109.314 45.1698C109.763 44.3914 110.609 43.8986 111.816 43.708C112.067 43.6664 112.305 43.8418 112.347 44.0933C112.388 44.3448 112.213 44.5826 111.961 44.6242C111.032 44.7709 110.408 45.1133 110.108 45.6433C109.727 46.2981 109.782 47.3072 110.285 48.6435C110.372 48.8845 110.25 49.1437 110.016 49.2361C109.959 49.2477 109.908 49.2652 109.855 49.2568Z" fill="#2E2E30"/>
</g>
<g id="Path-80">
<path id="Vector_8" d="M112.268 47.0828C112.163 47.0789 112.056 47.0491 111.971 46.978C111.773 46.8121 111.748 46.5265 111.914 46.3288C112.85 45.2133 113.264 43.9604 113.189 42.5017C113.173 42.2479 113.37 42.0279 113.623 42.0123C113.877 41.9966 114.097 42.1932 114.113 42.447C114.201 44.1335 113.704 45.6292 112.626 46.9141C112.524 47.0212 112.399 47.0845 112.268 47.0828Z" fill="#2E2E30"/>
</g>
<g id="Path-81">
<path id="Vector_9" d="M113.905 48.4571C113.774 48.4555 113.651 48.4008 113.564 48.3037C113.397 48.1155 113.411 47.8265 113.605 47.6525C114.843 46.5499 115.596 44.7636 115.824 42.356C115.847 42.0988 116.073 41.9155 116.33 41.9388C116.588 41.9621 116.771 42.1881 116.748 42.4452C116.496 45.097 115.642 47.0753 114.228 48.3437C114.117 48.4189 114.016 48.4539 113.905 48.4571Z" fill="#2E2E30"/>
</g>
</g>
</g>
<g id="Group-26-Copy-4">
<g id="Group-Copy_1_">
<g id="Path-77_1_">
<path id="Vector_10" fill-rule="evenodd" clip-rule="evenodd" d="M45.3887 69.1888C31.8031 71.8663 21.7632 65.493 15.2634 50.0619L10.265 54.256C17.9595 74.3512 29.1906 82.6603 43.9842 79.1858L45.3887 69.1888Z" fill="white"/>
</g>
<g id="Path_1_">
<path id="Vector_11" d="M34.9302 80.1535C33.5567 80.1511 32.2275 80.0152 30.9569 79.7339C27.7792 79.0438 24.9585 77.4887 22.3363 75.009C17.5029 70.4388 14.1967 63.5163 10.6896 56.1969C10.4068 55.6162 10.137 55.0365 9.8542 54.4557C9.74367 54.2236 9.8395 53.9507 10.0716 53.8402C10.3037 53.7297 10.5766 53.8255 10.6871 54.0576C10.9699 54.6384 11.2397 55.218 11.5226 55.7988C18.3037 69.9593 24.7022 83.3341 42.2921 78.0305L43.5572 69.0288C41.2854 69.6477 39.1742 69.9274 37.2178 69.9329C25.4756 69.9326 19.1469 59.7236 14.8537 50.2486C14.7432 50.0165 14.852 49.7448 15.0841 49.6342C15.3162 49.5237 15.588 49.6325 15.6985 49.8646C17.892 54.701 21.0124 60.7568 25.7601 64.7373C30.8734 69.0246 36.8395 70.0699 43.9854 67.9476L44.6703 67.7459L43.1264 78.738L42.8506 78.8251C39.9862 79.7127 37.3704 80.1511 34.9302 80.1535Z" fill="#2E2E30"/>
</g>
<g id="Path-78_1_">
<path id="Vector_12" d="M11.931 54.1337C11.813 54.1365 11.6865 54.0862 11.5965 53.9933C10.4622 52.8277 9.62906 51.4334 9.1269 49.8457C9.05053 49.597 9.18418 49.3405 9.42584 49.27C9.67456 49.1937 9.93108 49.3273 10.0015 49.569C10.4572 51.0153 11.2155 52.2918 12.2481 53.3503C12.4281 53.5361 12.422 53.83 12.2432 54.004C12.1644 54.0822 12.049 54.131 11.931 54.1337Z" fill="#2E2E30"/>
</g>
<g id="Path-78-Copy_1_">
<path id="Vector_13" d="M10.4903 54.9824C10.3723 54.9852 10.2518 54.9419 10.1618 54.849C9.1281 53.8035 8.39572 52.5292 7.99539 51.0485C7.93201 50.8009 8.07159 50.5515 8.31917 50.4881C8.56676 50.4247 8.81621 50.5643 8.87959 50.8119C9.24161 52.1323 9.88741 53.2747 10.8074 54.199C10.9874 54.3848 10.9884 54.6728 10.8025 54.8527C10.7237 54.9309 10.6083 54.9797 10.4903 54.9824Z" fill="#2E2E30"/>
</g>
<g id="Path-79_1_">
<path id="Vector_14" d="M17.1891 53.9202C17.1372 53.9156 17.0853 53.9111 17.0285 53.8865C16.7875 53.8 16.6674 53.5278 16.7598 53.2939C17.2557 51.9635 17.3183 50.9485 16.9373 50.2937C16.6299 49.7697 16.0057 49.4272 15.0836 49.2746C14.8321 49.233 14.6626 49.0023 14.6983 48.7437C14.7399 48.4922 14.9706 48.3227 15.2292 48.3584C16.4417 48.5561 17.2882 49.0488 17.731 49.8202C18.2603 50.7235 18.221 51.9956 17.6223 53.6048C17.5522 53.808 17.372 53.9231 17.1891 53.9202Z" fill="#2E2E30"/>
</g>
<g id="Path-80_1_">
<path id="Vector_15" d="M14.7768 51.7467C14.6458 51.7483 14.5135 51.6909 14.4246 51.585C13.3465 50.3001 12.8434 48.7973 12.938 47.1179C12.9537 46.8641 13.1666 46.6734 13.4274 46.6832C13.6812 46.6988 13.8719 46.9118 13.8621 47.1726C13.7868 48.6313 14.2006 49.8842 15.1365 50.9997C15.3024 51.1974 15.2774 51.483 15.0797 51.6489C14.9891 51.7129 14.8818 51.7428 14.7768 51.7467Z" fill="#2E2E30"/>
</g>
<g id="Path-81_1_">
<path id="Vector_16" d="M13.1377 53.1206C13.0268 53.1174 12.9252 53.0824 12.8341 53.0024C11.4138 51.7399 10.5669 49.7557 10.3148 47.1039C10.2915 46.8468 10.4748 46.6208 10.732 46.5975C10.9892 46.5742 11.2152 46.7575 11.2385 47.0146C11.459 49.4282 12.2061 51.2074 13.4501 52.3171C13.6383 52.484 13.6581 52.7801 13.4912 52.9683C13.3912 53.0643 13.2616 53.1249 13.1377 53.1206Z" fill="#2E2E30"/>
</g>
</g>
</g>
<g id="Group-26">
<g id="Path-7">
<path id="Vector_17" fill-rule="evenodd" clip-rule="evenodd" d="M56.0255 60.0052C53.4368 59.3863 50.3764 60.5707 46.8253 63.5505C43.0765 66.6961 39.3296 66.2309 35.7762 68.1899L38.4447 83.299L60.1319 74.6055L56.0255 60.0052Z" fill="#4321F5"/>
</g>
</g>
<g id="Group-5">
<g id="Rectangle-Copy">
<path id="Vector_18" fill-rule="evenodd" clip-rule="evenodd" d="M62.6367 89.6069H80.1103L85.7689 119.928H70.5533L62.6367 89.6069Z" fill="black"/>
</g>
<g id="Group-4">
<g id="Rectangle">
<path id="Vector_19" fill-rule="evenodd" clip-rule="evenodd" d="M50.9606 89.6069H68.4342L63.4852 119.928H48.2695L50.9606 89.6069Z" fill="black"/>
</g>
<g id="Path-76">
<path id="Vector_20" d="M65.0051 111.172C64.9867 111.172 64.9683 111.172 64.9498 111.172C64.701 111.136 64.5167 110.905 64.5535 110.656L66.5626 95.109C66.5995 94.8602 66.8299 94.6758 67.0787 94.7127C67.3276 94.7496 67.5119 94.98 67.475 95.2288L65.4567 110.776C65.4291 110.997 65.2355 111.172 65.0051 111.172Z" fill="white"/>
</g>
</g>
</g>
<g id="Group-3">
<g id="Path-6">
<path id="Vector_21" fill-rule="evenodd" clip-rule="evenodd" d="M60.2772 51.5635L58.9685 58.4478C55.66 59.6275 53.1993 60.7518 51.5957 61.8209C72.1659 64.512 81.0685 64.982 78.3222 63.2402C75.5666 61.4983 72.0737 59.5906 67.8251 57.5354V51.5819L60.2772 51.5635Z" fill="white"/>
</g>
<g id="Oval-Copy-2">
<path id="Vector_22" d="M67.5179 45.5124C66.2936 46.5397 66.2985 48.5609 67.5287 50.0269C68.7588 51.4928 70.7485 51.8484 71.9728 50.8211C73.197 49.7938 73.1922 47.7725 71.962 46.3066C70.7318 44.8406 68.7421 44.485 67.5179 45.5124Z" fill="#2E2E30"/>
</g>
<g id="Group-12">
<g id="Path_2_">
<path id="Vector_23" fill-rule="evenodd" clip-rule="evenodd" d="M60.4441 43.7798H69.6785V46.3787C69.9089 49.6412 69.5587 51.9452 68.6371 53.2723C67.2547 55.2721 62.0292 55.7975 60.1676 51.2724C58.9234 48.2588 59.0156 45.7612 60.4441 43.7798Z" fill="white"/>
</g>
<g id="Path-14">
<path id="Vector_24" d="M65.6141 55.1341C64.9229 55.1341 64.1671 55.0327 63.3469 54.8207C63.0981 54.7562 62.9506 54.5074 63.0151 54.2586C63.0797 54.0097 63.3285 53.8623 63.5773 53.9268C65.4021 54.3968 66.8214 54.2954 67.789 53.6227C68.7567 52.9499 69.3558 51.6689 69.5677 49.8165C69.5954 49.5676 69.8258 49.3833 70.0746 49.411C70.3234 49.4386 70.5078 49.669 70.4801 49.9178C70.2497 52.0467 69.5124 53.5489 68.3144 54.3784C67.5863 54.8853 66.6831 55.1341 65.6141 55.1341Z" fill="#2E2E30"/>
</g>
</g>
<g id="Path-8">
<path id="Vector_25" d="M66.1863 51.8581C65.449 51.8581 64.6564 51.5079 63.9284 50.4481C63.7901 50.2361 63.8362 49.9504 64.0482 49.8122C64.2601 49.6739 64.5458 49.72 64.6841 49.932C65.3753 50.9549 66.1218 51.1853 67.0987 50.6877C67.3291 50.5679 67.6056 50.66 67.7162 50.8904C67.836 51.1208 67.7438 51.3973 67.5134 51.5079C67.1448 51.7107 66.6747 51.8581 66.1863 51.8581Z" fill="#2E2E30"/>
</g>
<g id="Path-2">
<path id="Vector_26" fill-rule="evenodd" clip-rule="evenodd" d="M60.839 48.8999L61.5579 44.9278C66.8018 46.5866 70.8661 46.1811 73.7507 43.7112C78.0822 40.0064 75.1147 34.3201 69.4192 35.168C65.6222 35.7302 62.7652 36.9006 60.8298 38.6793C59.641 38.3752 58.535 38.9927 57.5121 40.5225C55.9822 42.8265 55.6781 46.1351 57.5121 50.3836C58.747 53.2222 59.8437 52.7337 60.839 48.8999Z" fill="#2E2E30"/>
</g>
<g id="Group-8">
<g id="Path-24">
<path id="Vector_27" d="M73.9668 39.6939C73.764 39.6939 73.5797 39.5556 73.5244 39.3529C73.2018 38.1179 72.6397 37.3991 71.8194 37.1595C70.9347 36.9014 69.6905 37.0304 68.133 37.5557C67.8934 37.6387 67.6262 37.5097 67.5524 37.2608C67.4695 37.0212 67.5985 36.754 67.8473 36.6802C69.6168 36.0904 71.0084 35.9522 72.0959 36.2747C73.2387 36.6157 74.0221 37.565 74.4276 39.1132C74.4921 39.3621 74.3446 39.6109 74.0958 39.6754C74.0497 39.6846 74.0036 39.6939 73.9668 39.6939Z" fill="white"/>
</g>
<g id="Oval">
<path id="Vector_28" d="M73.4666 40.5862C73.26 40.7596 73.2331 41.0677 73.4065 41.2743C73.5799 41.4809 73.888 41.5079 74.0946 41.3345C74.3012 41.1611 74.3282 40.853 74.1548 40.6464C73.9814 40.4397 73.6733 40.4128 73.4666 40.5862Z" fill="white"/>
</g>
</g>
<g id="Path-3">
<path id="Vector_29" d="M58.5433 46.2639C58.3497 46.2639 58.1562 46.1717 58.0272 46.0058L56.5065 43.9691C55.6586 42.8355 55.3084 41.4439 55.5112 40.0431C55.7047 38.6515 56.442 37.4165 57.5756 36.5687C58.746 35.6931 60.239 35.3429 61.6767 35.601C62.0269 35.6655 62.2573 35.9973 62.202 36.3475C62.1467 36.6977 61.8057 36.9281 61.4555 36.8728C60.368 36.6793 59.2437 36.9465 58.3589 37.6101C56.5895 38.928 56.23 41.4439 57.5479 43.2042L59.0686 45.2409C59.2805 45.5266 59.2252 45.9321 58.9395 46.1441C58.8197 46.227 58.6815 46.2639 58.5433 46.2639Z" fill="#4321F5"/>
</g>
<g id="Oval_1_">
<path id="Vector_30" d="M63.5248 47.0304C63.3454 47.1809 63.3618 47.4957 63.5614 47.7335C63.761 47.9714 64.0682 48.0421 64.2475 47.8916C64.4269 47.7411 64.4105 47.4263 64.2109 47.1885C64.0113 46.9507 63.7041 46.8799 63.5248 47.0304Z" fill="#2E2E30"/>
</g>
<g id="Oval-Copy-3">
<path id="Vector_31" d="M68.0482 47.028C67.8689 47.1785 67.8853 47.4933 68.0849 47.7311C68.2844 47.9689 68.5916 48.0397 68.771 47.8892C68.9503 47.7387 68.9339 47.4239 68.7343 47.1861C68.5348 46.9482 68.2276 46.8774 68.0482 47.028Z" fill="#2E2E30"/>
</g>
<g id="Path-4">
<path id="Vector_32" d="M66.3499 50.3282C66.1102 50.3282 65.9075 50.1438 65.8891 49.895C65.8706 49.637 66.0642 49.425 66.3222 49.4066C66.7738 49.3789 66.9765 49.3052 67.0687 49.2591C66.9673 49.0748 66.6171 48.5863 65.4098 47.4436C65.2255 47.2685 65.2163 46.9735 65.3914 46.7892C65.5665 46.6049 65.8614 46.5957 66.0457 46.7708C67.8521 48.485 68.1286 49.0748 67.9995 49.5079C67.806 50.1623 66.9858 50.2821 66.3775 50.3282C66.3683 50.3282 66.3591 50.3282 66.3499 50.3282Z" fill="#2E2E30"/>
</g>
<g id="Path-5">
<path id="Vector_33" d="M62.7546 44.7157C62.7177 44.7157 62.6716 44.7065 62.644 44.6881C62.5334 44.6236 62.4965 44.4853 62.561 44.3747C62.7914 43.9692 63.5195 43.3241 64.6162 43.7757C64.736 43.8218 64.7913 43.96 64.7452 44.0798C64.6992 44.1996 64.5609 44.2549 64.4411 44.2088C63.4642 43.8033 63.0126 44.5222 62.9665 44.6051C62.9112 44.6789 62.8375 44.7157 62.7546 44.7157Z" fill="#2E2E30"/>
</g>
<g id="Path-5-Copy">
<path id="Vector_34" d="M69.3901 44.8631C69.3072 44.8631 69.2335 44.8263 69.1874 44.7433C69.1413 44.6604 68.6805 43.9415 67.7128 44.347C67.593 44.3931 67.464 44.3378 67.4087 44.218C67.3534 44.0982 67.4179 43.9692 67.5377 43.9139C68.6344 43.4623 69.3625 44.1074 69.5929 44.5129C69.6574 44.6235 69.6205 44.7617 69.5099 44.8263C69.4731 44.8539 69.4362 44.8631 69.3901 44.8631Z" fill="#2E2E30"/>
</g>
<g id="Group-2">
<g id="Path-6-Copy">
<path id="Vector_35" fill-rule="evenodd" clip-rule="evenodd" d="M59.3083 54.6748L58.9765 58.4441C54.5805 59.6238 51.576 60.7481 49.9724 61.8172L51.0507 83.8435L48.9863 92.9304C52.3686 91.5296 58.23 91.1702 66.5705 91.8429C74.911 92.5157 79.9337 91.8245 81.6479 89.7601C81.3161 86.4147 80.5143 83.7236 79.2241 81.7053C79.0951 68.5449 78.9568 61.9094 78.8186 61.8172C76.063 60.0754 72.7452 58.6653 68.8653 57.5963L68.4137 55.3107C67.8792 55.8821 66.2848 56.1033 63.6398 55.9927C60.9856 55.8821 59.5479 55.4397 59.3083 54.6748Z" fill="#4321F5"/>
</g>
<g id="Path-184">
<path id="Vector_36" d="M50.8202 78.9591C50.5621 78.9591 50.3594 78.7563 50.3594 78.4983V74.517C50.3594 74.2589 50.5621 74.0562 50.8202 74.0562C51.0782 74.0562 51.281 74.2589 51.281 74.517V78.4983C51.281 78.7563 51.0782 78.9591 50.8202 78.9591Z" fill="#2E2E30"/>
</g>
<g id="Path-7-Copy">
<path id="Vector_37" fill-rule="evenodd" clip-rule="evenodd" d="M68.7268 58.3704C71.1599 57.3198 74.3855 57.9465 78.4036 60.2689C82.643 62.7112 86.2465 61.6053 90.0804 62.9139V78.2586L67.2246 73.4662L68.7268 58.3704Z" fill="#4321F5"/>
</g>
<g id="Path-82">
<path id="Vector_38" d="M79.0682 74.6272C78.8194 74.6272 78.6166 74.4245 78.6074 74.1756C78.5245 70.48 78.6074 67.8534 78.847 66.3789C78.8839 66.1301 79.1235 65.9549 79.3724 66.001C79.6212 66.0379 79.7963 66.2775 79.7502 66.5263C79.5198 67.9456 79.4461 70.5169 79.5198 74.1572C79.529 74.4152 79.3263 74.618 79.0682 74.6272Z" fill="#2E2E30"/>
</g>
</g>
<g id="Oval_2_">
<path id="Vector_39" d="M56.43 46.1496C55.2058 47.1769 55.2106 49.1981 56.4408 50.6641C57.671 52.13 59.6607 52.4856 60.8849 51.4583C62.1091 50.431 62.1043 48.4097 60.8741 46.9438C59.6439 45.4778 57.6542 45.1223 56.43 46.1496Z" fill="#2E2E30"/>
</g>
<g id="Oval-Copy">
<path id="Vector_40" d="M56.741 46.8539C55.8443 47.6064 55.8494 49.0888 56.7524 50.1648C57.6554 51.2409 59.1144 51.5032 60.0111 50.7507C60.9078 49.9982 60.9027 48.5159 59.9997 47.4398C59.0967 46.3637 57.6377 46.1014 56.741 46.8539Z" fill="white"/>
<path id="Vector_41" d="M58.3774 51.5817C57.078 51.5817 56.0273 50.3376 56.0273 48.8077C56.0273 47.2779 57.078 46.0337 58.3774 46.0337C59.6769 46.0337 60.7275 47.2779 60.7275 48.8077C60.7275 50.3376 59.6769 51.5817 58.3774 51.5817ZM58.3774 46.4853C57.336 46.4853 56.4881 47.5267 56.4881 48.7985C56.4881 50.0703 57.336 51.1117 58.3774 51.1117C59.4188 51.1117 60.2667 50.0703 60.2667 48.7985C60.2667 47.5267 59.4188 46.4853 58.3774 46.4853Z" fill="#2E2E30"/>
</g>
</g>
</g>
<g id="Group-37">
<g id="Group-26-Copy-2">
<g id="Group-Copy_2_">
<g id="Path-77_2_">
<path id="Vector_42" fill-rule="evenodd" clip-rule="evenodd" d="M165.708 57.8841C152.636 51.6377 145.647 42.5401 144.726 30.6061L138.552 32.8535C140.196 49.4178 147.667 60.7531 160.936 66.8686L165.708 57.8841Z" fill="white"/>
</g>
<g id="Path_3_">
<path id="Vector_43" d="M161.141 67.4604L160.743 67.2818C154.061 64.202 148.762 59.7462 144.993 54.027C141.24 48.322 138.917 41.2135 138.086 32.8951C138.062 32.6392 138.245 32.4155 138.501 32.3911C138.757 32.3666 138.981 32.55 139.005 32.8059C140.615 48.9513 147.917 60.2008 160.732 66.2558L165.078 58.0934C158.71 54.9875 153.742 51.1466 150.296 46.6635C146.76 42.0663 144.729 36.6757 144.27 30.6445C144.245 30.3886 144.44 30.1705 144.696 30.146C144.944 30.1247 145.17 30.3167 145.195 30.5726C146.092 42.2798 153.065 51.3342 165.912 57.4759L166.349 57.6797L161.141 67.4604Z" fill="#2E2E30"/>
</g>
<g id="Path-78_2_">
<path id="Vector_44" d="M140.332 33.3235C140.154 33.3196 139.991 33.222 139.911 33.0551C139.241 31.5633 138.931 29.9595 139.008 28.2839C139.021 28.0241 139.235 27.8287 139.486 27.8452C139.746 27.8585 139.941 28.0718 139.925 28.323C139.856 29.8584 140.132 31.3173 140.752 32.6706C140.857 32.9068 140.751 33.1809 140.524 33.2833C140.466 33.314 140.394 33.3306 140.332 33.3235Z" fill="#2E2E30"/>
</g>
<g id="Path-78-Copy_2_">
<path id="Vector_45" d="M138.67 33.6344C138.495 33.6392 138.329 33.5329 138.248 33.366C137.623 32.0245 137.376 30.5648 137.512 29.0246C137.537 28.7703 137.753 28.5836 138.008 28.6088C138.262 28.6339 138.449 28.8503 138.423 29.1047C138.306 30.481 138.526 31.7841 139.077 32.976C139.183 33.2122 139.085 33.4831 138.849 33.5887C138.803 33.6249 138.74 33.6383 138.67 33.6344Z" fill="#2E2E30"/>
</g>
<g id="Path-79_2_">
<path id="Vector_46" d="M145.373 34.9412C145.266 34.9413 145.162 34.9004 145.079 34.8327C144.882 34.669 144.862 34.3721 145.029 34.1839C145.964 33.0884 146.362 32.1591 146.233 31.4017C146.123 30.8041 145.651 30.2602 144.825 29.7959C144.603 29.6708 144.522 29.396 144.644 29.1653C144.769 28.9432 145.044 28.8628 145.275 28.9848C146.358 29.5907 146.977 30.3464 147.141 31.2282C147.324 32.2699 146.855 33.4605 145.733 34.7711C145.64 34.8931 145.51 34.9404 145.373 34.9412Z" fill="#2E2E30"/>
</g>
<g id="Path-80_2_">
<path id="Vector_47" d="M143.851 32.0524C143.664 32.0517 143.486 31.9399 143.417 31.7494C142.84 30.1646 142.887 28.5686 143.547 27.0141C143.648 26.781 143.914 26.6746 144.156 26.773C144.389 26.8745 144.495 27.1398 144.397 27.3815C143.822 28.7384 143.785 30.0659 144.286 31.4429C144.374 31.6853 144.253 31.9452 144.011 32.0335C143.956 32.0437 143.9 32.054 143.851 32.0524Z" fill="#2E2E30"/>
</g>
<g id="Path-81_2_">
<path id="Vector_48" d="M141.825 32.7901C141.658 32.7918 141.498 32.7028 141.421 32.5446C140.512 30.8551 140.392 28.6923 141.064 26.0937C141.13 25.8441 141.383 25.7031 141.63 25.7605C141.879 25.8266 142.029 26.0761 141.963 26.3257C141.351 28.6865 141.442 30.6344 142.235 32.1113C142.354 32.3325 142.272 32.6176 142.05 32.7373C141.973 32.7657 141.891 32.7854 141.825 32.7901Z" fill="#2E2E30"/>
</g>
</g>
</g>
<g id="Group-25-Copy">
<g id="Group-24">
<g id="Group-23">
<g id="Path-101-Copy">
<path id="Vector_49" fill-rule="evenodd" clip-rule="evenodd" d="M169.494 92.2002C160.057 103.554 155.477 113.176 155.763 121.065C156.187 132.907 170.932 123.894 171.54 119.295C172.149 114.696 185.669 103.425 184.231 92.2002H169.494Z" fill="black"/>
</g>
</g>
<g id="Group-21">
<g id="Path-101">
<path id="Vector_50" fill-rule="evenodd" clip-rule="evenodd" d="M181.832 92.2001C176.505 103.554 173.98 113.176 174.266 121.065C174.69 132.907 189.435 123.894 190.044 119.295C190.652 114.706 198.006 103.416 196.578 92.1909H181.832V92.2001Z" fill="black"/>
</g>
<g id="Path-104">
<path id="Vector_51" d="M174.837 113.581C174.809 113.581 174.782 113.581 174.754 113.572C174.505 113.526 174.339 113.286 174.376 113.038C175.196 108.383 176.634 103.499 178.652 98.5223C178.745 98.2827 179.021 98.1721 179.251 98.2643C179.491 98.3564 179.602 98.6329 179.51 98.8633C177.519 103.775 176.1 108.595 175.289 113.185C175.252 113.425 175.058 113.581 174.837 113.581Z" fill="white"/>
</g>
</g>
</g>
<g id="Group-13">
<g id="Group-4_2_">
<g id="Group-3_1_">
<g id="Oval-Copy-2_1_">
<path id="Vector_52" d="M177.947 53.716C179.326 53.716 180.444 52.375 180.444 50.7208C180.444 49.0666 179.326 47.7256 177.947 47.7256C176.567 47.7256 175.449 49.0666 175.449 50.7208C175.449 52.375 176.567 53.716 177.947 53.716Z" fill="#2E2E30"/>
</g>
<g id="Path-88">
<path id="Vector_53" fill-rule="evenodd" clip-rule="evenodd" d="M185.956 47.7072C183.256 49.1173 180.795 49.4675 178.547 48.7671C175.183 47.7072 175.616 44.6291 178.15 43.0623C180.685 41.4956 186.03 40.3713 189.634 43.9287C193.237 47.486 194.131 52.1032 200.803 57.596C207.476 63.0887 195.154 71.42 189.21 70.7472C183.265 70.0744 176.418 58.6835 178.326 55.0708C179.597 52.6562 182.141 50.2047 185.956 47.7072Z" fill="#2E2E30"/>
</g>
<g id="Group-4_1_">
<g id="Path-90">
<path id="Vector_54" fill-rule="evenodd" clip-rule="evenodd" d="M187.762 61.2892C194.766 62.2569 199.771 64.7084 202.775 68.6252C207.282 74.505 205.097 79.9424 205.097 79.9424L195.218 76.0809C194.324 81.6658 194.324 85.3891 195.218 87.2599C196.112 89.1215 197.006 91.2504 197.9 93.6466L167.303 93.0752C171.026 86.7991 172.362 80.3848 171.302 73.8322L157.441 67.6114L161.533 54.8564C164.971 56.6812 167.809 58.2203 170.049 59.4644C172.851 59.4092 174.97 59.999 176.426 61.2616C177.883 62.5242 181.661 62.5242 187.762 61.2892Z" fill="#4321F5"/>
</g>
<g id="Path-136">
<path id="Vector_55" d="M186.914 69.8416C186.812 69.8416 186.72 69.814 186.637 69.7495L182.287 66.5147C182.085 66.3672 182.039 66.0723 182.195 65.8695C182.343 65.6668 182.638 65.6207 182.84 65.7774L186.647 68.6159L188.434 61.7869C188.499 61.538 188.748 61.3906 188.997 61.4551C189.245 61.5196 189.393 61.7684 189.328 62.0173L187.365 69.5099C187.329 69.6573 187.218 69.7771 187.07 69.8324C187.024 69.8324 186.969 69.8416 186.914 69.8416Z" fill="#2E2E30"/>
</g>
<g id="Path-137">
<path id="Vector_56" d="M177.477 69.8416C177.421 69.8416 177.366 69.8324 177.311 69.814C177.163 69.7587 177.053 69.6297 177.025 69.473L175.412 61.3076C175.366 61.0588 175.523 60.8192 175.772 60.7639C176.021 60.7178 176.26 60.8745 176.315 61.1233L177.781 68.5791L181.578 65.7682C181.781 65.6207 182.076 65.6576 182.223 65.8603C182.37 66.0631 182.334 66.358 182.131 66.5055L177.753 69.7495C177.67 69.814 177.569 69.8416 177.477 69.8416Z" fill="#2E2E30"/>
</g>
<g id="Path-89">
<path id="Vector_57" fill-rule="evenodd" clip-rule="evenodd" d="M185.376 55.7598L185.828 61.2894H187.763C186.841 64.1187 184.841 65.5287 181.782 65.5287C178.722 65.5287 176.934 64.1187 176.418 61.2894H178.63L179.339 55.7598H185.376Z" fill="white"/>
</g>
</g>
<g id="Group-12-Copy">
<g id="Path_4_">
<path id="Vector_58" fill-rule="evenodd" clip-rule="evenodd" d="M185.495 48.1294H177.532V50.3689C177.338 53.189 177.633 55.1704 178.435 56.3224C179.633 58.0458 184.131 58.5066 185.734 54.599C186.803 52.0001 186.73 49.8436 185.495 48.1294Z" fill="white"/>
</g>
<g id="Path-14_1_">
<path id="Vector_59" d="M181.034 57.9998C180.104 57.9998 179.311 57.7786 178.675 57.3362C177.624 56.6082 176.979 55.2995 176.777 53.4378C176.749 53.189 176.933 52.9586 177.182 52.931C177.431 52.9033 177.661 53.0876 177.689 53.3365C177.864 54.9216 178.371 56.0091 179.2 56.5805C180.021 57.1519 181.228 57.2348 182.776 56.8293C183.025 56.7648 183.274 56.9123 183.338 57.1611C183.403 57.4099 183.255 57.6588 183.007 57.7233C182.297 57.9076 181.633 57.9998 181.034 57.9998Z" fill="#2E2E30"/>
</g>
</g>
<g id="Path-88-Copy">
<path id="Vector_60" fill-rule="evenodd" clip-rule="evenodd" d="M185.754 48.4997C183.192 49.3752 180.796 49.4674 178.556 48.7578C175.193 47.6979 175.626 44.6198 178.16 43.0531C180.695 41.4864 186.04 40.362 189.643 43.9194C192.03 46.3063 190.74 47.827 185.754 48.4997Z" fill="#2E2E30"/>
</g>
</g>
<g id="Group-Copy_3_">
<g id="Path-8_1_">
<path id="Vector_61" d="M181.22 54.5078C180.842 54.5078 180.455 54.4065 180.05 54.2037C179.819 54.0839 179.736 53.8074 179.847 53.5862C179.957 53.3651 180.243 53.2729 180.464 53.3835C181.275 53.7982 181.893 53.6047 182.464 52.7568C182.602 52.5448 182.897 52.4895 183.1 52.637C183.312 52.7752 183.367 53.0701 183.22 53.2729C182.676 54.0931 181.985 54.5078 181.22 54.5078Z" fill="#2E2E30"/>
</g>
<g id="Oval_3_">
<path id="Vector_62" d="M183.211 50.1582C183.008 50.1582 182.843 50.3769 182.843 50.6467C182.843 50.9164 183.008 51.1351 183.211 51.1351C183.415 51.1351 183.58 50.9164 183.58 50.6467C183.58 50.3769 183.415 50.1582 183.211 50.1582Z" fill="#2E2E30"/>
</g>
<g id="Oval-Copy-3_1_">
<path id="Vector_63" d="M179.321 50.1582C179.117 50.1582 178.952 50.3769 178.952 50.6467C178.952 50.9164 179.117 51.1351 179.321 51.1351C179.524 51.1351 179.689 50.9164 179.689 50.6467C179.689 50.3769 179.524 50.1582 179.321 50.1582Z" fill="#2E2E30"/>
</g>
<g id="Path-4_1_">
<path id="Vector_64" d="M181.091 53.1901C181.082 53.1901 181.073 53.1901 181.063 53.1901C180.75 53.1717 179.81 53.1072 179.616 52.4436C179.497 52.0289 179.727 51.522 181.321 50.0198C181.506 49.8447 181.801 49.8539 181.976 50.0382C182.151 50.2226 182.142 50.5175 181.957 50.6926C181.027 51.5773 180.695 52.0013 180.575 52.1856C180.667 52.2224 180.833 52.2593 181.128 52.2777C181.386 52.2962 181.57 52.5173 181.561 52.7662C181.533 52.9966 181.331 53.1901 181.091 53.1901Z" fill="#2E2E30"/>
</g>
</g>
</g>
<g id="Group-3-Copy-2">
<g id="Path-3_1_">
<path id="Vector_65" d="M187.611 49.1946C187.473 49.1946 187.344 49.1485 187.224 49.0656C186.938 48.8536 186.883 48.4481 187.095 48.1624L188.413 46.4114C189.528 44.9276 189.224 42.8079 187.731 41.6928C186.984 41.1306 186.035 40.9094 185.113 41.0753C184.763 41.1398 184.432 40.9002 184.367 40.55C184.302 40.1998 184.542 39.868 184.892 39.8035C186.155 39.5731 187.473 39.8865 188.505 40.6606C190.56 42.1997 190.984 45.1304 189.445 47.1855L188.127 48.9366C187.998 49.1117 187.805 49.1946 187.611 49.1946Z" fill="#4321F5"/>
</g>
<g id="Oval_4_">
<path id="Vector_66" d="M187.509 48.3101C186.124 48.3101 185.002 49.6511 185.002 51.3053C185.002 52.9595 186.124 54.3005 187.509 54.3005C188.893 54.3005 190.016 52.9595 190.016 51.3053C190.016 49.6511 188.893 48.3101 187.509 48.3101Z" fill="#2E2E30"/>
</g>
<g id="Oval-Copy_1_">
<path id="Vector_67" d="M187.758 49.1025C186.745 49.1025 185.924 50.0887 185.924 51.3052C185.924 52.5216 186.745 53.5078 187.758 53.5078C188.771 53.5078 189.592 52.5216 189.592 51.3052C189.592 50.0887 188.771 49.1025 187.758 49.1025Z" fill="white"/>
<path id="Vector_68" d="M187.758 53.7381C186.624 53.7381 185.693 52.6506 185.693 51.3051C185.693 49.9596 186.615 48.8721 187.758 48.8721C188.901 48.8721 189.822 49.9596 189.822 51.3051C189.822 52.6506 188.891 53.7381 187.758 53.7381ZM187.758 49.3329C186.873 49.3329 186.154 50.2176 186.154 51.3051C186.154 52.3926 186.873 53.2773 187.758 53.2773C188.643 53.2773 189.361 52.3926 189.361 51.3051C189.361 50.2176 188.643 49.3329 187.758 49.3329Z" fill="#2E2E30"/>
</g>
</g>
</g>
</g>
<g id="Group-17-Copy">
<g id="Group-16">
<g id="Path-95">
<path id="Vector_69" fill-rule="evenodd" clip-rule="evenodd" d="M204.825 79.9669C203.12 92.2795 198.153 97.7907 189.913 96.5096C181.674 95.2286 177.555 88.4641 177.555 76.2437L183.794 76.6399C185.683 83.8376 187.96 87.5885 190.641 87.8927C193.323 88.1968 194.955 84.3169 195.535 76.2437L204.825 79.9669Z" fill="white"/>
</g>
<g id="Path-9">
<path id="Vector_70" d="M183.682 77.0914C183.581 77.0914 183.479 77.0545 183.396 76.99C183.203 76.8333 183.166 76.5384 183.332 76.3449C184.622 74.7505 184.945 73.534 184.309 72.7046C184.152 72.5018 184.189 72.2161 184.392 72.0594C184.594 71.9028 184.88 71.9396 185.037 72.1424C185.968 73.3497 185.636 74.9625 184.051 76.9255C183.949 77.0361 183.811 77.0914 183.682 77.0914Z" fill="#2E2E30"/>
</g>
<g id="Path-10">
<path id="Vector_71" d="M181.468 77.3126C181.247 77.3126 181.044 77.1467 181.017 76.9255C180.722 74.9625 180.648 73.5801 180.805 72.7046C180.98 71.7277 181.515 71.0273 182.418 70.6218C182.648 70.5204 182.925 70.6218 183.026 70.8522C183.127 71.0826 183.026 71.3591 182.796 71.4604C182.187 71.7369 181.828 72.1977 181.717 72.8613C181.579 73.6262 181.653 74.9533 181.938 76.7873C181.975 77.0361 181.8 77.2757 181.551 77.3126C181.515 77.3126 181.487 77.3126 181.468 77.3126Z" fill="#2E2E30"/>
</g>
<g id="Path-11">
<path id="Vector_72" d="M180.07 77.3124C179.895 77.3124 179.72 77.211 179.646 77.0359C178.734 74.9623 178.641 73.3218 179.369 72.1698C179.508 71.9579 179.793 71.8934 180.005 72.0224C180.217 72.1606 180.282 72.4463 180.153 72.6583C179.6 73.5338 179.71 74.8793 180.494 76.658C180.595 76.8884 180.494 77.1649 180.254 77.2663C180.19 77.2939 180.134 77.3124 180.07 77.3124Z" fill="#2E2E30"/>
</g>
<g id="Path-12">
<path id="Vector_73" d="M178.291 77.0914C178.181 77.0914 178.079 77.0545 177.987 76.9808C176.789 75.9394 176.393 74.6676 176.789 73.2207C176.854 72.9718 177.112 72.8336 177.351 72.8981C177.6 72.9626 177.738 73.2207 177.674 73.4603C177.37 74.557 177.674 75.4878 178.586 76.2896C178.78 76.4555 178.798 76.7504 178.632 76.9439C178.54 77.0361 178.42 77.0914 178.291 77.0914Z" fill="#2E2E30"/>
</g>
</g>
<g id="Path_5_">
<path id="Vector_74" d="M192.151 97.1548C191.414 97.1548 190.64 97.0903 189.847 96.9705C185.608 96.3069 182.382 94.2426 180.263 90.8234C178.171 87.4504 177.102 82.6765 177.102 76.64C177.102 76.382 177.304 76.1792 177.562 76.1792C177.82 76.1792 178.023 76.382 178.023 76.64C178.023 82.5106 179.037 87.1186 181.046 90.335C183.018 93.5145 186.032 95.4406 189.995 96.0581C193.156 96.5558 195.847 95.9936 197.994 94.4084C201.238 91.9939 203.386 87.1186 204.381 79.9117C204.418 79.6628 204.648 79.4785 204.897 79.5154C205.146 79.5523 205.321 79.7827 205.293 80.0315C204.261 87.4964 201.994 92.5745 198.538 95.1365C196.732 96.482 194.594 97.1548 192.151 97.1548Z" fill="#2E2E30"/>
</g>
<g id="Path_6_">
<path id="Vector_75" d="M190.934 88.3624C190.823 88.3624 190.704 88.3531 190.584 88.3439C187.671 88.0122 185.303 84.2152 183.349 76.7502C183.285 76.5014 183.432 76.2525 183.681 76.188C183.93 76.1235 184.179 76.271 184.243 76.5198C186.068 83.4779 188.243 87.1551 190.694 87.4315C191.238 87.4961 191.717 87.3486 192.16 86.98C193.671 85.7266 194.648 82.1047 195.081 76.2065C195.1 75.9484 195.321 75.7641 195.57 75.7825C195.828 75.801 196.012 76.0221 195.994 76.271C195.542 82.5194 194.473 86.2519 192.74 87.6896C192.206 88.1412 191.597 88.3624 190.934 88.3624Z" fill="#2E2E30"/>
</g>
</g>
</g>
<g id="Group-17-Copy-2">
<g id="Group-16_1_">
<g id="Rectangle_1_">
<path id="Vector_76" fill-rule="evenodd" clip-rule="evenodd" d="M170.222 72.1428C169.908 71.7686 169.356 71.7268 168.989 72.0349L167.457 73.3204C167.083 73.6343 167.041 74.1867 167.349 74.5538C167.663 74.928 168.215 74.9698 168.582 74.6617L170.114 73.3763C170.489 73.0623 170.53 72.5099 170.222 72.1428Z" fill="white"/>
<path id="Vector_77" d="M168.014 75.3316C167.975 75.3282 167.936 75.3248 167.89 75.3273C167.539 75.2967 167.207 75.1302 166.976 74.8549C166.502 74.2901 166.576 73.4462 167.141 72.9722L168.673 71.6868C168.948 71.4557 169.291 71.3484 169.649 71.3731C169.999 71.4038 170.332 71.5702 170.563 71.8455C171.036 72.4103 170.963 73.2543 170.398 73.7282L168.866 75.0137C168.632 75.2222 168.335 75.327 168.014 75.3316ZM169.549 72.2868C169.451 72.2847 169.357 72.3157 169.279 72.3809L167.747 73.6664C167.571 73.8145 167.548 74.0742 167.696 74.2507C167.767 74.3354 167.868 74.3834 167.978 74.3996C168.094 74.4098 168.196 74.3729 168.281 74.3018L169.813 73.0163C169.989 72.8682 170.012 72.6085 169.864 72.432C169.793 72.3473 169.692 72.2993 169.582 72.2831C169.575 72.289 169.562 72.2879 169.549 72.2868Z" fill="#2E2E30"/>
</g>
<g id="Rectangle_2_">
<path id="Vector_78" fill-rule="evenodd" clip-rule="evenodd" d="M173.506 61.3749C171.906 59.4687 169.063 59.2199 167.156 60.8194L158.84 67.7978C156.934 69.3973 156.685 72.2407 158.284 74.1469C159.884 76.053 162.727 76.3018 164.634 74.7023L172.95 67.724C174.856 66.1245 175.105 63.281 173.506 61.3749Z" fill="#2E2E30"/>
</g>
<g id="Oval_5_">
<path id="Vector_79" d="M174.137 64.0154C174.24 63.7332 173.885 63.345 173.345 63.1483C172.804 62.9516 172.283 63.0209 172.18 63.3031C172.077 63.5853 172.432 63.9735 172.973 64.1702C173.513 64.3669 174.034 64.2976 174.137 64.0154Z" fill="white"/>
</g>
<g id="Group-15">
<g id="Rectangle-Copy-2">
<path id="Vector_80" fill-rule="evenodd" clip-rule="evenodd" d="M169.352 71.6206L162.699 63.6924L157.708 67.8806C155.519 69.717 155.227 72.9819 157.069 75.1775C158.912 77.3731 162.172 77.6452 164.36 75.8088L169.352 71.6206Z" fill="white"/>
</g>
<g id="Path-44">
<path id="Vector_81" d="M167.1 71.8029C166.969 71.8045 166.837 71.7472 166.748 71.6413L162.133 66.1416C161.967 65.9439 161.992 65.6583 162.19 65.4924C162.388 65.3266 162.673 65.3516 162.839 65.5492L167.454 71.0489C167.62 71.2465 167.595 71.5322 167.397 71.6981C167.312 71.7691 167.205 71.799 167.1 71.8029Z" fill="#2E2E30"/>
</g>
<g id="Rectangle-Copy-3">
<path id="Vector_82" d="M161.036 77.4803C159.426 77.4834 157.825 76.7939 156.711 75.4666C154.715 73.0874 155.02 69.5228 157.407 67.5205L162.398 63.3323C162.596 63.1664 162.881 63.1914 163.047 63.3891L169.7 71.3173C169.777 71.4091 169.819 71.5305 169.801 71.6533C169.791 71.7701 169.735 71.8895 169.643 71.9665L164.652 76.1547C163.606 77.0445 162.319 77.4748 161.036 77.4803ZM162.637 64.3345L157.999 68.2265C156.008 69.897 155.747 72.8833 157.417 74.8742C159.088 76.8651 162.074 77.1264 164.065 75.4558L168.704 71.5638L162.637 64.3345Z" fill="#2E2E30"/>
</g>
</g>
<g id="Rectangle-Copy-4">
<path id="Vector_83" fill-rule="evenodd" clip-rule="evenodd" d="M162.332 62.739C162.018 62.3648 161.465 62.323 161.098 62.6311L159.566 63.9166C159.192 64.2305 159.15 64.7829 159.458 65.15C159.772 65.5242 160.325 65.566 160.692 65.2579L162.224 63.9724C162.598 63.6585 162.646 63.1132 162.332 62.739Z" fill="white"/>
<path id="Vector_84" d="M160.121 65.9275C159.736 65.9265 159.357 65.7626 159.097 65.4519C158.866 65.1766 158.758 64.8336 158.783 64.4759C158.814 64.1254 158.98 63.7932 159.256 63.5622L160.788 62.2767C161.352 61.8028 162.196 61.8766 162.67 62.4414C162.901 62.7168 163.009 63.0598 162.977 63.4233C162.945 63.7869 162.78 64.106 162.504 64.3371L160.972 65.6226C160.732 65.824 160.435 65.9288 160.121 65.9275ZM161.663 62.8897C161.565 62.8877 161.477 62.9257 161.393 62.9838L159.861 64.2693C159.776 64.3404 159.728 64.4409 159.712 64.5507C159.702 64.6675 159.739 64.7689 159.81 64.8536C159.958 65.0301 160.218 65.0528 160.394 64.9047L161.926 63.6192C162.011 63.5481 162.059 63.4477 162.075 63.3379C162.085 63.221 162.048 63.1197 161.977 63.035C161.906 62.9502 161.806 62.9022 161.696 62.8861C161.683 62.8849 161.67 62.8838 161.663 62.8897Z" fill="#2E2E30"/>
</g>
<g id="Path-45">
<path id="Vector_85" d="M167.099 77.7832C165.255 77.7789 163.426 77.0039 162.146 75.479L157.573 70.0288C156.465 68.7086 155.938 67.0336 156.088 65.3197C156.238 63.6059 157.048 62.0479 158.368 60.9401C158.46 60.8631 158.581 60.8214 158.704 60.8387C158.821 60.8489 158.94 60.9051 159.017 60.9969L160.682 62.9807C160.848 63.1784 160.823 63.464 160.625 63.6299C160.427 63.7958 160.142 63.7708 159.976 63.5731L158.619 61.9564C156.599 63.9645 156.419 67.2196 158.279 69.4364L162.852 74.8866C164.712 77.1034 167.962 77.4924 170.278 75.8502L168.986 74.3112C168.82 74.1135 168.845 73.8279 169.043 73.662C169.241 73.4961 169.526 73.5211 169.692 73.7188L171.292 75.6249C171.369 75.7167 171.41 75.8381 171.393 75.9609C171.383 76.0778 171.327 76.1971 171.235 76.2741C170.034 77.2942 168.565 77.7806 167.099 77.7832Z" fill="#2E2E30"/>
</g>
</g>
<g id="Group-14">
<g id="Path-43">
<path id="Vector_86" d="M155.685 76.6403C155.242 76.6403 154.8 76.4375 154.514 76.0505C154.478 75.9952 154.441 75.9399 154.404 75.8754L142.939 54.3376C142.672 53.8307 142.128 53.5358 141.557 53.5726C140.893 53.6187 140.266 53.9321 139.824 54.4297L122.139 74.8063C121.973 74.9998 121.678 75.0183 121.484 74.8524C121.291 74.6865 121.272 74.3916 121.438 74.1981L139.133 53.8215C139.732 53.1303 140.589 52.7063 141.501 52.6418C142.432 52.5773 143.317 53.075 143.759 53.8952L155.224 75.4422C155.233 75.4606 155.252 75.4883 155.261 75.5067C155.344 75.6173 155.464 75.691 155.602 75.7187C155.74 75.7371 155.878 75.7095 155.989 75.6265L158.017 74.1428C158.219 73.9953 158.514 74.0414 158.662 74.2441C158.809 74.4469 158.763 74.7418 158.56 74.8893L156.533 76.373C156.284 76.5481 155.989 76.6403 155.685 76.6403Z" fill="#2E2E30"/>
</g>
<g id="Group-18">
<g id="Oval_6_">
<path id="Vector_87" d="M145.592 53.5931C145.904 51.8237 144.722 50.1364 142.953 49.8245C141.184 49.5126 139.496 50.6941 139.184 52.4635C138.873 54.233 140.054 55.9202 141.824 56.2321C143.593 56.544 145.28 55.3625 145.592 53.5931Z" fill="white"/>
<path id="Vector_88" d="M142.397 56.743C140.351 56.743 138.683 55.0749 138.683 53.0289C138.683 50.983 140.342 49.3057 142.397 49.3057C144.452 49.3057 146.111 50.9738 146.111 53.0289C146.111 55.0841 144.443 56.743 142.397 56.743ZM142.397 50.2273C140.858 50.2273 139.605 51.4806 139.605 53.0197C139.605 54.5588 140.858 55.8122 142.397 55.8122C143.936 55.8122 145.19 54.568 145.19 53.0289C145.19 51.4899 143.936 50.2273 142.397 50.2273Z" fill="#2E2E30"/>
</g>
<g id="Oval-Copy-5">
<path id="Vector_89" d="M143.536 53.2339C143.652 52.5773 143.213 51.9511 142.556 51.8354C141.9 51.7196 141.274 52.1581 141.158 52.8147C141.042 53.4714 141.481 54.0975 142.137 54.2133C142.794 54.329 143.42 53.8905 143.536 53.2339Z" fill="white"/>
<path id="Vector_90" d="M142.349 54.697C141.428 54.697 140.681 53.9505 140.681 53.0289C140.681 52.1073 141.428 51.3608 142.349 51.3608C143.271 51.3608 144.018 52.1073 144.018 53.0289C144.018 53.9505 143.271 54.697 142.349 54.697ZM142.349 52.2732C141.935 52.2732 141.603 52.605 141.603 53.0197C141.603 53.4344 141.944 53.7662 142.349 53.7662C142.755 53.7662 143.096 53.4344 143.096 53.0197C143.096 52.6142 142.764 52.2732 142.349 52.2732Z" fill="#2E2E30"/>
</g>
</g>
<g id="Rectangle_3_">
<path id="Vector_91" fill-rule="evenodd" clip-rule="evenodd" d="M145.217 57.8766C144.701 58.107 144.471 58.7061 144.701 59.2129C144.71 59.2314 144.72 59.2498 144.729 59.2775L150.535 70.2998C150.821 70.8435 151.475 71.0647 152.037 70.8159C152.553 70.5855 152.784 69.9865 152.553 69.4796C152.544 69.4611 152.535 69.4427 152.526 69.4151L146.719 58.3927C146.434 57.849 145.779 57.6278 145.217 57.8766Z" fill="#2E2E30"/>
</g>
<g id="Rectangle-Copy-5">
<path id="Vector_92" fill-rule="evenodd" clip-rule="evenodd" d="M137.18 57.1482C136.738 56.7427 136.047 56.7796 135.651 57.2311L127.743 66.014C127.338 66.4564 127.375 67.1476 127.826 67.5439C128.269 67.9494 128.96 67.9125 129.356 67.4609L137.263 58.6781C137.669 58.2357 137.632 57.5537 137.18 57.1482Z" fill="#2E2E30"/>
</g>
</g>
</g>
<g id="Group-17-Copy-3">
<g id="Group-16_2_">
<g id="Rectangle_4_">
<path id="Vector_93" fill-rule="evenodd" clip-rule="evenodd" d="M70.4985 62.829C70.9575 62.6619 71.4568 62.9019 71.6207 63.3522L72.3047 65.2315C72.4717 65.6905 72.2317 66.1898 71.7814 66.3537C71.3224 66.5207 70.8231 66.2807 70.6592 65.8304L69.9752 63.9511C69.8113 63.5008 70.0395 62.996 70.4985 62.829Z" fill="white"/>
<path id="Vector_94" d="M71.4804 66.8748C71.2852 66.8772 71.0915 66.83 70.9143 66.7474C70.5953 66.5987 70.3402 66.3287 70.2172 65.991L69.5332 64.1117C69.2811 63.4189 69.6391 62.6511 70.3319 62.3989C71.0247 62.1467 71.7925 62.5048 72.0447 63.1976L72.7287 65.0769C72.9809 65.7697 72.6228 66.5375 71.93 66.7896C71.7946 66.8487 71.6379 66.8763 71.4804 66.8748ZM70.6558 63.2618C70.4393 63.3406 70.3291 63.5768 70.4079 63.7933L71.0919 65.6726C71.1297 65.7765 71.2077 65.856 71.3054 65.9087C71.4117 65.9583 71.5195 65.9583 71.6235 65.9205C71.84 65.8417 71.9501 65.6054 71.8713 65.3889L71.1873 63.5096C71.1085 63.2931 70.8723 63.183 70.6558 63.2618Z" fill="#2E2E30"/>
</g>
<g id="Rectangle_5_">
<path id="Vector_95" fill-rule="evenodd" clip-rule="evenodd" d="M73.0376 51.8615C75.3759 51.0104 77.9628 52.2167 78.8138 54.555L82.527 64.7567C83.378 67.0949 82.1717 69.6818 79.8335 70.5329C77.4952 71.3839 74.9083 70.1776 74.0573 67.8394L70.3441 57.6377C69.4844 55.3026 70.6907 52.7157 73.0376 51.8615Z" fill="#2E2E30"/>
</g>
<g id="Oval_7_">
<path id="Vector_96" d="M72.611 53.6614C72.2413 53.2208 71.7551 53.0201 71.525 53.2131C71.295 53.4062 71.4082 53.9198 71.7779 54.3604C72.1476 54.801 72.6338 55.0017 72.8638 54.8087C73.0939 54.6157 72.9807 54.102 72.611 53.6614Z" fill="white"/>
</g>
<g id="Group-15_1_">
<g id="Rectangle-Copy-2_1_">
<path id="Vector_97" fill-rule="evenodd" clip-rule="evenodd" d="M71.5106 62.8113L81.2361 59.2715L83.4646 65.3943C84.4417 68.079 83.0623 71.0525 80.369 72.0328C77.6843 73.0099 74.7108 71.6305 73.7305 68.9372L71.5106 62.8113Z" fill="white"/>
</g>
<g id="Path-44_1_">
<path id="Vector_98" d="M73.5994 64.1599C73.4127 64.1591 73.2348 64.0474 73.1654 63.8568C73.0772 63.6144 73.1983 63.3545 73.4408 63.2662L80.1871 60.8108C80.4296 60.7225 80.6895 60.8437 80.7778 61.0862C80.866 61.3287 80.7448 61.5885 80.5024 61.6768L73.756 64.1322C73.7041 64.1512 73.649 64.1614 73.5994 64.1599Z" fill="#2E2E30"/>
</g>
<g id="Rectangle-Copy-3_1_">
<path id="Vector_99" d="M78.5999 72.8044C77.7865 72.8062 76.977 72.6301 76.2211 72.2776C74.8508 71.6386 73.823 70.5122 73.306 69.0919L71.0775 62.9691C71.0365 62.8566 71.0389 62.7282 71.0971 62.6188C71.1467 62.5124 71.2404 62.4195 71.3529 62.3785L81.0784 58.8388C81.3209 58.7505 81.5807 58.8717 81.669 59.1142L83.8975 65.2369C84.4113 66.6486 84.3424 68.184 83.7122 69.551C83.0732 70.9213 81.9468 71.9491 80.5265 72.4661C79.903 72.693 79.2471 72.8042 78.5999 72.8044ZM72.1012 63.0869L74.1721 68.7767C74.6039 69.9632 75.4663 70.9046 76.6121 71.4389C77.7579 71.9732 79.0335 72.0287 80.22 71.5969C81.4064 71.165 82.3479 70.3026 82.8821 69.1568C83.4164 68.011 83.472 66.7354 83.0401 65.549L80.9692 59.8592L72.1012 63.0869Z" fill="#2E2E30"/>
</g>
</g>
<g id="Rectangle-Copy-4_1_">
<path id="Vector_100" fill-rule="evenodd" clip-rule="evenodd" d="M82.0239 58.6337C82.4829 58.4666 82.9822 58.7066 83.1461 59.1569L83.8301 61.0362C83.9971 61.4952 83.7571 61.9945 83.3068 62.1584C82.8478 62.3254 82.3485 62.0854 82.1846 61.6351L81.5006 59.7558C81.3367 59.3055 81.5736 58.7976 82.0239 58.6337Z" fill="white"/>
<path id="Vector_101" d="M83.0144 62.6767C82.4664 62.68 81.9498 62.3384 81.7543 61.8015L81.0703 59.9222C80.8182 59.2294 81.1762 58.4616 81.869 58.2095C82.2068 58.0865 82.5658 58.103 82.8966 58.2572C83.2155 58.4059 83.4707 58.6759 83.5936 59.0136L84.2776 60.8929C84.5298 61.5857 84.1717 62.3535 83.4789 62.6057C83.3199 62.6538 83.1632 62.6814 83.0144 62.6767ZM82.3291 59.0424C82.2795 59.0408 82.233 59.0479 82.1897 59.0637C81.9732 59.1425 81.8631 59.3787 81.9419 59.5952L82.6259 61.4745C82.6637 61.5784 82.7417 61.6579 82.8393 61.7106C82.9456 61.7602 83.0535 61.7602 83.1574 61.7223C83.3739 61.6435 83.4841 61.4073 83.4053 61.1908L82.7213 59.3115C82.6835 59.2076 82.6055 59.1281 82.5078 59.0754C82.4488 59.0478 82.3874 59.0408 82.3291 59.0424Z" fill="#2E2E30"/>
</g>
<g id="Path-45_1_">
<path id="Vector_102" d="M73.604 70.1522C72.6741 70.1572 71.7442 69.9464 70.8819 69.5443C69.3227 68.8173 68.1357 67.5232 67.5463 65.9037C67.458 65.6612 67.5792 65.4014 67.8217 65.3131L70.1599 64.462C70.4024 64.3738 70.6623 64.495 70.7506 64.7375C70.8388 64.9799 70.7176 65.2398 70.4752 65.3281L68.5872 66.0152C69.1356 67.1985 70.0713 68.1525 71.273 68.7057C72.6078 69.3281 74.114 69.3977 75.4997 68.8934L82.1854 66.46C83.571 65.9557 84.6833 64.9428 85.3025 63.5993C85.8589 62.4063 85.9711 61.0709 85.6306 59.812L83.6474 60.5338C83.4049 60.622 83.145 60.5009 83.0567 60.2584C82.9685 60.0159 83.0897 59.756 83.3322 59.6678L85.7657 58.782C86.0082 58.6938 86.268 58.815 86.3563 59.0574C86.9457 60.6769 86.8683 62.4312 86.1412 63.9904C85.4141 65.5496 84.12 66.7366 82.5006 67.326L75.8149 69.7594C75.0961 70.021 74.3473 70.1465 73.604 70.1522Z" fill="#2E2E30"/>
</g>
</g>
<g id="Group-14_1_">
<g id="Path-43_1_">
<path id="Vector_103" d="M111.256 89.5536C111.041 89.5572 110.844 89.4009 110.804 89.1755L105.676 62.6861C105.555 62.0306 105.161 61.4413 104.604 61.0776C104.128 60.7599 103.505 60.7514 103.025 61.0488L82.3271 73.9687C82.2709 74.0108 82.2113 74.0402 82.1437 74.0651C81.4141 74.3888 80.5549 74.0523 80.2312 73.3227L79.2172 71.0239C79.1153 70.7949 79.2229 70.5164 79.452 70.4146C79.681 70.3127 79.9595 70.4202 80.0613 70.6493L81.0753 72.9481C81.1873 73.2149 81.5023 73.3329 81.7691 73.2209C81.7943 73.2142 81.8115 73.2028 81.8333 73.1835L102.539 60.2682C103.332 59.779 104.347 59.7904 105.121 60.3117C105.871 60.8191 106.409 61.6194 106.582 62.5175L111.71 89.0069C111.757 89.2575 111.598 89.4957 111.343 89.5506C111.315 89.5447 111.281 89.5469 111.256 89.5536Z" fill="#2E2E30"/>
</g>
<g id="Group-18_1_">
<g id="Oval_8_">
<path id="Vector_104" d="M106.243 57.6927C104.866 56.5379 102.814 56.7175 101.659 58.0939C100.505 59.4703 100.684 61.5222 102.061 62.6771C103.437 63.8319 105.489 63.6523 106.644 62.2759C107.799 60.8995 107.619 58.8475 106.243 57.6927Z" fill="white"/>
<path id="Vector_105" d="M104.15 63.9028C103.502 63.9011 102.864 63.7348 102.297 63.4076C101.435 62.91 100.823 62.1093 100.566 61.1525C100.31 60.1958 100.44 59.1961 100.938 58.3341C101.961 56.5623 104.24 55.9517 106.011 56.9747C107.783 57.9977 108.394 60.2763 107.371 62.0482C106.873 62.9102 106.073 63.5227 105.116 63.7791C104.801 63.8634 104.468 63.9054 104.15 63.9028ZM104.153 57.3917C103.183 57.3953 102.244 57.8964 101.728 58.7903C101.355 59.4368 101.26 60.1908 101.452 60.9084C101.645 61.626 102.112 62.2362 102.758 62.6095C103.405 62.9827 104.159 63.0775 104.884 62.8899C105.602 62.6976 106.207 62.2385 106.581 61.592C107.35 60.2591 106.891 58.547 105.559 57.7774C105.112 57.5194 104.632 57.3915 104.153 57.3917Z" fill="#2E2E30"/>
</g>
<g id="Oval-Copy-5_1_">
<path id="Vector_106" d="M104.967 59.2844C104.456 58.8559 103.695 58.9225 103.266 59.4333C102.838 59.9441 102.904 60.7056 103.415 61.1342C103.926 61.5627 104.687 61.4961 105.116 60.9853C105.544 60.4745 105.478 59.713 104.967 59.2844Z" fill="white"/>
<path id="Vector_107" d="M104.189 61.882C103.905 61.8773 103.616 61.8063 103.361 61.6588C102.977 61.4376 102.698 61.074 102.583 60.646C102.468 60.218 102.529 59.7633 102.75 59.3802C102.971 58.9971 103.335 58.7175 103.763 58.6028C104.191 58.4881 104.645 58.5484 105.029 58.7696C105.827 59.2304 106.1 60.2501 105.639 61.0483C105.33 61.583 104.763 61.8834 104.189 61.882ZM104.194 59.4586C104.128 59.4629 104.062 59.4672 103.999 59.484C103.81 59.5346 103.641 59.6608 103.545 59.8284C103.443 60.004 103.415 60.2004 103.474 60.3939C103.524 60.5827 103.65 60.7513 103.826 60.8527C104.185 61.0601 104.638 60.9386 104.846 60.5795C105.053 60.2203 104.924 59.7625 104.572 59.5597C104.448 59.4986 104.323 59.458 104.194 59.4586Z" fill="#2E2E30"/>
</g>
</g>
<g id="Rectangle_6_">
<path id="Vector_108" fill-rule="evenodd" clip-rule="evenodd" d="M99.282 62.9755C99.6137 63.4331 99.5138 64.0671 99.0608 64.3909C99.0436 64.4022 99.0264 64.4136 99.0046 64.4329L88.4652 71.0755C87.9459 71.4036 87.2686 71.2679 86.9062 70.7714C86.5744 70.3138 86.6744 69.6798 87.1274 69.356C87.1446 69.3447 87.1618 69.3333 87.1836 69.314L97.723 62.6714C98.2423 62.3433 98.9195 62.479 99.282 62.9755Z" fill="#2E2E30"/>
</g>
<g id="Rectangle-Copy-5_1_">
<path id="Vector_109" fill-rule="evenodd" clip-rule="evenodd" d="M106.606 66.363C107.192 66.233 107.772 66.6105 107.89 67.1998L110.346 78.7596C110.476 79.3455 110.099 79.9256 109.51 80.043C108.924 80.173 108.344 79.7955 108.226 79.2063L105.77 67.6464C105.648 67.0652 106.021 66.493 106.606 66.363Z" fill="#2E2E30"/>
</g>
</g>
</g>
<g id="Group-2_1_">
<g id="Path-133">
<path id="Vector_110" fill-rule="evenodd" clip-rule="evenodd" d="M75.0515 111.91C75.9547 111.91 89.5299 98.4267 115.777 71.4515C117.952 69.212 121.528 69.1659 123.767 71.3409C123.896 71.4607 124.016 71.5989 124.127 71.728L154.844 107.864L118.579 127.107C88.6175 116.969 74.1023 111.91 75.0515 111.91Z" fill="white"/>
<path id="Vector_111" d="M118.634 127.604L118.45 127.54C103.953 122.646 92.9489 118.886 85.7144 116.37C82.0925 115.108 79.3461 114.131 77.5397 113.467C76.6366 113.135 75.9454 112.868 75.4938 112.684C74.8394 112.416 74.48 112.269 74.5445 111.854C74.5722 111.67 74.7196 111.486 74.9685 111.458C75.3832 111.255 77.4015 109.606 86.0093 101.035C92.7554 94.3255 102.653 84.2708 115.436 71.1288C116.579 69.9584 118.099 69.304 119.731 69.2764C119.758 69.2764 119.786 69.2764 119.814 69.2764C121.417 69.2764 122.929 69.8938 124.071 71.009C124.21 71.138 124.339 71.2855 124.468 71.4329L155.563 108.002L118.634 127.604ZM75.9638 111.882C78.4613 112.886 88.4515 116.435 118.551 126.609L154.125 107.726L123.777 72.032C123.675 71.9121 123.555 71.7831 123.445 71.6725C122.449 70.7048 121.141 70.1795 119.758 70.198C118.376 70.2164 117.076 70.7786 116.109 71.7647C103.04 85.1924 92.9858 95.4037 86.2304 102.122C79.6594 108.647 77.0697 111.016 75.9638 111.882Z" fill="#4321F5"/>
</g>
<g id="Path-133-Copy-2">
<path id="Vector_112" fill-rule="evenodd" clip-rule="evenodd" d="M121.841 69.0095L154.853 107.892L122.91 124.868L120.265 69.6362C120.237 69.1386 120.624 68.7238 121.122 68.6962C121.389 68.6778 121.657 68.7976 121.841 69.0095Z" fill="white"/>
<path id="Vector_113" d="M122.476 125.614L119.795 69.6545C119.758 68.908 120.338 68.2721 121.085 68.2352C121.5 68.2168 121.914 68.3919 122.182 68.7144L155.562 108.03L122.476 125.614ZM121.149 69.1476C121.14 69.1476 121.14 69.1476 121.131 69.1476C120.891 69.1568 120.707 69.3596 120.716 69.6084L123.324 124.112L154.124 107.744L121.49 69.3043C121.407 69.2029 121.278 69.1476 121.149 69.1476Z" fill="#4321F5"/>
</g>
<g id="Group-25-Copy_1_">
<g id="Group-22">
<g id="Path-57">
<path id="Vector_114" fill-rule="evenodd" clip-rule="evenodd" d="M138.775 99.887C135.143 98.7442 132.941 98.3756 132.185 98.7626C131.429 99.1497 131.623 100.311 132.756 102.219C130.526 101.26 129.199 100.993 128.784 101.408C128.37 101.822 128.701 103.168 129.77 105.453C127.568 104.882 126.103 104.882 125.365 105.453C124.628 106.025 125.172 107.545 126.996 110.043C124.683 110.31 123.531 110.826 123.531 111.582C123.531 112.338 124.388 113.287 126.093 114.448C124.545 115.149 124.029 116.973 124.563 119.941L142.074 120.07H148.977C149.17 117.831 148.313 116.577 146.405 116.301C146.055 116.245 145.677 116.245 145.272 116.301V108.863L147.299 107.324C148.571 111.601 150.212 113.978 152.239 114.457C155.28 115.176 158.81 112.863 157.446 110.614C156.534 109.121 155.28 108.928 153.668 110.052L149.88 98.7719L138.775 99.887Z" fill="black"/>
</g>
<g id="Path-58">
<path id="Vector_115" d="M143.705 110.476C143.548 110.476 143.401 110.402 143.309 110.255C143.179 110.034 143.244 109.757 143.456 109.619C145.99 108.061 147.658 106.43 148.396 104.78C148.497 104.55 148.774 104.439 149.004 104.55C149.234 104.651 149.345 104.928 149.234 105.158C148.423 106.983 146.636 108.753 143.935 110.411C143.871 110.458 143.779 110.476 143.705 110.476Z" fill="white"/>
</g>
<g id="Group-21_1_">
<g id="Oval_9_">
<path id="Vector_116" d="M153.556 94.9756C154.408 90.1436 151.018 85.5073 145.986 84.6201C140.953 83.733 136.183 86.931 135.331 91.763C134.48 96.5951 137.869 101.231 142.901 102.119C147.934 103.006 152.704 99.8077 153.556 94.9756Z" fill="black"/>
</g>
<g id="Group-23_1_">
<g id="Path-62">
<path id="Vector_117" d="M142.192 93.7268C142.173 93.7268 142.155 93.7268 142.136 93.7268L137.74 93.2291C137.491 93.2014 137.307 92.971 137.335 92.7222C137.362 92.4734 137.593 92.2891 137.842 92.3167L142.238 92.8144C142.487 92.842 142.671 93.0724 142.643 93.3213C142.616 93.5517 142.422 93.7268 142.192 93.7268Z" fill="white"/>
</g>
<g id="Path-63">
<path id="Vector_118" d="M137.787 96.4271C137.594 96.4271 137.409 96.298 137.345 96.1045C137.271 95.8649 137.4 95.6068 137.649 95.5239L141.474 94.3258C141.713 94.2521 141.971 94.3811 142.054 94.6299C142.128 94.8696 141.999 95.1276 141.75 95.2105L137.925 96.4178C137.879 96.4271 137.833 96.4271 137.787 96.4271Z" fill="white"/>
</g>
<g id="Path-64">
<path id="Vector_119" d="M147.888 93.5149C147.676 93.5149 147.492 93.3675 147.437 93.1555C147.382 92.9067 147.538 92.6579 147.787 92.6026L152.165 91.598C152.414 91.5427 152.662 91.6994 152.718 91.9482C152.773 92.1971 152.616 92.4459 152.367 92.5012L147.99 93.5057C147.962 93.5149 147.925 93.5149 147.888 93.5149Z" fill="white"/>
</g>
<g id="Path-65">
<path id="Vector_120" d="M150.801 95.8007C150.746 95.8007 150.69 95.7915 150.635 95.7731L147.962 94.7685C147.723 94.6764 147.603 94.4091 147.695 94.1787C147.787 93.9391 148.055 93.8193 148.285 93.9114L150.967 94.916C151.206 95.0081 151.326 95.2754 151.234 95.5058C151.16 95.6901 150.985 95.8007 150.801 95.8007Z" fill="white"/>
</g>
</g>
<g id="Oval-Copy-9">
<path id="Vector_121" d="M145.838 95.9699C146.235 95.9699 146.557 95.6481 146.557 95.2511C146.557 94.8541 146.235 94.5322 145.838 94.5322C145.441 94.5322 145.119 94.8541 145.119 95.2511C145.119 95.6481 145.441 95.9699 145.838 95.9699Z" fill="white"/>
</g>
<g id="Path-61">
<path id="Vector_122" fill-rule="evenodd" clip-rule="evenodd" d="M144.446 91.6663C144.797 91.1502 146.455 91.1041 146.658 91.6663C146.861 92.2284 146.299 93.6846 145.727 93.6846C145.156 93.6846 144.096 92.1824 144.446 91.6663Z" fill="#4321F5"/>
</g>
<g id="Oval_10_">
<path id="Vector_123" d="M148.528 91.666C149.297 91.666 149.92 91.043 149.92 90.2744C149.92 89.5059 149.297 88.8828 148.528 88.8828C147.76 88.8828 147.137 89.5059 147.137 90.2744C147.137 91.043 147.76 91.666 148.528 91.666Z" fill="white"/>
</g>
<g id="Oval-Copy-7">
<path id="Vector_124" d="M148.704 90.9474C149.223 90.9474 149.644 90.5266 149.644 90.0074C149.644 89.4882 149.223 89.0674 148.704 89.0674C148.185 89.0674 147.764 89.4882 147.764 90.0074C147.764 90.5266 148.185 90.9474 148.704 90.9474Z" fill="black"/>
</g>
<g id="Oval-Copy-6">
<path id="Vector_125" d="M142.067 91.666C142.836 91.666 143.459 91.043 143.459 90.2744C143.459 89.5059 142.836 88.8828 142.067 88.8828C141.299 88.8828 140.676 89.5059 140.676 90.2744C140.676 91.043 141.299 91.666 142.067 91.666Z" fill="white"/>
</g>
<g id="Oval-Copy-8">
<path id="Vector_126" d="M142.335 91.1223C142.854 91.1223 143.275 90.7014 143.275 90.1822C143.275 89.6631 142.854 89.2422 142.335 89.2422C141.815 89.2422 141.395 89.6631 141.395 90.1822C141.395 90.7014 141.815 91.1223 142.335 91.1223Z" fill="black"/>
</g>
<g id="Path-56">
<path id="Vector_127" fill-rule="evenodd" clip-rule="evenodd" d="M138.778 86.7263C136.336 85.648 133.903 85.3623 131.461 85.8877C132.613 88.1917 134.106 89.9519 135.968 91.1684L138.778 86.7263Z" fill="black"/>
</g>
<g id="Path-66">
<path id="Vector_128" d="M136.862 88.8554C136.806 88.8554 136.76 88.8462 136.705 88.8277L134.152 87.9338C133.912 87.8508 133.783 87.5836 133.876 87.344C133.959 87.1043 134.226 86.9753 134.465 87.0675L137.009 87.9614C137.249 88.0444 137.378 88.3116 137.286 88.5513C137.23 88.7448 137.046 88.8554 136.862 88.8554Z" fill="white"/>
</g>
<g id="Path-56-Copy">
<path id="Vector_129" fill-rule="evenodd" clip-rule="evenodd" d="M148.242 86.0167C150.168 84.1735 152.362 83.0768 154.832 82.7266C154.537 85.2794 153.735 87.4544 152.408 89.2238L148.242 86.0167Z" fill="black"/>
</g>
<g id="Path-67">
<path id="Vector_130" d="M150.954 87.2975C150.834 87.2975 150.724 87.2515 150.632 87.1685C150.447 86.9934 150.447 86.6985 150.622 86.5142L152.309 84.7908C152.484 84.6065 152.779 84.6065 152.963 84.7816C153.148 84.9567 153.148 85.2516 152.972 85.4359L151.286 87.1593C151.194 87.2515 151.074 87.2975 150.954 87.2975Z" fill="white"/>
</g>
</g>
<g id="Path-59">
<path id="Vector_131" d="M141.983 120.586C141.964 120.586 141.946 120.586 141.927 120.586C141.679 120.558 141.494 120.328 141.522 120.079C141.679 118.715 140.877 117.6 139.043 116.66L138.803 116.54L138.794 116.273C138.72 114.144 138.176 112.586 137.153 111.646C136.232 110.799 134.877 110.402 133.126 110.485C132.868 110.494 132.656 110.301 132.647 110.043C132.638 109.785 132.831 109.573 133.089 109.564C135.098 109.471 136.674 109.941 137.78 110.964C138.941 112.033 139.586 113.72 139.706 115.969C141.715 117.075 142.637 118.485 142.434 120.19C142.416 120.411 142.213 120.586 141.983 120.586Z" fill="white"/>
</g>
</g>
<g id="Group-24_1_">
<g id="Path-68">
<path id="Vector_132" d="M131.333 93.4775C131.177 93.4775 131.02 93.3945 130.937 93.2471L128.753 89.4685C128.624 89.2473 128.698 88.9708 128.919 88.8418C129.14 88.7128 129.426 88.7865 129.546 89.0077L131.73 92.7863C131.859 93.0074 131.785 93.2839 131.564 93.4129C131.49 93.459 131.407 93.4775 131.333 93.4775Z" fill="#2E2E30"/>
</g>
<g id="Path-69">
<path id="Vector_133" d="M128.909 94.7955C128.845 94.7955 128.771 94.7771 128.706 94.7494L125.472 93.1827C125.241 93.0721 125.149 92.7957 125.26 92.5653C125.37 92.3349 125.647 92.2427 125.877 92.3533L129.112 93.92C129.342 94.0306 129.434 94.3071 129.324 94.5375C129.25 94.7034 129.084 94.7955 128.909 94.7955Z" fill="#2E2E30"/>
</g>
<g id="Path-70">
<path id="Vector_134" d="M126.864 96.9153H123.988C123.73 96.9153 123.527 96.7125 123.527 96.4545C123.527 96.1964 123.73 95.9937 123.988 95.9937H126.864C127.122 95.9937 127.324 96.1964 127.324 96.4545C127.324 96.7125 127.112 96.9153 126.864 96.9153Z" fill="#2E2E30"/>
</g>
</g>
</g>
<g id="Path-133-Copy">
<path id="Vector_135" fill-rule="evenodd" clip-rule="evenodd" d="M75.0511 111.956C75.9727 111.956 90.3128 97.671 118.072 69.1106C118.449 68.7235 119.076 68.7143 119.463 69.0922C119.684 69.3041 119.795 69.6175 119.758 69.9216L112.699 125.301C86.6541 116.407 74.1111 111.956 75.0511 111.956Z" fill="white"/>
<path id="Vector_136" d="M113.077 125.927L112.542 125.743C100.008 121.457 90.4883 118.167 84.2306 115.955C81.0972 114.85 78.7194 113.983 77.1619 113.393C76.3786 113.099 75.7795 112.859 75.3925 112.693C74.8395 112.453 74.4801 112.306 74.5446 111.891C74.5722 111.707 74.7197 111.523 74.9777 111.495C75.4109 111.292 77.5213 109.541 86.6268 100.463C93.7508 93.3578 104.22 82.7042 117.74 68.788C118.007 68.5115 118.367 68.3548 118.754 68.3456C119.141 68.3364 119.51 68.4839 119.786 68.7511C120.109 69.0645 120.274 69.5253 120.21 69.9769L113.077 125.927ZM75.9546 111.937C78.2218 112.877 86.8572 115.992 112.312 124.692L119.307 69.8755C119.325 69.7096 119.27 69.5437 119.15 69.4331C119.049 69.3409 118.92 69.2857 118.781 69.2857H118.772C118.634 69.2857 118.505 69.341 118.404 69.4423C85.9909 102.795 78.1112 110.269 75.9546 111.937Z" fill="#4321F5"/>
</g>
<g id="Path-131">
<path id="Vector_137" fill-rule="evenodd" clip-rule="evenodd" d="M19.8281 93.2193C30.6293 117.503 41.4305 141.778 52.2317 166.063C53.1256 168.072 55.1163 169.362 57.3097 169.362H172.786C175.072 169.362 177.118 167.97 177.957 165.841L209.927 84.9341L119.14 118.72C52.9321 101.726 19.8281 93.2193 19.8281 93.2193Z" fill="white"/>
<path id="Vector_138" d="M172.796 169.823H57.3194C54.9416 169.823 52.7851 168.422 51.8174 166.247L19.0176 92.5374L119.122 118.241L210.748 84.1416L178.4 166.007C177.478 168.33 175.284 169.823 172.796 169.823ZM20.6396 93.9013L52.6561 165.869C53.4763 167.712 55.3011 168.901 57.3194 168.901H172.796C174.907 168.901 176.768 167.639 177.542 165.676L209.135 85.736L119.177 119.208L20.6396 93.9013Z" fill="#4321F5"/>
</g>
<g id="Path-132">
<path id="Vector_139" d="M56.7012 164.708C56.5629 164.708 56.4155 164.644 56.3325 164.515C56.1851 164.312 56.2311 164.017 56.4339 163.869L118.872 118.296C119.075 118.149 119.37 118.195 119.518 118.398C119.665 118.601 119.619 118.895 119.416 119.043L56.9776 164.616C56.8947 164.681 56.7933 164.708 56.7012 164.708Z" fill="#4321F5"/>
</g>
<g id="Path-132-Copy">
<path id="Vector_140" d="M173.598 166.588C173.487 166.588 173.386 166.552 173.294 166.478L118.21 119.015C118.016 118.85 117.998 118.555 118.164 118.361C118.329 118.168 118.624 118.149 118.818 118.315L173.902 165.777C174.096 165.943 174.114 166.238 173.948 166.432C173.856 166.533 173.727 166.588 173.598 166.588Z" fill="#4321F5"/>
</g>
<g id="Group">
<g id="Path-134">
<path id="Vector_141" d="M119.914 71.8568C119.656 71.8568 119.453 71.6541 119.453 71.396V56.6781C119.453 56.42 119.656 56.2173 119.914 56.2173C120.172 56.2173 120.375 56.42 120.375 56.6781V71.3868C120.375 71.6449 120.172 71.8568 119.914 71.8568Z" fill="#4321F5"/>
</g>
<g id="Path-135">
<path id="Vector_142" fill-rule="evenodd" clip-rule="evenodd" d="M119.914 56.6782L129.996 62.4659L119.914 64.1985V56.6782Z" fill="white"/>
<path id="Vector_143" d="M119.914 64.6593C119.803 64.6593 119.702 64.6224 119.619 64.5487C119.518 64.4565 119.453 64.3367 119.453 64.1985V56.6782C119.453 56.5123 119.545 56.3649 119.684 56.2819C119.822 56.199 119.997 56.199 120.144 56.2819L130.227 62.0604C130.393 62.1525 130.485 62.3461 130.448 62.5396C130.411 62.7331 130.264 62.8806 130.07 62.9175L119.988 64.6501C119.969 64.6593 119.942 64.6593 119.914 64.6593ZM120.375 57.4708V63.6455L128.66 62.217L120.375 57.4708Z" fill="#4321F5"/>
</g>
</g>
</g>
<g id="Path-57-Copy">
<path id="Vector_144" fill-rule="evenodd" clip-rule="evenodd" d="M147.314 107.311C148.586 111.587 150.227 113.965 152.254 114.444C155.296 115.163 158.825 112.85 157.461 110.601C156.549 109.108 155.296 108.914 153.683 110.039L149.886 98.7583L147.314 107.311Z" fill="black"/>
</g>
<g id="Path-57-Copy-2">
<path id="Vector_145" fill-rule="evenodd" clip-rule="evenodd" d="M139.508 109.827C140.78 114.103 142.42 116.481 144.448 116.96C147.489 117.679 151.019 115.366 149.655 113.117C148.742 111.624 147.489 111.43 145.876 112.555L142.079 101.274L139.508 109.827Z" fill="black"/>
</g>
<g id="Group-40">
<g id="Path-139">
<path id="Vector_146" fill-rule="evenodd" clip-rule="evenodd" d="M11.6641 134.295H16.6407L15.5901 129.761C21.7187 128.461 26.2715 129.291 29.2482 132.249C32.225 135.208 33.8563 139.456 34.1327 144.995L41.9018 147.714L33.2849 156.174L31.2481 147.714C23.5988 148.23 18.6222 147.317 16.3182 144.995C14.0141 142.673 12.4566 139.106 11.6641 134.295Z" fill="#FFF99A"/>
<path id="Vector_147" d="M33.2841 156.635C33.238 156.635 33.2011 156.625 33.155 156.616C32.9984 156.57 32.8693 156.441 32.8325 156.284L30.8879 148.202C23.2478 148.672 18.3725 147.732 15.9856 145.327C13.6171 142.94 12.0135 139.253 11.2117 134.369C11.1933 134.24 11.2301 134.102 11.3131 134C11.4052 133.899 11.525 133.834 11.6633 133.834H16.0593L15.1377 129.871C15.1101 129.752 15.1285 129.623 15.193 129.521C15.2575 129.42 15.3681 129.346 15.4879 129.318C21.7456 127.991 26.4826 128.867 29.57 131.927C32.556 134.903 34.2425 139.189 34.5651 144.663L42.0485 147.28C42.196 147.336 42.3158 147.456 42.3434 147.612C42.3803 147.769 42.3342 147.926 42.2144 148.045L33.5974 156.506C33.5145 156.589 33.4039 156.635 33.2841 156.635ZM31.2473 147.253C31.4593 147.253 31.6436 147.4 31.6989 147.603L33.5421 155.271L41.0532 147.898L33.9753 145.428C33.8002 145.364 33.6804 145.207 33.6711 145.013C33.4039 139.622 31.8003 135.429 28.9249 132.572C26.1509 129.816 21.8562 128.987 16.1515 130.111L17.0915 134.185C17.1192 134.323 17.0915 134.461 16.9993 134.572C16.9164 134.682 16.7782 134.747 16.6399 134.747H12.2162C13.0088 139.18 14.5018 142.516 16.6399 144.672C18.8333 146.884 23.7455 147.75 31.2197 147.253C31.2197 147.253 31.2381 147.253 31.2473 147.253Z" fill="#4321F5"/>
</g>
<g id="Path-140">
<path id="Vector_148" d="M34.0948 153.132C33.892 153.132 33.7169 153.003 33.6524 152.801L32.6663 149.483C32.5926 149.243 32.7308 148.985 32.9796 148.911C33.2192 148.838 33.4773 148.976 33.551 149.225L34.5371 152.543C34.6109 152.782 34.4726 153.04 34.2238 153.114C34.1777 153.123 34.1409 153.132 34.0948 153.132Z" fill="#4321F5"/>
</g>
<g id="Path-141">
<path id="Vector_149" d="M35.5316 151.787C35.3749 151.787 35.2182 151.704 35.1261 151.557L34.3151 150.119C34.186 149.898 34.269 149.612 34.4902 149.492C34.7114 149.363 34.9971 149.446 35.1169 149.667L35.9279 151.105C36.0569 151.326 35.974 151.612 35.7528 151.732C35.6883 151.769 35.6053 151.787 35.5316 151.787Z" fill="#4321F5"/>
</g>
<g id="Path-142">
<path id="Vector_150" d="M38.7578 148.829C38.6932 148.829 38.6287 148.819 38.5734 148.792L35.3478 147.354C35.1174 147.253 35.0068 146.976 35.1174 146.746C35.2188 146.515 35.4953 146.405 35.7257 146.515L38.9513 147.953C39.1817 148.054 39.2923 148.331 39.1817 148.561C39.108 148.727 38.9329 148.829 38.7578 148.829Z" fill="#4321F5"/>
</g>
<g id="Path-143">
<path id="Vector_151" fill-rule="evenodd" clip-rule="evenodd" d="M19.2949 144.064L20.5483 143.732C21.3593 143.52 21.8662 142.7 21.6819 141.871V141.852C21.5436 141.207 21.9491 140.571 22.5943 140.424C22.6772 140.405 22.7601 140.396 22.8523 140.396C23.5159 140.396 24.0504 139.862 24.0504 139.198C24.0504 139.115 24.0412 139.023 24.0227 138.94L23.9582 138.636C23.8292 138.037 24.2071 137.438 24.8153 137.309C24.9167 137.29 25.0181 137.281 25.1287 137.29C25.8567 137.337 26.4834 136.793 26.5295 136.065C26.5295 136.009 26.5295 135.963 26.5295 135.908L26.5203 135.751C26.4834 135.097 26.9903 134.535 27.6446 134.498C27.7737 134.489 27.8935 134.507 28.0133 134.535L28.7966 134.747L19.2949 144.064Z" fill="#FFF99A"/>
<path id="Vector_152" d="M19.2954 144.525C19.0926 144.525 18.9083 144.387 18.853 144.184C18.7885 143.935 18.936 143.686 19.1848 143.622L20.4382 143.29C21.0188 143.133 21.369 142.562 21.24 141.972V141.954C21.0464 141.06 21.6086 140.175 22.5026 139.981C22.6224 139.954 22.7422 139.944 22.862 139.944C23.2675 139.944 23.5993 139.613 23.5993 139.207C23.5993 139.152 23.5901 139.106 23.5809 139.05L23.5163 138.746C23.4242 138.332 23.5071 137.917 23.7283 137.557C23.9587 137.207 24.3089 136.958 24.7236 136.866C24.8711 136.839 25.0186 136.82 25.166 136.829C25.3964 136.848 25.6176 136.774 25.7835 136.617C25.9586 136.47 26.06 136.258 26.0784 136.028C26.0784 135.991 26.0784 135.963 26.0784 135.926L26.0692 135.77C26.0507 135.327 26.1982 134.903 26.4931 134.581C26.788 134.249 27.1935 134.055 27.6359 134.037C27.811 134.028 27.9861 134.046 28.152 134.092L28.9354 134.304C29.1842 134.369 29.3224 134.627 29.2579 134.866C29.1934 135.115 28.9354 135.253 28.6957 135.189L27.9124 134.977C27.8387 134.959 27.7649 134.949 27.682 134.949C27.4884 134.959 27.3041 135.042 27.1751 135.189C27.0461 135.336 26.9816 135.521 26.9908 135.714L27 135.871C27 135.945 27 136.009 27 136.083C26.9723 136.553 26.7512 136.986 26.401 137.299C26.0415 137.613 25.5899 137.769 25.1107 137.733C25.0462 137.733 24.9909 137.733 24.9264 137.742C24.7513 137.779 24.6038 137.88 24.5117 138.028C24.4195 138.175 24.3826 138.35 24.4195 138.525L24.484 138.829C24.5117 138.949 24.5209 139.06 24.5209 139.18C24.5209 140.092 23.7744 140.838 22.862 140.838C22.8067 140.838 22.7514 140.848 22.7053 140.857C22.5118 140.903 22.3459 141.013 22.2445 141.179C22.1432 141.345 22.1063 141.539 22.1432 141.732V141.751C22.3736 142.82 21.7376 143.87 20.6778 144.156L19.4152 144.506C19.3691 144.516 19.3323 144.525 19.2954 144.525Z" fill="#4321F5"/>
</g>
<g id="Path-144">
<path id="Vector_153" fill-rule="evenodd" clip-rule="evenodd" d="M25.8379 144.424L26.9438 144.267C27.635 144.166 28.1142 143.53 28.0129 142.839C28.0037 142.783 27.9944 142.737 27.9852 142.682C27.8286 142.101 28.1695 141.502 28.7409 141.346C28.8331 141.318 28.9345 141.309 29.0266 141.309H29.1372C29.7363 141.309 30.2155 140.82 30.2155 140.23C30.2155 140.101 30.1971 139.982 30.151 139.862L29.8561 139.051L25.8379 144.424Z" fill="#FFF99A"/>
<path id="Vector_154" d="M25.8373 144.884C25.6162 144.884 25.4134 144.718 25.3858 144.488C25.3489 144.239 25.524 144 25.7728 143.963L26.8788 143.806C27.0907 143.778 27.275 143.668 27.4041 143.493C27.5331 143.318 27.5884 143.115 27.5515 142.903C27.5423 142.866 27.5423 142.838 27.5331 142.802C27.4225 142.405 27.4778 141.981 27.6806 141.622C27.8833 141.262 28.2151 141.004 28.6114 140.894C28.7496 140.857 28.8879 140.839 29.0261 140.839H29.1367C29.4777 140.839 29.7542 140.562 29.7542 140.221C29.7542 140.147 29.7449 140.074 29.7173 140.009L29.4224 139.198C29.3394 138.958 29.4592 138.691 29.6989 138.608C29.9385 138.525 30.2057 138.645 30.2887 138.885L30.5836 139.696C30.6481 139.862 30.6758 140.037 30.6758 140.221C30.6758 141.069 29.9846 141.76 29.1367 141.76H29.0261C28.9708 141.76 28.9155 141.769 28.8602 141.779C28.6943 141.825 28.5653 141.926 28.4823 142.073C28.3994 142.221 28.381 142.387 28.4271 142.553C28.4455 142.617 28.4639 142.691 28.4731 142.765C28.5376 143.216 28.4271 143.677 28.1506 144.046C27.8741 144.414 27.4778 144.654 27.017 144.718L25.9111 144.875C25.8834 144.875 25.865 144.884 25.8373 144.884Z" fill="#4321F5"/>
</g>
<g id="Oval_11_">
<path id="Vector_155" d="M20.7682 133.023C21.2873 133.023 21.7082 132.602 21.7082 132.083C21.7082 131.564 21.2873 131.143 20.7682 131.143C20.249 131.143 19.8281 131.564 19.8281 132.083C19.8281 132.602 20.249 133.023 20.7682 133.023Z" fill="#2E2E30"/>
</g>
</g>
<g id="Group-6">
<g id="Group-9">
<g id="Path-145">
<path id="Vector_156" fill-rule="evenodd" clip-rule="evenodd" d="M199.74 145.41C203.491 142 207.619 140.792 212.135 141.806C216.651 142.82 219.158 146.645 219.665 153.28L216.476 153.676C217.517 155.704 218.043 156.718 218.043 156.718C218.043 156.718 210.172 157.4 205.426 155.345C202.265 153.971 200.366 152.331 199.749 150.432L191.51 155.335V144.433L199.74 145.41Z" fill="#FFF99A"/>
<path id="Vector_157" d="M214.947 157.289C212.191 157.289 208.164 157.031 205.243 155.759C202.257 154.46 200.34 152.902 199.519 151.105L191.76 155.732C191.621 155.814 191.437 155.814 191.299 155.741C191.151 155.658 191.068 155.51 191.068 155.344V144.433C191.068 144.304 191.124 144.175 191.225 144.092C191.326 144.009 191.455 143.963 191.584 143.981L199.602 144.93C203.399 141.53 207.657 140.332 212.238 141.355C216.956 142.414 219.601 146.405 220.126 153.243C220.145 153.492 219.97 153.704 219.721 153.732L217.187 154.045L218.449 156.496C218.523 156.635 218.514 156.791 218.44 156.93C218.366 157.068 218.228 157.151 218.081 157.169C217.952 157.188 216.707 157.289 214.947 157.289ZM199.741 149.972C199.796 149.972 199.851 149.981 199.907 149.999C200.036 150.045 200.137 150.156 200.183 150.285C200.754 152.045 202.579 153.603 205.611 154.911C209.39 156.552 215.307 156.404 217.316 156.294L216.071 153.879C216.007 153.741 216.007 153.584 216.071 153.455C216.136 153.326 216.274 153.234 216.422 153.216L219.177 152.875C218.615 146.681 216.283 143.198 212.044 142.258C207.703 141.29 203.676 142.46 200.063 145.751C199.962 145.843 199.833 145.88 199.695 145.87L191.972 144.949V154.524L199.51 150.036C199.584 149.99 199.658 149.972 199.741 149.972Z" fill="#4321F5"/>
</g>
<g id="Path-13">
<path id="Vector_158" d="M197.069 147.299C197.051 147.299 197.042 147.299 197.023 147.299L192.775 146.894C192.526 146.866 192.332 146.645 192.36 146.387C192.388 146.129 192.609 145.944 192.867 145.972L197.116 146.377C197.364 146.405 197.558 146.626 197.53 146.884C197.503 147.124 197.3 147.299 197.069 147.299Z" fill="#4321F5"/>
</g>
<g id="Path-15">
<path id="Vector_159" d="M193.132 149.317C192.892 149.317 192.69 149.133 192.671 148.884C192.653 148.626 192.846 148.414 193.104 148.396L195.731 148.22C195.989 148.202 196.201 148.396 196.219 148.654C196.238 148.912 196.044 149.124 195.786 149.142L193.16 149.317C193.15 149.317 193.141 149.317 193.132 149.317Z" fill="#4321F5"/>
</g>
</g>
<g id="Group-7">
<g id="Path-143-Copy">
<path id="Vector_160" fill-rule="evenodd" clip-rule="evenodd" d="M211.047 155.066L210.427 154.184C210.016 153.599 210.136 152.797 210.706 152.361L210.731 152.346C211.172 152.006 211.247 151.372 210.915 150.936C210.87 150.875 210.827 150.826 210.77 150.779C210.34 150.418 210.284 149.781 210.645 149.351C210.693 149.294 210.741 149.251 210.796 149.2L211.023 149.03C211.433 148.713 211.506 148.124 211.189 147.714C211.137 147.646 211.073 147.58 211.003 147.534C210.513 147.171 210.407 146.48 210.763 145.985C210.792 145.949 210.816 145.921 210.846 145.886L210.948 145.779C211.324 145.373 211.308 144.733 210.895 144.351C210.816 144.273 210.726 144.222 210.631 144.178L210.024 143.897L211.047 155.066Z" fill="#FFF99A"/>
<path id="Vector_161" d="M211.048 155.523C210.904 155.523 210.76 155.45 210.671 155.327L210.051 154.446C209.497 153.657 209.658 152.577 210.425 151.993L210.45 151.978C210.689 151.793 210.731 151.456 210.547 151.217C210.524 151.186 210.496 151.163 210.461 151.133C210.157 150.878 209.975 150.521 209.941 150.132C209.907 149.742 210.024 149.359 210.279 149.056C210.344 148.978 210.416 148.906 210.509 148.839L210.736 148.669C210.944 148.507 210.983 148.202 210.821 147.994C210.791 147.958 210.756 147.928 210.728 147.904C210.392 147.659 210.17 147.292 210.108 146.879C210.046 146.466 210.14 146.052 210.392 145.709C210.433 145.66 210.462 145.612 210.51 145.568L210.612 145.461C210.822 145.24 210.804 144.888 210.584 144.692C210.542 144.656 210.492 144.615 210.438 144.593L209.831 144.313C209.599 144.202 209.497 143.936 209.608 143.704C209.718 143.472 209.991 143.376 210.216 143.481L210.823 143.762C210.96 143.828 211.092 143.915 211.206 144.022C211.797 144.579 211.826 145.505 211.283 146.096L211.181 146.203C211.163 146.224 211.145 146.245 211.133 146.26C211.028 146.4 210.991 146.573 211.018 146.741C211.046 146.908 211.138 147.057 211.278 147.163C211.382 147.239 211.475 147.329 211.556 147.433C212.029 148.046 211.916 148.925 211.316 149.397L211.089 149.567C211.058 149.589 211.035 149.617 211.011 149.646C210.916 149.759 210.87 149.9 210.882 150.043C210.895 150.186 210.965 150.317 211.078 150.412C211.156 150.477 211.234 150.555 211.294 150.641C211.789 151.285 211.667 152.205 211.036 152.698L211.011 152.714C210.637 153.002 210.559 153.525 210.828 153.907L211.448 154.788C211.597 154.998 211.55 155.283 211.333 155.426C211.228 155.494 211.133 155.522 211.048 155.523Z" fill="#4321F5"/>
</g>
<g id="Path-144-Copy">
<path id="Vector_162" fill-rule="evenodd" clip-rule="evenodd" d="M206.636 151.762L205.998 151.046C205.606 150.609 205.645 149.932 206.088 149.534C206.124 149.504 206.161 149.475 206.192 149.453C206.612 149.167 206.717 148.582 206.426 148.17C206.375 148.102 206.323 148.035 206.259 147.981L206.182 147.916C205.793 147.59 205.742 147.006 206.068 146.618C206.139 146.533 206.218 146.467 206.312 146.413L206.947 146.044L206.636 151.762Z" fill="#FFF99A"/>
<path id="Vector_163" d="M206.637 152.22C206.506 152.218 206.383 152.163 206.297 152.066L205.658 151.35C205.383 151.047 205.244 150.654 205.274 150.246C205.296 149.832 205.473 149.463 205.784 149.194C205.832 149.15 205.881 149.107 205.93 149.076C206.035 149.008 206.104 148.898 206.12 148.778C206.142 148.652 206.119 148.536 206.05 148.431C206.028 148.4 205.999 148.364 205.97 148.34L205.893 148.275C205.307 147.783 205.231 146.913 205.722 146.327C205.823 146.207 205.951 146.098 206.088 146.021L206.723 145.651C206.941 145.521 207.222 145.601 207.353 145.818C207.483 146.036 207.403 146.318 207.185 146.448L206.55 146.818C206.507 146.841 206.464 146.877 206.428 146.92C206.268 147.11 206.288 147.403 206.485 147.569L206.563 147.634C206.655 147.711 206.742 147.808 206.816 147.906C207.026 148.215 207.104 148.581 207.038 148.947C206.971 149.312 206.77 149.624 206.461 149.834C206.436 149.85 206.424 149.864 206.4 149.879C206.272 149.988 206.206 150.138 206.194 150.296C206.189 150.46 206.241 150.613 206.351 150.74L206.989 151.456C207.156 151.645 207.142 151.934 206.948 152.108C206.85 152.182 206.742 152.224 206.637 152.22Z" fill="#4321F5"/>
</g>
</g>
<g id="Oval-Copy-4">
<path id="Vector_164" d="M215.989 150.432C216.508 150.432 216.929 150.011 216.929 149.492C216.929 148.973 216.508 148.552 215.989 148.552C215.47 148.552 215.049 148.973 215.049 149.492C215.049 150.011 215.47 150.432 215.989 150.432Z" fill="#2E2E30"/>
</g>
</g>
<g id="Group-6-Copy">
<g id="Group-9_1_">
<g id="Path-145_1_">
<path id="Vector_165" fill-rule="evenodd" clip-rule="evenodd" d="M110.254 8.14622C115.207 7.0686 119.386 8.08744 122.79 11.2233C126.194 14.3592 126.453 18.9248 123.574 24.9247L120.614 23.6736C120.502 25.9502 120.45 27.0908 120.45 27.0908C120.45 27.0908 113.293 23.7461 110.211 19.5932C108.16 16.8234 107.336 14.4535 107.75 12.5006L98.1634 12.6271L103.615 3.18526L110.254 8.14622Z" fill="#FFF99A"/>
<path id="Vector_166" d="M120.451 27.5491C120.385 27.5533 120.32 27.537 120.251 27.5082C119.958 27.3708 112.947 24.068 109.83 19.8635C107.894 17.2451 107.013 14.9378 107.201 12.9714L98.1722 13.09C98.003 13.0881 97.8514 13.0006 97.7685 12.8676C97.6823 12.7221 97.6842 12.5529 97.7672 12.4092L103.218 2.96736C103.283 2.85562 103.395 2.77153 103.525 2.75039C103.654 2.72925 103.789 2.75385 103.891 2.83433L110.36 7.66536C115.352 6.63135 119.643 7.7147 123.094 10.8988C126.65 14.1759 126.941 18.9623 123.982 25.1391C123.873 25.3638 123.616 25.4598 123.386 25.3593L121.035 24.3635L120.902 27.1178C120.897 27.2744 120.811 27.4055 120.678 27.4883C120.614 27.5258 120.53 27.5414 120.451 27.5491ZM107.745 12.0296C107.881 12.0336 108.018 12.0914 108.106 12.1958C108.195 12.3002 108.228 12.4467 108.203 12.5814C107.818 14.3916 108.619 16.6528 110.591 19.3022C113.043 22.6121 118.241 25.4427 120.036 26.3515L120.166 23.6383C120.179 23.4864 120.257 23.3507 120.378 23.2712C120.506 23.1963 120.664 23.181 120.801 23.2388L123.358 24.3213C125.967 18.6768 125.69 14.494 122.489 11.5602C119.213 8.55183 115.14 7.55176 110.366 8.59474C110.233 8.62387 110.102 8.59128 109.987 8.51418L103.755 3.86253L98.9674 12.1551L107.745 12.0296Z" fill="#4321F5"/>
</g>
<g id="Path-13_1_">
<path id="Vector_167" d="M107.213 8.5085C107.118 8.50693 107.029 8.47682 106.946 8.41815L103.47 5.94268C103.268 5.79432 103.211 5.506 103.364 5.29635C103.512 5.09468 103.801 5.03766 104.01 5.19063L107.487 7.6661C107.689 7.81446 107.746 8.10278 107.593 8.31243C107.506 8.4435 107.362 8.50916 107.213 8.5085Z" fill="#4321F5"/>
</g>
<g id="Path-15_1_">
<path id="Vector_168" d="M105.17 9.44723C105.103 9.45151 105.03 9.43061 104.962 9.40173L102.6 8.24009C102.367 8.12703 102.28 7.85344 102.393 7.62075C102.506 7.38805 102.78 7.30125 103.013 7.41431L105.375 8.57595C105.608 8.68901 105.694 8.9626 105.581 9.19529C105.502 9.35155 105.339 9.44913 105.17 9.44723Z" fill="#4321F5"/>
</g>
</g>
<g id="Group-7_1_">
<g id="Path-143-Copy_1_">
<path id="Vector_169" fill-rule="evenodd" clip-rule="evenodd" d="M115.217 22.1535L115.12 21.0804C115.057 20.3678 115.562 19.733 116.273 19.6407L116.302 19.6399C116.854 19.5665 117.237 19.0546 117.167 18.5113C117.159 18.4358 117.145 18.372 117.12 18.3027C116.928 17.7744 117.198 17.1956 117.726 17.0034C117.795 16.9781 117.859 16.9647 117.932 16.9482L118.213 16.9142C118.721 16.8275 119.079 16.3542 119.009 15.84C118.998 15.7558 118.975 15.666 118.938 15.5912C118.687 15.0354 118.94 14.3842 119.505 14.1297C119.548 14.1139 119.583 14.1013 119.626 14.0856L119.768 14.0438C120.297 13.8807 120.602 13.3184 120.436 12.7806C120.407 12.6736 120.355 12.5846 120.294 12.4988L119.909 11.9525L115.217 22.1535Z" fill="#FFF99A"/>
<path id="Vector_170" d="M115.217 22.6142C114.98 22.6119 114.777 22.4309 114.759 22.1923L114.663 21.1191C114.578 20.1593 115.257 19.304 116.213 19.1817L116.242 19.1809C116.542 19.1407 116.747 18.8698 116.707 18.5706C116.703 18.5328 116.69 18.4981 116.674 18.4548C116.539 18.0824 116.56 17.6825 116.725 17.3281C116.891 16.9737 117.183 16.7004 117.556 16.5649C117.651 16.5302 117.749 16.5042 117.854 16.4955L118.136 16.4616C118.267 16.4434 118.37 16.3764 118.452 16.278C118.53 16.1709 118.565 16.0504 118.547 15.9197C118.54 15.8733 118.524 15.83 118.511 15.7953C118.344 15.4151 118.335 14.9867 118.487 14.5977C118.64 14.2087 118.929 13.8976 119.318 13.7266C119.378 13.7046 119.427 13.677 119.491 13.6636L119.633 13.6218C119.775 13.5801 119.885 13.4808 119.958 13.3564C120.027 13.2233 120.044 13.08 120.002 12.9383C119.983 12.8863 119.961 12.8257 119.925 12.78L119.539 12.2337C119.394 12.022 119.439 11.7408 119.65 11.5951C119.862 11.4494 120.143 11.4942 120.289 11.706L120.674 12.2523C120.759 12.3782 120.83 12.5192 120.875 12.6695C120.99 13.0396 120.952 13.4459 120.771 13.7861C120.583 14.1294 120.283 14.3854 119.905 14.5036L119.763 14.5454C119.737 14.5548 119.711 14.5643 119.694 14.5706C119.374 14.7164 119.218 15.0967 119.364 15.4163C119.417 15.5344 119.452 15.6588 119.47 15.7895C119.519 16.1643 119.427 16.5312 119.201 16.8289C118.976 17.1266 118.643 17.3165 118.28 17.3701L117.999 17.4041C117.949 17.4025 117.914 17.4151 117.871 17.4309C117.732 17.4813 117.621 17.5806 117.561 17.7105C117.5 17.8404 117.496 17.9893 117.546 18.1278C117.581 18.2231 117.61 18.3302 117.619 18.4349C117.725 19.2395 117.159 19.9751 116.366 20.0872L116.337 20.088C115.869 20.1503 115.54 20.5645 115.582 21.0299L115.678 22.103C115.702 22.3589 115.519 22.5826 115.26 22.5984C115.246 22.6134 115.237 22.6165 115.217 22.6142Z" fill="#4321F5"/>
</g>
<g id="Path-144-Copy_1_">
<path id="Vector_171" fill-rule="evenodd" clip-rule="evenodd" d="M113.049 17.0876L112.855 16.1483C112.734 15.5743 113.106 15.0073 113.689 14.8835C113.735 14.8764 113.782 14.8693 113.82 14.8654C114.326 14.8282 114.71 14.3746 114.664 13.8714C114.653 13.7872 114.642 13.703 114.614 13.625L114.579 13.5298C114.406 13.0534 114.653 12.5219 115.13 12.3485C115.234 12.3107 115.335 12.2933 115.443 12.2933L116.178 12.2907L113.049 17.0876Z" fill="#FFF99A"/>
<path id="Vector_172" d="M113.049 17.5479C112.833 17.548 112.643 17.4016 112.602 17.1812L112.407 16.2419C112.32 15.8419 112.397 15.4317 112.626 15.093C112.853 14.7457 113.191 14.5149 113.594 14.4369C113.658 14.4235 113.721 14.4101 113.78 14.4085C114.036 14.384 114.222 14.169 114.206 13.9099C114.202 13.8721 114.195 13.8257 114.183 13.791L114.148 13.6958C114.022 13.3494 114.041 12.9699 114.195 12.6391C114.349 12.3084 114.628 12.05 114.974 11.9239C115.121 11.8704 115.287 11.8396 115.444 11.8411L116.179 11.8385C116.432 11.8345 116.636 12.0447 116.64 12.2982C116.644 12.5518 116.434 12.7558 116.181 12.7598L115.446 12.7624C115.397 12.7608 115.341 12.771 115.289 12.79C115.177 12.8309 115.08 12.9152 115.034 13.0302C114.984 13.1365 114.973 13.268 115.014 13.3806L115.049 13.4758C115.09 13.5884 115.117 13.716 115.132 13.838C115.193 14.6002 114.623 15.2688 113.86 15.3305C113.831 15.3313 113.814 15.3376 113.785 15.3384C113.628 15.366 113.488 15.466 113.398 15.5967C113.309 15.7275 113.281 15.8944 113.312 16.0597L113.507 16.999C113.557 17.2454 113.4 17.4888 113.145 17.5424C113.107 17.5464 113.081 17.5558 113.049 17.5479Z" fill="#4321F5"/>
</g>
</g>
<g id="Oval-Copy-4_1_">
<path id="Vector_173" d="M121.817 20.6119C122.267 20.8715 122.842 20.7174 123.102 20.2678C123.361 19.8182 123.207 19.2433 122.757 18.9837C122.308 18.7241 121.733 18.8782 121.473 19.3278C121.214 19.7774 121.368 20.3523 121.817 20.6119Z" fill="#2E2E30"/>
</g>
</g>
<g id="Path-146">
<path id="Vector_174" d="M197.062 140.221C196.924 140.221 196.785 140.157 196.693 140.037C196.537 139.834 196.583 139.548 196.785 139.392C203.661 134.222 210.103 131.245 215.936 130.544C216.185 130.517 216.416 130.692 216.452 130.95C216.48 131.199 216.305 131.429 216.047 131.466C210.379 132.148 204.085 135.069 197.338 140.138C197.255 140.194 197.163 140.221 197.062 140.221Z" fill="#4321F5"/>
</g>
<g id="Path-146-Copy">
<path id="Vector_175" d="M84.2025 25.4819C84.0643 25.4819 83.926 25.4174 83.8339 25.2976C83.6772 25.0948 83.7233 24.8091 83.926 24.6525C90.8012 19.4823 97.2432 16.5055 103.077 15.8051C103.326 15.7775 103.556 15.9526 103.593 16.2106C103.621 16.4595 103.446 16.6898 103.188 16.7267C97.5197 17.4087 91.2251 20.3302 84.479 25.399C84.3961 25.445 84.3039 25.4819 84.2025 25.4819Z" fill="#4321F5"/>
</g>
<g id="Path-147">
<path id="Vector_176" d="M195.764 136.71C195.662 136.71 195.552 136.673 195.469 136.599C195.275 136.433 195.248 136.148 195.414 135.954L203.127 126.849C203.293 126.655 203.579 126.628 203.773 126.793C203.966 126.959 203.994 127.245 203.828 127.439L196.114 136.544C196.022 136.655 195.893 136.71 195.764 136.71Z" fill="#4321F5"/>
</g>
<g id="Path-148">
<path id="Vector_177" d="M24.9898 161.169C24.8607 161.169 24.7317 161.114 24.6488 161.013C20.9255 156.819 16.5018 153.594 11.4883 151.41C11.2579 151.308 11.1473 151.041 11.2487 150.801C11.35 150.571 11.6265 150.46 11.8569 150.562C16.9903 152.801 21.5338 156.11 25.34 160.404C25.5059 160.598 25.4874 160.884 25.3031 161.059C25.2109 161.132 25.1004 161.169 24.9898 161.169Z" fill="#4321F5"/>
</g>
<g id="Path-149">
<path id="Vector_178" d="M28.8046 128.526C28.6755 128.526 28.5465 128.471 28.4544 128.369C24.6758 124.075 22.8418 120.904 22.8418 118.674C22.8418 118.416 23.0445 118.213 23.3026 118.213C23.5606 118.213 23.7634 118.416 23.7634 118.674C23.7634 120.646 25.579 123.697 29.1456 127.761C29.3114 127.955 29.293 128.24 29.0995 128.415C29.0165 128.489 28.9059 128.526 28.8046 128.526Z" fill="#4321F5"/>
</g>
<g id="Path-150">
<path id="Vector_179" d="M93.6665 9.4463C93.602 9.4463 93.5375 9.42786 93.4729 9.40022C90.2105 7.85193 86.6254 7.66761 82.81 8.83804C82.5704 8.91177 82.3123 8.77353 82.2386 8.53391C82.1649 8.29429 82.3031 8.03625 82.5427 7.96252C86.5794 6.71836 90.3948 6.92111 93.8692 8.57078C94.0996 8.68137 94.201 8.95785 94.0904 9.18825C94.0075 9.35414 93.8416 9.4463 93.6665 9.4463Z" fill="#4321F5"/>
</g>
</g>
</svg>
