<svg width="181" height="178" viewBox="0 0 181 178" fill="none" xmlns="http://www.w3.org/2000/svg">
<g id="Group-8">
<g id="Group-5_1_">
<g id="Path-242">
<path id="Vector" fill-rule="evenodd" clip-rule="evenodd" d="M86.4182 114.2C84.1382 127.388 80.3102 135.092 74.9582 137.312C69.6062 139.52 49.4222 127.952 14.4062 102.596L21.2702 91.4961L65.4422 114.824L68.6822 108.116L86.4182 114.2Z" fill="white"/>
</g>
<g id="Path-242-Copy">
<path id="Vector_2" d="M73.4095 138.165C70.0015 138.165 64.1095 135.741 55.5055 130.809C45.4375 125.037 31.4935 115.713 14.0575 103.077C13.8055 102.897 13.7335 102.537 13.9015 102.273L20.7655 91.1725C20.9335 90.9085 21.2815 90.8125 21.5575 90.9565L65.1775 113.997L68.1535 107.853C68.2855 107.577 68.5975 107.445 68.8855 107.541L86.6095 113.625C86.8855 113.721 87.0535 114.009 87.0055 114.297C85.8535 120.921 84.2935 126.249 82.3735 130.137C80.4055 134.109 77.9815 136.701 75.1855 137.865C74.6935 138.057 74.1055 138.165 73.4095 138.165ZM15.2095 102.429C32.4055 114.873 46.1575 124.065 56.0935 129.765C68.3935 136.821 73.0135 137.457 74.7175 136.749C79.7815 134.661 83.4775 127.209 85.7335 114.597L68.9935 108.861L65.9815 115.089C65.9095 115.233 65.7775 115.341 65.6335 115.401C65.4775 115.449 65.3095 115.437 65.1655 115.365L21.4855 92.3005L15.2095 102.429Z" fill="#2E2E30"/>
</g>
<g id="Group-3-Copy-5">
<g id="Path-13">
<path id="Vector_3" fill-rule="evenodd" clip-rule="evenodd" d="M35.1191 98.6992L27.7931 111.388L21.5012 108.462C20.659 108.073 19.8708 107.59 19.1469 107.02C18.4587 106.484 17.6779 106.684 16.7837 107.609C15.0908 109.389 7.76916 116.095 4.23144 111.35C3.54931 110.444 16.5558 88.9239 17.2154 88.8613C18.3129 88.7605 21.2247 91.6611 26.0627 94.5374C27.7343 95.5302 30.7481 96.91 35.1191 98.6992Z" fill="white"/>
</g>
<g id="Path-13-Copy-4">
<path id="Vector_4" fill-rule="evenodd" clip-rule="evenodd" d="M22.0913 106.89L22.0186 106.848C20.3142 105.864 18.1501 106.18 16.7908 107.599C15.098 109.379 7.77632 116.084 4.2386 111.34C3.55647 110.433 16.5629 88.9133 17.2226 88.8508C18.0282 88.7755 21.4672 90.955 27.5188 95.3773L22.0913 106.89Z" fill="#2E2E30"/>
</g>
<g id="Path-13-Copy-2">
<path id="Vector_5" d="M7.49903 113.611C7.3919 113.604 7.28915 113.614 7.18201 113.608C5.78921 113.524 4.63406 112.885 3.74773 111.708C3.48878 111.365 3.56529 110.896 4.08097 109.739C5.23717 107.137 8.41877 101.602 11.0055 97.2894C12.4151 94.944 13.7658 92.7724 14.803 91.168C16.6569 88.317 16.8192 88.2999 17.1438 88.2656C18.0849 88.1716 19.3835 89.0183 21.9867 90.7014C23.1978 91.4838 24.6879 92.4549 26.447 93.5121C28.0518 94.4525 31.0544 96.0198 35.3881 98.1616L35.9629 98.438L28.0429 112.156L20.9995 108.851C20.1261 108.444 19.3127 107.933 18.5577 107.345C18.2344 107.089 17.6517 107.57 17.227 108.017C16.6707 108.597 11.7679 113.609 7.49903 113.611ZM4.82052 111.122C5.46591 111.924 6.26333 112.343 7.24397 112.397C10.3406 112.577 14.5402 109.071 16.3466 107.19C17.7463 105.726 18.7113 105.951 19.2808 106.404C19.969 106.94 20.7053 107.393 21.4895 107.763L27.5557 110.6L34.2817 98.95C30.2302 96.9434 27.3894 95.4557 25.8382 94.5185C24.0687 93.4553 22.5578 92.4722 21.3468 91.6898C19.6133 90.5643 18.0861 89.5856 17.4273 89.4546C16.727 90.2835 13.9915 94.5655 10.7896 99.9915C6.91722 106.555 5.03428 110.248 4.82052 111.122Z" fill="#2E2E30"/>
</g>
<g id="Group-5">
<g id="Path-13-Copy">
<path id="Vector_6" fill-rule="evenodd" clip-rule="evenodd" d="M22.3472 110.072C21.1844 110.814 17.8647 108.26 15.9371 110.279C14.0095 112.298 5.67451 119.942 1.63369 114.533C0.862853 113.492 15.6973 88.9264 16.4237 88.9162C18.2651 88.8708 21.4252 90.5013 25.9161 93.7869L22.7629 100.28C22.3393 101.158 22.4329 102.196 23.0039 102.983C23.9714 104.331 24.4799 105.442 24.5072 106.331C24.5666 108.028 23.51 109.33 22.3472 110.072Z" fill="white"/>
</g>
<g id="Path-243">
<path id="Vector_7" d="M16.67 116.715C15.5194 116.716 14.3178 116.133 13.8849 114.747C13.3154 112.95 13.6495 110.787 14.8453 108.332C14.9249 108.17 15.0608 108.055 15.2351 108.017C15.3991 107.973 15.585 108.011 15.7244 108.105C18.4355 109.961 19.7902 111.935 19.7751 113.977C19.7571 115.352 18.6953 116.471 17.1717 116.686C17.0034 116.714 16.8307 116.725 16.67 116.715ZM15.6244 109.502C14.8063 111.399 14.6055 113.043 15.0296 114.397C15.3363 115.377 16.2849 115.606 16.9954 115.504C17.7714 115.384 18.5655 114.872 18.577 113.964C18.585 112.486 17.5945 110.986 15.6244 109.502Z" fill="#2E2E30"/>
</g>
<g id="Path-243-Copy">
<path id="Vector_8" d="M16.7778 109.518C16.2941 109.516 15.7792 109.495 15.2391 109.447C15.068 109.431 14.9121 109.341 14.8026 109.195C14.7035 109.054 14.6716 108.87 14.714 108.7C15.3733 106.046 16.5173 104.185 18.1055 103.162C19.5146 102.257 21.002 102.825 21.858 103.79C22.8755 104.932 22.9817 106.476 22.1063 107.536C21.0376 108.859 19.2396 109.526 16.7778 109.518ZM16.0658 108.303C18.5256 108.434 20.25 107.92 21.1838 106.782C21.7525 106.085 21.4842 105.182 20.9659 104.592C20.4875 104.052 19.6261 103.624 18.7544 104.174C17.5632 104.941 16.6685 106.323 16.0658 108.303Z" fill="#2E2E30"/>
</g>
<g id="Path-21">
<path id="Vector_9" d="M10.5445 115.299C10.421 115.297 10.2887 115.263 10.1863 115.176C9.92375 114.983 9.8659 114.603 10.0755 114.336C10.9574 113.168 11.3075 112.082 11.1035 111.091C10.8589 109.883 9.78344 108.722 7.91282 107.642C7.62184 107.474 7.52521 107.113 7.69321 106.822C7.86121 106.531 8.22184 106.434 8.51282 106.602C10.6952 107.862 11.9644 109.288 12.279 110.855C12.5484 112.189 12.1298 113.61 11.0323 115.055C10.8991 115.213 10.7276 115.294 10.5445 115.299Z" fill="#2E2E30"/>
</g>
<g id="Path-19">
<path id="Vector_10" d="M3.65875 114.65C3.562 114.649 3.46686 114.622 3.37773 114.585C3.08074 114.427 2.97372 114.06 3.12533 113.774C7.46313 105.636 12.2002 97.7435 17.2046 90.3236C17.3934 90.0446 17.7628 89.9808 18.0314 90.1636C18.3104 90.3524 18.3742 90.7218 18.1915 90.9904C13.2111 98.3687 8.49796 106.22 4.17816 114.326C4.08495 114.536 3.87903 114.652 3.65875 114.65Z" fill="#2E2E30"/>
</g>
<g id="Path-13-Copy-3">
<path id="Vector_11" d="M5.35421 117.042C5.23068 117.04 5.11754 117.044 5.00001 117.031C3.43611 116.932 2.13985 116.225 1.16043 114.897C0.87191 114.509 0.92485 113.986 1.99296 111.775C3.69794 108.27 7.27833 102.093 10.0659 97.4808C11.6118 94.9231 13.075 92.5809 14.1705 90.8994C16.1428 87.8673 16.3095 87.8665 16.6757 87.8563C18.6838 87.8101 21.8239 89.5953 26.2994 93.3155L26.6627 93.6223L23.3007 100.549C22.9807 101.224 23.0456 102.023 23.482 102.635C24.5337 104.102 25.0642 105.295 25.0999 106.313C25.1669 107.973 24.2429 109.573 22.6607 110.586C21.9785 111.024 21.0851 110.771 20.0326 110.482C18.43 110.042 17.2239 109.803 16.3581 110.702C15.7435 111.359 10.1767 117.041 5.35421 117.042ZM2.21683 114.316C2.9717 115.264 3.90422 115.761 5.06635 115.836C9.5126 116.103 15.2637 110.126 15.4941 109.871C16.9118 108.375 18.8949 108.924 20.3548 109.324C20.9628 109.495 21.7878 109.722 22.0178 109.564C22.6103 109.185 23.9695 108.127 23.9045 106.344C23.8796 105.595 23.4034 104.572 22.5159 103.325C21.8102 102.363 21.7086 101.099 22.2195 100.022L25.1594 93.946C20.4717 90.0894 18.0885 89.1292 16.8936 89.0629C16.1425 89.9317 12.9275 94.9483 9.14513 101.356C4.59039 109.077 2.41902 113.366 2.21683 114.316Z" fill="#2E2E30"/>
</g>
</g>
</g>
</g>
<g id="Group-Copy">
<g id="Path-77">
<path id="Vector_12" fill-rule="evenodd" clip-rule="evenodd" d="M97.3306 36.667C119.299 49.9502 140.837 45.2059 161.959 22.4386L168.007 32.914C141.86 63.0581 117 70.3996 93.4454 54.9697L97.3306 36.667Z" fill="white"/>
</g>
<g id="Path">
<path id="Vector_13" d="M117.433 64.621C116.352 64.6213 115.268 64.5681 114.181 64.4613C107.119 63.7723 99.9949 60.7215 92.9935 55.4107L92.65 55.1518L92.7866 54.7404C98.3631 38.5512 99.2577 38.2286 99.8001 38.0402C100.022 37.9677 100.254 37.9861 100.449 38.1087C118.918 49.8655 139.442 44.4455 161.442 21.9749C161.681 21.7402 162.051 21.7341 162.296 21.9667C162.531 22.2053 162.537 22.5758 162.305 22.821C147.588 37.8438 133.488 45.3889 120.171 45.3872C113.267 45.3822 106.571 43.3595 100.108 39.3174C99.5857 40.0207 98.1222 42.958 94.065 54.7228C106.826 64.2738 119.597 65.9211 133.096 59.7347C145.241 54.1778 156.531 43.1563 167.444 32.4908L167.494 32.434C167.733 32.1992 168.11 32.2035 168.344 32.4421C168.579 32.6807 168.575 33.0573 168.336 33.292L168.286 33.3488C157.295 44.0728 145.934 55.1631 133.597 60.8175C128.029 63.3667 122.712 64.6213 117.433 64.621Z" fill="#2E2E30"/>
</g>
<g id="Path-78">
<path id="Vector_14" d="M165.428 31.3272C165.208 31.3297 164.996 31.2026 164.886 30.9887C164.739 30.6858 164.869 30.3339 165.172 30.1867C167.67 28.9938 169.811 27.2309 171.535 24.9608C171.729 24.6964 172.113 24.6412 172.373 24.8514C172.637 25.0452 172.692 25.4289 172.482 25.6889C170.638 28.1113 168.353 29.985 165.682 31.2635C165.61 31.3055 165.525 31.3268 165.428 31.3272Z" fill="#2E2E30"/>
</g>
<g id="Path-78-Copy">
<path id="Vector_15" d="M167.352 33.7491C167.132 33.7516 166.903 33.6201 166.804 33.4003C166.657 33.0973 166.797 32.7394 167.089 32.5982C169.322 31.5449 171.22 29.9364 172.711 27.8147C172.898 27.54 173.276 27.4743 173.541 27.6681C173.815 27.8559 173.881 28.2337 173.687 28.498C172.078 30.7988 170.032 32.5345 167.6 33.6751C167.523 33.7335 167.432 33.7443 167.352 33.7491Z" fill="#2E2E30"/>
</g>
<g id="Path-79">
<path id="Vector_16" d="M156.407 27.6802C156.073 27.6787 155.81 27.415 155.801 27.0875C155.765 23.9769 156.473 21.7947 157.907 20.6065C159.126 19.5978 160.833 19.2911 162.987 19.7101C163.314 19.7712 163.526 20.0918 163.465 20.418C163.404 20.7442 163.084 20.957 162.757 20.896C160.968 20.5571 159.594 20.7686 158.678 21.5333C157.536 22.4835 156.965 24.3511 157.005 27.0852C157.008 27.4022 156.74 27.6817 156.407 27.6802Z" fill="#2E2E30"/>
</g>
<g id="Path-80">
<path id="Vector_17" d="M161.984 25.3885C161.774 25.385 161.574 25.2787 161.466 25.0917C161.298 24.8007 161.395 24.44 161.686 24.272C164.056 22.904 165.654 20.8727 166.464 18.2435C166.558 17.926 166.896 17.7444 167.214 17.8382C167.531 17.9321 167.713 18.2706 167.619 18.5881C166.726 21.5287 164.942 23.7917 162.303 25.3157C162.193 25.3653 162.087 25.3985 161.984 25.3885Z" fill="#2E2E30"/>
</g>
<g id="Path-81">
<path id="Vector_18" d="M163.91 28.7943C163.673 28.7924 163.45 28.6446 163.35 28.4247C163.23 28.1201 163.376 27.7727 163.691 27.6462C166.615 26.4708 169.111 23.8102 171.102 19.7231C171.251 19.4292 171.609 19.3055 171.897 19.4442C172.191 19.5932 172.315 19.9513 172.176 20.2392C170.051 24.5979 167.351 27.4588 164.133 28.7487C164.054 28.7803 163.98 28.7955 163.91 28.7943Z" fill="#2E2E30"/>
</g>
</g>
<g id="Group-11">
<g id="Group-3">
<g id="Path_1_">
<path id="Vector_19" fill-rule="evenodd" clip-rule="evenodd" d="M78.358 9.24187L82.75 11.9779C84.01 11.3179 85.438 10.9459 86.962 10.9459C87.934 10.9459 88.906 11.1019 89.89 11.4019L91.354 8.37787C91.426 8.22187 91.63 8.14987 91.786 8.22187C91.858 8.25787 91.918 8.32987 91.954 8.40187C93.322 12.3139 94.054 14.3179 94.126 14.4139C95.35 15.9619 96.082 17.9299 96.082 20.0539C96.082 25.0939 92.002 29.1739 86.962 29.1739C81.922 29.1739 77.842 25.0939 77.842 20.0539C77.842 18.2179 78.382 16.5139 79.318 15.0739L77.818 9.64987C77.77 9.45787 77.878 9.26587 78.07 9.20587C78.166 9.18187 78.274 9.19387 78.358 9.24187Z" fill="#2E2E30"/>
</g>
<g id="Path-6">
<path id="Vector_20" fill-rule="evenodd" clip-rule="evenodd" d="M81.9458 26.8101L80.1818 36.0381C75.7178 37.6101 72.4178 39.1221 70.2578 40.5621C86.4938 41.8701 96.7538 42.5541 101.05 42.6381C102.322 42.6621 100.906 37.3941 99.8018 37.0221C98.2658 36.5061 95.6978 35.7741 92.0978 34.8141V26.8461L81.9458 26.8101Z" fill="white"/>
</g>
<g id="Oval-Copy-2">
<path id="Vector_21" d="M94.6766 26.8457C97.2282 26.8457 99.2966 24.3743 99.2966 21.3257C99.2966 18.2771 97.2282 15.8057 94.6766 15.8057C92.1251 15.8057 90.0566 18.2771 90.0566 21.3257C90.0566 24.3743 92.1251 26.8457 94.6766 26.8457Z" fill="#2E2E30"/>
</g>
<g id="Path_2_">
<path id="Vector_22" fill-rule="evenodd" clip-rule="evenodd" d="M82.1609 16.2979H94.5569V19.7779C94.8689 24.1459 94.4009 27.2299 93.1529 29.0059C91.2929 31.6819 84.2849 32.3899 81.7889 26.3299C80.1209 22.2859 80.2409 18.9499 82.1609 16.2979Z" fill="white"/>
</g>
<g id="Path-209">
<path id="Vector_23" fill-rule="evenodd" clip-rule="evenodd" d="M94.677 18.77C94.461 18.038 94.041 17.474 93.441 17.054C93.069 16.802 92.709 16.598 92.385 16.466C92.073 16.346 91.725 16.49 91.605 16.802L91.017 18.278C90.897 18.59 90.549 18.734 90.237 18.614C90.153 18.578 90.069 18.53 90.009 18.458L88.281 16.502C88.161 16.37 87.993 16.298 87.825 16.298C86.385 16.322 85.173 16.574 84.189 17.054C82.569 17.834 81.645 19.382 81.417 21.686C79.869 19.406 79.245 17.834 79.533 16.982C79.797 16.202 81.021 15.038 83.193 13.478H90.477C92.781 13.478 94.665 15.338 94.677 17.654V18.77Z" fill="#2E2E30"/>
</g>
<g id="Path-8">
<path id="Vector_24" d="M90.3823 27.326C88.6423 27.326 87.2503 26.402 86.3263 24.602C86.1703 24.302 86.2903 23.942 86.5903 23.798C86.8903 23.642 87.2503 23.762 87.3943 24.062C88.3303 25.886 89.6743 26.486 91.6303 25.958C91.9543 25.874 92.2783 26.066 92.3623 26.378C92.4463 26.702 92.2543 27.026 91.9423 27.11C91.3903 27.242 90.8743 27.326 90.3823 27.326Z" fill="#2E2E30"/>
</g>
<g id="Group-7">
<g id="Path-Copy-4">
<path id="Vector_25" d="M88.0957 22.0996C87.7597 22.0996 87.4957 21.8356 87.4957 21.4996C87.4957 21.1516 87.2077 20.8636 86.8597 20.8636C86.5117 20.8636 86.2117 21.1516 86.2117 21.4996C86.2117 21.8356 85.9477 22.0996 85.6117 22.0996C85.2757 22.0996 85.0117 21.8356 85.0117 21.4996C85.0117 20.4916 85.8397 19.6636 86.8477 19.6636C87.8557 19.6636 88.6837 20.4916 88.6837 21.4996C88.6957 21.8356 88.4197 22.0996 88.0957 22.0996Z" fill="#2E2E30"/>
</g>
<g id="Path-Copy-5">
<path id="Vector_26" d="M94.6717 22.0996C94.3357 22.0996 94.0717 21.8356 94.0717 21.4996C94.0717 21.1516 93.7837 20.8636 93.4357 20.8636C93.0877 20.8636 92.7997 21.1516 92.7997 21.4996C92.7997 21.8356 92.5357 22.0996 92.1997 22.0996C91.8637 22.0996 91.5997 21.8356 91.5997 21.4996C91.5877 20.4916 92.4157 19.6636 93.4357 19.6636C94.4557 19.6636 95.2717 20.4916 95.2717 21.4996C95.2717 21.8356 95.0077 22.0996 94.6717 22.0996Z" fill="#2E2E30"/>
</g>
</g>
<g id="Path-3">
<path id="Vector_27" d="M80.3245 21.2777C80.1325 21.2777 79.9405 21.2177 79.7845 21.0857C76.7605 18.5777 76.3405 14.0657 78.8485 11.0417C80.4925 9.06167 83.0845 8.11367 85.6045 8.58167L88.9045 9.18167C89.3605 9.26567 89.6605 9.69767 89.5765 10.1537C89.4925 10.6097 89.0605 10.9097 88.6045 10.8257L85.3045 10.2257C83.3725 9.87767 81.3925 10.5977 80.1325 12.1097C79.1965 13.2257 78.7645 14.6417 78.8965 16.0937C79.0285 17.5457 79.7245 18.8537 80.8405 19.7897C81.2005 20.0897 81.2485 20.6177 80.9485 20.9777C80.8045 21.1697 80.5645 21.2777 80.3245 21.2777Z" fill="#AFF164"/>
</g>
<g id="Path-4">
<path id="Vector_28" d="M90.1046 25.118C89.7926 25.118 89.5286 24.878 89.5046 24.554C89.4806 24.218 89.7326 23.942 90.0686 23.918C90.7286 23.882 91.0286 23.774 91.1486 23.702C91.0166 23.45 90.5366 22.79 88.8446 21.242C88.6046 21.014 88.5806 20.642 88.8086 20.39C89.0366 20.15 89.4086 20.126 89.6606 20.354C92.4206 22.898 92.5166 23.546 92.3726 24.026C92.1086 24.89 90.9806 25.058 90.1646 25.106C90.1406 25.118 90.1166 25.118 90.1046 25.118Z" fill="#2E2E30"/>
</g>
<g id="Group-2">
<g id="Path-6-Copy">
<path id="Vector_29" fill-rule="evenodd" clip-rule="evenodd" d="M82.2112 35.1872C74.2912 35.6432 72.1792 38.5352 68.9512 40.6952L72.7312 85.6112L110.663 78.0632C108.359 74.4272 106.439 71.2832 104.903 68.6192V61.0232C103.355 45.5432 101.231 37.3472 98.5192 36.4352C96.9352 35.8952 90.1432 34.7312 82.2112 35.1872Z" fill="white"/>
</g>
<g id="Path-2">
<path id="Vector_30" d="M104.459 57.3032C104.135 57.3032 103.871 57.0512 103.859 56.7272C103.595 51.2792 102.647 46.6232 101.039 42.8792C100.907 42.5792 101.051 42.2192 101.351 42.0872C101.651 41.9552 102.011 42.0992 102.143 42.3992C103.799 46.2632 104.783 51.0632 105.059 56.6552C105.071 56.9912 104.819 57.2672 104.483 57.2792C104.483 57.3032 104.471 57.3032 104.459 57.3032Z" fill="#2E2E30"/>
</g>
</g>
<g id="Oval">
<path id="Vector_31" fill-rule="evenodd" clip-rule="evenodd" d="M79.9297 27.4576C82.3657 27.0256 83.9257 24.3136 83.4097 21.3976C82.8937 18.4816 80.5057 16.4656 78.0577 16.8976C75.6097 17.3296 74.0617 20.0416 74.5777 22.9576C75.0937 25.8736 77.4937 27.8896 79.9297 27.4576Z" fill="#2E2E30"/>
</g>
<g id="Oval-Copy">
<path id="Vector_32" fill-rule="evenodd" clip-rule="evenodd" d="M79.2697 26.1498C81.0577 25.8378 82.1977 23.8458 81.8257 21.7098C81.4537 19.5738 79.6897 18.0978 77.9017 18.4098C76.1137 18.7218 74.9737 20.7138 75.3457 22.8498C75.7297 24.9858 77.4817 26.4618 79.2697 26.1498Z" fill="white"/>
<path id="Vector_33" d="M78.7894 26.4857C77.0374 26.4857 75.4294 24.9857 75.0574 22.8977C74.8654 21.7937 75.0454 20.6897 75.5614 19.7897C76.0894 18.8777 76.9054 18.2777 77.8534 18.1097C79.7974 17.7617 81.7174 19.3577 82.1254 21.6497C82.3174 22.7537 82.1374 23.8577 81.6214 24.7577C81.0934 25.6697 80.2774 26.2697 79.3294 26.4377C79.1494 26.4737 78.9694 26.4857 78.7894 26.4857ZM78.3934 18.6617C78.2494 18.6617 78.1054 18.6737 77.9614 18.6977C77.1814 18.8297 76.5214 19.3337 76.0774 20.0897C75.6334 20.8697 75.4774 21.8297 75.6454 22.7897C75.9934 24.7577 77.5894 26.1377 79.2214 25.8497C80.0014 25.7177 80.6614 25.2137 81.1054 24.4577C81.5494 23.6777 81.7054 22.7177 81.5374 21.7577C81.2134 19.9577 79.8574 18.6617 78.3934 18.6617Z" fill="#2E2E30"/>
</g>
<g id="Path-14">
<path id="Vector_34" d="M89.1325 31.5858C88.2085 31.5858 87.1885 31.4418 86.0845 31.1658C85.7605 31.0818 85.5685 30.7578 85.6525 30.4338C85.7365 30.1098 86.0605 29.9178 86.3845 30.0018C88.8445 30.6378 90.7645 30.4938 92.0845 29.5818C93.3925 28.6818 94.1965 26.9658 94.4725 24.4818C94.5085 24.1578 94.8085 23.9178 95.1325 23.9538C95.4565 23.9898 95.6965 24.2898 95.6605 24.6138C95.3365 27.4578 94.3645 29.4618 92.7565 30.5658C91.7845 31.2498 90.5605 31.5858 89.1325 31.5858Z" fill="#2E2E30"/>
</g>
</g>
<g id="Group-14-Copy">
<g id="Group-17">
<g id="Group-16">
<g id="Path-95">
<path id="Vector_35" fill-rule="evenodd" clip-rule="evenodd" d="M74.6416 39.422C48.8409 30.1101 32.6263 34.0507 25.9872 51.2379C19.3482 68.425 27.7326 83.7828 51.1465 97.3008L57.2922 84.928C46.0505 74.8072 41.3894 66.2965 43.2942 59.3733C45.2094 52.4562 54.3526 51.4996 70.7239 56.5037L74.6416 39.422Z" fill="white"/>
</g>
<g id="Path-9">
<path id="Vector_36" d="M66.3124 88.5286C66.0757 88.5306 65.8531 88.3882 65.7544 88.1511C64.7929 85.8085 61.9327 85.0024 57.2543 85.7377C56.9341 85.7884 56.6195 85.5652 56.5688 85.2449C56.5182 84.9247 56.7413 84.6101 57.0616 84.5595C62.3701 83.7168 65.6667 84.7749 66.8623 87.6961C66.989 88.0048 66.8445 88.3509 66.5359 88.4775C66.4747 88.5115 66.3987 88.5231 66.3124 88.5286Z" fill="#2E2E30"/>
</g>
<g id="Path-10">
<path id="Vector_37" d="M63.7563 95.0203C63.0791 95.0173 62.3771 94.8891 61.6668 94.6314C59.8568 93.9744 57.3264 92.3333 53.9359 89.6137C53.6793 89.4102 53.6379 89.026 53.8414 88.7694C54.045 88.5128 54.4292 88.4713 54.6858 88.6749C57.928 91.2673 60.4213 92.9008 62.0841 93.5006C63.6311 94.0612 65.0236 93.8813 66.3495 92.9287C66.6139 92.7349 66.9916 92.8005 67.1854 93.0649C67.3792 93.3292 67.3136 93.707 67.0492 93.9008C66.01 94.6448 64.9069 95.0194 63.7563 95.0203Z" fill="#2E2E30"/>
</g>
<g id="Path-11">
<path id="Vector_38" d="M60.6768 97.927C57.892 97.9265 55.0562 95.9982 52.269 92.1859C52.0751 91.9215 52.1304 91.5378 52.3947 91.344C52.6591 91.1502 53.0428 91.2055 53.2366 91.4698C55.8656 95.0522 58.4268 96.8081 60.8727 96.7237C61.2017 96.7058 61.4819 96.9646 61.4938 97.304C61.5117 97.633 61.2529 97.9132 60.9135 97.925C60.8332 97.9202 60.7632 97.9214 60.6768 97.927Z" fill="#2E2E30"/>
</g>
<g id="Path-12">
<path id="Vector_39" d="M56.3476 101.731C56.294 101.728 56.2404 101.725 56.1928 101.711C53.1332 100.915 51.2625 98.8509 50.6087 95.5913C50.5476 95.2651 50.7544 94.9549 51.0867 94.8835C51.4129 94.8224 51.7231 95.0292 51.7945 95.3614C52.3565 98.1801 53.8939 99.8852 56.4986 100.558C56.8212 100.647 57.0118 100.965 56.9226 101.287C56.8633 101.558 56.611 101.731 56.3476 101.731Z" fill="#2E2E30"/>
</g>
</g>
<g id="Path_3_">
<path id="Vector_40" d="M50.3935 97.476C50.2968 97.4756 50.1852 97.4527 50.0917 97.3987C38.5874 90.7567 30.679 83.5026 26.5693 75.8368C22.4317 68.0993 22.0506 59.7594 25.4131 51.0314C28.2831 43.6124 32.9409 38.4727 39.2611 35.7339C48.2298 31.8637 60.204 32.9158 74.8563 38.8811C75.1609 39.0016 75.3171 39.355 75.1803 39.664C75.0599 39.9686 74.7064 40.1248 74.3974 39.988C60.0541 34.1594 48.3925 33.0939 39.7325 36.8374C33.7166 39.4332 29.2651 44.3595 26.5215 51.4635C20.0465 68.2465 28.1776 83.3471 50.6977 96.3491C50.9887 96.5171 51.0853 96.8777 50.9173 97.1687C50.8033 97.3662 50.6034 97.4725 50.3935 97.476Z" fill="#2E2E30"/>
</g>
<g id="Path_4_">
<path id="Vector_41" d="M57.2868 85.5356C57.1365 85.532 56.9834 85.4852 56.8619 85.3596C50.995 79.5613 46.8397 74.4465 44.4788 70.1597C42.0664 65.7461 41.4771 62.0388 42.7313 59.1464C43.9103 56.4323 46.4209 54.196 49.6219 52.9956C53.5534 51.5381 60.4374 50.8707 70.9751 55.9708C71.278 56.1181 71.3911 56.4743 71.2499 56.7669C71.1026 57.0699 70.7464 57.1829 70.4538 57.0417C60.3082 52.1264 53.7505 52.7327 50.0441 54.1124C47.1517 55.186 44.8864 57.1898 43.8382 59.6053C41.5914 64.7929 46.2605 73.1698 57.7097 84.4912C57.9483 84.7259 57.9526 85.1025 57.7178 85.3411C57.5966 85.479 57.4431 85.5289 57.2868 85.5356Z" fill="#2E2E30"/>
</g>
</g>
</g>
<g id="Group">
<g id="Group-4">
<g id="Path-5">
<path id="Vector_42" fill-rule="evenodd" clip-rule="evenodd" d="M126.901 93.3794C129.793 95.6354 134.245 101.167 140.269 109.975C146.293 118.783 150.133 137.479 151.801 166.027H137.569C135.169 142.003 132.493 128.035 129.565 124.135C126.637 120.235 121.129 114.535 113.065 107.071L126.901 93.3794Z" fill="white"/>
</g>
<g id="Path-5-Copy">
<path id="Vector_43" d="M152.436 166.627H137.016L136.956 166.087C134.568 142.291 131.916 128.299 129.072 124.495C126.18 120.631 120.648 114.919 112.644 107.515L112.188 107.095L126.852 92.5874L127.272 92.9114C130.236 95.2154 134.652 100.687 140.76 109.639C143.808 114.091 146.328 121.099 148.26 130.483C150.18 139.807 151.572 151.759 152.4 166.003L152.436 166.627ZM138.108 165.427H151.164C149.496 137.467 145.656 118.927 139.776 110.311C134.1 102.007 129.78 96.5834 126.936 94.1834L113.928 107.059C121.74 114.307 127.152 119.923 130.032 123.775C133.044 127.783 135.684 141.415 138.108 165.427Z" fill="#2E2E30"/>
</g>
</g>
<g id="Path_5_">
<path id="Vector_44" fill-rule="evenodd" clip-rule="evenodd" d="M61.0557 109.514C68.0277 86.0302 73.9197 76.9102 75.9837 75.7822L91.1397 81.3022L97.5117 83.8462C95.1237 91.4422 88.6557 112.934 86.6397 118.814L61.0557 109.514Z" fill="black"/>
</g>
<g id="Path_6_">
<path id="Vector_45" fill-rule="evenodd" clip-rule="evenodd" d="M115.861 121.874C113.881 118.19 109.117 113.282 101.557 107.126C90.2168 97.8981 90.9728 90.6141 87.7568 87.1701L105.949 76.9341C109.669 79.9101 119.365 81.7941 135.049 101.966L115.861 121.874Z" fill="black"/>
</g>
<g id="Path-129">
<path id="Vector_46" d="M92.0628 101.99C92.0148 101.99 91.9548 101.978 91.8948 101.966C91.5708 101.87 91.3908 101.546 91.4748 101.222L95.9268 85.442C96.0228 85.118 96.3468 84.938 96.6708 85.022C96.9948 85.118 97.1748 85.442 97.0908 85.766L92.6388 101.546C92.5548 101.81 92.3148 101.99 92.0628 101.99Z" fill="white"/>
</g>
</g>
<g id="Group-9">
<g id="Path-244">
<path id="Vector_47" fill-rule="evenodd" clip-rule="evenodd" d="M69.8738 37.6105L65.9909 53.4123C65.6442 54.8256 64.3291 55.7879 62.8839 55.6914L54.8612 55.1663C53.2109 55.0581 51.9518 53.6298 52.06 51.9795C52.0663 51.944 52.0628 51.8947 52.069 51.8592L53.7408 36.2281C53.9074 34.6612 55.2579 33.498 56.8317 33.5562L67.0559 33.8968C68.7145 33.9577 70.0174 35.345 69.9564 37.0037C69.9446 37.2087 69.921 37.4117 69.8738 37.6105Z" fill="#4321F5"/>
<path id="Vector_48" d="M63.0808 56.299C62.996 56.2963 62.923 56.2956 62.8382 56.2928L54.8155 55.7677C53.8513 55.7074 52.9775 55.273 52.3489 54.553C51.7204 53.8329 51.3978 52.8987 51.4678 51.9484C51.4762 51.9011 51.4727 51.8518 51.481 51.8045L53.1527 36.1733C53.3478 34.3068 54.9868 32.8899 56.8623 32.9647L67.0885 33.2935C69.0627 33.3613 70.6194 35.0371 70.5495 37.0231C70.5432 37.2657 70.5113 37.516 70.4578 37.7503L66.5749 53.5521C66.1789 55.176 64.7262 56.2967 63.0808 56.299ZM56.729 34.1353C55.5097 34.1397 54.4692 35.0651 54.3415 36.2732L52.6558 51.9142C52.6496 51.9496 52.6454 51.9732 52.651 52.0108C52.6114 52.6496 52.8187 53.2711 53.2463 53.7486C53.6738 54.2261 54.255 54.5235 54.8939 54.563L62.9166 55.0881C64.0837 55.1721 65.1228 54.3927 65.4077 53.261L69.2885 37.471C69.3295 37.3076 69.3448 37.1519 69.3622 36.9844C69.412 35.665 68.3671 34.5425 67.0456 34.5044L56.8138 34.1381C56.7783 34.1319 56.7547 34.1277 56.729 34.1353Z" fill="#AFF164"/>
</g>
<g id="Path-245">
<path id="Vector_49" d="M67.9812 38.5931C67.9694 38.591 67.9694 38.591 67.9576 38.5889L55.4679 38.1047C55.1405 38.0957 54.8728 37.817 54.8957 37.4799C54.9047 37.1525 55.1834 36.8848 55.5206 36.9077L68.0102 37.3918C68.3376 37.4008 68.6053 37.6796 68.5824 38.0167C68.5734 38.3441 68.3107 38.5902 67.9812 38.5931Z" fill="#AFF164"/>
</g>
</g>
</g>
<g id="Group-12">
<g id="Rectangle">
<path id="Vector_50" fill-rule="evenodd" clip-rule="evenodd" d="M148.078 33.505L149.338 32.773C150.598 32.041 152.218 32.473 152.95 33.745L157.81 42.157C158.542 43.417 158.11 45.037 156.838 45.769L155.578 46.501C154.318 47.233 152.698 46.801 151.966 45.529L147.106 37.117C146.374 35.857 146.806 34.237 148.078 33.505Z" fill="white"/>
<path id="Vector_51" d="M154.258 47.4492C153.982 47.4492 153.694 47.4132 153.418 47.3412C152.578 47.1132 151.882 46.5852 151.45 45.8292L146.59 37.4172C146.158 36.6612 146.038 35.7972 146.266 34.9572C146.494 34.1172 147.022 33.4212 147.778 32.9892L149.038 32.2572C149.794 31.8252 150.658 31.7172 151.498 31.9332C152.338 32.1612 153.034 32.6892 153.466 33.4452L158.326 41.8572C158.758 42.6012 158.878 43.4772 158.65 44.3172C158.422 45.1572 157.894 45.8532 157.138 46.2852L155.878 47.0172C155.374 47.3052 154.822 47.4492 154.258 47.4492ZM148.378 34.0332C147.898 34.2972 147.562 34.7412 147.418 35.2692C147.274 35.7972 147.346 36.3492 147.622 36.8172L152.482 45.2292C153.046 46.2012 154.294 46.5372 155.266 45.9732L156.526 45.2412C156.994 44.9652 157.33 44.5332 157.474 44.0052C157.618 43.4772 157.546 42.9252 157.27 42.4572L152.422 34.0452C152.146 33.5772 151.714 33.2412 151.186 33.0972C150.658 32.9532 150.106 33.0252 149.638 33.3012L148.378 34.0332Z" fill="#2E2E30"/>
</g>
<g id="Rectangle-Copy">
<path id="Vector_52" fill-rule="evenodd" clip-rule="evenodd" d="M146.086 33.4335L150.262 31.0215C150.718 30.7575 151.306 30.9135 151.57 31.3695L153.31 34.3695C154.246 35.9775 153.694 38.0415 152.074 38.9775C150.454 39.9135 148.402 39.3615 147.466 37.7415L145.738 34.7415C145.474 34.2855 145.63 33.6975 146.086 33.4335Z" fill="white"/>
<path id="Vector_53" d="M150.394 40.0333C149.026 40.0333 147.682 39.3253 146.95 38.0533L145.21 35.0533C144.778 34.3093 145.042 33.3493 145.786 32.9173L149.962 30.5053C150.322 30.3013 150.742 30.2413 151.15 30.3493C151.558 30.4573 151.894 30.7213 152.098 31.0813L153.838 34.0813C154.93 35.9773 154.282 38.4133 152.386 39.5053C151.75 39.8653 151.066 40.0333 150.394 40.0333ZM146.386 33.9493C146.218 34.0453 146.158 34.2733 146.254 34.4413L147.994 37.4413C148.762 38.7613 150.454 39.2173 151.774 38.4613C153.094 37.6933 153.55 36.0013 152.782 34.6813L151.042 31.6813C150.994 31.5973 150.922 31.5373 150.826 31.5133C150.73 31.4893 150.634 31.5013 150.55 31.5493L146.386 33.9493Z" fill="#2E2E30"/>
</g>
</g>
<g id="Group-6">
<g id="Path-241">
<path id="Vector_54" fill-rule="evenodd" clip-rule="evenodd" d="M75.0851 35.9316L79.7171 35.0796L80.5571 39.0276C81.4211 43.0476 85.2011 45.7596 89.2931 45.2796C93.4091 44.7876 96.5051 41.3076 96.5051 37.1556V35.9316H100.729C103.813 46.4316 105.361 55.0116 105.361 61.6836C105.361 68.3556 107.881 74.5716 112.909 80.3436C92.2211 84.4836 77.1851 85.1796 67.7891 82.4676C68.9531 70.4916 69.6011 62.6196 69.7331 58.8396C74.0411 58.5276 77.2811 54.7836 76.9691 50.4636C76.9571 50.3076 76.9451 50.1636 76.9211 50.0196L75.0851 35.9316Z" fill="#AFF164"/>
</g>
</g>
<g id="Path_7_">
<path id="Vector_55" d="M86.5865 59.3592L85.0625 54.2352L92.3825 50.9352C93.3185 50.5152 94.4105 50.9352 94.8305 51.8592C94.9385 52.0992 94.9985 52.3632 94.9985 52.6152V65.7912H98.2985V70.3992H94.9985H89.9105H86.5985V65.6712H89.9105V57.7752L86.5865 59.3592Z" fill="white"/>
</g>
<g id="Group-3-Copy-4">
<g id="Path-13_1_">
<path id="Vector_56" fill-rule="evenodd" clip-rule="evenodd" d="M136.49 155.096H151.142L151.754 162.008C151.838 162.932 151.814 163.856 151.682 164.768C151.562 165.632 152.126 166.208 153.374 166.52C155.762 167.096 165.23 170.084 162.89 175.52C162.446 176.564 137.306 176.06 136.922 175.52C136.286 174.62 137.342 170.648 137.414 165.02C137.438 163.076 137.126 159.776 136.49 155.096Z" fill="white"/>
</g>
<g id="Path-13-Copy-4_1_">
<path id="Vector_57" fill-rule="evenodd" clip-rule="evenodd" d="M150.099 162.284V162.368C150.099 164.336 151.455 166.052 153.363 166.52C155.751 167.096 165.219 170.084 162.879 175.52C162.435 176.564 137.295 176.06 136.911 175.52C136.443 174.86 136.611 170.792 137.415 163.34L150.099 162.284Z" fill="#2E2E30"/>
</g>
<g id="Path-13-Copy-2_1_">
<path id="Vector_58" d="M152.692 176.732C150.868 176.732 149.02 176.708 147.328 176.684C144.592 176.636 142.036 176.552 140.128 176.456C136.732 176.276 136.636 176.144 136.444 175.88C135.892 175.112 135.976 173.564 136.132 170.468C136.204 169.028 136.3 167.252 136.336 165.2C136.348 163.34 136.204 159.956 135.892 155.132L135.844 154.496H151.684L152.344 162.248C152.428 163.208 152.392 164.168 152.26 165.116C152.2 165.524 152.908 165.788 153.508 165.932C154.312 166.124 161.416 167.948 163.36 171.836C163.984 173.084 164.008 174.404 163.432 175.76C163.264 176.156 162.82 176.324 161.56 176.456C159.688 176.66 156.256 176.732 152.692 176.732ZM137.332 175.028C138.4 175.22 143.476 175.448 149.776 175.508C157.396 175.58 161.524 175.364 162.388 175.112C162.76 174.152 162.724 173.252 162.28 172.376C160.9 169.604 155.752 167.72 153.22 167.096C151.252 166.616 150.964 165.668 151.072 164.948C151.192 164.084 151.216 163.22 151.144 162.356L150.58 155.696H137.128C137.416 160.208 137.548 163.412 137.512 165.224C137.476 167.288 137.38 169.088 137.308 170.528C137.212 172.592 137.116 174.404 137.332 175.028Z" fill="#2E2E30"/>
</g>
<g id="Group-5_2_">
<g id="Path-13-Copy_1_">
<path id="Vector_59" fill-rule="evenodd" clip-rule="evenodd" d="M152.726 160.471C153.95 161.107 153.398 165.259 156.11 165.919C158.822 166.579 169.61 169.975 166.946 176.179C166.43 177.367 137.738 176.803 137.366 176.179C136.406 174.607 136.238 171.055 136.838 165.523L144.038 165.007C145.01 164.935 145.862 164.335 146.258 163.447C146.942 161.935 147.65 160.939 148.406 160.471C149.846 159.571 151.502 159.835 152.726 160.471Z" fill="white"/>
</g>
<g id="Path-243_1_">
<path id="Vector_60" d="M154.923 167.839C154.767 167.839 154.611 167.779 154.503 167.659C154.383 167.539 154.323 167.359 154.335 167.191C154.587 163.915 155.619 161.755 157.395 160.747C158.595 160.075 160.095 160.435 161.043 161.647C161.847 162.655 162.147 164.227 161.007 165.451C159.735 166.843 157.695 167.635 154.971 167.827C154.959 167.839 154.935 167.839 154.923 167.839ZM158.667 161.623C158.439 161.623 158.211 161.683 157.983 161.803C156.699 162.523 155.895 164.131 155.595 166.579C157.647 166.339 159.171 165.691 160.131 164.647C160.827 163.891 160.551 162.955 160.107 162.391C159.759 161.959 159.231 161.623 158.667 161.623Z" fill="#2E2E30"/>
</g>
<g id="Path-243-Copy_1_">
<path id="Vector_61" d="M151.982 168.295C150.806 168.295 149.762 168.067 148.862 167.599C147.374 166.831 147.122 165.259 147.53 164.035C148.01 162.583 149.294 161.719 150.65 161.947C152.666 162.283 154.37 163.963 155.738 166.951C155.81 167.107 155.81 167.287 155.738 167.455C155.666 167.611 155.522 167.731 155.354 167.779C154.13 168.115 153.002 168.295 151.982 168.295ZM150.218 163.099C149.45 163.099 148.898 163.723 148.67 164.407C148.442 165.091 148.502 166.051 149.414 166.531C150.662 167.179 152.318 167.263 154.334 166.795C153.218 164.599 151.91 163.363 150.458 163.123C150.374 163.111 150.29 163.099 150.218 163.099Z" fill="#2E2E30"/>
</g>
<g id="Path-21_1_">
<path id="Vector_62" d="M157.25 174.799C156.914 174.799 156.65 174.535 156.65 174.199C156.65 171.679 157.25 169.867 158.45 168.811C159.47 167.911 160.91 167.563 162.71 167.791C163.034 167.827 163.274 168.127 163.226 168.463C163.178 168.799 162.89 169.027 162.554 168.979C161.102 168.799 159.986 169.039 159.23 169.711C158.306 170.527 157.838 172.039 157.838 174.199C157.85 174.523 157.574 174.799 157.25 174.799Z" fill="#2E2E30"/>
</g>
<g id="Path-19_1_">
<path id="Vector_63" d="M156.362 175.423C150.23 175.423 144.158 175.219 138.194 174.799C137.858 174.775 137.618 174.487 137.642 174.163C137.666 173.827 137.954 173.587 138.278 173.611C147.158 174.235 156.314 174.391 165.494 174.079C165.83 174.067 166.106 174.331 166.118 174.655C166.13 174.979 165.866 175.267 165.542 175.279C162.47 175.363 159.41 175.423 156.362 175.423Z" fill="#2E2E30"/>
</g>
<g id="Path-13-Copy-3_1_">
<path id="Vector_64" d="M155.079 177.475C152.643 177.475 150.159 177.451 147.963 177.403C144.975 177.343 142.215 177.247 140.211 177.139C136.599 176.947 136.515 176.803 136.323 176.491C135.279 174.775 135.255 171.163 136.239 165.427L136.323 164.959L144.003 164.407C144.747 164.347 145.407 163.891 145.719 163.207C146.463 161.563 147.231 160.507 148.095 159.967C149.499 159.079 151.347 159.079 153.015 159.943C153.735 160.315 153.963 161.215 154.239 162.271C154.659 163.879 155.055 165.043 156.267 165.343C157.179 165.559 165.243 167.635 167.439 172.027C168.135 173.431 168.171 174.907 167.511 176.419C167.319 176.863 166.839 177.079 164.379 177.259C162.075 177.415 158.619 177.475 155.079 177.475ZM137.247 175.687C138.375 175.903 144.327 176.179 151.767 176.251C160.743 176.335 165.531 176.083 166.455 175.771C166.899 174.643 166.863 173.587 166.347 172.543C164.355 168.559 156.303 166.567 155.967 166.495C153.963 166.015 153.447 164.023 153.063 162.559C152.907 161.947 152.691 161.119 152.439 160.999C151.815 160.675 150.219 160.027 148.707 160.975C148.071 161.371 147.423 162.295 146.787 163.687C146.319 164.791 145.275 165.511 144.087 165.607L137.355 166.099C136.359 172.075 136.719 174.619 137.247 175.687Z" fill="#2E2E30"/>
</g>
</g>
</g>
<g id="Group-10">
<g id="Path-246">
<path id="Vector_65" d="M61.973 66.6345C60.677 66.6345 59.609 66.1785 58.781 65.2905C57.089 63.4545 56.477 59.8425 56.921 54.2385C56.945 53.9025 57.233 53.6625 57.569 53.6865C57.905 53.7105 58.145 53.9985 58.121 54.3345C57.713 59.5185 58.241 62.9385 59.669 64.4865C60.269 65.1345 61.025 65.4465 61.973 65.4465C63.809 65.4465 64.937 63.0585 66.245 60.2865C68.273 55.9665 70.805 50.5905 77.573 50.5905C82.157 50.5905 85.349 49.0905 86.093 46.5825C86.777 44.2785 85.349 41.5545 82.445 39.6465C77.921 36.6465 76.433 32.2905 78.017 26.6505C78.101 26.3265 78.437 26.1465 78.761 26.2305C79.085 26.3145 79.265 26.6505 79.181 26.9745C77.741 32.1225 79.025 35.9265 83.117 38.6145C86.477 40.8225 88.109 44.0745 87.257 46.8945C86.333 49.9905 82.805 51.7665 77.585 51.7665C71.573 51.7665 69.329 56.5545 67.337 60.7785C65.849 63.9225 64.565 66.6345 61.973 66.6345Z" fill="#2E2E30"/>
</g>
<g id="Path-247">
<path id="Vector_66" d="M84.0762 40.5703C83.7642 40.5703 83.5002 40.3303 83.4762 40.0063C83.4522 39.6703 83.7042 39.3943 84.0402 39.3703C92.1042 38.8303 95.8482 34.3063 95.4882 25.5463C95.4762 25.2103 95.7282 24.9343 96.0642 24.9223C96.3882 24.9103 96.6762 25.1623 96.6882 25.4983C97.0722 34.9063 92.8482 39.9823 84.1242 40.5703C84.1002 40.5703 84.0882 40.5703 84.0762 40.5703Z" fill="#2E2E30"/>
</g>
</g>
</g>
</svg>
