<svg width="173" height="174" viewBox="0 0 173 174" fill="none" xmlns="http://www.w3.org/2000/svg">
<g id="Group 101">
<path id="Vector" fill-rule="evenodd" clip-rule="evenodd" d="M25.7201 5.44043C43.1761 5.44043 57.3201 19.5844 57.3201 37.0404V102.24H-5.87988V37.0404C-5.87988 19.5844 8.26412 5.44043 25.7201 5.44043Z" fill="#393DF0"/>
<path id="Vector_2" d="M57.3197 102.64H-5.88027C-6.10427 102.64 -6.28027 102.464 -6.28027 102.24V37.04C-6.28027 32.72 -5.43227 28.528 -3.76827 24.584C-2.16027 20.776 0.151727 17.352 3.08773 14.416C6.02373 11.48 9.44773 9.16804 13.2557 7.56004C17.2077 5.88804 21.3997 5.04004 25.7197 5.04004C30.0397 5.04004 34.2317 5.88804 38.1757 7.55204C41.9837 9.16004 45.4077 11.472 48.3437 14.408C51.2797 17.344 53.5917 20.768 55.1997 24.576C56.8717 28.528 57.7197 32.72 57.7197 37.04V102.24C57.7197 102.464 57.5437 102.64 57.3197 102.64ZM-5.48027 101.84H56.9197V37.04C56.9197 19.84 42.9197 5.84004 25.7197 5.84004C8.51973 5.84004 -5.48027 19.84 -5.48027 37.04V101.84Z" fill="#BBEB6E"/>
<g id="Group-12">
<g id="Path-279">
<path id="Vector_3" fill-rule="evenodd" clip-rule="evenodd" d="M41.6264 167.192C44.5224 168.608 48.3304 166.408 48.3304 173.048H31.2744C31.3144 170.752 31.5864 168.8 32.1064 167.192C32.6264 165.584 32.4584 162.984 31.6184 159.392H41.6264C39.6904 163.648 39.6904 166.248 41.6264 167.192Z" fill="#393DF0"/>
<path id="Vector_4" d="M48.3229 173.448H31.2749C31.1709 173.448 31.0669 173.408 30.9869 173.328C30.9149 173.248 30.8669 173.152 30.8749 173.04C30.9149 170.712 31.1949 168.704 31.7229 167.072C32.2109 165.544 32.0429 162.992 31.2269 159.48C31.2029 159.36 31.2269 159.24 31.2989 159.144C31.3789 159.048 31.4909 158.992 31.6189 158.992H41.6269C41.7629 158.992 41.8909 159.064 41.9629 159.176C42.0349 159.288 42.0509 159.432 41.9949 159.56C40.1789 163.56 40.1149 166.016 41.8029 166.84C42.5709 167.216 43.4349 167.32 44.2749 167.424C46.4669 167.688 48.7309 167.968 48.7309 173.056C48.7229 173.272 48.5469 173.448 48.3229 173.448ZM31.6829 172.648H47.9229C47.8749 170.856 47.5149 169.68 46.8189 169.048C46.1549 168.448 45.2429 168.336 44.1789 168.208C43.2749 168.096 42.3389 167.984 41.4509 167.552C40.3389 167.008 39.7789 165.992 39.7789 164.536C39.7789 163.304 40.1949 161.712 41.0109 159.792H32.1149C32.8829 163.24 33.0029 165.704 32.4829 167.32C32.0189 168.784 31.7469 170.576 31.6829 172.648Z" fill="#BBEB6E"/>
</g>
<g id="Path-282">
<path id="Vector_5" d="M34.8512 170.64C34.8272 170.64 34.8032 170.64 34.7872 170.632C34.5712 170.592 34.4192 170.392 34.4592 170.168C34.6592 168.992 34.2112 168.216 33.0592 167.736C32.8512 167.648 32.7552 167.416 32.8432 167.216C32.9312 167.008 33.1632 166.912 33.3632 167C34.8592 167.616 35.5072 168.76 35.2512 170.304C35.2112 170.496 35.0352 170.64 34.8512 170.64Z" fill="#BBEB6E"/>
</g>
<g id="Path-281">
<path id="Vector_6" d="M42.2273 171.536C42.0273 171.536 41.8593 171.384 41.8273 171.184C41.5073 168.576 42.6993 167.656 43.7633 167.352C43.9713 167.288 44.1953 167.408 44.2593 167.624C44.3233 167.84 44.2033 168.056 43.9873 168.12C42.8593 168.448 42.4193 169.416 42.6273 171.088C42.6513 171.304 42.4993 171.504 42.2833 171.536C42.2593 171.536 42.2433 171.536 42.2273 171.536Z" fill="#BBEB6E"/>
</g>
<g id="Path-280">
<path id="Vector_7" d="M46.2834 171.88H33.0514C32.8274 171.88 32.6514 171.704 32.6514 171.48C32.6514 171.256 32.8274 171.08 33.0514 171.08H46.2834C46.5074 171.08 46.6834 171.256 46.6834 171.48C46.6834 171.704 46.4994 171.88 46.2834 171.88Z" fill="#BBEB6E"/>
</g>
</g>
<g id="Group-12-Copy-2">
<g id="Path-279_1_">
<path id="Vector_8" fill-rule="evenodd" clip-rule="evenodd" d="M16.8266 167.192C19.7226 168.608 23.5306 166.408 23.5306 173.048H6.47461C6.51461 170.752 6.78661 168.8 7.30661 167.192C7.82661 165.584 7.65861 162.984 6.81861 159.392H16.8266C14.8906 163.648 14.8906 166.248 16.8266 167.192Z" fill="#393DF0"/>
<path id="Vector_9" d="M23.5231 173.448H6.47509C6.37109 173.448 6.26709 173.408 6.18709 173.328C6.11509 173.248 6.06709 173.152 6.07509 173.04C6.11509 170.712 6.39509 168.704 6.92309 167.072C7.41109 165.544 7.24309 162.992 6.42709 159.48C6.40309 159.36 6.42709 159.24 6.49909 159.144C6.57909 159.048 6.69109 158.992 6.81909 158.992H16.8271C16.9631 158.992 17.0911 159.064 17.1631 159.176C17.2351 159.288 17.2511 159.432 17.1951 159.56C15.3791 163.56 15.3151 166.016 17.0031 166.84C17.7711 167.216 18.6351 167.32 19.4751 167.424C21.6671 167.688 23.9311 167.968 23.9311 173.056C23.9231 173.272 23.7471 173.448 23.5231 173.448ZM6.88309 172.648H23.1231C23.0751 170.856 22.7151 169.68 22.0191 169.048C21.3551 168.448 20.4431 168.336 19.3791 168.208C18.4751 168.096 17.5391 167.984 16.6511 167.552C15.5391 167.008 14.9791 165.992 14.9791 164.536C14.9791 163.304 15.3951 161.712 16.2111 159.792H7.31509C8.08309 163.24 8.20309 165.704 7.68309 167.32C7.21909 168.784 6.94709 170.576 6.88309 172.648Z" fill="#BBEB6E"/>
</g>
<g id="Path-282_1_">
<path id="Vector_10" d="M10.0514 170.64C10.0274 170.64 10.0034 170.64 9.98737 170.632C9.77137 170.592 9.61937 170.392 9.65937 170.168C9.85937 168.992 9.41137 168.216 8.25937 167.736C8.05137 167.648 7.95537 167.416 8.04337 167.216C8.13137 167.008 8.36337 166.912 8.56337 167C10.0594 167.616 10.7074 168.76 10.4514 170.304C10.4114 170.496 10.2354 170.64 10.0514 170.64Z" fill="#BBEB6E"/>
</g>
<g id="Path-281_1_">
<path id="Vector_11" d="M17.4275 171.536C17.2275 171.536 17.0595 171.384 17.0275 171.184C16.7075 168.576 17.8995 167.656 18.9635 167.352C19.1715 167.288 19.3955 167.408 19.4595 167.624C19.5235 167.84 19.4035 168.056 19.1875 168.12C18.0595 168.448 17.6195 169.416 17.8275 171.088C17.8515 171.304 17.6995 171.504 17.4835 171.536C17.4595 171.536 17.4435 171.536 17.4275 171.536Z" fill="#BBEB6E"/>
</g>
<g id="Path-280_1_">
<path id="Vector_12" d="M21.4836 171.88H8.25156C8.02756 171.88 7.85156 171.704 7.85156 171.48C7.85156 171.256 8.02756 171.08 8.25156 171.08H21.4836C21.7076 171.08 21.8836 171.256 21.8836 171.48C21.8836 171.704 21.6996 171.88 21.4836 171.88Z" fill="#BBEB6E"/>
</g>
</g>
<g id="Group-11">
<g id="Group-26-Copy-5">
<g id="Group-Copy">
<g id="Path-77">
<path id="Vector_13" fill-rule="evenodd" clip-rule="evenodd" d="M40.2845 83.2848C48.7732 90.7036 57.8946 95.4557 67.6709 97.5532L66.6485 103.352C53.1293 102.487 41.9489 97.6643 33.0994 88.8822L40.2845 83.2848Z" fill="white"/>
</g>
<g id="Path">
<path id="Vector_14" d="M66.6431 103.748C60.4633 103.69 54.6336 102.337 48.801 99.6193C43.8851 97.3228 38.9608 94.1068 32.841 89.1935L32.4493 88.8807L40.2665 82.7856L40.5057 82.9496C41.7941 83.8429 43.0001 84.6973 44.1708 85.5211C53.4857 92.0782 59.1081 96.0347 67.7164 97.1545C67.9384 97.1855 68.0904 97.3829 68.0594 97.6049C68.0284 97.8269 67.831 97.9789 67.609 97.9479C58.8023 96.8012 53.1225 92.8022 43.7056 86.1783C42.6146 85.4092 41.4791 84.616 40.2861 83.7801L33.7316 88.8875C42.832 96.1542 53.1271 102.819 66.6374 102.951C66.8571 102.949 67.0355 103.135 67.0374 103.355C67.0393 103.574 66.8628 103.746 66.6431 103.748Z" fill="#2E2E30"/>
</g>
<g id="Path-78">
<path id="Vector_15" d="M68.5369 102.458C67.7648 102.46 67.0029 102.358 66.2563 102.169C66.0385 102.115 65.9143 101.898 65.9689 101.68C66.0236 101.462 66.2404 101.338 66.4583 101.393C67.7559 101.727 69.0934 101.744 70.4377 101.445C70.65 101.393 70.8683 101.537 70.9123 101.748C70.9629 101.968 70.8201 102.178 70.6093 102.222C69.9146 102.384 69.2195 102.456 68.5369 102.458Z" fill="#2E2E30"/>
</g>
<g id="Path-78-Copy">
<path id="Vector_16" d="M68.1463 103.933C67.5044 103.933 66.8607 103.852 66.2323 103.684C66.0145 103.63 65.8916 103.405 65.9449 103.195C65.9995 102.977 66.2243 102.854 66.4342 102.908C67.5836 103.208 68.7699 103.206 69.9632 102.888C70.1768 102.828 70.3979 102.957 70.4499 103.169C70.5097 103.383 70.3813 103.604 70.1691 103.656C69.4939 103.845 68.821 103.93 68.1463 103.933Z" fill="#2E2E30"/>
</g>
<g id="Path-79">
<path id="Vector_17" d="M64.1344 97.9857C64.045 97.9862 63.9532 97.9538 63.8828 97.8926C63.7131 97.749 63.6918 97.5015 63.8275 97.3305C64.808 96.1468 65.7829 95.5469 66.7181 95.5413C66.7181 95.5413 66.7181 95.5413 66.726 95.5426C67.5296 95.5462 68.2897 95.9808 68.9919 96.8358C69.1323 97.0067 69.1036 97.2616 68.9327 97.4021C68.7617 97.5425 68.5068 97.5138 68.3663 97.3428C67.8254 96.6788 67.2669 96.3448 66.7145 96.3448C66.024 96.3449 65.2604 96.852 64.4356 97.8439C64.3624 97.9366 64.2489 97.9815 64.1344 97.9857Z" fill="#2E2E30"/>
</g>
<g id="Path-80">
<path id="Vector_18" d="M67.9154 98.9771C67.5655 98.9804 67.2147 98.9429 66.8601 98.8804C66.6395 98.8415 66.4968 98.6376 66.5357 98.417C66.5746 98.1964 66.7785 98.0536 66.9991 98.0925C68.299 98.3217 69.4705 98.0815 70.5808 97.3593C70.7648 97.2374 71.0155 97.2898 71.136 97.4816C71.2579 97.6656 71.2056 97.9163 71.0137 98.0368C70.0504 98.663 69.0123 98.9755 67.9154 98.9771Z" fill="#2E2E30"/>
</g>
<g id="Path-81">
<path id="Vector_19" d="M68.2894 101.05C67.6475 101.05 67.0381 100.959 66.4704 100.77C66.2632 100.701 66.1483 100.477 66.2187 100.262C66.2877 100.055 66.5111 99.9401 66.7261 100.011C68.154 100.482 69.8909 100.26 71.8867 99.3527C72.0902 99.2586 72.3261 99.3489 72.4202 99.5523C72.5143 99.7558 72.4239 99.9916 72.2205 100.086C70.7993 100.729 69.4836 101.049 68.2894 101.05Z" fill="#2E2E30"/>
</g>
</g>
</g>
<g id="Group-Copy-3">
<g id="Path-127">
<path id="Vector_20" fill-rule="evenodd" clip-rule="evenodd" d="M24.3598 104.215C24.9998 118.927 24.9998 128.911 24.3598 134.159C23.7198 139.407 21.8238 148.399 18.6878 161.127H-2.78415C6.11185 141.495 10.5598 130.759 10.5598 128.919C10.5598 126.159 8.51184 108.351 12.1438 104.215L20.0558 104.079L24.3598 104.215Z" fill="black"/>
</g>
<g id="Path-13">
<path id="Vector_21" d="M17.3764 159.55H0.256367C0.0323677 159.55 -0.143633 159.374 -0.143633 159.15C-0.143633 158.926 0.0323677 158.75 0.256367 158.75H17.3764C17.6004 158.75 17.7764 158.926 17.7764 159.15C17.7764 159.374 17.6004 159.55 17.3764 159.55Z" fill="white"/>
</g>
<g id="Path-128">
<path id="Vector_22" fill-rule="evenodd" clip-rule="evenodd" d="M33.6642 102.079C41.0482 114.207 45.1442 123.079 45.9602 128.703C46.7762 134.327 46.0322 145.135 43.7282 161.119H23.4562C30.1362 142.743 32.9201 132.279 31.8162 129.735C30.7122 127.183 27.0802 118.679 20.9202 104.207L33.6642 102.079Z" fill="black"/>
</g>
<g id="Path-13-Copy">
<path id="Vector_23" d="M42.5766 159.311H25.4566C25.2326 159.311 25.0566 159.135 25.0566 158.911C25.0566 158.687 25.2326 158.511 25.4566 158.511H42.5766C42.8006 158.511 42.9766 158.687 42.9766 158.911C42.9766 159.135 42.8006 159.311 42.5766 159.311Z" fill="white"/>
</g>
<g id="Path-129">
<path id="Vector_24" d="M24.8803 116.718C24.6563 116.718 24.4803 116.542 24.4803 116.318V106.638C24.4803 106.414 24.6563 106.238 24.8803 106.238C25.1043 106.238 25.2803 106.414 25.2803 106.638V116.318C25.2803 116.542 25.1043 116.718 24.8803 116.718Z" fill="white"/>
</g>
</g>
<g id="Group-13">
<g id="Group-4_1_">
<g id="Group-3">
<g id="Path-5-Copy">
<path id="Vector_25" fill-rule="evenodd" clip-rule="evenodd" d="M18.2936 64.2051C15.9816 64.2131 14.8296 65.0051 14.8296 66.5651C11.9656 66.2531 10.5336 67.6451 10.5416 70.7331C7.2136 71.1971 6.4936 73.1971 8.3976 76.7331C5.0696 79.3411 5.3256 82.3811 9.1576 85.8371C14.9016 91.0291 35.1256 85.0211 34.6216 80.8771C34.2856 78.1171 32.7416 76.7331 29.9736 76.7331C30.8856 73.9011 30.0936 72.4931 27.5976 72.4931C29.9896 68.7651 29.8936 66.5811 27.3176 65.9411C24.7416 65.3011 21.7256 64.7171 18.2936 64.2051Z" fill="#2E2E30"/>
</g>
<g id="Group-4">
<g id="Path-90">
<path id="Vector_26" fill-rule="evenodd" clip-rule="evenodd" d="M-0.242409 97.2619C7.34959 97.2619 11.1496 97.2619 11.1496 97.2619L12.1096 91.9659C12.8696 96.1419 12.8696 99.0299 12.1096 100.622C11.3496 102.214 10.5816 104.038 9.82159 106.086L35.9336 105.598C32.7576 100.678 31.6136 95.4059 32.5176 89.8059C33.9256 91.6619 36.2056 93.3499 39.3496 94.8699L43.9336 84.6859C34.6376 79.5899 29.4536 77.0939 28.3896 77.1979C26.7736 77.3579 19.9096 77.0939 10.8216 79.4619C5.22159 80.9259 1.53359 86.8539 -0.242409 97.2619Z" fill="#BBEB6E"/>
</g>
<g id="Path-108">
<path id="Vector_27" d="M10.4779 96.3815H0.973931C0.749931 96.3815 0.573931 96.2055 0.573931 95.9815C0.573931 95.7575 0.749931 95.5815 0.973931 95.5815H10.4779C10.7019 95.5815 10.8779 95.7575 10.8779 95.9815C10.8779 96.2055 10.6939 96.3815 10.4779 96.3815Z" fill="#2E2E30"/>
</g>
<g id="Path-106">
<path id="Vector_28" d="M12.5741 95.2539C12.3741 95.2539 12.1981 95.1019 12.1741 94.9019L11.5501 89.6619C11.5261 89.4459 11.6781 89.2459 11.9021 89.2139C12.1181 89.1899 12.3181 89.3419 12.3501 89.5659L12.9741 94.8059C12.9981 95.0219 12.8461 95.2219 12.6221 95.2539C12.6061 95.2539 12.5901 95.2539 12.5741 95.2539Z" fill="white"/>
</g>
<g id="Path-105">
<path id="Vector_29" d="M32.366 90.7186C32.35 90.7186 32.326 90.7186 32.31 90.7186C32.094 90.6866 31.942 90.4866 31.966 90.2626C32.286 87.9986 31.71 86.2786 30.214 84.9906C30.046 84.8466 30.03 84.5906 30.174 84.4226C30.318 84.2546 30.574 84.2386 30.742 84.3826C32.438 85.8386 33.118 87.8546 32.758 90.3746C32.734 90.5746 32.558 90.7186 32.366 90.7186Z" fill="white"/>
</g>
<g id="Path-3">
<path id="Vector_30" d="M21.094 85.0855C21.062 85.0855 21.03 85.0855 20.998 85.0775C20.87 85.0455 20.766 84.9495 20.718 84.8295L18.486 78.7735C18.406 78.5655 18.518 78.3335 18.726 78.2615C18.934 78.1895 19.166 78.2935 19.238 78.5015L21.262 84.0055L23.43 82.0055C23.59 81.8535 23.846 81.8695 23.998 82.0295C24.15 82.1895 24.134 82.4455 23.974 82.5975L21.366 84.9735C21.286 85.0455 21.19 85.0855 21.094 85.0855Z" fill="#2E2E30"/>
</g>
<g id="Path-3-Copy">
<path id="Vector_31" d="M26.7335 85.0859C26.6375 85.0859 26.5415 85.0459 26.4615 84.9819L23.8535 82.6059C23.6935 82.4539 23.6775 82.2059 23.8295 82.0379C23.9815 81.8779 24.2295 81.8619 24.3975 82.0139L26.5655 83.9899L28.5895 78.4859C28.6695 78.2779 28.8935 78.1739 29.1015 78.2459C29.3095 78.3259 29.4135 78.5499 29.3415 78.7579L27.1095 84.8139C27.0615 84.9419 26.9575 85.0299 26.8295 85.0619C26.7975 85.0779 26.7655 85.0859 26.7335 85.0859Z" fill="#2E2E30"/>
</g>
<g id="Path-89">
<path id="Vector_32" fill-rule="evenodd" clip-rule="evenodd" d="M20.5016 73.686L19.9176 78.198L22.6856 81.254C23.1896 81.814 24.0536 81.854 24.6056 81.35C24.7256 81.238 24.8296 81.11 24.9016 80.958L26.3096 78.198L25.6536 73.686H20.5016Z" fill="white"/>
</g>
</g>
<g id="Group-12-Copy">
<g id="Path_1_">
<path id="Vector_33" fill-rule="evenodd" clip-rule="evenodd" d="M20.4021 67.166H27.1941V69.086C27.3621 71.494 27.1061 73.19 26.4261 74.174C25.4101 75.646 21.5701 76.038 20.2021 72.702C19.2821 70.47 19.3541 68.63 20.4021 67.166Z" fill="white"/>
</g>
<g id="Path-14">
<path id="Vector_34" d="M24.2098 75.6137C23.6978 75.6137 23.1378 75.5337 22.5218 75.3737C22.3058 75.3177 22.1778 75.1017 22.2338 74.8857C22.2898 74.6697 22.5058 74.5417 22.7218 74.5977C24.0418 74.9417 25.0658 74.8697 25.7698 74.3817C26.4738 73.9017 26.9058 72.9657 27.0578 71.6137C27.0818 71.3977 27.2818 71.2377 27.4978 71.2617C27.7138 71.2857 27.8738 71.4857 27.8498 71.7017C27.6738 73.2937 27.1218 74.4217 26.2178 75.0457C25.6818 75.4217 25.0018 75.6137 24.2098 75.6137Z" fill="#2E2E30"/>
</g>
<g id="Group-38">
<g id="Oval">
<path id="Vector_35" d="M22.6154 71.2217C21.2794 71.2217 20.1914 70.1337 20.1914 68.7897C20.1914 67.4457 21.2794 66.3657 22.6154 66.3657C23.9514 66.3657 25.0394 67.4537 25.0394 68.7977C25.0394 70.1417 23.9514 71.2217 22.6154 71.2217ZM22.6154 67.1657C21.7194 67.1657 20.9914 67.8937 20.9914 68.7977C20.9914 69.6937 21.7194 70.4297 22.6154 70.4297C23.5114 70.4297 24.2394 69.7017 24.2394 68.7977C24.2394 67.9017 23.5114 67.1657 22.6154 67.1657Z" fill="#2E2E30"/>
</g>
<g id="Oval-Copy-2">
<path id="Vector_36" d="M27.4787 71.0621C26.1427 71.0621 25.0547 69.9741 25.0547 68.6381C25.0547 67.3021 26.1427 66.2061 27.4787 66.2061C28.8147 66.2061 29.9027 67.2941 29.9027 68.6381C29.9027 69.9821 28.8147 71.0621 27.4787 71.0621ZM27.4787 67.0061C26.5827 67.0061 25.8547 67.7341 25.8547 68.6381C25.8547 69.5341 26.5827 70.2701 27.4787 70.2701C28.3747 70.2701 29.1027 69.5421 29.1027 68.6381C29.1027 67.7341 28.3747 67.0061 27.4787 67.0061Z" fill="#2E2E30"/>
</g>
<g id="Path-122">
<path id="Vector_37" d="M25.1996 69.5734H24.5436C24.3196 69.5734 24.1436 69.3974 24.1436 69.1734C24.1436 68.9494 24.3196 68.7734 24.5436 68.7734H25.1996C25.4236 68.7734 25.5996 68.9494 25.5996 69.1734C25.5996 69.3974 25.4236 69.5734 25.1996 69.5734Z" fill="#2E2E30"/>
</g>
<g id="Path-122-Copy">
<path id="Vector_38" d="M20.5912 69.5734H19.9352C19.7112 69.5734 19.5352 69.3974 19.5352 69.1734C19.5352 68.9494 19.7112 68.7734 19.9352 68.7734H20.5912C20.8152 68.7734 20.9912 68.9494 20.9912 69.1734C20.9912 69.3974 20.8152 69.5734 20.5912 69.5734Z" fill="#2E2E30"/>
</g>
</g>
</g>
<g id="Path-88-Copy">
<path id="Vector_39" fill-rule="evenodd" clip-rule="evenodd" d="M20.1896 67.4849C22.3736 68.2369 24.4216 68.3089 26.3336 67.7089C29.2056 66.8049 28.8296 64.1729 26.6776 62.8369C24.5256 61.5009 19.9496 60.5409 16.8776 63.5809C15.0536 65.3809 16.3976 71.5809 19.5656 72.2369C19.8216 72.2849 20.0296 70.7009 20.1896 67.4849Z" fill="#2E2E30"/>
</g>
<g id="Group-10">
<g id="Path-277">
<path id="Vector_40" fill-rule="evenodd" clip-rule="evenodd" d="M28.3909 64.9332C28.3349 66.8612 25.8469 66.9252 19.9269 66.7652C14.0069 66.6052 17.0229 58.2612 21.1349 58.2612C25.2469 58.2612 28.4469 63.0052 28.3909 64.9332Z" fill="#BBEB6E"/>
</g>
<g id="Path-278">
<path id="Vector_41" d="M21.4544 66.517C19.2864 66.517 18.0224 66.197 17.4784 65.517C17.3424 65.341 17.3744 65.093 17.5424 64.957C17.7184 64.821 17.9664 64.853 18.1024 65.021C18.3104 65.285 19.0224 65.717 21.4464 65.717C23.9584 65.717 27.0784 65.717 27.8384 64.589C27.9584 64.405 28.2064 64.357 28.3904 64.477C28.5744 64.597 28.6224 64.845 28.5024 65.029C27.5184 66.517 24.4384 66.517 21.4544 66.517Z" fill="#2E2E30"/>
</g>
<g id="Oval_1_">
<path id="Vector_42" d="M20.7989 59.1964C21.307 59.1964 21.7189 58.7845 21.7189 58.2764C21.7189 57.7683 21.307 57.3564 20.7989 57.3564C20.2908 57.3564 19.8789 57.7683 19.8789 58.2764C19.8789 58.7845 20.2908 59.1964 20.7989 59.1964Z" fill="white"/>
</g>
</g>
</g>
<g id="Group-Copy_1_">
<g id="Path-8">
<path id="Vector_43" d="M24.0558 73.2774C23.3998 73.2774 22.8078 72.9174 22.3358 72.2134C22.2158 72.0294 22.2638 71.7814 22.4398 71.6614C22.6158 71.5414 22.8718 71.5895 22.9918 71.7655C23.4798 72.4855 24.0078 72.6534 24.6878 72.3014C24.8878 72.1974 25.1278 72.2774 25.2238 72.4774C25.3198 72.6774 25.2478 72.9174 25.0478 73.0135C24.7118 73.1895 24.3758 73.2774 24.0558 73.2774Z" fill="#2E2E30"/>
</g>
<g id="Oval_2_">
<path id="Vector_44" d="M22.8036 69.6964C23.0361 69.781 23.3164 69.5972 23.4297 69.2858C23.5431 68.9744 23.4465 68.6534 23.214 68.5687C22.9815 68.4841 22.7011 68.668 22.5878 68.9793C22.4744 69.2907 22.5711 69.6118 22.8036 69.6964Z" fill="#2E2E30"/>
</g>
<g id="Oval-Copy-3">
<path id="Vector_45" d="M26.1307 69.6978C26.3632 69.7825 26.6436 69.5986 26.7569 69.2872C26.8702 68.9759 26.7736 68.6548 26.5411 68.5702C26.3086 68.4856 26.0282 68.6694 25.9149 68.9808C25.8016 69.2922 25.8982 69.6132 26.1307 69.6978Z" fill="#2E2E30"/>
</g>
<g id="Path-4">
<path id="Vector_46" d="M24.6239 71.7734C24.4159 71.7734 24.2399 71.6134 24.2239 71.3974C24.2079 71.1734 24.3759 70.9894 24.5999 70.9734C24.8479 70.9574 24.9839 70.9254 25.0639 70.8934C24.9599 70.7334 24.6719 70.3654 23.8879 69.6214C23.7279 69.4694 23.7199 69.2134 23.8719 69.0534C24.0239 68.8934 24.2799 68.8854 24.4399 69.0374C25.7999 70.3254 25.9999 70.7654 25.8959 71.1174C25.7279 71.6934 24.9199 71.7494 24.6479 71.7654C24.6399 71.7734 24.6319 71.7734 24.6239 71.7734Z" fill="#2E2E30"/>
</g>
</g>
</g>
</g>
<g id="Group-8-Copy">
<g id="Path-3_1_">
<path id="Vector_47" d="M15.6519 68.2632C15.5159 68.2632 15.3799 68.2152 15.2679 68.1112L14.1479 67.0552C12.1879 65.2152 12.0919 62.1272 13.9239 60.1752C14.8439 59.1992 16.1319 58.6392 17.4759 58.6392C17.7879 58.6392 18.0359 58.8872 18.0359 59.1992C18.0359 59.5112 17.7879 59.7592 17.4759 59.7592C16.4439 59.7592 15.4439 60.1912 14.7399 60.9432C13.3239 62.4552 13.4039 64.8312 14.9079 66.2392L16.0279 67.2952C16.2519 67.5032 16.2679 67.8632 16.0519 68.0872C15.9479 68.2072 15.8039 68.2632 15.6519 68.2632Z" fill="#BBEB6E"/>
</g>
<g id="Oval_3_">
<path id="Vector_48" d="M17.4651 72.9236C18.8186 73.4162 20.3936 72.5029 20.9829 70.8837C21.5722 69.2645 20.9527 67.5525 19.5992 67.0599C18.2457 66.5673 16.6707 67.4806 16.0814 69.0998C15.4921 70.7191 16.1116 72.431 17.4651 72.9236Z" fill="#2E2E30"/>
</g>
<g id="Oval-Copy">
<path id="Vector_49" d="M17.4912 72.1484C18.4793 72.508 19.6319 71.8336 20.0656 70.642C20.4993 69.4504 20.0498 68.1929 19.0616 67.8333C18.0735 67.4737 16.9209 68.1481 16.4872 69.3397C16.0536 70.5313 16.503 71.7888 17.4912 72.1484Z" fill="white"/>
<path id="Vector_50" d="M18.2759 72.4866C17.1159 72.4866 16.1719 71.3666 16.1719 69.9906C16.1719 68.6146 17.1159 67.4946 18.2759 67.4946C19.4359 67.4946 20.3799 68.6146 20.3799 69.9906C20.3799 71.3666 19.4359 72.4866 18.2759 72.4866ZM18.2759 67.9026C17.3319 67.9026 16.5719 68.8386 16.5719 69.9986C16.5719 71.1586 17.3399 72.0946 18.2759 72.0946C19.2199 72.0946 19.9799 71.1586 19.9799 69.9986C19.9799 68.8386 19.2199 67.9026 18.2759 67.9026Z" fill="#2E2E30"/>
</g>
</g>
<g id="Group-14-Copy-4">
<g id="Group-17">
<g id="Group-16">
<g id="Path-95">
<path id="Vector_51" fill-rule="evenodd" clip-rule="evenodd" d="M2.05757 97.1578C-1.98432 108.367 -0.27126 115.415 7.20073 118.298C14.6687 121.187 21.3393 117.537 27.2113 107.366L21.834 104.696C17.4373 109.575 13.735 111.604 10.7311 110.775C7.72712 109.946 7.30623 105.971 9.48223 98.8579L10.1612 97.4579L2.05757 97.1578Z" fill="white"/>
</g>
<g id="Path-9">
<path id="Vector_52" d="M21.9317 105.15C21.7382 105.149 21.5712 105.006 21.5363 104.811C21.1629 102.434 21.6498 100.95 22.9839 100.4C23.1896 100.315 23.4204 100.411 23.5048 100.617C23.5893 100.823 23.493 101.054 23.2872 101.138C22.3428 101.526 22.013 102.721 22.3218 104.682C22.3556 104.896 22.2068 105.106 21.9933 105.139C21.9784 105.149 21.9496 105.151 21.9317 105.15Z" fill="#2E2E30"/>
</g>
<g id="Path-10">
<path id="Vector_53" d="M23.6705 106.394C23.5881 106.393 23.493 106.366 23.4248 106.308C23.2537 106.172 23.2261 105.916 23.3618 105.745C24.4744 104.346 25.1728 103.28 25.4339 102.572C25.658 101.944 25.5841 101.384 25.2005 100.848C25.0712 100.672 25.115 100.42 25.2912 100.291C25.4675 100.162 25.7193 100.206 25.8485 100.382C26.3909 101.138 26.5023 101.969 26.1809 102.846C25.8856 103.646 25.1701 104.757 23.9767 106.248C23.9029 106.344 23.7885 106.398 23.6705 106.394Z" fill="#2E2E30"/>
</g>
<g id="Path-11">
<path id="Vector_54" d="M24.8351 107.066C24.713 107.069 24.5912 107.008 24.5153 106.9C24.3861 106.724 24.423 106.468 24.5992 106.339C26.1133 105.236 26.8594 104.152 26.8232 103.142C26.8113 102.923 26.9838 102.736 27.2101 102.728C27.4294 102.717 27.6162 102.889 27.6241 103.115C27.6719 104.408 26.8157 105.715 25.0726 106.991C24.9979 107.04 24.9174 107.067 24.8351 107.066Z" fill="#2E2E30"/>
</g>
<g id="Path-12">
<path id="Vector_55" d="M26.421 107.742C26.2345 107.745 26.0634 107.61 26.0245 107.421C25.9838 107.203 26.1217 106.997 26.3432 106.949C27.5111 106.718 28.2126 106.079 28.4922 105.003C28.5517 104.788 28.7636 104.661 28.9787 104.72C29.1938 104.78 29.3208 104.992 29.2613 105.207C28.9059 106.59 27.9733 107.437 26.5004 107.733C26.4677 107.741 26.4429 107.736 26.421 107.742Z" fill="#2E2E30"/>
</g>
</g>
<g id="Path_2_">
<path id="Vector_56" d="M12.1002 119.667C10.455 119.669 8.77253 119.335 7.0489 118.672C3.78791 117.409 1.5237 115.362 0.321521 112.58C-1.38161 108.65 -0.916719 103.413 1.68283 97.0067C1.76311 96.8036 1.99875 96.6995 2.20474 96.7907C2.4078 96.871 2.51193 97.1066 2.42072 97.3126C-0.090539 103.502 -0.546565 108.532 1.06121 112.259C2.17497 114.842 4.28998 116.747 7.34097 117.926C8.94175 118.546 10.5112 118.851 12.0413 118.857C17.4106 118.853 22.3125 115.051 26.6765 107.492C26.7885 107.298 27.0289 107.234 27.2229 107.346C27.4169 107.458 27.4813 107.698 27.3693 107.892C24.4693 112.915 21.3015 116.37 17.9465 118.165C16.0765 119.164 14.1215 119.67 12.1002 119.667Z" fill="#2E2E30"/>
</g>
<g id="Path_3_">
<path id="Vector_57" d="M12.0559 111.439C11.5221 111.436 11.0333 111.338 10.5758 111.139C9.36355 110.614 8.3594 109.49 7.83188 108.067C7.18666 106.337 6.8886 103.301 9.1299 98.6831L9.63262 97.6524C9.73076 97.4504 9.96826 97.3751 10.1633 97.4692C10.3653 97.5673 10.4407 97.8048 10.3465 97.9999L9.84379 99.0306C7.72863 103.398 7.98706 106.199 8.57636 107.786C9.03331 109.01 9.87547 109.968 10.8886 110.405C13.0892 111.361 16.6764 109.34 21.5457 104.41C21.7022 104.251 21.9533 104.248 22.1123 104.405C22.2714 104.561 22.2742 104.812 22.1177 104.972C17.8435 109.303 14.5218 111.44 12.0559 111.439Z" fill="#2E2E30"/>
</g>
</g>
</g>
</g>
<path id="Vector_58" d="M172.304 173.888H-8.6C-8.824 173.888 -9 173.712 -9 173.488C-9 173.264 -8.824 173.088 -8.6 173.088H172.304C172.528 173.088 172.704 173.264 172.704 173.488C172.704 173.712 172.528 173.888 172.304 173.888Z" fill="#2E2E30"/>
<path id="Vector_59" fill-rule="evenodd" clip-rule="evenodd" d="M70.0564 61.7119C69.5284 63.6719 68.3124 65.2639 66.4004 66.4879C68.1684 67.4559 69.4804 69.2239 70.3284 71.7919C71.1924 68.6959 72.3844 66.9279 73.9044 66.4879C73.2564 66.0799 72.5524 65.4719 71.7924 64.6559C71.0324 63.8399 70.4564 62.8639 70.0564 61.7119Z" fill="white"/>
<path id="Vector_60" d="M70.3284 72.1919C70.1524 72.1919 70.0004 72.0799 69.9524 71.9199C69.1444 69.4639 67.8884 67.7519 66.2164 66.8399C66.0964 66.7759 66.0164 66.6399 66.0084 66.5039C66.0004 66.3679 66.0724 66.2319 66.1924 66.1519C68.0084 64.9919 69.1764 63.4639 69.6804 61.6079C69.7284 61.4399 69.8804 61.3199 70.0564 61.3119C70.2324 61.3039 70.3924 61.4159 70.4484 61.5839C70.8244 62.6799 71.3844 63.6239 72.0964 64.3839C72.8244 65.1679 73.5124 65.7599 74.1284 66.1519C74.2644 66.2319 74.3364 66.3919 74.3124 66.5439C74.2884 66.6959 74.1764 66.8319 74.0244 66.8719C72.6484 67.2639 71.5364 68.9599 70.7204 71.8959C70.6724 72.0639 70.5204 72.1839 70.3444 72.1919C70.3284 72.1919 70.3284 72.1919 70.3284 72.1919ZM67.1364 66.4639C68.4644 67.3599 69.5204 68.7279 70.2884 70.5439C71.0164 68.4079 71.9444 67.0319 73.0804 66.3919C72.5764 65.9999 72.0484 65.5119 71.4964 64.9199C70.9364 64.3199 70.4644 63.6239 70.0884 62.8399C69.4964 64.2639 68.5044 65.4719 67.1364 66.4639Z" fill="#2E2E30"/>
<path id="Vector_61" fill-rule="evenodd" clip-rule="evenodd" d="M10.0886 0.400391C9.56061 2.36039 8.34462 3.95239 6.43262 5.17639C8.20062 6.14439 9.51262 7.91239 10.3606 10.4804C11.2246 7.38439 12.4166 5.61639 13.9366 5.17639C13.2886 4.76839 12.5846 4.16039 11.8246 3.34439C11.0646 2.52839 10.4886 1.55239 10.0886 0.400391Z" fill="white"/>
<path id="Vector_62" d="M10.3606 10.8804C10.1846 10.8804 10.0326 10.7684 9.98465 10.6084C9.17665 8.1524 7.92064 6.4404 6.24864 5.5284C6.12864 5.4644 6.04864 5.3284 6.04064 5.1924C6.03264 5.0564 6.10465 4.9204 6.22465 4.8404C8.04065 3.6804 9.20865 2.1524 9.71265 0.296398C9.76065 0.128399 9.91264 0.00840241 10.0886 0.000402412C10.2646 -0.00759759 10.4246 0.104399 10.4806 0.272399C10.8566 1.3684 11.4166 2.3124 12.1286 3.0724C12.8566 3.8564 13.5446 4.4484 14.1606 4.8404C14.2966 4.9204 14.3686 5.0804 14.3446 5.2324C14.3206 5.3844 14.2086 5.5204 14.0567 5.5604C12.6806 5.9524 11.5686 7.6484 10.7526 10.5844C10.7046 10.7524 10.5526 10.8724 10.3766 10.8804C10.3606 10.8804 10.3606 10.8804 10.3606 10.8804ZM7.16864 5.1524C8.49664 6.0484 9.55264 7.4164 10.3206 9.2324C11.0486 7.0964 11.9766 5.7204 13.1126 5.0804C12.6086 4.6884 12.0806 4.2004 11.5286 3.6084C10.9686 3.0084 10.4966 2.3124 10.1206 1.5284C9.52864 2.9524 8.53664 4.1604 7.16864 5.1524Z" fill="#2E2E30"/>
</g>
</svg>
