<svg width="94" height="140" viewBox="0 0 94 140" fill="none" xmlns="http://www.w3.org/2000/svg">
<g id="Group 103">
<g id="Group-11-Copy">
<g id="Rectangle_2_">
<path id="Vector" d="M40.0883 86.9233H32.8877V138.661H40.0883V86.9233Z" fill="#FFF99A"/>
<path id="Vector_2" d="M40.533 139.106H32.4434V86.4795H40.533V139.106ZM33.3323 138.217H39.644V87.3685H33.3323V138.217Z" fill="#BBEB6E"/>
</g>
<g id="Rectangle-Copy_2_">
<path id="Vector_3" fill-rule="evenodd" clip-rule="evenodd" d="M32.8877 128.758L40.0883 127.105V138.662H32.8877V128.758Z" fill="#BBEB6E"/>
</g>
<g id="Rectangle_3_">
<path id="Vector_4" fill-rule="evenodd" clip-rule="evenodd" d="M25.3315 132.084H60.6234C64.5971 132.084 67.8241 135.311 67.8241 139.285H18.1309C18.1309 135.311 21.3578 132.084 25.3315 132.084Z" fill="#FFF99A"/>
<path id="Vector_5" d="M68.2687 139.729H17.6865V139.285C17.6865 135.071 21.1179 131.64 25.3316 131.64H60.6236C64.8373 131.64 68.2687 135.071 68.2687 139.285V139.729ZM18.5933 138.84H67.3708C67.1397 135.32 64.2061 132.529 60.6325 132.529H25.3316C21.758 132.529 18.8155 135.32 18.5933 138.84Z" fill="#BBEB6E"/>
</g>
<g id="Group-10-Copy_1_">
<g id="Path-27">
<path id="Vector_6" fill-rule="evenodd" clip-rule="evenodd" d="M45.8662 68.771V87.546C45.8662 92.453 49.8488 96.4356 54.7559 96.4356H71.3529C74.242 96.4356 76.5978 94.1421 76.6867 91.2618C77.0067 80.4342 74.6243 73.6336 69.5394 70.869C63.6989 67.6865 55.8049 66.9931 45.8662 68.771Z" fill="#FFF99A"/>
<path id="Vector_7" d="M71.353 96.8802H54.756C49.6089 96.8802 45.4219 92.6932 45.4219 87.546V68.3977L45.7864 68.3355C50.7735 67.4376 55.3072 67.162 59.2809 67.5176C63.2723 67.8732 66.7926 68.8689 69.7529 70.4779C72.3842 71.9091 74.3311 74.3982 75.5578 77.8919C76.7579 81.3233 77.2913 85.8303 77.1313 91.2708C77.0869 92.7821 76.4646 94.1955 75.38 95.2445C74.2955 96.3024 72.8643 96.8802 71.353 96.8802ZM46.3108 69.1444V87.546C46.3108 92.2042 50.0978 95.9912 54.756 95.9912H71.353C74.0199 95.9912 76.1623 93.9021 76.2423 91.2441C76.4023 85.9103 75.8867 81.51 74.7222 78.1852C73.5754 74.9138 71.7619 72.5759 69.3351 71.2602C63.6723 68.1844 55.9295 67.4732 46.3108 69.1444Z" fill="#BBEB6E"/>
</g>
<g id="Path-27-Copy">
<path id="Vector_8" fill-rule="evenodd" clip-rule="evenodd" d="M45.8662 68.7703V87.5452C45.8662 92.4523 49.8488 96.4349 54.7559 96.4349H66.8725C67.7703 82.567 66.2058 74.0418 62.1787 70.8682C58.1517 67.6946 52.7113 66.9923 45.8662 68.7703Z" fill="#FFF99A"/>
<path id="Vector_9" d="M67.2904 96.8793H54.756C49.6089 96.8793 45.4219 92.6922 45.4219 87.5451V68.4235L45.7508 68.3346C52.7114 66.53 58.3297 67.2589 62.4545 70.5125C64.5435 72.166 66.0103 75.2063 66.8104 79.5622C67.5927 83.8381 67.7705 89.5275 67.3171 96.4614L67.2904 96.8793ZM46.3108 69.1168V87.5451C46.3108 92.2033 50.0978 95.9903 54.756 95.9903H66.4548C67.2816 82.5847 65.7436 74.2551 61.9033 71.2148C58.0719 68.1923 52.827 67.49 46.3108 69.1168Z" fill="#BBEB6E"/>
</g>
</g>
<g id="Path-26-Copy">
<path id="Vector_10" fill-rule="evenodd" clip-rule="evenodd" d="M2.53789 83.9271C2.14674 76.362 1.95117 65.8366 1.95117 52.3599C1.95117 32.1359 24.522 24.2597 38.6833 40.59L39.5544 85.3227L2.53789 83.9271Z" fill="#FFF99A"/>
<path id="Vector_11" d="M40.008 85.7844L2.12022 84.362L2.10244 83.9531C1.70241 76.4147 1.50684 65.7826 1.50684 52.3593C1.50684 47.6122 2.76028 43.2562 5.12493 39.7448C7.34734 36.4468 10.4854 33.9665 14.1924 32.5798C18.1483 31.1041 22.4775 30.9618 26.7179 32.1619C31.2605 33.4509 35.5098 36.2601 39.0123 40.296L39.119 40.4204L40.008 85.7844ZM2.96474 83.4997L39.1012 84.8599L38.2389 40.7583C31.6339 33.2198 22.5576 30.4107 14.5035 33.4154C7.03621 36.2067 2.3958 43.4607 2.3958 52.3593C2.3958 65.5337 2.58249 76.0058 2.96474 83.4997Z" fill="#BBEB6E"/>
</g>
<g id="Path-26">
<path id="Vector_12" fill-rule="evenodd" clip-rule="evenodd" d="M9.76501 83.9261C10.7073 75.3298 10.5117 64.7955 9.1783 52.3322C7.17812 33.6373 31.7847 24.2231 45.9726 40.5623L46.8438 85.3218L9.76501 83.9261Z" fill="#FFF99A"/>
<path id="Vector_13" d="M47.2975 85.7846L9.27643 84.3534L9.32977 83.8822C10.2632 75.357 10.0676 64.7605 8.74305 52.3861C8.28968 48.1547 9.16975 44.1276 11.2855 40.7318C13.259 37.5671 16.2193 35.0602 19.8462 33.4867C23.971 31.691 28.7181 31.2465 33.2163 32.2422C38.1767 33.3356 42.7104 36.1181 46.3196 40.2695L46.4263 40.394L47.2975 85.7846ZM10.2632 83.5L46.3908 84.8601L45.5285 40.7318C37.3411 31.4065 26.7713 31.4332 20.1929 34.2957C12.8234 37.5048 8.77861 44.3943 9.62312 52.2883C10.9299 64.5027 11.1433 75.0014 10.2632 83.5Z" fill="#BBEB6E"/>
</g>
<g id="Group-9_1_">
<g id="Group-3_1_">
<g id="Path-13">
<path id="Vector_14" fill-rule="evenodd" clip-rule="evenodd" d="M71.7151 123.418H80.2759V128.805C80.2759 130.263 81.2804 131.534 82.6938 131.881C84.4629 132.308 91.4768 134.521 89.7433 138.548C89.4144 139.322 70.7906 138.948 70.5061 138.548C69.7949 137.544 70.195 132.503 71.7151 123.418Z" fill="white"/>
</g>
<g id="Path-13-Copy-2">
<path id="Vector_15" d="M82.1954 139.446C80.8531 139.446 79.4752 139.428 78.2218 139.411C76.1949 139.375 74.3014 139.313 72.888 139.242C70.3722 139.108 70.3011 139.011 70.1588 138.815C69.6521 138.104 69.2165 135.721 71.2878 123.347L71.3412 122.974H80.7198V128.805C80.7198 130.068 81.5732 131.152 82.7999 131.454C83.3956 131.597 88.6582 132.948 90.0984 135.828C90.5606 136.753 90.5784 137.73 90.1517 138.735C90.0272 139.028 89.6983 139.153 88.7649 139.251C87.3781 139.393 84.8357 139.446 82.1954 139.446ZM70.8078 138.184C71.5812 138.326 75.3504 138.495 80.0353 138.548C85.6802 138.602 88.7382 138.442 89.3783 138.255C89.6539 137.544 89.6272 136.877 89.2983 136.228C88.276 134.175 84.4623 132.779 82.5866 132.317C80.9598 131.926 79.8219 130.477 79.8219 128.805V123.863H72.0879C71.3767 128.192 70.9056 131.623 70.7189 134.05C70.4878 136.886 70.6744 137.855 70.8078 138.184Z" fill="#2E2E30"/>
</g>
<g id="Path-13-Copy-4">
<path id="Vector_16" fill-rule="evenodd" clip-rule="evenodd" d="M80.2755 128.745V128.807C80.2755 130.265 81.2801 131.536 82.6935 131.883C84.4626 132.309 91.4765 134.523 89.743 138.55C89.4141 139.323 70.7903 138.95 70.5058 138.55C70.1591 138.061 70.2835 135.047 70.8792 129.527L80.2755 128.745Z" fill="#2E2E30"/>
</g>
<g id="Group-5_1_">
<g id="Path-13-Copy">
<path id="Vector_17" fill-rule="evenodd" clip-rule="evenodd" d="M82.2227 127.401C83.1294 127.872 82.7205 130.948 84.7295 131.436C86.7386 131.925 94.7304 134.441 92.7569 139.037C92.3747 139.917 71.1195 139.499 70.8439 139.037C70.1327 137.873 70.0083 135.241 70.4527 131.143L75.7865 130.761C76.5066 130.708 77.1378 130.272 77.4311 129.614C77.9378 128.494 78.4623 127.756 79.0224 127.409C80.0891 126.734 81.3159 126.929 82.2227 127.401Z" fill="white"/>
</g>
<g id="Path-21">
<path id="Vector_18" d="M85.5744 138.015C85.3255 138.015 85.1299 137.819 85.1299 137.57C85.1299 135.703 85.5744 134.361 86.4633 133.579C87.219 132.912 88.2857 132.654 89.6192 132.823C89.8592 132.85 90.037 133.072 90.0014 133.321C89.9659 133.57 89.7525 133.739 89.5036 133.703C88.4279 133.57 87.6012 133.748 87.0412 134.246C86.3567 134.85 86.01 135.97 86.01 137.57C86.0188 137.81 85.8144 138.015 85.5744 138.015Z" fill="#2E2E30"/>
</g>
<g id="Group-6">
<g id="Path-20">
<path id="Vector_19" d="M81.0437 132.881C80.8748 132.881 80.7236 132.792 80.6436 132.632C80.5369 132.41 80.6258 132.143 80.8481 132.037L83.3728 130.801C83.595 130.694 83.8617 130.783 83.9684 131.005C84.075 131.228 83.9861 131.494 83.7639 131.601L81.2392 132.837C81.177 132.863 81.1059 132.881 81.0437 132.881Z" fill="#2E2E30"/>
</g>
<g id="Path-20-Copy">
<path id="Vector_20" d="M82.8569 133.549C82.688 133.549 82.528 133.451 82.448 133.291C82.3502 133.069 82.448 132.802 82.6703 132.704L84.1282 132.047C84.3504 131.949 84.6171 132.047 84.7149 132.269C84.8127 132.491 84.7149 132.758 84.4926 132.856L83.0347 133.513C82.9814 133.531 82.9192 133.549 82.8569 133.549Z" fill="#2E2E30"/>
</g>
</g>
<g id="Path-19">
<path id="Vector_21" d="M84.916 138.478C80.3734 138.478 75.8752 138.327 71.457 138.016C71.2081 137.998 71.0303 137.785 71.0481 137.545C71.0659 137.296 71.2792 137.118 71.5193 137.136C78.0976 137.598 84.8893 137.714 91.681 137.483C91.9299 137.474 92.1344 137.669 92.1433 137.909C92.1522 138.149 91.9566 138.363 91.7166 138.372C89.4408 138.434 87.1739 138.478 84.916 138.478Z" fill="#2E2E30"/>
</g>
<g id="Path-13-Copy-3">
<path id="Vector_22" d="M83.965 139.997C82.1604 139.997 80.3203 139.98 78.6935 139.944C76.4799 139.9 74.4353 139.828 72.9507 139.748C70.2749 139.606 70.2127 139.5 70.0705 139.268C69.2971 137.997 69.2793 135.321 70.0083 131.072L70.0705 130.725L75.7599 130.317C76.311 130.272 76.8 129.934 77.0311 129.428C77.5822 128.21 78.1512 127.427 78.7912 127.027C79.8313 126.37 81.2003 126.37 82.436 127.01C82.9694 127.285 83.1383 127.952 83.3427 128.734C83.6539 129.925 83.9472 130.788 84.8451 131.01C85.5207 131.17 91.4946 132.708 93.1214 135.961C93.637 137.002 93.6636 138.095 93.1747 139.215C93.0325 139.544 92.6769 139.704 90.8634 139.837C89.1477 139.953 86.5964 139.997 83.965 139.997ZM70.755 138.673C71.5906 138.833 75.9999 139.037 81.5115 139.091C88.1609 139.153 91.7079 138.966 92.3924 138.735C92.7213 137.899 92.6947 137.117 92.3124 136.344C90.8367 133.392 84.8718 131.917 84.6229 131.863C83.1383 131.508 82.756 130.032 82.4716 128.948C82.356 128.494 82.196 127.881 82.0093 127.792C81.547 127.552 80.3647 127.072 79.2446 127.774C78.7735 128.067 78.2934 128.752 77.8223 129.783C77.4578 130.592 76.6844 131.125 75.8043 131.197L70.8172 131.561C70.0972 135.997 70.3638 137.882 70.755 138.673Z" fill="#2E2E30"/>
</g>
</g>
</g>
<g id="Path-12-Copy">
<path id="Vector_23" fill-rule="evenodd" clip-rule="evenodd" d="M35.6069 86.7826L61.5292 90.8896C63.6361 91.2274 65.2451 92.9609 65.414 95.0856L67.6808 123.639H82.2688L81.4243 87.2449C81.3354 83.2445 78.5707 79.7953 74.6859 78.8264L31.0643 67.9365L28.6019 75.1194C27.0106 79.7598 29.482 84.818 34.1224 86.4181C34.6024 86.5781 35.1002 86.7026 35.6069 86.7826Z" fill="black"/>
</g>
<g id="Path-16">
<path id="Vector_24" d="M46.3995 59.1157C46.2217 59.1157 46.0617 59.009 45.9906 58.8401L43.8837 53.6486C43.7948 53.4174 43.9015 53.1596 44.1326 53.0707C44.3638 52.9819 44.6216 53.0885 44.7105 53.3197L46.8173 58.5112C46.9062 58.7424 46.7995 59.0002 46.5684 59.089C46.5151 59.1068 46.4528 59.1157 46.3995 59.1157Z" fill="#2E2E30"/>
</g>
<g id="Group-3-Copy">
<g id="Path-13_1_">
<path id="Vector_25" fill-rule="evenodd" clip-rule="evenodd" d="M41.551 123.151H50.1118V128.539C50.1118 129.996 51.1163 131.268 52.5298 131.614C54.2988 132.041 61.3128 134.255 59.5793 138.282C59.2504 139.055 40.6265 138.682 40.342 138.282C39.6309 137.277 40.0309 132.237 41.551 123.151Z" fill="white"/>
</g>
<g id="Path-13-Copy-4_1_">
<path id="Vector_26" fill-rule="evenodd" clip-rule="evenodd" d="M50.1115 128.476V128.538C50.1115 129.996 51.116 131.267 52.5295 131.614C54.2985 132.04 61.3124 134.254 59.579 138.281C59.25 139.054 40.6262 138.681 40.3417 138.281C39.995 137.792 40.1195 134.778 40.7151 129.258L50.1115 128.476Z" fill="#2E2E30"/>
</g>
<g id="Path-13-Copy-2_1_">
<path id="Vector_27" d="M52.0314 139.181C50.689 139.181 49.3111 139.163 48.0577 139.145C46.0309 139.11 44.1374 139.048 42.7239 138.977C40.2081 138.843 40.137 138.745 39.9948 138.55C39.4881 137.839 39.0525 135.456 41.1238 123.082L41.1771 122.708H50.5557V128.54C50.5557 129.802 51.4091 130.887 52.6359 131.189C53.2315 131.331 58.4942 132.683 59.9343 135.563C60.3966 136.487 60.4143 137.465 59.9876 138.47C59.8632 138.763 59.5343 138.888 58.6008 138.985C57.2141 139.128 54.6716 139.181 52.0314 139.181ZM40.6437 137.919C41.4171 138.061 45.1863 138.23 49.8712 138.283C55.5161 138.337 58.5742 138.177 59.2142 137.99C59.4898 137.279 59.4631 136.612 59.1342 135.963C58.1119 133.909 54.2982 132.514 52.4225 132.052C50.7957 131.66 49.6578 130.211 49.6578 128.54V123.597H41.9238C41.2127 127.927 40.7415 131.358 40.5548 133.785C40.3237 136.621 40.5104 137.59 40.6437 137.919Z" fill="#2E2E30"/>
</g>
<g id="Group-5_2_">
<g id="Path-13-Copy_1_">
<path id="Vector_28" fill-rule="evenodd" clip-rule="evenodd" d="M52.0586 127.134C52.9653 127.605 52.5564 130.681 54.5655 131.17C56.5745 131.659 64.5664 134.175 62.5928 138.771C62.2106 139.651 40.9554 139.233 40.6798 138.771C39.9687 137.606 39.8442 134.975 40.2887 130.877L45.6225 130.494C46.3425 130.441 46.9737 130.005 47.2671 129.347C47.7738 128.227 48.2983 127.49 48.8583 127.143C49.9251 126.467 51.1519 126.663 52.0586 127.134Z" fill="white"/>
</g>
<g id="Path-21_1_">
<path id="Vector_29" d="M55.4103 137.748C55.1614 137.748 54.9658 137.553 54.9658 137.304C54.9658 135.437 55.4103 134.095 56.2993 133.312C57.0549 132.646 58.1217 132.388 59.4551 132.557C59.6951 132.583 59.8729 132.806 59.8374 133.054C59.8018 133.303 59.5884 133.472 59.3395 133.437C58.2639 133.303 57.4371 133.481 56.8771 133.979C56.1926 134.583 55.8459 135.704 55.8459 137.304C55.8548 137.544 55.6503 137.748 55.4103 137.748Z" fill="#2E2E30"/>
</g>
<g id="Group-6_1_">
<g id="Path-20_1_">
<path id="Vector_30" d="M50.8796 132.615C50.7107 132.615 50.5596 132.526 50.4796 132.366C50.3729 132.144 50.4618 131.877 50.684 131.77L53.2087 130.535C53.4309 130.428 53.6976 130.517 53.8043 130.739C53.911 130.961 53.8221 131.228 53.5998 131.335L51.0752 132.57C51.0129 132.597 50.9418 132.615 50.8796 132.615Z" fill="#2E2E30"/>
</g>
<g id="Path-20-Copy_1_">
<path id="Vector_31" d="M52.6929 133.281C52.524 133.281 52.364 133.184 52.284 133.024C52.1862 132.801 52.284 132.535 52.5062 132.437L53.9641 131.779C54.1863 131.681 54.453 131.779 54.5508 132.001C54.6486 132.224 54.5508 132.49 54.3286 132.588L52.8707 133.246C52.8173 133.264 52.7551 133.281 52.6929 133.281Z" fill="#2E2E30"/>
</g>
</g>
<g id="Path-19_1_">
<path id="Vector_32" d="M54.7519 138.212C50.2093 138.212 45.7111 138.061 41.293 137.749C41.0441 137.732 40.8663 137.518 40.884 137.278C40.9018 137.038 41.1152 136.852 41.3552 136.869C47.9335 137.332 54.7252 137.447 61.5169 137.216C61.7659 137.207 61.9703 137.403 61.9792 137.643C61.9881 137.883 61.7925 138.096 61.5525 138.105C59.2767 138.167 57.0099 138.212 54.7519 138.212Z" fill="#2E2E30"/>
</g>
<g id="Path-13-Copy-3_1_">
<path id="Vector_33" d="M53.801 139.73C51.9964 139.73 50.1562 139.712 48.5294 139.676C46.3159 139.632 44.2712 139.561 42.7867 139.481C40.1109 139.339 40.0487 139.232 39.9064 139.001C39.133 137.73 39.1152 135.054 39.8442 130.805L39.9064 130.458L45.5958 130.049C46.147 130.005 46.6359 129.667 46.867 129.16C47.4182 127.942 47.9871 127.16 48.6272 126.76C49.6673 126.102 51.0363 126.102 52.2719 126.742C52.8053 127.018 52.9742 127.684 53.1787 128.467C53.4898 129.658 53.7832 130.52 54.681 130.742C55.3566 130.902 61.3305 132.44 62.9573 135.694C63.4729 136.734 63.4996 137.827 63.0107 138.948C62.8684 139.276 62.5128 139.436 60.6993 139.57C58.9836 139.685 56.4323 139.73 53.801 139.73ZM40.5909 138.405C41.4266 138.565 45.8358 138.77 51.3474 138.823C57.9969 138.885 61.5439 138.699 62.2284 138.467C62.5573 137.632 62.5306 136.85 62.1484 136.076C60.6727 133.125 54.7077 131.649 54.4588 131.596C52.9742 131.24 52.592 129.764 52.3075 128.68C52.1919 128.227 52.0319 127.613 51.8452 127.524C51.383 127.284 50.2006 126.804 49.0806 127.507C48.6094 127.8 48.1294 128.484 47.6582 129.516C47.2937 130.325 46.5203 130.858 45.6403 130.929L40.6532 131.294C39.9331 135.729 40.1998 137.614 40.5909 138.405Z" fill="#2E2E30"/>
</g>
</g>
</g>
<g id="Group-4_1_">
<g id="Path-12_1_">
<path id="Vector_34" fill-rule="evenodd" clip-rule="evenodd" d="M20.5834 88.4455L34.0156 94.4549C35.598 95.166 36.647 96.6951 36.7448 98.4197L38.1227 123.649H53.7329L52.8706 89.9656C52.7906 86.6675 50.8882 83.6895 47.928 82.2227L19.0632 67.937L15.8007 77.4401C14.3073 81.796 16.3785 86.5697 20.5834 88.4455Z" fill="black"/>
</g>
<g id="Path-18">
<path id="Vector_35" d="M49.6971 82.719C49.6349 82.719 49.5637 82.7012 49.5015 82.6745L36.2026 76.2562C35.9803 76.1495 35.8914 75.8828 35.9981 75.6606C36.1048 75.4383 36.3715 75.3494 36.5937 75.4561L49.8927 81.8745C50.1149 81.9811 50.2038 82.2478 50.0971 82.4701C50.026 82.6212 49.866 82.719 49.6971 82.719Z" fill="white"/>
</g>
</g>
<g id="Group_1_">
<g id="Path-10_1_">
<path id="Vector_36" fill-rule="evenodd" clip-rule="evenodd" d="M54.2527 52.0239C54.9461 56.1664 56.7685 58.0066 59.7287 57.5443C64.1647 56.8509 63.2491 36.0225 75.2323 36.2892L74.8412 44.1654C72.7966 44.5032 71.4453 45.6944 70.7697 47.739C69.7652 50.8149 70.5475 69.5632 59.1331 69.5632C51.5236 69.5632 46.7676 64.0605 44.8652 53.0551L54.2527 52.0239Z" fill="white"/>
</g>
<g id="Path-15">
<path id="Vector_37" d="M78.1123 40.3598C77.9079 40.3598 77.7301 40.2265 77.6767 40.022C77.5523 39.5242 77.1878 38.004 73.8275 38.333C73.5786 38.3596 73.3653 38.1818 73.3386 37.9329C73.3119 37.6929 73.4897 37.4707 73.7386 37.444C76.4766 37.1773 78.0946 37.9685 78.539 39.8086C78.6013 40.0487 78.4501 40.2887 78.2101 40.342C78.1746 40.3509 78.1479 40.3598 78.1123 40.3598Z" fill="#2E2E30"/>
</g>
<g id="Path-15-Copy">
<path id="Vector_38" d="M76.9221 41.9525C76.7176 41.9525 76.5398 41.8191 76.4865 41.6146C76.3976 41.2413 76.122 40.1123 73.5707 40.3612C73.3307 40.3879 73.1084 40.2101 73.0817 39.9612C73.0551 39.7211 73.2329 39.4989 73.4818 39.4722C76.2287 39.2055 77.0999 40.3701 77.3488 41.4013C77.411 41.6413 77.2599 41.8813 77.0199 41.9347C76.9932 41.9525 76.9576 41.9525 76.9221 41.9525Z" fill="#2E2E30"/>
</g>
<g id="Path_8_">
<path id="Vector_39" d="M59.1331 70.0096C55.2128 70.0096 51.9769 68.5694 49.5234 65.7336C47.1054 62.9334 45.3897 58.693 44.4296 53.137L44.3496 52.6747L54.6261 51.5368L54.6972 51.9547C55.3461 55.8483 56.9729 57.5285 59.6665 57.1107C61.0355 56.8973 61.9778 53.7504 62.9734 50.4167C63.9246 47.2342 65.0003 43.625 66.8227 40.7715C68.974 37.3756 71.7298 35.7666 75.2412 35.8466C75.4901 35.8555 75.6768 36.0511 75.6768 36.3C75.6679 36.54 75.4723 36.7356 75.2323 36.7356H75.2234C75.1523 36.7356 75.0812 36.7356 75.01 36.7356C67.9872 36.7356 65.6848 44.4518 63.8269 50.6657C62.6534 54.586 61.7289 57.6885 59.7998 57.9818C58.1819 58.2308 56.8396 57.8396 55.8262 56.8173C54.9194 55.9017 54.2616 54.4527 53.8882 52.5058L45.3808 53.4481C46.332 58.6219 47.9499 62.5511 50.199 65.1469C52.4748 67.7871 55.4795 69.1206 59.1331 69.1206C67.9072 69.1206 69.1607 57.3685 69.8363 51.0479C70.0052 49.4211 70.1385 48.2477 70.343 47.6076C71.063 45.3941 72.5565 44.0873 74.7611 43.7317C75.0012 43.6962 75.2323 43.8562 75.2678 44.0962C75.3034 44.3362 75.1434 44.5673 74.9034 44.6029C73.0188 44.914 71.8009 45.9808 71.1875 47.8832C71.0008 48.4432 70.8764 49.6345 70.7163 51.1457C70.3785 54.2749 69.8807 58.9953 68.2984 62.8801C66.3782 67.6094 63.2935 70.0096 59.1331 70.0096Z" fill="#2E2E30"/>
</g>
<g id="Path-11_1_">
<path id="Vector_40" d="M69.9605 38.334C69.836 38.334 69.7115 38.2807 69.6226 38.174C69.4626 37.9873 69.4893 37.7029 69.676 37.5517C71.3295 36.1383 74.0141 35.5604 77.6411 35.8449C77.89 35.8627 78.0678 36.076 78.05 36.325C78.0323 36.5739 77.8189 36.7517 77.57 36.7339C74.183 36.4761 71.7206 36.9739 70.2449 38.2273C70.1649 38.2985 70.0582 38.334 69.9605 38.334Z" fill="#2E2E30"/>
</g>
</g>
<g id="Oval-Copy-2_1_">
<path id="Vector_41" d="M37.4026 30.2356C39.1799 30.2356 40.6207 28.5122 40.6207 26.3863C40.6207 24.2605 39.1799 22.5371 37.4026 22.5371C35.6253 22.5371 34.1846 24.2605 34.1846 26.3863C34.1846 28.5122 35.6253 30.2356 37.4026 30.2356Z" fill="#2E2E30"/>
</g>
<g id="Path_9_">
<path id="Vector_42" fill-rule="evenodd" clip-rule="evenodd" d="M27.0819 21.54H37.2962V24.4025C37.5451 28.0028 37.1628 30.5364 36.1405 32.0121C34.6115 34.2167 28.8332 34.7945 26.7708 29.8074C25.4018 26.4738 25.5085 23.718 27.0819 21.54Z" fill="white"/>
</g>
<g id="Star-Copy">
<path id="Vector_43" fill-rule="evenodd" clip-rule="evenodd" d="M37.2164 28.0822L36.6564 28.3845C36.3808 28.5356 36.0341 28.4378 35.8741 28.1622C35.8119 28.0467 35.7852 27.9044 35.8119 27.78L35.9274 27.1577C35.9985 26.8021 35.8741 26.4287 35.6074 26.1798L35.1451 25.7442C34.914 25.5309 34.9051 25.1664 35.1185 24.9353C35.2074 24.8375 35.3318 24.7753 35.4652 24.7575L36.0963 24.6775C36.4608 24.633 36.7719 24.4019 36.9319 24.073L37.1986 23.4952C37.332 23.2107 37.6787 23.0862 37.9631 23.2196C38.0876 23.2729 38.1854 23.3707 38.2387 23.4952L38.5054 24.073C38.6565 24.4019 38.9766 24.633 39.341 24.6775L39.9722 24.7575C40.2834 24.793 40.5056 25.0864 40.47 25.3975C40.4523 25.5309 40.39 25.6553 40.2922 25.7442L39.83 26.1798C39.5633 26.4287 39.4388 26.8021 39.51 27.1577L39.6255 27.78C39.6877 28.0911 39.4833 28.3934 39.1721 28.4556C39.0388 28.4823 38.9055 28.4556 38.7899 28.3934L38.2298 28.0911C37.9276 27.9044 37.5364 27.9044 37.2164 28.0822Z" fill="white"/>
<path id="Vector_44" d="M36.3894 28.8997C36.2916 28.8997 36.2027 28.882 36.1049 28.8553C35.8471 28.7842 35.6249 28.6064 35.5004 28.3664C35.3849 28.1619 35.3493 27.913 35.3938 27.6819L35.5093 27.0596C35.5538 26.8462 35.4827 26.6329 35.3227 26.4906L34.8604 26.055C34.4515 25.6728 34.4337 25.0238 34.8159 24.6149C34.976 24.446 35.1982 24.3305 35.4293 24.3038L36.0605 24.2238C36.2738 24.1971 36.4516 24.0638 36.5494 23.8682L36.8161 23.2904C37.0561 22.7837 37.6606 22.5614 38.1673 22.8014C38.3807 22.8992 38.5585 23.077 38.6563 23.2904L38.923 23.8682C39.0119 24.0638 39.1985 24.1971 39.4119 24.2238L40.0431 24.3038C40.6031 24.3749 40.9943 24.8816 40.9231 25.4417C40.8965 25.6817 40.7809 25.895 40.612 26.055L40.1497 26.4906C39.9897 26.6418 39.9275 26.8551 39.9631 27.0596L40.0786 27.6819C40.132 27.9485 40.0786 28.2241 39.9186 28.4464C39.7675 28.6686 39.5364 28.8197 39.2697 28.8731C39.0385 28.9175 38.7896 28.882 38.5852 28.7664L38.0251 28.4641C37.8384 28.3575 37.6162 28.3575 37.4206 28.4641L36.8606 28.7664C36.7183 28.8553 36.5583 28.8997 36.3894 28.8997ZM37.7318 23.6015C37.6873 23.6015 37.634 23.6282 37.6162 23.6726L37.3495 24.2504C37.1273 24.7216 36.6828 25.0416 36.1672 25.1127L35.536 25.1927C35.5093 25.1927 35.4827 25.2105 35.456 25.2283C35.4115 25.2816 35.4115 25.3617 35.4649 25.415L35.9272 25.8506C36.3094 26.2062 36.4783 26.7307 36.3805 27.2374L36.265 27.8596C36.2561 27.8863 36.265 27.9219 36.2827 27.9485C36.3005 27.9841 36.3361 28.0019 36.3627 28.0108C36.3894 28.0197 36.425 28.0197 36.4605 28.0019L37.0206 27.6996C37.474 27.4507 38.0251 27.4507 38.4785 27.6996L39.0385 28.0019C39.0652 28.0197 39.0919 28.0197 39.1274 28.0197C39.1985 28.0019 39.243 27.9397 39.2341 27.8685L39.1185 27.2463C39.0208 26.7307 39.1897 26.2151 39.5719 25.8595L40.0342 25.4239C40.052 25.4061 40.0697 25.3794 40.0697 25.3439C40.0786 25.2994 40.0608 25.2639 40.0431 25.2461C40.0253 25.2283 39.9986 25.2016 39.9542 25.2016L39.323 25.1216C38.8074 25.0594 38.3629 24.7394 38.1407 24.2593L37.874 23.6815C37.8651 23.6548 37.8384 23.6282 37.8118 23.6193C37.7673 23.6104 37.7495 23.6015 37.7318 23.6015Z" fill="#2E2E30"/>
</g>
<g id="Path-2_1_">
<path id="Vector_45" fill-rule="evenodd" clip-rule="evenodd" d="M27.4642 27.2827L28.2643 22.8824C34.0693 24.7225 38.5763 24.2692 41.7677 21.54C46.5592 17.4419 43.2701 11.1569 36.9762 12.0903C32.7803 12.7126 29.6066 14.0105 27.4642 15.984C26.1486 15.6462 24.9218 16.3307 23.7928 18.0286C22.1038 20.5711 21.766 24.2336 23.7928 28.9451C25.144 32.0654 26.3619 31.5231 27.4642 27.2827Z" fill="#2E2E30"/>
</g>
<g id="Group-8">
<g id="Path-24">
<path id="Vector_46" d="M42.0178 16.9643C41.8223 16.9643 41.6445 16.831 41.5911 16.6354C41.2266 15.2397 40.5955 14.4308 39.6621 14.1552C38.6753 13.853 37.2885 14.0041 35.5462 14.5908C35.315 14.6708 35.0572 14.5463 34.9861 14.3063C34.9061 14.0752 35.0306 13.8174 35.2706 13.7463C37.2174 13.0973 38.7375 12.9462 39.9288 13.3018C41.1555 13.6663 42.0089 14.7153 42.4534 16.4043C42.5157 16.6443 42.3734 16.8843 42.1334 16.9466C42.0978 16.9554 42.0623 16.9643 42.0178 16.9643Z" fill="white"/>
</g>
<g id="Oval_1_">
<path id="Vector_47" d="M41.8137 18.982C42.1082 18.982 42.347 18.7392 42.347 18.4397C42.347 18.1402 42.1082 17.8975 41.8137 17.8975C41.5191 17.8975 41.2803 18.1402 41.2803 18.4397C41.2803 18.7392 41.5191 18.982 41.8137 18.982Z" fill="white"/>
</g>
</g>
<g id="Path-3_1_">
<path id="Vector_48" d="M24.9485 24.2421C24.7618 24.2421 24.5751 24.1532 24.4507 23.9932L22.7705 21.7441C21.846 20.5084 21.4548 18.9883 21.6771 17.4681C21.8993 15.9391 22.6994 14.5879 23.9262 13.6634C25.1974 12.7033 26.8331 12.321 28.4066 12.5966C28.7444 12.6588 28.9666 12.9789 28.9133 13.3167C28.851 13.6545 28.531 13.8767 28.1932 13.8234C26.9664 13.6011 25.6863 13.9034 24.6818 14.659C22.6816 16.1525 22.2727 18.9972 23.775 20.9973L25.4552 23.2464C25.6597 23.522 25.6063 23.9131 25.3307 24.1176C25.2063 24.1976 25.0729 24.2421 24.9485 24.2421Z" fill="#BBEB6E"/>
</g>
<g id="Path-6_1_">
<path id="Vector_49" fill-rule="evenodd" clip-rule="evenodd" d="M26.9039 30.207L25.446 37.8166C21.7745 39.1145 19.0454 40.359 17.2764 41.5413C41.394 43.7104 51.9283 43.826 48.8702 41.8969C45.8122 39.9679 41.2873 38.27 35.269 36.8032V30.2248L26.9039 30.207Z" fill="white"/>
</g>
<g id="Oval_2_">
<path id="Vector_50" d="M33.8201 31.0963C34.3356 31.0963 34.7535 30.6784 34.7535 30.1629C34.7535 29.6474 34.3356 29.2295 33.8201 29.2295C33.3046 29.2295 32.8867 29.6474 32.8867 30.1629C32.8867 30.6784 33.3046 31.0963 33.8201 31.0963Z" fill="#2E2E30"/>
</g>
<g id="Path-4_1_">
<path id="Vector_51" d="M33.6339 28.751C33.4027 28.751 33.2072 28.5732 33.1894 28.3332C33.1716 28.0843 33.3583 27.8798 33.6072 27.862C34.2384 27.8265 34.4784 27.7109 34.5584 27.6576C34.4695 27.4798 34.1139 26.9464 32.6204 25.5685C32.4426 25.3996 32.4249 25.124 32.5938 24.9373C32.7627 24.7595 33.0383 24.7418 33.2249 24.9107C35.4829 26.982 35.5629 27.5064 35.4385 27.8887C35.2251 28.5643 34.3273 28.6977 33.6605 28.7421C33.6516 28.751 33.6428 28.751 33.6339 28.751Z" fill="#2E2E30"/>
</g>
<g id="Path-5">
<path id="Vector_52" d="M29.6332 22.5637C29.5976 22.5637 29.562 22.5548 29.5265 22.537C29.4198 22.4748 29.3843 22.3414 29.4376 22.2348C29.6865 21.7814 30.4777 21.0613 31.6778 21.568C31.7933 21.6125 31.8467 21.7458 31.7934 21.8614C31.7489 21.977 31.6156 22.0303 31.5 21.977C30.3799 21.4969 29.8465 22.4126 29.8198 22.4481C29.7843 22.5192 29.7132 22.5637 29.6332 22.5637Z" fill="#2E2E30"/>
</g>
<g id="Path-5-Copy">
<path id="Vector_53" d="M36.9673 22.7219C36.8873 22.7219 36.8162 22.6774 36.7717 22.6063C36.745 22.5619 36.2117 21.6551 35.0916 22.1352C34.976 22.1796 34.8515 22.1352 34.7982 22.0196C34.7538 21.904 34.7982 21.7796 34.9138 21.7262C36.1139 21.2195 36.9051 21.9396 37.154 22.393C37.2162 22.4996 37.1717 22.633 37.0651 22.6952C37.0473 22.713 37.0028 22.7219 36.9673 22.7219Z" fill="#2E2E30"/>
</g>
<g id="Group-2_1_">
<g id="Path-17">
<path id="Vector_54" fill-rule="evenodd" clip-rule="evenodd" d="M14.3789 75.2535L19.3304 78.196L18.6104 73.52L14.3789 75.2535Z" fill="black"/>
</g>
<g id="Path-6-Copy_1_">
<path id="Vector_55" fill-rule="evenodd" clip-rule="evenodd" d="M25.8199 33.6416L25.4554 37.8109C21.784 39.1087 19.0549 40.3533 17.2858 41.5356L16.948 69.4136L14.3789 75.2541C18.1303 74.1518 24.6198 73.9829 33.865 74.7296C43.1103 75.4764 48.6752 74.7118 50.5687 72.4272C48.6752 69.4314 47.0929 66.8445 45.8216 64.6487V58.3904C48.3552 58.266 50.2665 58.0259 51.5555 57.6526C52.8445 57.2792 54.6491 56.4525 56.9604 55.1813C54.6313 48.2651 51.9377 43.838 48.8886 41.909C45.8394 39.9799 41.6791 38.2998 36.4075 36.8863L35.9097 34.3528C35.3141 34.9839 33.5539 35.2329 30.6203 35.1084C27.6778 34.9751 26.0866 34.4861 25.8199 33.6416Z" fill="#BBEB6E"/>
</g>
<g id="Path-23">
<path id="Vector_56" d="M52.6138 49.6788C52.4537 49.6788 52.3026 49.5899 52.2226 49.4388C49.8935 45.0117 45.342 41.7937 38.6837 39.8735C38.4436 39.8024 38.3103 39.5623 38.3814 39.3223C38.4525 39.0823 38.6925 38.949 38.9326 39.0201C45.8309 41.0025 50.5691 44.3717 53.0138 49.0209C53.1294 49.2343 53.0405 49.5099 52.8271 49.6254C52.756 49.661 52.6849 49.6788 52.6138 49.6788Z" fill="white"/>
</g>
<g id="Path-16_1_">
<path id="Vector_57" d="M46.3194 59.1182C46.1416 59.1182 45.9816 59.0115 45.9105 58.8426L43.8037 53.651C43.7148 53.4199 43.8214 53.1621 44.0526 53.0732C44.2837 52.9843 44.5415 53.091 44.6304 53.3221L46.7372 58.5137C46.8261 58.7448 46.7195 59.0026 46.4883 59.0915C46.4261 59.1093 46.3728 59.1182 46.3194 59.1182Z" fill="#2E2E30"/>
</g>
</g>
<g id="Group-7_1_">
<g id="Path-8_1_">
<path id="Vector_58" fill-rule="evenodd" clip-rule="evenodd" d="M7.38434 55.1644C7.02875 60.9427 8.67334 64.9519 12.3003 67.201C17.7497 70.5791 28.3284 68.1166 34.1778 63.1651C40.0272 58.2135 40.9161 55.1466 44.2498 54.711L40.7472 48.5771C38.5782 49.6439 36.2402 51.244 33.7511 53.3776C30.0085 56.5778 19.5721 62.0361 18.2208 54.8088L7.38434 55.1644Z" fill="white"/>
</g>
<g id="Path_10_">
<path id="Vector_59" d="M22.5052 58.8265C21.8384 58.8265 21.1895 58.7376 20.6028 58.5332C19.0826 57.9998 18.1315 56.773 17.7848 54.8973C17.7403 54.6573 17.9003 54.4262 18.1403 54.3817C18.3804 54.3373 18.6115 54.4973 18.6559 54.7373C18.9493 56.3019 19.6783 57.2709 20.8961 57.6976C24.1498 58.8443 30.3903 55.6796 33.4572 53.0483C35.9641 50.897 38.3554 49.2613 40.5512 48.1856C40.7734 48.0789 41.0401 48.1678 41.1468 48.3901C41.2535 48.6123 41.1646 48.879 40.9423 48.9857C38.8088 50.0258 36.4886 51.6259 34.0351 53.7239C32.7638 54.8173 30.4436 56.3908 27.759 57.5464C26.2655 58.1776 24.3098 58.8265 22.5052 58.8265Z" fill="#2E2E30"/>
</g>
<g id="Path_11_">
<path id="Vector_60" d="M18.7366 69.2199C16.1053 69.2199 13.8117 68.6688 12.0782 67.5931C8.31791 65.2551 6.58443 61.0681 6.9489 55.1476C6.96668 54.8987 7.17115 54.712 7.42006 54.7298C7.66897 54.7476 7.85565 54.952 7.83787 55.2009C7.50006 60.7748 9.08242 64.6862 12.5494 66.8375C14.9852 68.3487 18.7988 68.731 23.0214 67.8865C27.1284 67.0686 31.0932 65.2285 33.9112 62.846C36.2137 60.8903 37.7427 59.2368 38.9606 57.9123C40.8185 55.9032 42.0453 54.5698 44.2055 54.2853C44.4455 54.2497 44.6677 54.4275 44.7033 54.6676C44.7389 54.9076 44.5611 55.1298 44.321 55.1654C42.472 55.4054 41.4586 56.5077 39.6095 58.5079C38.365 59.8502 36.8271 61.5304 34.4802 63.5128C31.5555 65.993 27.4396 67.8954 23.1903 68.7488C21.6257 69.0599 20.1323 69.2199 18.7366 69.2199Z" fill="#2E2E30"/>
</g>
<g id="Path-9_1_">
<path id="Vector_61" d="M38.125 50.4888C37.9828 50.4888 37.8405 50.4176 37.7605 50.2932C37.6183 50.0887 37.6716 49.8131 37.8761 49.6709C40.463 47.893 43.1299 46.9951 45.8146 46.9951C46.0635 46.9951 46.259 47.1907 46.259 47.4396C46.259 47.6885 46.0635 47.8841 45.8146 47.8841C43.3077 47.8841 40.8097 48.7375 38.3739 50.4087C38.3028 50.4621 38.2139 50.4888 38.125 50.4888Z" fill="#2E2E30"/>
</g>
<g id="Path-22">
<path id="Vector_62" d="M35.405 52.001C35.3428 52.001 35.2716 51.9832 35.2094 51.9565C34.9872 51.8498 34.8983 51.5832 35.005 51.3609C35.9384 49.4407 36.7562 48.4273 37.583 48.1606C38.3475 47.9117 39.4409 47.9028 40.9255 48.1429C41.1655 48.1784 41.3344 48.4095 41.2899 48.6496C41.2544 48.8896 41.0233 49.0585 40.7832 49.014C39.4587 48.8007 38.4719 48.8007 37.8585 48.9963C37.5385 49.1029 36.854 49.5919 35.805 51.7432C35.725 51.9121 35.565 52.001 35.405 52.001Z" fill="#2E2E30"/>
</g>
<g id="Path-9-Copy">
<path id="Vector_63" d="M39.7783 52.0003C39.6361 52.0003 39.4939 51.9292 39.4138 51.8047C39.2716 51.6002 39.325 51.3247 39.5294 51.1824C41.8407 49.5912 44.2409 48.7822 46.65 48.7822C46.8989 48.7822 47.0945 48.9778 47.0945 49.2267C47.0945 49.4756 46.8989 49.6712 46.65 49.6712C44.4276 49.6712 42.1963 50.4268 40.0361 51.9203C39.9561 51.9736 39.8672 52.0003 39.7783 52.0003Z" fill="#2E2E30"/>
</g>
<g id="Path-9-Copy-2">
<path id="Vector_64" d="M40.8545 53.9021C40.7123 53.9021 40.57 53.831 40.49 53.7066C40.3478 53.5021 40.4011 53.2265 40.6056 53.0843C42.9169 51.493 45.3171 50.6841 47.7262 50.6841C47.9751 50.6841 48.1707 50.8797 48.1707 51.1286C48.1707 51.3775 47.9751 51.573 47.7262 51.573C45.5038 51.573 43.2725 52.3287 41.1123 53.8221C41.0323 53.8755 40.9434 53.9021 40.8545 53.9021Z" fill="#2E2E30"/>
</g>
<g id="Path-9-Copy-3">
<path id="Vector_65" d="M39.5293 57.2981C39.3871 57.2981 39.2448 57.227 39.1648 57.1026C39.0226 56.8981 39.0759 56.6225 39.2804 56.4803C41.6006 54.889 43.9919 54.0801 46.401 54.0801C46.6499 54.0801 46.8455 54.2757 46.8455 54.5246C46.8455 54.7735 46.6499 54.969 46.401 54.969C44.1786 54.969 41.9473 55.7247 39.7871 57.2181C39.7071 57.2715 39.6182 57.2981 39.5293 57.2981Z" fill="#2E2E30"/>
</g>
</g>
<g id="Oval_3_">
<path id="Vector_66" d="M25.0735 30.9719C26.8508 30.9719 28.2916 29.2485 28.2916 27.1227C28.2916 24.9968 26.8508 23.2734 25.0735 23.2734C23.2962 23.2734 21.8555 24.9968 21.8555 27.1227C21.8555 29.2485 23.2962 30.9719 25.0735 30.9719Z" fill="#2E2E30"/>
</g>
<g id="Oval-Copy_1_">
<path id="Vector_67" d="M24.7708 29.9583C26.0718 29.9583 27.1266 28.6966 27.1266 27.1403C27.1266 25.5839 26.0718 24.3223 24.7708 24.3223C23.4697 24.3223 22.415 25.5839 22.415 27.1403C22.415 28.6966 23.4697 29.9583 24.7708 29.9583Z" fill="white"/>
<path id="Vector_68" d="M24.7704 30.1801C23.348 30.1801 22.1924 28.8111 22.1924 27.1399C22.1924 25.4686 23.348 24.0996 24.7704 24.0996C26.1927 24.0996 27.3484 25.4686 27.3484 27.1399C27.3484 28.8111 26.1927 30.1801 24.7704 30.1801ZM24.7704 24.5441C23.5969 24.5441 22.6369 25.7086 22.6369 27.1399C22.6369 28.5711 23.5969 29.7357 24.7704 29.7357C25.9438 29.7357 26.9039 28.5711 26.9039 27.1399C26.9039 25.7086 25.9527 24.5441 24.7704 24.5441Z" fill="#2E2E30"/>
</g>
<g id="Path-14_1_">
<path id="Vector_69" d="M32.8248 34.0844C32.0692 34.0844 31.2336 33.9688 30.3268 33.7377C30.0868 33.6755 29.9446 33.4354 30.0068 33.1954C30.069 32.9554 30.309 32.8132 30.5491 32.8754C32.5937 33.3999 34.1849 33.2843 35.2873 32.5287C36.3718 31.782 37.0474 30.3507 37.2785 28.2883C37.3052 28.0483 37.5274 27.8705 37.7675 27.8972C38.0075 27.9239 38.1853 28.1461 38.1586 28.3861C37.8919 30.7152 37.1007 32.3509 35.7851 33.2576C34.9939 33.8088 33.9982 34.0844 32.8248 34.0844Z" fill="#2E2E30"/>
</g>
<g id="Path-7_1_">
<path id="Vector_70" fill-rule="evenodd" clip-rule="evenodd" d="M17.5878 41.4341C8.7693 43.5676 5.20455 49.7548 6.89358 59.9868L19.3302 56.262L17.5878 41.4341Z" fill="#BBEB6E"/>
</g>
<g id="Star">
<path id="Vector_71" fill-rule="evenodd" clip-rule="evenodd" d="M30.3717 28.0822L29.8116 28.3845C29.5361 28.5356 29.1894 28.4378 29.0294 28.1622C28.9671 28.0467 28.9405 27.9044 28.9671 27.78L29.0827 27.1577C29.1538 26.8021 29.0294 26.4287 28.7627 26.1798L28.3004 25.7442C28.0693 25.5309 28.0604 25.1664 28.2737 24.9353C28.3626 24.8375 28.4871 24.7753 28.6204 24.7575L29.2516 24.6775C29.6161 24.633 29.9272 24.4019 30.0872 24.073L30.3539 23.4952C30.4873 23.2107 30.834 23.0862 31.1184 23.2196C31.2429 23.2729 31.3407 23.3707 31.394 23.4952L31.6607 24.073C31.8118 24.4019 32.1318 24.633 32.4963 24.6775L33.1275 24.7575C33.4386 24.793 33.6609 25.0864 33.6253 25.3975C33.6075 25.5309 33.5453 25.6553 33.4475 25.7442L32.9853 26.1798C32.7186 26.4287 32.5941 26.8021 32.6652 27.1577L32.7808 27.78C32.843 28.0911 32.6386 28.3934 32.3274 28.4556C32.1941 28.4823 32.0607 28.4556 31.9452 28.3934L31.3851 28.0911C31.0829 27.9044 30.6917 27.9044 30.3717 28.0822Z" fill="white"/>
<path id="Vector_72" d="M29.5447 28.8997C29.4469 28.8997 29.358 28.882 29.2602 28.8553C29.0024 28.7842 28.7802 28.6064 28.6557 28.3664C28.5402 28.1619 28.5046 27.913 28.549 27.6819L28.6646 27.0596C28.7091 26.8462 28.6379 26.6329 28.4779 26.4906L28.0157 26.055C27.6067 25.6728 27.589 25.0238 27.9712 24.6149C28.1312 24.446 28.3535 24.3305 28.5846 24.3038L29.2158 24.2238C29.4291 24.1971 29.6069 24.0638 29.7047 23.8682L29.9714 23.2904C30.2114 22.7837 30.8159 22.5614 31.3226 22.8014C31.536 22.8992 31.7138 23.077 31.8115 23.2904L32.0782 23.8682C32.1671 24.0638 32.3538 24.1971 32.5672 24.2238L33.1983 24.3038C33.7584 24.3749 34.1495 24.8816 34.0784 25.4417C34.0517 25.6817 33.9362 25.895 33.7673 26.055L33.305 26.4906C33.145 26.6418 33.0828 26.8551 33.1183 27.0596L33.2339 27.6819C33.2872 27.9485 33.2339 28.2241 33.0739 28.4464C32.9228 28.6686 32.6916 28.8197 32.4249 28.8731C32.1938 28.9175 31.9449 28.882 31.7404 28.7664L31.1804 28.4641C30.9937 28.3575 30.7715 28.3575 30.5759 28.4641L30.0158 28.7664C29.8736 28.8553 29.7136 28.8997 29.5447 28.8997ZM30.887 23.6015C30.8426 23.6015 30.7892 23.6282 30.7715 23.6726L30.5048 24.2504C30.2825 24.7216 29.838 25.0416 29.3224 25.1127L28.6913 25.1927C28.6646 25.1927 28.6379 25.2105 28.6113 25.2283C28.5668 25.2816 28.5668 25.3617 28.6202 25.415L29.0824 25.8506C29.4647 26.2062 29.6336 26.7307 29.5358 27.2374L29.4202 27.8596C29.4113 27.8863 29.4202 27.9219 29.438 27.9485C29.4558 27.9841 29.4913 28.0019 29.518 28.0108C29.5447 28.0197 29.5802 28.0197 29.6158 28.0019L30.1759 27.6996C30.6292 27.4507 31.1804 27.4507 31.6338 27.6996L32.1938 28.0019C32.2205 28.0197 32.2471 28.0197 32.2827 28.0197C32.3538 28.0019 32.3983 27.9397 32.3894 27.8685L32.2738 27.2463C32.176 26.7307 32.3449 26.2151 32.7272 25.8595L33.1894 25.4239C33.2072 25.4061 33.225 25.3794 33.225 25.3439C33.2339 25.2994 33.2161 25.2639 33.1983 25.2461C33.1806 25.2283 33.1539 25.2016 33.1094 25.2016L32.4783 25.1216C31.9627 25.0594 31.5182 24.7394 31.2959 24.2593L31.0293 23.6815C31.0204 23.6548 30.9937 23.6282 30.967 23.6193C30.9226 23.6104 30.9048 23.6015 30.887 23.6015Z" fill="#2E2E30"/>
</g>
</g>
<g id="Group-10_1_">
<g id="Path-27_1_">
<path id="Vector_73" fill-rule="evenodd" clip-rule="evenodd" d="M2.04004 68.771V87.546C2.04004 92.453 6.02261 96.4356 10.9297 96.4356H27.5267C30.4158 96.4356 32.7716 94.1421 32.8605 91.2618C33.1805 80.4342 30.7981 73.6336 25.7132 70.869C19.8727 67.6865 11.9787 66.9931 2.04004 68.771Z" fill="#FFF99A"/>
<path id="Vector_74" d="M27.5268 96.8802H10.9298C5.78273 96.8802 1.5957 92.6932 1.5957 87.546V68.3977L1.96018 68.3355C6.94728 67.4376 11.481 67.162 15.4547 67.5176C19.4461 67.8732 22.9665 68.8689 25.9267 70.4779C28.558 71.9091 30.5049 74.3982 31.7317 77.8919C32.9318 81.3233 33.4651 85.8303 33.3051 91.2708C33.2607 92.7821 32.6384 94.1955 31.5539 95.2445C30.4693 96.3024 29.0381 96.8802 27.5268 96.8802ZM2.48467 69.1444V87.546C2.48467 92.2042 6.27167 95.9912 10.9298 95.9912H27.5268C30.1937 95.9912 32.3362 93.9021 32.4162 91.2441C32.5762 85.9103 32.0606 81.51 30.896 78.1852C29.7493 74.9138 27.9358 72.5759 25.5089 71.2602C19.8462 68.1844 12.1033 67.4732 2.48467 69.1444Z" fill="#BBEB6E"/>
</g>
<g id="Path-27-Copy_1_">
<path id="Vector_75" fill-rule="evenodd" clip-rule="evenodd" d="M2.04004 68.771V87.2437C2.04004 92.1508 6.02261 96.1334 10.9297 96.1334C11.0275 96.1334 11.1253 96.1334 11.2319 96.1245L20.8328 95.8045C21.0461 80.6565 20.2194 72.3446 18.3526 70.869C14.3256 67.6865 8.88508 66.9931 2.04004 68.771Z" fill="#FFF99A"/>
<path id="Vector_76" d="M10.9298 96.577C5.78273 96.577 1.5957 92.39 1.5957 87.2429V68.4235L1.92462 68.3346C8.88523 66.53 14.5035 67.2589 18.6283 70.5125C19.6862 71.3482 20.3796 73.775 20.8152 78.1576C21.2241 82.3091 21.3841 88.2474 21.2774 95.8036L21.2685 96.2303L11.241 96.5681C11.1432 96.5681 11.0365 96.577 10.9298 96.577ZM2.48467 69.1168V87.2429C2.48467 91.901 6.27167 95.688 10.9298 95.688C11.0276 95.688 11.1165 95.688 11.2143 95.6792L20.3973 95.368C20.4951 88.0429 20.3351 82.2913 19.9351 78.2465C19.4373 73.2505 18.655 71.6593 18.0771 71.2148C14.2457 68.1923 9.00079 67.49 2.48467 69.1168Z" fill="#BBEB6E"/>
</g>
</g>
</g>
<g id="Group-Copy_1_">
<g id="Group-27">
<g id="Path-75">
<path id="Vector_77" fill-rule="evenodd" clip-rule="evenodd" d="M19.9268 114.082C19.9268 114.082 20.3979 102.854 32.6212 103.876C32.7456 110.873 29.0475 114.882 21.5447 115.895L19.9268 114.082Z" fill="#FFF99A"/>
<path id="Vector_78" d="M21.5354 116.331C21.3131 116.331 21.1264 116.171 21.0998 115.949C21.0642 115.709 21.2331 115.477 21.482 115.451C28.6471 114.482 32.1496 110.828 32.1763 104.285C28.7004 104.072 25.9091 104.872 23.8645 106.668C20.6019 109.539 20.3619 114.055 20.3619 114.1C20.353 114.348 20.1397 114.535 19.8997 114.526C19.6508 114.517 19.4641 114.313 19.473 114.064C19.4819 113.868 19.7219 109.139 23.2688 106.01C25.5802 103.974 28.736 103.103 32.6474 103.432C32.8786 103.45 33.0475 103.636 33.0564 103.868C33.1808 111.095 29.3227 115.291 21.5976 116.34C21.5798 116.331 21.562 116.331 21.5354 116.331Z" fill="#BBEB6E"/>
</g>
<g id="Path-75-Copy">
<path id="Vector_79" fill-rule="evenodd" clip-rule="evenodd" d="M16.3966 107.797C16.3966 107.797 6.20905 94.5784 21.0903 84.0708C27.9087 91.9115 27.5354 99.9922 19.9614 108.313L16.3966 107.797Z" fill="#FFF99A"/>
<path id="Vector_80" d="M19.9614 108.757C19.8547 108.757 19.748 108.722 19.6591 108.642C19.4813 108.473 19.4635 108.197 19.6324 108.011C26.9931 99.9122 27.4465 92.276 21.0192 84.6665C16.7166 87.7956 14.2186 91.4671 13.5964 95.5652C12.6185 102.046 16.7077 107.468 16.7522 107.522C16.9033 107.717 16.8678 107.993 16.6722 108.144C16.4766 108.295 16.201 108.26 16.0499 108.064C16.0055 108.002 14.9387 106.606 13.9875 104.357C13.1074 102.268 12.174 99.0322 12.7163 95.4407C13.3919 90.9781 16.121 87.0311 20.8414 83.6975C21.0281 83.5642 21.2859 83.5997 21.437 83.7686C28.3977 91.7693 28.0154 100.126 20.3081 108.606C20.2014 108.713 20.0769 108.757 19.9614 108.757Z" fill="#BBEB6E"/>
</g>
<g id="Path-75-Copy-2">
<path id="Vector_81" fill-rule="evenodd" clip-rule="evenodd" d="M8.08481 108.036C8.08481 108.036 -4.70742 112.099 -8.55664 97.964C-0.760407 94.9682 5.249 97.475 9.45381 105.485L8.08481 108.036Z" fill="#FFF99A"/>
<path id="Vector_82" d="M4.04015 109.032C2.16443 109.032 -0.111327 108.694 -2.29818 107.503C-5.50735 105.752 -7.75644 102.587 -8.98321 98.0801C-9.04544 97.8579 -8.92987 97.6268 -8.71652 97.5468C-0.706934 94.4709 5.5425 97.0756 9.85398 105.272C9.96955 105.485 9.88065 105.761 9.6673 105.876C9.45395 105.992 9.17837 105.903 9.06281 105.69C5.00912 97.9735 -0.582479 95.5288 -8.02313 98.2402C-6.8408 102.294 -4.7784 105.147 -1.88926 106.721C2.71559 109.228 7.88937 107.628 7.94271 107.619C8.17384 107.548 8.42275 107.672 8.50276 107.912C8.57387 108.143 8.44942 108.392 8.2094 108.472C8.09383 108.499 6.37813 109.032 4.04015 109.032Z" fill="#BBEB6E"/>
</g>
<g id="Group-26">
<g id="Path-71">
<path id="Vector_83" fill-rule="evenodd" clip-rule="evenodd" d="M10.3438 125.225L12.1039 139.555H23.0915L24.8161 125.225H10.3438Z" fill="#FFF99A"/>
<path id="Vector_84" d="M23.0917 139.999H12.104C11.8818 139.999 11.6862 139.83 11.6596 139.608L9.8994 125.278C9.88162 125.154 9.92607 125.029 10.0061 124.931C10.095 124.834 10.2194 124.78 10.3439 124.78H24.8163C24.9407 124.78 25.0652 124.834 25.1452 124.931C25.2252 125.029 25.2696 125.154 25.2518 125.278L23.5273 139.608C23.5006 139.83 23.3139 139.999 23.0917 139.999ZM12.4952 139.11H22.6916L24.3095 125.669H10.8506L12.4952 139.11Z" fill="#BBEB6E"/>
</g>
<g id="Path-71-Copy">
<path id="Vector_85" fill-rule="evenodd" clip-rule="evenodd" d="M10.3438 125.224L10.9749 130.371L24.4339 128.371L24.8161 125.224H10.3438Z" fill="#BBEB6E"/>
</g>
</g>
<g id="Path-72">
<path id="Vector_86" d="M17.695 123.602C17.6772 123.602 17.6595 123.602 17.6417 123.602C17.4017 123.576 17.2239 123.344 17.2594 123.104C17.6861 119.735 18.8773 116.633 20.7886 113.886C22.691 111.148 25.3668 108.703 28.7449 106.596C28.9493 106.463 29.2249 106.534 29.3582 106.738C29.4916 106.943 29.4205 107.219 29.216 107.352C22.6821 111.423 18.9573 116.757 18.1306 123.22C18.1039 123.442 17.9173 123.602 17.695 123.602Z" fill="#BBEB6E"/>
</g>
<g id="Path-73">
<path id="Vector_87" d="M17.1078 123.603C16.8678 123.603 16.6633 123.407 16.6633 123.167C16.53 112.188 17.8723 102.294 20.6548 93.7424C20.7348 93.5112 20.9837 93.3779 21.2148 93.4579C21.446 93.5379 21.5793 93.7868 21.4993 94.0179C18.7435 102.472 17.4101 112.277 17.5434 123.158C17.5523 123.398 17.3567 123.603 17.1078 123.603Z" fill="#BBEB6E"/>
</g>
<g id="Path-74">
<path id="Vector_88" d="M16.29 123.604C16.2812 123.604 16.2812 123.604 16.2723 123.604C16.0234 123.595 15.8367 123.391 15.8456 123.142C16.2189 113.31 10.8407 106.5 -0.129159 102.882C-0.36029 102.802 -0.484745 102.553 -0.413628 102.322C-0.34251 102.091 -0.0847105 101.966 0.146421 102.038C5.81802 103.904 10.094 106.634 12.8497 110.136C15.6144 113.656 16.9212 118.039 16.7256 123.177C16.7256 123.417 16.5301 123.604 16.29 123.604Z" fill="#BBEB6E"/>
</g>
</g>
<g id="Rectangle_4_">
<path id="Vector_89" fill-rule="evenodd" clip-rule="evenodd" d="M8.61914 122.039H26.7541L25.6428 126.306H9.73035L8.61914 122.039Z" fill="#FFF99A"/>
<path id="Vector_90" d="M25.6424 126.75H9.72991C9.52545 126.75 9.34765 126.616 9.3032 126.421L8.192 122.154C8.15644 122.02 8.18311 121.878 8.272 121.771C8.35201 121.665 8.48536 121.603 8.62759 121.603H26.7625C26.8958 121.603 27.0292 121.665 27.1181 121.771C27.1981 121.878 27.2337 122.02 27.1981 122.154L26.0869 126.421C26.0158 126.616 25.8469 126.75 25.6424 126.75ZM10.0766 125.861H25.2957L26.1758 122.483H9.19653L10.0766 125.861Z" fill="#BBEB6E"/>
</g>
</g>
<g id="Path-198-Copy-3">
<path id="Vector_91" fill-rule="evenodd" clip-rule="evenodd" d="M14.4415 0.444824C13.8903 2.48945 12.6191 4.14292 10.6367 5.41414C12.4769 6.42756 13.8459 8.26773 14.726 10.9346C15.6238 7.70768 16.8595 5.86752 18.4507 5.41414C17.7751 4.98744 17.0373 4.35628 16.255 3.51176C15.4549 2.65835 14.8504 1.64493 14.4415 0.444824Z" fill="white"/>
<path id="Vector_92" d="M14.7169 11.3792C14.5213 11.3792 14.3524 11.2548 14.2991 11.077C13.4546 8.52563 12.1567 6.75659 10.4232 5.8054C10.2899 5.73428 10.201 5.58315 10.1921 5.43203C10.1832 5.2809 10.2632 5.12978 10.3965 5.04089C12.2811 3.84078 13.4901 2.24953 14.0146 0.329366C14.068 0.142683 14.2369 0.00933683 14.4324 0.000447164C14.628 -0.0084425 14.8058 0.11601 14.868 0.302692C15.2592 1.44057 15.837 2.41843 16.5749 3.20961C17.3305 4.01857 18.0417 4.64085 18.6817 5.04089C18.8328 5.12978 18.9128 5.30757 18.8862 5.47648C18.8595 5.65427 18.735 5.79651 18.5661 5.84096C17.1438 6.24988 15.997 8.00114 15.1525 11.0503C15.0992 11.237 14.9303 11.3703 14.7347 11.3792C14.7258 11.3792 14.7258 11.3792 14.7169 11.3792ZM11.4544 5.38758C12.8056 6.3121 13.8902 7.70778 14.6814 9.55683C15.4281 7.38776 16.3793 5.98319 17.5438 5.30758C17.0282 4.90754 16.486 4.40083 15.9259 3.79633C15.3481 3.18295 14.868 2.47177 14.4858 1.68059C13.8546 3.13849 12.8412 4.37416 11.4544 5.38758Z" fill="#2E2E30"/>
</g>
<g id="Path-198-Copy-4">
<path id="Vector_93" fill-rule="evenodd" clip-rule="evenodd" d="M61.4053 11.7363C61.0141 13.1765 60.1252 14.341 58.7295 15.23C60.0274 15.9411 60.9875 17.2301 61.6009 19.1147C62.232 16.8479 63.1032 15.55 64.2233 15.23C63.7433 14.9277 63.2277 14.4832 62.6765 13.8876C62.1165 13.292 61.6986 12.5808 61.4053 11.7363Z" fill="white"/>
<path id="Vector_94" d="M61.6007 19.5593C61.4051 19.5593 61.2362 19.4349 61.1829 19.2571C60.6051 17.4969 59.7072 16.2791 58.516 15.6212C58.3826 15.5501 58.2937 15.399 58.2849 15.2479C58.276 15.0967 58.356 14.9456 58.4893 14.8567C59.805 14.0211 60.6139 12.9543 60.9784 11.6209C61.0318 11.4342 61.2007 11.3008 61.3962 11.292C61.5918 11.2831 61.7696 11.4075 61.8318 11.5942C62.0985 12.3765 62.4985 13.0432 63.0053 13.5944C63.5297 14.1544 64.0187 14.5811 64.4632 14.8656C64.6143 14.9545 64.6943 15.1323 64.6676 15.3012C64.641 15.479 64.5165 15.6212 64.3476 15.6657C63.3964 15.9412 62.6141 17.1413 62.0363 19.2393C61.983 19.426 61.814 19.5593 61.6185 19.5682C61.6096 19.5593 61.6096 19.5593 61.6007 19.5593ZM59.5294 15.2123C60.3561 15.8168 61.0406 16.688 61.5651 17.7992C62.0541 16.5102 62.6408 15.6301 63.3608 15.1501C63.0408 14.8834 62.703 14.5633 62.3563 14.19C62.0007 13.8166 61.6985 13.3899 61.4407 12.9099C61.014 13.7988 60.3739 14.5633 59.5294 15.2123Z" fill="#2E2E30"/>
</g>
</g>
</svg>
