<svg width="32" height="32" viewBox="0 0 32 32" fill="none" xmlns="http://www.w3.org/2000/svg">
<g id="qr_code">
<path id="Combined Shape" fill-rule="evenodd" clip-rule="evenodd" d="M22.6667 6.66667V9.33333H25.3333V6.66667H22.6667ZM14.6667 25.3333H17.3333V28H14.6667V25.3333ZM25.3333 14.6667H28V17.3333H25.3333V14.6667ZM14.6667 20H17.3333V22.6667H14.6667V20ZM20 14.6667H22.6667V17.3333H20V14.6667ZM5.33333 4H16C16.7364 4 17.3333 4.59695 17.3333 5.33333V16C17.3333 16.7364 16.7364 17.3333 16 17.3333H5.33333C4.59695 17.3333 4 16.7364 4 16V5.33333C4 4.59695 4.59695 4 5.33333 4ZM6.66667 6.66667V14.6667H14.6667V6.66667H6.66667ZM9.33333 9.33333H12V12H9.33333V9.33333ZM21.3333 4H26.6667C27.403 4 28 4.59695 28 5.33333V10.6667C28 11.403 27.403 12 26.6667 12H21.3333C20.597 12 20 11.403 20 10.6667V5.33333C20 4.59695 20.597 4 21.3333 4ZM21.3333 20H26.6667C27.403 20 28 20.597 28 21.3333V26.6667C28 27.403 27.403 28 26.6667 28H21.3333C20.597 28 20 27.403 20 26.6667V21.3333C20 20.597 20.597 20 21.3333 20ZM22.6667 22.6667V25.3333H25.3333V22.6667H22.6667ZM5.33333 20H10.6667C11.403 20 12 20.597 12 21.3333V26.6667C12 27.403 11.403 28 10.6667 28H5.33333C4.59695 28 4 27.403 4 26.6667V21.3333C4 20.597 4.59695 20 5.33333 20ZM6.66667 22.6667V25.3333H9.33333V22.6667H6.66667Z" fill="#AFF164" stroke="#4321F5" stroke-width="1.5"/>
</g>
</svg>
