<svg width="71" height="75" viewBox="0 0 71 75" fill="none" xmlns="http://www.w3.org/2000/svg">
<g id="Group 105">
<g id="Path-198-Copy">
<path id="Vector" fill-rule="evenodd" clip-rule="evenodd" d="M6.55051 26.0894C5.93051 28.3894 4.50051 30.2494 2.27051 31.6794C4.34051 32.8194 5.88051 34.8894 6.87051 37.8894C7.88051 34.2594 9.27051 32.1894 11.0605 31.6794C10.3005 31.1994 9.47052 30.4894 8.59052 29.5394C7.71052 28.5894 7.01051 27.4394 6.55051 26.0894Z" fill="white"/>
<path id="Vector_2" d="M6.86029 38.3894C6.64029 38.3894 6.45029 38.2494 6.39029 38.0494C5.44029 35.1794 3.9803 33.1894 2.0303 32.1194C1.8803 32.0394 1.78029 31.8694 1.77029 31.6994C1.76029 31.5294 1.85029 31.3594 2.00029 31.2594C4.12029 29.9094 5.48029 28.1194 6.07029 25.9594C6.13029 25.7494 6.32029 25.5994 6.54029 25.5894C6.76029 25.5794 6.9603 25.7194 7.0303 25.9294C7.4703 27.2094 8.12029 28.3094 8.95029 29.1994C9.80029 30.1094 10.6003 30.8094 11.3203 31.2594C11.4903 31.3594 11.5803 31.5594 11.5503 31.7494C11.5203 31.9494 11.3803 32.1094 11.1903 32.1594C9.59029 32.6194 8.30029 34.5894 7.35029 38.0194C7.29029 38.2294 7.1003 38.3794 6.8803 38.3894C6.8703 38.3894 6.87029 38.3894 6.86029 38.3894ZM3.19029 31.6494C4.71029 32.6894 5.93029 34.2594 6.82029 36.3394C7.66029 33.8994 8.73029 32.3194 10.0403 31.5594C9.46029 31.1094 8.85029 30.5394 8.22029 29.8594C7.57029 29.1694 7.03029 28.3694 6.60029 27.4794C5.89029 29.1194 4.75029 30.5094 3.19029 31.6494Z" fill="#2E2E30"/>
</g>
<g id="Path-198-Copy-2">
<path id="Vector_3" fill-rule="evenodd" clip-rule="evenodd" d="M60.9205 17.0894C60.1405 19.9894 58.3405 22.3394 55.5205 24.1494C58.1405 25.5794 60.0705 28.1993 61.3205 31.9893C62.5905 27.4093 64.3605 24.7994 66.6105 24.1494C65.6505 23.5394 64.6105 22.6393 63.4905 21.4393C62.3605 20.2393 61.5105 18.7894 60.9205 17.0894Z" fill="white"/>
<path id="Vector_4" d="M61.3203 32.4894C61.1003 32.4894 60.9103 32.3494 60.8503 32.1494C59.6503 28.4994 57.7703 25.9494 55.2803 24.5894C55.1303 24.5094 55.0303 24.3394 55.0203 24.1694C55.0103 23.9894 55.1003 23.8294 55.2503 23.7294C57.9503 21.9994 59.7003 19.7294 60.4403 16.9594C60.5003 16.7494 60.6903 16.5994 60.9103 16.5894C61.1303 16.5794 61.3303 16.7194 61.4003 16.9294C61.9603 18.5594 62.7903 19.9594 63.8603 21.0994C64.9503 22.2594 65.9603 23.1394 66.8803 23.7194C67.0503 23.8194 67.1403 24.0194 67.1103 24.2094C67.0803 24.4094 66.9403 24.5694 66.7503 24.6194C64.6903 25.2094 63.0203 27.7394 61.8003 32.1094C61.7403 32.3194 61.5503 32.4694 61.3303 32.4794C61.3203 32.4894 61.3203 32.4894 61.3203 32.4894ZM56.4403 24.1194C58.4903 25.4594 60.1103 27.5694 61.2703 30.4094C62.3803 27.0594 63.7903 24.9594 65.5603 24.0294C64.7903 23.4494 63.9703 22.6894 63.1103 21.7794C62.2403 20.8494 61.5203 19.7594 60.9503 18.5394C60.0903 20.7394 58.5703 22.6094 56.4403 24.1194Z" fill="#2E2E30"/>
</g>
<g id="Group-48">
<g id="Rectangle-Copy-17">
<path id="Vector_5" d="M47.1596 42.0703H24.8496V54.5703H47.1596V42.0703Z" fill="white"/>
<path id="Vector_6" d="M47.6496 55.0703H24.3496V41.5703H47.6596V55.0703H47.6496ZM25.3496 54.0703H46.6596V42.5703H25.3496V54.0703Z" fill="#2E2E30"/>
</g>
<g id="Rectangle-Copy-28">
<path id="Vector_7" d="M47.1596 42.0703H24.8496V49.6703H47.1596V42.0703Z" fill="#2E2E30"/>
</g>
<g id="Rectangle-Copy-18">
<path id="Vector_8" d="M40.0496 42.0703H24.8496V54.5703H40.0496V42.0703Z" fill="white"/>
<path id="Vector_9" d="M40.5496 55.0703H24.3496V41.5703H40.5496V55.0703ZM25.3496 54.0703H39.5496V42.5703H25.3496V54.0703Z" fill="#2E2E30"/>
</g>
<g id="Rectangle-Copy-27">
<path id="Vector_10" d="M40.0496 42.0703H24.8496V49.7703H40.0496V42.0703Z" fill="#2E2E30"/>
</g>
<g id="Group-47">
<g id="Rectangle-Copy-20">
<path id="Vector_11" fill-rule="evenodd" clip-rule="evenodd" d="M10.25 54.5703H42.85C48.23 54.5703 52.6 58.9403 52.6 64.3203C52.6 69.7003 48.23 74.0703 42.85 74.0703H10.25C4.87 74.0703 0.5 69.7003 0.5 64.3203C0.5 58.9403 4.87 54.5703 10.25 54.5703Z" fill="white"/>
<path id="Vector_12" d="M42.85 74.5703H10.25C4.6 74.5703 0 69.9703 0 64.3203C0 58.6703 4.6 54.0703 10.25 54.0703H42.85C48.5 54.0703 53.1 58.6703 53.1 64.3203C53.1 69.9703 48.5 74.5703 42.85 74.5703ZM10.25 55.0703C5.15 55.0703 1 59.2203 1 64.3203C1 69.4203 5.15 73.5703 10.25 73.5703H42.85C47.95 73.5703 52.1 69.4203 52.1 64.3203C52.1 59.2203 47.95 55.0703 42.85 55.0703H10.25Z" fill="#2E2E30"/>
</g>
<g id="Rectangle-Copy-21">
<path id="Vector_13" fill-rule="evenodd" clip-rule="evenodd" d="M10.7 59.6196H39.8C42.4 59.6196 44.5 61.7196 44.5 64.3196C44.5 66.9196 42.4 69.0196 39.8 69.0196H10.7C8.1 69.0196 6 66.9196 6 64.3196C6 61.7296 8.1 59.6196 10.7 59.6196Z" fill="#2E2E30"/>
<path id="Vector_14" d="M39.8 69.5196H10.7C7.83 69.5196 5.5 67.1896 5.5 64.3196C5.5 61.4496 7.83 59.1196 10.7 59.1196H39.8C42.67 59.1196 45 61.4496 45 64.3196C45 67.1896 42.67 69.5196 39.8 69.5196ZM10.7 60.1196C8.38 60.1196 6.5 61.9996 6.5 64.3196C6.5 66.6396 8.38 68.5196 10.7 68.5196H39.8C42.12 68.5196 44 66.6396 44 64.3196C44 61.9996 42.12 60.1196 39.8 60.1196H10.7Z" fill="#2E2E30"/>
</g>
<g id="Rectangle-Copy-19">
<path id="Vector_15" fill-rule="evenodd" clip-rule="evenodd" d="M27.75 54.5703H60.35C65.73 54.5703 70.1 58.9403 70.1 64.3203C70.1 69.7003 65.73 74.0703 60.35 74.0703H27.75C22.37 74.0703 18 69.7003 18 64.3203C18 58.9403 22.37 54.5703 27.75 54.5703Z" fill="white"/>
<path id="Vector_16" d="M60.35 74.5703H27.75C22.1 74.5703 17.5 69.9703 17.5 64.3203C17.5 58.6703 22.1 54.0703 27.75 54.0703H60.35C66 54.0703 70.6 58.6703 70.6 64.3203C70.6 69.9703 66 74.5703 60.35 74.5703ZM27.75 55.0703C22.65 55.0703 18.5 59.2203 18.5 64.3203C18.5 69.4203 22.65 73.5703 27.75 73.5703H60.35C65.45 73.5703 69.6 69.4203 69.6 64.3203C69.6 59.2203 65.45 55.0703 60.35 55.0703H27.75Z" fill="#2E2E30"/>
</g>
<g id="Rectangle-Copy-22">
<path id="Vector_17" fill-rule="evenodd" clip-rule="evenodd" d="M28.7996 59.6196H59.3996C61.9996 59.6196 64.0996 61.7196 64.0996 64.3196C64.0996 66.9196 61.9996 69.0196 59.3996 69.0196H28.7996C26.1996 69.0196 24.0996 66.9196 24.0996 64.3196C24.0996 61.7296 26.1996 59.6196 28.7996 59.6196Z" fill="#BBEB6E"/>
<path id="Vector_18" d="M59.3996 69.5196H28.7996C25.9296 69.5196 23.5996 67.1896 23.5996 64.3196C23.5996 61.4496 25.9296 59.1196 28.7996 59.1196H59.3996C62.2696 59.1196 64.5996 61.4496 64.5996 64.3196C64.5996 67.1896 62.2696 69.5196 59.3996 69.5196ZM28.7996 60.1196C26.4796 60.1196 24.5996 61.9996 24.5996 64.3196C24.5996 66.6396 26.4796 68.5196 28.7996 68.5196H59.3996C61.7196 68.5196 63.5996 66.6396 63.5996 64.3196C63.5996 61.9996 61.7196 60.1196 59.3996 60.1196H28.7996Z" fill="#2E2E30"/>
</g>
<g id="Path-216">
<path id="Vector_19" d="M38.9602 64.8203H33.9902C33.7102 64.8203 33.4902 64.6003 33.4902 64.3203C33.4902 64.0403 33.7102 63.8203 33.9902 63.8203H38.9602C39.2402 63.8203 39.4602 64.0403 39.4602 64.3203C39.4602 64.6003 39.2402 64.8203 38.9602 64.8203Z" fill="#2E2E30"/>
</g>
<g id="Path-216-Copy">
<path id="Vector_20" d="M53.9602 64.8203H48.9902C48.7102 64.8203 48.4902 64.6003 48.4902 64.3203C48.4902 64.0403 48.7102 63.8203 48.9902 63.8203H53.9602C54.2402 63.8203 54.4602 64.0403 54.4602 64.3203C54.4602 64.6003 54.2402 64.8203 53.9602 64.8203Z" fill="#2E2E30"/>
</g>
<g id="Rectangle-Copy-24">
<path id="Vector_21" fill-rule="evenodd" clip-rule="evenodd" d="M28.9498 61.1699C30.6898 61.1699 32.0998 62.5799 32.0998 64.3199C32.0998 66.0599 30.6898 67.4699 28.9498 67.4699C27.2098 67.4699 25.7998 66.0599 25.7998 64.3199C25.7998 62.5899 27.2098 61.1699 28.9498 61.1699Z" fill="white"/>
<path id="Vector_22" d="M28.9498 67.9699C26.9398 67.9699 25.2998 66.3299 25.2998 64.3199C25.2998 62.3099 26.9398 60.6699 28.9498 60.6699C30.9598 60.6699 32.5998 62.3099 32.5998 64.3199C32.5998 66.3299 30.9598 67.9699 28.9498 67.9699ZM28.9498 61.6699C27.4898 61.6699 26.2998 62.8599 26.2998 64.3199C26.2998 65.7799 27.4898 66.9699 28.9498 66.9699C30.4098 66.9699 31.5998 65.7899 31.5998 64.3199C31.5998 62.8499 30.4098 61.6699 28.9498 61.6699Z" fill="#2E2E30"/>
</g>
<g id="Rectangle-Copy-25">
<path id="Vector_23" fill-rule="evenodd" clip-rule="evenodd" d="M44.15 61.1699C45.89 61.1699 47.3 62.5799 47.3 64.3199C47.3 66.0599 45.89 67.4699 44.15 67.4699C42.41 67.4699 41 66.0599 41 64.3199C41 62.5899 42.41 61.1699 44.15 61.1699Z" fill="white"/>
<path id="Vector_24" d="M44.15 67.9699C42.14 67.9699 40.5 66.3299 40.5 64.3199C40.5 62.3099 42.14 60.6699 44.15 60.6699C46.16 60.6699 47.8 62.3099 47.8 64.3199C47.8 66.3299 46.16 67.9699 44.15 67.9699ZM44.15 61.6699C42.69 61.6699 41.5 62.8599 41.5 64.3199C41.5 65.7799 42.69 66.9699 44.15 66.9699C45.61 66.9699 46.8 65.7899 46.8 64.3199C46.8 62.8499 45.61 61.6699 44.15 61.6699Z" fill="#2E2E30"/>
</g>
<g id="Rectangle-Copy-26">
<path id="Vector_25" fill-rule="evenodd" clip-rule="evenodd" d="M59.15 61.1699C60.89 61.1699 62.3 62.5799 62.3 64.3199C62.3 66.0599 60.89 67.4699 59.15 67.4699C57.41 67.4699 56 66.0599 56 64.3199C56 62.5899 57.41 61.1699 59.15 61.1699Z" fill="white"/>
<path id="Vector_26" d="M59.15 67.9699C57.14 67.9699 55.5 66.3299 55.5 64.3199C55.5 62.3099 57.14 60.6699 59.15 60.6699C61.16 60.6699 62.8 62.3099 62.8 64.3199C62.8 66.3299 61.16 67.9699 59.15 67.9699ZM59.15 61.6699C57.69 61.6699 56.5 62.8599 56.5 64.3199C56.5 65.7799 57.69 66.9699 59.15 66.9699C60.61 66.9699 61.8 65.7899 61.8 64.3199C61.8 62.8499 60.61 61.6699 59.15 61.6699Z" fill="#2E2E30"/>
</g>
</g>
<g id="Rectangle_11_">
<path id="Vector_27" fill-rule="evenodd" clip-rule="evenodd" d="M23.7996 28.1699H48.1996C51.0696 28.1699 53.3996 30.4999 53.3996 33.3699V42.4699C53.3996 45.3399 51.0696 47.6699 48.1996 47.6699H23.7996C20.9296 47.6699 18.5996 45.3399 18.5996 42.4699V33.3699C18.5996 30.4999 20.9296 28.1699 23.7996 28.1699Z" fill="white"/>
<path id="Vector_28" d="M48.1996 48.1699H23.7996C20.6596 48.1699 18.0996 45.6099 18.0996 42.4699V33.3699C18.0996 30.2299 20.6596 27.6699 23.7996 27.6699H48.1996C51.3396 27.6699 53.8996 30.2299 53.8996 33.3699V42.4699C53.8996 45.6099 51.3396 48.1699 48.1996 48.1699ZM23.7996 28.6699C21.2096 28.6699 19.0996 30.7799 19.0996 33.3699V42.4699C19.0996 45.0599 21.2096 47.1699 23.7996 47.1699H48.1996C50.7896 47.1699 52.8996 45.0599 52.8996 42.4699V33.3699C52.8996 30.7799 50.7896 28.6699 48.1996 28.6699H23.7996Z" fill="#2E2E30"/>
</g>
<g id="Rectangle-Copy-14">
<path id="Vector_29" fill-rule="evenodd" clip-rule="evenodd" d="M23.9496 32.2695H33.6496C35.7796 32.2695 37.4996 33.9895 37.4996 36.1195C37.4996 38.2495 35.7796 39.9695 33.6496 39.9695H23.9496C21.8196 39.9695 20.0996 38.2495 20.0996 36.1195C20.0996 33.9895 21.8196 32.2695 23.9496 32.2695Z" fill="white"/>
<path id="Vector_30" d="M33.6496 40.4695H23.9496C21.5496 40.4695 19.5996 38.5195 19.5996 36.1195C19.5996 33.7195 21.5496 31.7695 23.9496 31.7695H33.6496C36.0496 31.7695 37.9996 33.7195 37.9996 36.1195C37.9996 38.5195 36.0496 40.4695 33.6496 40.4695ZM23.9496 32.7695C22.0996 32.7695 20.5996 34.2695 20.5996 36.1195C20.5996 37.9695 22.0996 39.4695 23.9496 39.4695H33.6496C35.4996 39.4695 36.9996 37.9695 36.9996 36.1195C36.9996 34.2695 35.4996 32.7695 33.6496 32.7695H23.9496Z" fill="#2E2E30"/>
</g>
<g id="Rectangle-Copy-15">
<path id="Vector_31" fill-rule="evenodd" clip-rule="evenodd" d="M24.5797 34.6299H24.6197C25.1197 34.6299 25.5197 35.0299 25.5197 35.5299C25.5197 36.0299 25.1197 36.4299 24.6197 36.4299H24.5797C24.0797 36.4299 23.6797 36.0299 23.6797 35.5299C23.6797 35.0399 24.0797 34.6299 24.5797 34.6299Z" fill="white"/>
<path id="Vector_32" d="M24.6197 36.9299H24.5797C23.8097 36.9299 23.1797 36.2999 23.1797 35.5299C23.1797 34.7599 23.8097 34.1299 24.5797 34.1299H24.6197C25.3897 34.1299 26.0197 34.7599 26.0197 35.5299C26.0197 36.2999 25.3897 36.9299 24.6197 36.9299ZM24.5797 35.1299C24.3597 35.1299 24.1797 35.3099 24.1797 35.5299C24.1797 35.7499 24.3597 35.9299 24.5797 35.9299H24.6197C24.8397 35.9299 25.0197 35.7499 25.0197 35.5299C25.0197 35.3099 24.8397 35.1299 24.6197 35.1299H24.5797Z" fill="#2E2E30"/>
</g>
<g id="Rectangle-Copy-16">
<path id="Vector_33" fill-rule="evenodd" clip-rule="evenodd" d="M31.9801 34.6299H32.0201C32.5201 34.6299 32.9201 35.0299 32.9201 35.5299C32.9201 36.0299 32.5201 36.4299 32.0201 36.4299H31.9801C31.4801 36.4299 31.0801 36.0299 31.0801 35.5299C31.0801 35.0399 31.4801 34.6299 31.9801 34.6299Z" fill="white"/>
<path id="Vector_34" d="M32.0201 36.9299H31.9801C31.2101 36.9299 30.5801 36.2999 30.5801 35.5299C30.5801 34.7599 31.2101 34.1299 31.9801 34.1299H32.0201C32.7901 34.1299 33.4201 34.7599 33.4201 35.5299C33.4201 36.2999 32.7901 36.9299 32.0201 36.9299ZM31.9801 35.1299C31.7601 35.1299 31.5801 35.3099 31.5801 35.5299C31.5801 35.7499 31.7601 35.9299 31.9801 35.9299H32.0201C32.2401 35.9299 32.4201 35.7499 32.4201 35.5299C32.4201 35.3099 32.2401 35.1299 32.0201 35.1299H31.9801Z" fill="#2E2E30"/>
</g>
<g id="Group-46">
<g id="Rectangle_12_">
<path id="Vector_35" d="M30.7303 24.2695H28.0703V28.1695H30.7303V24.2695Z" fill="white"/>
<path id="Vector_36" d="M31.2303 28.6695H27.5703V23.7695H31.2303V28.6695ZM28.5703 27.6695H30.2303V24.7695H28.5703V27.6695Z" fill="#2E2E30"/>
</g>
<g id="Oval_7_">
<path id="Vector_37" d="M29.3502 25.1691C30.8137 25.1691 32.0002 23.9827 32.0002 22.5191C32.0002 21.0556 30.8137 19.8691 29.3502 19.8691C27.8866 19.8691 26.7002 21.0556 26.7002 22.5191C26.7002 23.9827 27.8866 25.1691 29.3502 25.1691Z" fill="#BBEB6E"/>
<path id="Vector_38" d="M29.3502 25.6691C27.6102 25.6691 26.2002 24.2591 26.2002 22.5191C26.2002 20.7791 27.6102 19.3691 29.3502 19.3691C31.0902 19.3691 32.5002 20.7791 32.5002 22.5191C32.5002 24.2591 31.0902 25.6691 29.3502 25.6691ZM29.3502 20.3691C28.1602 20.3691 27.2002 21.3291 27.2002 22.5191C27.2002 23.7091 28.1602 24.6691 29.3502 24.6691C30.5402 24.6691 31.5002 23.7091 31.5002 22.5191C31.5002 21.3291 30.5402 20.3691 29.3502 20.3691Z" fill="#2E2E30"/>
</g>
</g>
<g id="Group-46-Copy">
<g id="Rectangle_13_">
<path id="Vector_39" d="M40.5301 24.2695H37.8701V28.1695H40.5301V24.2695Z" fill="white"/>
<path id="Vector_40" d="M41.0301 28.6695H37.3701V23.7695H41.0301V28.6695ZM38.3701 27.6695H40.0301V24.7695H38.3701V27.6695Z" fill="#2E2E30"/>
</g>
<g id="Oval_8_">
<path id="Vector_41" d="M39.15 25.1691C40.6136 25.1691 41.8 23.9827 41.8 22.5191C41.8 21.0556 40.6136 19.8691 39.15 19.8691C37.6864 19.8691 36.5 21.0556 36.5 22.5191C36.5 23.9827 37.6864 25.1691 39.15 25.1691Z" fill="#BBEB6E"/>
<path id="Vector_42" d="M39.15 25.6691C37.41 25.6691 36 24.2591 36 22.5191C36 20.7791 37.41 19.3691 39.15 19.3691C40.89 19.3691 42.3 20.7791 42.3 22.5191C42.3 24.2591 40.89 25.6691 39.15 25.6691ZM39.15 20.3691C37.96 20.3691 37 21.3291 37 22.5191C37 23.7091 37.96 24.6691 39.15 24.6691C40.34 24.6691 41.3 23.7091 41.3 22.5191C41.3 21.3291 40.34 20.3691 39.15 20.3691Z" fill="#2E2E30"/>
</g>
</g>
<g id="Rectangle-Copy-13">
<path id="Vector_43" fill-rule="evenodd" clip-rule="evenodd" d="M45.2996 28.1699H48.1996C51.0696 28.1699 53.3996 30.4999 53.3996 33.3699V42.4699C53.3996 45.3399 51.0696 47.6699 48.1996 47.6699H45.2996C42.4296 47.6699 40.0996 45.3399 40.0996 42.4699V33.3699C40.0996 30.4999 42.4296 28.1699 45.2996 28.1699Z" fill="white"/>
<path id="Vector_44" d="M48.1996 48.1699H45.2996C42.1596 48.1699 39.5996 45.6099 39.5996 42.4699V33.3699C39.5996 30.2299 42.1596 27.6699 45.2996 27.6699H48.1996C51.3396 27.6699 53.8996 30.2299 53.8996 33.3699V42.4699C53.8996 45.6099 51.3396 48.1699 48.1996 48.1699ZM45.2996 28.6699C42.7096 28.6699 40.5996 30.7799 40.5996 33.3699V42.4699C40.5996 45.0599 42.7096 47.1699 45.2996 47.1699H48.1996C50.7896 47.1699 52.8996 45.0599 52.8996 42.4699V33.3699C52.8996 30.7799 50.7896 28.6699 48.1996 28.6699H45.2996Z" fill="#2E2E30"/>
</g>
<g id="Rectangle-Copy-23">
<path id="Vector_45" fill-rule="evenodd" clip-rule="evenodd" d="M48.3 32.3496C50.4 32.3496 52.1 34.0496 52.1 36.1496V39.6896C52.1 41.7896 50.4 43.4896 48.3 43.4896C46.2 43.4896 44.5 41.7896 44.5 39.6896V36.1496C44.5 34.0496 46.2 32.3496 48.3 32.3496Z" fill="white"/>
<path id="Vector_46" d="M48.3 43.9896C45.93 43.9896 44 42.0596 44 39.6896V36.1496C44 33.7796 45.93 31.8496 48.3 31.8496C50.67 31.8496 52.6 33.7796 52.6 36.1496V39.6896C52.6 42.0596 50.67 43.9896 48.3 43.9896ZM48.3 32.8496C46.48 32.8496 45 34.3296 45 36.1496V39.6896C45 41.5096 46.48 42.9896 48.3 42.9896C50.12 42.9896 51.6 41.5096 51.6 39.6896V36.1496C51.6 34.3296 50.12 32.8496 48.3 32.8496Z" fill="#2E2E30"/>
</g>
<g id="Path-215">
<path id="Vector_47" d="M46.4199 41.2203C46.1399 41.2203 45.9199 41.0003 45.9199 40.7203V35.5303C45.9199 35.2503 46.1399 35.0303 46.4199 35.0303C46.6999 35.0303 46.9199 35.2503 46.9199 35.5303V40.7203C46.9199 41.0003 46.6999 41.2203 46.4199 41.2203Z" fill="#2E2E30"/>
</g>
<g id="Path-214">
<path id="Vector_48" d="M32.57 43.2295H25.5C25.22 43.2295 25 43.0095 25 42.7295C25 42.4495 25.22 42.2295 25.5 42.2295H32.57C32.85 42.2295 33.07 42.4495 33.07 42.7295C33.07 43.0095 32.84 43.2295 32.57 43.2295Z" fill="#2E2E30"/>
</g>
</g>
<path id="Vector_49" d="M8.61013 9.47869C8.38013 9.47869 8.15014 9.42869 7.93014 9.32869L5.52013 8.20869C5.27013 8.08869 5.16014 7.79869 5.28014 7.54869C5.40014 7.29869 5.69014 7.18869 5.94014 7.30869L8.35013 8.42869C8.50013 8.49869 8.66013 8.49869 8.81013 8.44869C8.96013 8.39869 9.08013 8.28869 9.15013 8.13869L9.81013 6.72869C10.1801 5.92869 11.1401 5.57869 11.9401 5.95869L13.3501 6.61869C13.6501 6.75869 14.0101 6.62869 14.1501 6.32869L14.8101 4.91869C15.1801 4.11869 16.1401 3.76869 16.9401 4.14869L18.3501 4.80869C18.6501 4.94869 19.0101 4.81869 19.1501 4.51869L19.8101 3.10869C19.9901 2.71869 20.3101 2.42869 20.7101 2.27869C21.1101 2.12869 21.5501 2.14869 21.9301 2.32869L23.3401 2.98869C23.4901 3.05869 23.6501 3.05869 23.8001 3.00869C23.9501 2.95869 24.0701 2.84869 24.1401 2.69869L25.2601 0.288693C25.3801 0.0386928 25.6701 -0.0713096 25.9201 0.0486904C26.1701 0.16869 26.2801 0.458694 26.1601 0.708694L25.0401 3.11869C24.8601 3.50869 24.5401 3.79869 24.1401 3.94869C23.7401 4.09869 23.3001 4.07869 22.9201 3.89869L21.5101 3.23869C21.3601 3.16869 21.2001 3.16869 21.0501 3.21869C20.9001 3.26869 20.7801 3.37869 20.7101 3.52869L20.0501 4.93869C19.6801 5.73869 18.7201 6.08869 17.9201 5.70869L16.5101 5.04869C16.3601 4.97869 16.2001 4.97869 16.0501 5.02869C15.9001 5.07869 15.7801 5.18869 15.7101 5.33869L15.0501 6.74869C14.6801 7.54869 13.7201 7.89869 12.9201 7.51869L11.5101 6.85869C11.2101 6.71869 10.8501 6.84869 10.7101 7.14869L10.0501 8.55869C9.87013 8.94869 9.55013 9.23869 9.15013 9.38869C8.98013 9.44869 8.80013 9.47869 8.61013 9.47869Z" fill="#2E2E30"/>
<path id="Vector_50" d="M9.42022 48.9387C8.89022 48.9387 8.36023 48.8087 7.88023 48.5287C6.40023 47.6787 5.89023 45.7787 6.75023 44.2987C6.89023 44.0587 7.19023 43.9787 7.43023 44.1187C7.67023 44.2587 7.75022 44.5587 7.61022 44.7987C7.03022 45.7987 7.38023 47.0887 8.38023 47.6687C8.87023 47.9487 9.43022 48.0187 9.97022 47.8787C10.5102 47.7287 10.9602 47.3887 11.2502 46.8987C11.3902 46.6587 11.6902 46.5787 11.9302 46.7187C12.1702 46.8587 12.2502 47.1587 12.1102 47.3987C11.5402 48.3887 10.5002 48.9387 9.42022 48.9387Z" fill="#2E2E30"/>
<g id="Oval-Copy-14">
<path id="Vector_51" d="M59.8 40.9887C58.81 40.9887 58 40.1787 58 39.1887C58 38.1987 58.81 37.3887 59.8 37.3887C60.79 37.3887 61.6 38.1987 61.6 39.1887C61.6 40.1787 60.79 40.9887 59.8 40.9887ZM59.8 38.3887C59.36 38.3887 59 38.7487 59 39.1887C59 39.6287 59.36 39.9887 59.8 39.9887C60.24 39.9887 60.6 39.6287 60.6 39.1887C60.6 38.7487 60.24 38.3887 59.8 38.3887Z" fill="#2E2E30"/>
</g>
</g>
</svg>
