<svg width="32" height="32" viewBox="0 0 32 32" fill="none" xmlns="http://www.w3.org/2000/svg">
<g id="share">
<path id="Combined Shape" d="M16.7546 19.8956V19.0829L15.9445 19.148C12.5976 19.417 7.7672 21.3969 5.27355 27.4781C5.25181 27.5311 5.22963 27.573 5.20911 27.6056C5.18445 27.5461 5.15827 27.4615 5.13864 27.3453C4.33626 22.5948 5.29336 18.6714 7.31557 15.8029C9.34018 12.9311 12.4711 11.0608 16.1213 10.4855L16.7546 10.3858V9.74469V5.33089C16.7546 5.00873 17.0158 4.74756 17.3379 4.74756C17.4917 4.74756 17.6392 4.80826 17.7484 4.91645L27.3102 14.3874C27.5161 14.5915 27.5384 14.9122 27.3749 15.1404L27.2923 15.234L17.7484 24.6873C17.5195 24.914 17.1502 24.9123 16.9235 24.6834C16.8153 24.5741 16.7546 24.4266 16.7546 24.2729V19.8956Z" fill="#AFF164" stroke="#4321F5" stroke-width="1.5"/>
</g>
</svg>
