<svg width="47" height="43" viewBox="0 0 47 43" fill="none" xmlns="http://www.w3.org/2000/svg">
<g id="Group-25">
<g id="Group-22">
<g id="Path-60">
<path id="Vector" fill-rule="evenodd" clip-rule="evenodd" d="M39.2046 21.8882L38.7222 23.6887C38.6994 23.7737 38.6112 23.8246 38.5262 23.8019L36.6794 23.307C36.5944 23.2842 36.5062 23.3351 36.4834 23.4201L36.0755 24.9424C36.0528 25.0274 35.9646 25.0783 35.8796 25.0556C35.8718 25.0535 35.8718 25.0535 35.8641 25.0514L34.4858 24.5082C34.4028 24.4777 34.3188 24.5131 34.2805 24.594C34.2785 24.6017 34.2743 24.6172 34.2723 24.6249L34.0203 26.338C34.0052 26.4251 33.9325 26.4802 33.8434 26.4729C33.8356 26.4708 33.8356 26.4708 33.8279 26.4687L32.2052 26.0339C32.1202 26.0111 32.032 26.062 32.0092 26.147C32.0071 26.1548 32.0051 26.1625 32.003 26.1702L31.8143 27.9252C31.807 28.0143 31.7245 28.075 31.6451 28.0621C31.6374 28.06 31.6297 28.0579 31.622 28.0559L29.721 27.5465C29.636 27.5237 29.5478 27.5746 29.5251 27.6596L28.879 30.0706C28.8563 30.1556 28.7681 30.2065 28.6831 30.1837C28.6754 30.1816 28.6754 30.1816 28.6676 30.1796L26.683 29.4573C27.3293 34.0615 27.6574 36.3607 27.6574 36.3607C29.5749 36.0049 31.4902 35.6567 33.4077 35.3009C33.4953 35.283 33.549 35.2062 33.531 35.1186C33.5331 35.1109 33.5275 35.1011 33.5275 35.1011L32.9093 33.2045C32.8815 33.1225 32.9296 33.036 33.0115 33.0082C33.0389 32.999 33.0641 32.9975 33.0873 33.0037L34.9678 33.3419C35.0549 33.357 35.1354 33.304 35.1504 33.2169C35.1545 33.2015 35.153 33.1762 35.1494 33.1587L34.8895 31.6562C34.8715 31.5686 34.9329 31.4939 35.0206 31.476C35.0304 31.4704 35.0458 31.4745 35.0535 31.4766L37.1332 31.628C37.2224 31.6353 37.2972 31.5725 37.3045 31.4834C37.3107 31.4602 37.3071 31.4427 37.2958 31.4231L36.7125 29.6435C36.6848 29.5615 36.7328 29.475 36.8148 29.4473C36.8344 29.4359 36.8596 29.4344 36.8828 29.4406L39.2901 29.7295C39.3792 29.7369 39.4519 29.6818 39.467 29.5947C39.4732 29.5715 39.4696 29.554 39.4604 29.5267L38.8386 27.6125C38.8109 27.5306 38.8589 27.4441 38.9409 27.4163C38.9584 27.4127 38.9682 27.4071 38.9836 27.4112L41.0301 27.3467C41.1136 27.3442 41.1827 27.2716 41.1802 27.1881C41.1787 27.1629 41.1751 27.1454 41.1638 27.1258L40.4544 25.6933C40.4225 25.6268 40.4355 25.5475 40.4963 25.5058L43.0306 23.4352C43.0956 23.3781 43.105 23.2812 43.0556 23.2183C43.0366 23.1966 43.0155 23.1827 42.9944 23.1687L39.4217 21.789C39.3388 21.7585 39.2527 21.8017 39.2165 21.8748C39.2067 21.8805 39.2067 21.8805 39.2046 21.8882Z" fill="black"/>
</g>
<g id="Path-57">
<path id="Vector_2" fill-rule="evenodd" clip-rule="evenodd" d="M20.6572 18.7489C23.974 18.6107 25.9135 18.7908 26.4581 19.2928C27.0027 19.7949 26.5894 20.7194 25.1984 22.0777C27.2915 21.7772 28.4741 21.8456 28.7287 22.2865C28.9832 22.7274 28.4084 23.7909 26.981 25.4707C28.964 25.4885 30.2003 25.8198 30.6902 26.4645C31.18 27.1093 30.3804 28.2699 28.2794 29.9597C30.1646 30.7133 31.0223 31.4069 30.8525 32.0406C30.6827 32.6742 29.7487 33.2853 28.0428 33.8718C29.1914 34.809 29.2121 36.4627 28.0951 38.8385L13.3145 34.994L7.5035 33.437C7.84644 31.508 8.84875 30.6419 10.5182 30.8408C10.8242 30.8731 11.1411 30.958 11.4764 31.0975L13.1556 24.8306L11.7957 23.0748C9.76442 26.39 7.83515 28.0265 6.01972 27.9707C3.30045 27.8881 0.847175 25.1436 2.50584 23.5589C3.60836 22.5043 4.70842 22.6334 5.81584 23.9406L11.5618 15.2931L20.6572 18.7489Z" fill="black"/>
</g>
<g id="Path-58">
<path id="Vector_3" d="M14.1261 26.5565C14.2575 26.5917 14.3977 26.563 14.5081 26.4601C14.666 26.3036 14.674 26.0573 14.5273 25.8938C12.7389 24.0066 11.7067 22.2641 11.4633 20.6998C11.43 20.4838 11.223 20.3289 11.005 20.3699C10.7891 20.4031 10.6342 20.6101 10.6752 20.8282C10.9509 22.5502 12.0504 24.4433 13.9495 26.4429C13.9933 26.4961 14.0566 26.5379 14.1261 26.5565Z" fill="white"/>
</g>
<g id="Group-21">
<g id="Oval_8_">
<path id="Vector_4" d="M15.2673 19.7732C11.1361 18.6663 8.72251 14.2781 9.87633 9.97196C11.0302 5.66582 15.3145 3.07236 19.4457 4.1793C23.5768 5.28624 25.9904 9.67441 24.8366 13.9805C23.6828 18.2867 19.3984 20.8801 15.2673 19.7732Z" fill="black"/>
</g>
<g id="Group-23">
<g id="Path-62">
<path id="Vector_5" d="M19.1805 12.7843C19.1959 12.7885 19.2114 12.7926 19.2268 12.7968L23.0478 13.3733C23.2626 13.4061 23.469 13.2543 23.5017 13.0394C23.5344 12.8246 23.3826 12.6183 23.1678 12.5856L19.3468 12.009C19.132 11.9763 18.9256 12.128 18.8929 12.3429C18.8566 12.5402 18.9873 12.7326 19.1805 12.7843Z" fill="white"/>
</g>
<g id="Path-63">
<path id="Vector_6" d="M22.2715 16.0558C22.4338 16.0993 22.6174 16.0325 22.7149 15.8847C22.8306 15.7004 22.7804 15.455 22.5904 15.3296L19.6414 13.4462C19.457 13.3305 19.2116 13.3807 19.0862 13.5707C18.9705 13.7551 19.0208 14.0004 19.2108 14.1259L22.1598 16.0093C22.1963 16.0274 22.2329 16.0455 22.2715 16.0558Z" fill="white"/>
</g>
<g id="Path-64">
<path id="Vector_7" d="M14.4297 11.3207C14.6075 11.3683 14.7951 11.2861 14.8891 11.1208C14.9914 10.9245 14.9159 10.6807 14.7197 10.5784L11.2615 8.74077C11.0653 8.6385 10.8215 8.71396 10.7192 8.91018C10.6169 9.1064 10.6924 9.35024 10.8886 9.45251L14.3468 11.2902C14.3679 11.3041 14.3988 11.3124 14.4297 11.3207Z" fill="white"/>
</g>
<g id="Path-65">
<path id="Vector_8" d="M11.455 12.5945C11.5014 12.607 11.5498 12.6117 11.6003 12.6086L14.0845 12.3632C14.3061 12.3398 14.4666 12.1426 14.4411 11.9287C14.4177 11.7071 14.2205 11.5466 14.0066 11.5721L11.5224 11.8175C11.3008 11.841 11.1403 12.0381 11.1658 12.252C11.1806 12.4133 11.3005 12.5531 11.455 12.5945Z" fill="white"/>
</g>
</g>
<g id="Oval-Copy-9">
<path id="Vector_9" d="M15.6016 13.8574C15.2687 13.7683 15.0712 13.4261 15.1604 13.0932C15.2496 12.7603 15.5917 12.5628 15.9246 12.652C16.2575 12.7412 16.455 13.0833 16.3658 13.4162C16.2766 13.7491 15.9345 13.9466 15.6016 13.8574Z" fill="white"/>
</g>
<g id="Path-61">
<path id="Vector_10" fill-rule="evenodd" clip-rule="evenodd" d="M17.7417 10.5382C17.564 10.0268 16.1757 9.61337 15.8794 10.0392C15.5831 10.465 15.7252 11.82 16.2121 11.9504C16.6989 12.0809 17.9271 11.0517 17.7417 10.5382Z" fill="#B8FA8D"/>
</g>
<g id="Oval_9_">
<path id="Vector_11" d="M14.3005 9.62523C13.6518 9.45141 13.2668 8.78463 13.4406 8.13594C13.6145 7.48724 14.2812 7.10228 14.9299 7.2761C15.5786 7.44991 15.9636 8.11669 15.7898 8.76539C15.616 9.41408 14.9492 9.79905 14.3005 9.62523Z" fill="white"/>
</g>
<g id="Oval-Copy-7">
<path id="Vector_12" d="M14.3176 8.97477C13.878 8.85699 13.6171 8.40516 13.7349 7.96558C13.8527 7.526 14.3045 7.26514 14.7441 7.38292C15.1837 7.50071 15.4446 7.95254 15.3268 8.39211C15.209 8.83169 14.7572 9.09255 14.3176 8.97477Z" fill="black"/>
</g>
<g id="Oval-Copy-6">
<path id="Vector_13" d="M19.7487 11.0847C19.1 10.9109 18.7151 10.2441 18.8889 9.59541C19.0627 8.94672 19.7295 8.56175 20.3782 8.73557C21.0269 8.90939 21.4118 9.57616 21.238 10.2249C21.0642 10.8736 20.3974 11.2585 19.7487 11.0847Z" fill="white"/>
</g>
<g id="Oval-Copy-8">
<path id="Vector_14" d="M19.6389 10.5671C19.1993 10.4493 18.9384 9.99744 19.0562 9.55787C19.174 9.11829 19.6258 8.85743 20.0654 8.97521C20.505 9.09299 20.7658 9.54482 20.6481 9.9844C20.5303 10.424 20.0784 10.6848 19.6389 10.5671Z" fill="black"/>
</g>
<g id="Path-56">
<path id="Vector_15" fill-rule="evenodd" clip-rule="evenodd" d="M23.6311 7.6611C25.9309 7.30003 28.0486 7.61898 29.986 8.61021C28.5004 10.291 26.8355 11.4351 25.0013 12.0368L23.6311 7.6611Z" fill="black"/>
</g>
<g id="Path-66">
<path id="Vector_16" d="M24.765 9.88693C24.8113 9.89935 24.852 9.90198 24.9026 9.89894L27.2537 9.71727C27.4732 9.70156 27.6415 9.50645 27.618 9.28484C27.6023 9.06529 27.4072 8.89706 27.1856 8.9205L24.8345 9.10217C24.6149 9.11788 24.4467 9.31299 24.4701 9.53461C24.4828 9.70365 24.6104 9.84552 24.765 9.88693Z" fill="white"/>
</g>
<g id="Path-56-Copy">
<path id="Vector_17" fill-rule="evenodd" clip-rule="evenodd" d="M15.8172 4.9216C14.6106 2.93358 13.0123 1.51142 11.0123 0.660805C10.6819 2.88301 10.8732 4.88889 11.5843 6.68616L15.8172 4.9216Z" fill="black"/>
</g>
<g id="Path-67">
<path id="Vector_18" d="M13.2475 5.39271C13.348 5.41962 13.451 5.40583 13.547 5.35699C13.7408 5.25158 13.8071 5.0043 13.7017 4.81042L12.6614 2.97461C12.556 2.78072 12.3087 2.71447 12.1148 2.81987C11.9209 2.92528 11.8547 3.17256 11.9601 3.36645L12.9947 5.19246C13.0569 5.30023 13.1471 5.36579 13.2475 5.39271Z" fill="white"/>
</g>
</g>
<g id="Path-59">
<path id="Vector_19" d="M13.2915 35.452C13.3069 35.4561 13.3224 35.4602 13.3378 35.4644C13.5527 35.4971 13.759 35.3453 13.7917 35.1305C13.9668 33.9516 14.8994 33.1911 16.6504 32.8072L16.8782 32.7606L16.946 32.5386C17.4882 30.7624 18.3038 29.5729 19.3728 29.0146C20.3381 28.503 21.5687 28.4849 23.026 28.9499C23.2403 29.0156 23.4615 28.9009 23.5272 28.6866C23.5929 28.4723 23.4783 28.2511 23.264 28.1854C21.5924 27.6547 20.1577 27.6927 18.9907 28.3076C17.7748 28.9508 16.8473 30.2179 16.2473 32.0863C14.3065 32.5601 13.2128 33.5508 12.9941 35.0161C12.9655 35.2155 13.0983 35.4002 13.2915 35.452Z" fill="white"/>
</g>
</g>
<g id="Group-24">
<g id="Path-68">
<path id="Vector_20" d="M28.3806 15.0256C28.512 15.0608 28.662 15.0264 28.7647 14.9214L31.4548 12.2383C31.6127 12.0818 31.613 11.8334 31.4565 11.6755C31.3 11.5177 31.0516 11.5174 30.8938 11.6738L28.2036 14.357C28.0458 14.5135 28.0455 14.7619 28.2019 14.9197C28.2534 14.9749 28.3188 15.009 28.3806 15.0256Z" fill="#8B54FF"/>
</g>
<g id="Path-69">
<path id="Vector_21" d="M30.1221 16.6854C30.1762 16.6999 30.2422 16.701 30.3025 16.6923L33.3822 16.1096C33.6003 16.0686 33.7397 15.8575 33.6987 15.6395C33.6577 15.4214 33.4466 15.282 33.2286 15.323L30.1488 15.9058C29.9308 15.9467 29.7914 16.1578 29.8323 16.3759C29.859 16.5238 29.9753 16.6461 30.1221 16.6854Z" fill="#8B54FF"/>
</g>
<g id="Path-70">
<path id="Vector_22" d="M31.3697 18.924L33.7884 19.572C34.0048 19.63 34.2203 19.5056 34.2783 19.2892C34.3363 19.0728 34.2118 18.8573 33.9955 18.7993L31.5768 18.1512C31.3604 18.0932 31.1449 18.2177 31.0869 18.4341C31.0289 18.6504 31.1611 18.8681 31.3697 18.924Z" fill="#8B54FF"/>
</g>
</g>
</g>
</svg>
