<svg width="143" height="141" viewBox="0 0 143 141" fill="none" xmlns="http://www.w3.org/2000/svg">
<g id="Group">
<g id="Group-10-Copy">
<g id="Path-152">
<path id="Vector" fill-rule="evenodd" clip-rule="evenodd" d="M120.832 42.7734C124.739 43.1738 127.128 40.5868 127.993 35.0276L114.641 33.1645C112.503 32.8632 110.346 33.6445 108.901 35.2297L95.6123 49.7526C107.231 57.4548 115.635 55.1334 120.832 42.7734Z" fill="black"/>
</g>
<g id="Path-153">
<path id="Vector_2" d="M108.021 54.6268C105.961 54.6262 103.688 54.2756 101.217 53.5804C100.785 53.4573 100.539 53.0102 100.657 52.5933C100.78 52.1614 101.227 51.9155 101.644 52.0331C106.772 53.4741 110.927 53.3345 113.996 51.5912C116.829 49.9831 118.87 46.9463 120.043 42.5545C120.139 42.1978 120.449 41.9532 120.819 41.9683C120.854 41.9642 120.869 41.9697 120.905 41.9656C124.463 41.9667 126.53 39.6543 127.202 34.9098C127.259 34.471 127.663 34.1581 128.111 34.2361C128.55 34.2937 128.857 34.7121 128.785 35.1454C128.395 37.8983 127.543 40.006 126.229 41.4177C124.999 42.7405 123.389 43.4659 121.428 43.5692C120.115 48.0634 117.873 51.2314 114.798 52.9898C112.87 54.076 110.608 54.6317 108.021 54.6268Z" fill="white"/>
</g>
</g>
<g id="Path-12-Copy">
<path id="Vector_3" fill-rule="evenodd" clip-rule="evenodd" d="M51.2855 86.5214C48.6615 96.1214 47.2055 101.017 46.8855 101.193C46.4215 101.465 40.8856 103.865 41.7976 107.737C42.7096 111.609 47.3816 113.065 53.6696 108.041C57.8616 104.697 62.9816 99.0814 69.0616 91.1934L51.2855 86.5214Z" fill="black"/>
<path id="Vector_4" d="M46.3253 112.057C45.6213 112.057 44.9493 111.945 44.3253 111.737C42.6133 111.145 41.4293 109.785 40.9973 107.913C40.5493 106.009 41.1093 103.193 46.2933 100.585H46.3093C46.5973 99.9454 47.5413 97.1294 50.5013 86.3134C50.6133 85.8814 51.0613 85.6414 51.4773 85.7534C51.9093 85.8654 52.1493 86.3134 52.0373 86.7294C50.7253 91.5134 49.7013 95.1774 48.9653 97.6254C47.7813 101.593 47.5893 101.705 47.2693 101.897C47.2213 101.929 47.1413 101.961 47.0133 102.025C43.6373 103.721 42.1013 105.641 42.5493 107.561C42.8533 108.873 43.6693 109.817 44.8373 110.233C46.9493 110.969 49.9893 109.945 53.1413 107.417C57.2693 104.121 62.3893 98.5054 68.3893 90.7134C68.6613 90.3614 69.1573 90.2974 69.5093 90.5694C69.8613 90.8414 69.9253 91.3374 69.6533 91.6894C63.5733 99.5774 58.3573 105.289 54.1333 108.665C51.3653 110.905 48.6613 112.057 46.3253 112.057Z" fill="white"/>
</g>
<g id="Path-154">
<path id="Vector_5" d="M139.077 4.50532C139.765 2.84132 138.981 0.937319 137.317 0.249318C135.653 -0.438682 133.749 0.345319 133.061 2.00932C128.741 12.4093 120.885 18.3773 109.109 20.1533C94.4694 22.3613 87.2374 32.6173 87.8614 49.7053C87.9254 51.4973 89.4454 52.9053 91.2374 52.8413C93.0294 52.7773 94.4374 51.2573 94.3734 49.4653C93.8614 35.4973 98.9494 28.2813 110.085 26.6013C124.085 24.4893 133.877 17.0493 139.077 4.50532Z" fill="black"/>
</g>
<g id="Path-57">
<path id="Vector_6" fill-rule="evenodd" clip-rule="evenodd" d="M60.0692 62.8733C72.4852 49.9613 87.5732 44.3933 105.317 46.1693C111.397 46.7773 116.613 50.8093 118.725 56.5373L120.661 61.7853C123.333 69.0013 120.485 77.0813 113.893 81.0493L90.2932 95.2253L68.7252 92.9853C48.2132 88.2333 45.3332 78.2013 60.0692 62.8733Z" fill="black"/>
</g>
<g id="Path-12_1_">
<path id="Vector_7" fill-rule="evenodd" clip-rule="evenodd" d="M71.6211 89.0493C70.7091 98.9693 70.1171 104.041 69.8451 104.265C69.4291 104.617 64.4051 107.945 65.9731 111.593C67.5411 115.257 72.4051 115.865 77.7171 109.817C81.2691 105.785 85.3331 99.3693 89.9411 90.5533L71.6211 89.0493Z" fill="black"/>
<path id="Vector_8" d="M70.085 115.177C69.781 115.177 69.477 115.161 69.173 115.113C67.381 114.825 65.989 113.689 65.237 111.929C64.469 110.137 64.533 107.257 69.189 103.785C69.189 103.785 69.189 103.785 69.205 103.769C69.381 103.081 69.813 100.153 70.853 88.9853C70.901 88.5373 71.285 88.2173 71.717 88.2653C72.149 88.3133 72.485 88.6973 72.437 89.1293C71.989 94.0733 71.605 97.8653 71.301 100.393C70.821 104.521 70.661 104.649 70.373 104.889C70.325 104.921 70.261 104.985 70.149 105.065C67.125 107.321 65.941 109.481 66.725 111.305C67.253 112.553 68.229 113.337 69.445 113.529C71.653 113.881 74.453 112.345 77.125 109.321C80.613 105.353 84.693 98.9373 89.253 90.2173C89.461 89.8333 89.941 89.6733 90.325 89.8813C90.709 90.0893 90.869 90.5693 90.661 90.9533C86.037 99.7853 81.893 106.313 78.325 110.377C75.557 113.497 72.661 115.177 70.085 115.177Z" fill="white"/>
</g>
<g id="Group-21">
<g id="Oval_2_">
<path id="Vector_9" d="M39.2709 94.3535C48.3466 99.5939 60.1312 96.1747 65.5925 86.7164C71.0539 77.258 68.1238 65.3424 59.0482 60.102C49.9725 54.8615 38.1879 58.2808 32.7265 67.7391C27.2652 77.1975 30.1952 89.1131 39.2709 94.3535Z" fill="black"/>
</g>
<g id="Oval-Copy-4">
<path id="Vector_10" d="M34.3602 79.7763C35.1324 80.0574 36.0524 79.4775 36.4151 78.4811C36.7778 77.4846 36.4458 76.449 35.6736 76.1679C34.9014 75.8868 33.9813 76.4667 33.6186 77.4631C33.2559 78.4596 33.5879 79.4952 34.3602 79.7763Z" fill="white"/>
</g>
<g id="Oval-Copy-5">
<path id="Vector_11" fill-rule="evenodd" clip-rule="evenodd" d="M42.6114 69.7953C41.9766 70.3279 42.0262 71.4138 42.7097 72.2171C43.3933 73.0204 44.4475 73.2576 45.0823 72.725C45.7172 72.1925 45.6676 71.1066 44.984 70.3032C44.3005 69.4999 43.2462 69.2628 42.6114 69.7953Z" fill="white"/>
</g>
<g id="Group-23">
<g id="Path-62">
<path id="Vector_12" d="M48.0653 75.9159C47.9178 75.9174 47.7664 75.8739 47.6213 75.773C47.2595 75.5321 47.1587 75.0299 47.3997 74.6681L52.6278 66.7946C52.879 66.4206 53.3812 66.3198 53.743 66.5607C54.1048 66.8017 54.2055 67.3039 53.9646 67.6657L48.7262 75.5514C48.5759 75.7804 48.3152 75.9167 48.0653 75.9159Z" fill="white"/>
</g>
<g id="Path-63">
<path id="Vector_13" d="M51.3087 77.0288C51.0363 77.0299 50.7868 76.9041 50.6401 76.6557C50.4037 76.2903 50.5078 75.7928 50.8836 75.5442L58.1021 70.9491C58.4675 70.7127 58.965 70.8168 59.2136 71.1925C59.45 71.558 59.3459 72.0554 58.9702 72.3041L51.7291 76.9012C51.5998 76.9806 51.4563 77.0273 51.3087 77.0288Z" fill="white"/>
</g>
<g id="Path-64">
<path id="Vector_14" d="M31.082 92.4724C30.832 92.4716 30.607 92.3664 30.4521 92.1528C30.1829 91.8016 30.2522 91.2958 30.6034 91.0266L38.2643 85.2571C38.6155 84.9878 39.1213 85.0572 39.3905 85.4084C39.6597 85.7596 39.5904 86.2654 39.2392 86.5346L31.5803 92.3266C31.4181 92.4203 31.252 92.4689 31.082 92.4724Z" fill="white"/>
</g>
<g id="Path-65">
<path id="Vector_15" d="M38.4905 94.5954C38.4003 94.6033 38.3185 94.5763 38.2244 94.5391C37.8029 94.3943 37.5811 93.9367 37.7382 93.5255L39.7654 87.7492C39.9103 87.3276 40.3679 87.1059 40.7791 87.263C41.2006 87.4078 41.4224 87.8654 41.2653 88.2766L39.238 94.053C39.1304 94.3804 38.808 94.5903 38.4905 94.5954Z" fill="white"/>
</g>
</g>
<g id="Path-61">
<path id="Vector_16" fill-rule="evenodd" clip-rule="evenodd" d="M43.3083 78.1502C41.9915 78.0269 39.6328 80.6637 40.264 81.7782C40.9056 82.8805 44.0548 83.9565 44.8364 83.0249C45.6386 82.0689 44.6251 78.2735 43.3083 78.1502Z" fill="#4321F5"/>
</g>
<g id="Path-56">
<path id="Vector_17" fill-rule="evenodd" clip-rule="evenodd" d="M46.0682 58.8062C47.6457 53.3417 50.545 48.9655 54.7435 45.6795C56.945 50.7224 57.7582 55.6029 57.2157 60.3067L46.0682 58.8062Z" fill="black"/>
</g>
<g id="Path-66">
<path id="Vector_18" d="M51.4478 58.7671C51.3576 58.775 51.2532 58.75 51.1714 58.7231C50.7601 58.566 50.5384 58.1084 50.6955 57.6972L52.7195 52.2732C52.8766 51.862 53.3341 51.6402 53.7454 51.7973C54.1566 51.9544 54.3784 52.412 54.2213 52.8232L52.1973 58.2472C52.0671 58.5766 51.7776 58.7723 51.4478 58.7671Z" fill="white"/>
</g>
<g id="Path-56-Copy">
<path id="Vector_19" fill-rule="evenodd" clip-rule="evenodd" d="M31.8934 73.3342C26.2228 73.9438 21.42 76.0335 17.4622 79.6051C22.0551 82.6444 26.7081 84.293 31.4333 84.561L31.8934 73.3342Z" fill="black"/>
</g>
<g id="Path-67">
<path id="Vector_20" d="M24.3892 80.1121C23.9692 80.1147 23.6344 79.792 23.5866 79.3759C23.5594 78.9354 23.8783 78.5554 24.3291 78.516L29.4724 78.1114C29.913 78.0842 30.2929 78.4031 30.3324 78.8539C30.3596 79.2944 30.0407 79.6744 29.5899 79.7138L24.4466 80.1184C24.4343 80.1081 24.4118 80.1101 24.3892 80.1121Z" fill="white"/>
</g>
</g>
<g id="Group-10">
<g id="Path-152_1_">
<path id="Vector_21" fill-rule="evenodd" clip-rule="evenodd" d="M130.075 71.4897C133.591 74.0119 137.303 72.8603 141.202 68.0226L129.198 58.6705C127.497 57.3406 125.238 56.9385 123.182 57.599L102.132 64.2752C108.98 78.037 118.299 80.4309 130.075 71.4897Z" fill="black"/>
</g>
<g id="Path-153_1_">
<path id="Vector_22" d="M118.692 77.8871C118.657 77.8954 118.624 77.8812 118.589 77.8895C114.232 77.8489 109.756 75.5267 105.307 70.9468C104.995 70.6241 105.005 70.114 105.316 69.8118C105.638 69.4993 106.148 69.5099 106.451 69.8202C110.587 74.0775 114.679 76.2413 118.594 76.2772C122.192 76.308 125.812 74.5237 129.368 70.9962C129.63 70.7352 130.031 70.6908 130.333 70.8762C133.81 72.9294 137.105 71.8775 140.405 67.6462C140.674 67.295 141.18 67.2256 141.529 67.5174C141.88 67.7866 141.95 68.2924 141.658 68.6416C139.79 71.0448 137.816 72.5757 135.821 73.1848C133.93 73.7689 131.995 73.5542 130.05 72.5549C126.378 76.0951 122.553 77.8842 118.692 77.8871Z" fill="white"/>
</g>
</g>
<g id="Path-3-Copy">
<path id="Vector_23" d="M49.349 87.0016C49.029 87.0016 48.693 86.9856 48.373 86.9696C47.749 86.9376 47.285 86.3936 47.317 85.7856C47.349 85.1616 47.877 84.6976 48.501 84.7296C51.781 84.9216 55.029 83.9616 57.669 82.0256C63.893 77.4336 65.221 68.6496 60.629 62.4256L47.525 44.6496C47.157 44.1536 47.269 43.4496 47.765 43.0816C48.261 42.7136 48.965 42.8256 49.333 43.3216L62.437 61.0976C67.749 68.3136 66.213 78.5216 58.997 83.8336C56.213 85.8976 52.821 87.0016 49.349 87.0016Z" fill="#4321F5"/>
</g>
<g id="Rectangle-Copy-5">
<path id="Vector_24" fill-rule="evenodd" clip-rule="evenodd" d="M46.5487 41.9613C47.6207 41.1133 49.1887 41.3053 50.0367 42.3933L57.6207 52.1053C58.4687 53.1773 58.2767 54.7453 57.1887 55.5933C56.1167 56.4413 54.5487 56.2493 53.7007 55.1613L46.1167 45.4493C45.2847 44.3613 45.4767 42.8093 46.5487 41.9613Z" fill="#4321F5"/>
</g>
<g id="Path-3-Copy-2">
<path id="Vector_25" d="M12.7254 140.265C12.6294 140.265 12.5174 140.265 12.4214 140.265C11.7974 140.249 11.3174 139.737 11.3334 139.113C11.3494 138.489 11.8774 138.009 12.4854 138.025C14.4214 138.089 16.3574 137.465 17.8934 136.281C21.6214 133.433 22.3414 128.073 19.4934 124.345L2.08543 101.529C1.71743 101.033 1.79743 100.329 2.29343 99.9613C2.78943 99.5933 3.49343 99.6733 3.86143 100.169L21.2694 122.969C24.8694 127.689 23.9574 134.457 19.2374 138.057C17.3814 139.481 15.0774 140.265 12.7254 140.265Z" fill="#4321F5"/>
</g>
<g id="Rectangle_3_">
<path id="Vector_26" fill-rule="evenodd" clip-rule="evenodd" d="M0.949094 99.2413C2.02109 98.3933 3.58909 98.5853 4.43709 99.6733L12.0211 109.385C12.8691 110.457 12.6771 112.025 11.5891 112.873C10.5171 113.721 8.94909 113.529 8.10109 112.441L0.517094 102.729C-0.314906 101.641 -0.122906 100.089 0.949094 99.2413Z" fill="#4321F5"/>
</g>
<g id="Rectangle-Copy-8">
<path id="Vector_27" d="M32.1173 90.5533C29.6053 90.5533 27.1093 89.4813 25.3653 87.4173L24.0693 85.8653C20.9493 82.1533 21.4293 76.5853 25.1573 73.4653L42.8533 58.6173C44.6613 57.1133 46.9333 56.3933 49.2693 56.5853C51.6053 56.7933 53.7333 57.8973 55.2373 59.6893L56.5333 61.2413C59.6533 64.9533 59.1733 70.5213 55.4453 73.6413L37.7333 88.5053C36.1173 89.8813 34.1173 90.5533 32.1173 90.5533ZM26.1813 74.6973C23.1413 77.2413 22.7413 81.8013 25.3013 84.8413L26.5973 86.3933C29.1413 89.4333 33.7013 89.8333 36.7413 87.2733L54.4533 72.4093C55.9253 71.1773 56.8373 69.4333 56.9973 67.5293C57.1573 65.6093 56.5813 63.7533 55.3333 62.2813L54.0373 60.7293C52.8053 59.2573 51.0613 58.3453 49.1413 58.1853C47.2213 58.0253 45.3653 58.6013 43.8933 59.8493L26.1813 74.6973Z" fill="#4321F5"/>
</g>
</g>
</svg>
