<svg width="115" height="51" viewBox="0 0 115 51" fill="none" xmlns="http://www.w3.org/2000/svg">
<g id="Group_6_">
<g id="Path-322">
<path id="Vector" fill-rule="evenodd" clip-rule="evenodd" d="M44.3516 22.5603L59.4236 1.44028C61.1036 14.2563 61.9516 20.6723 61.9516 20.6723C61.9516 20.6723 56.0796 21.2963 44.3516 22.5603Z" fill="black"/>
</g>
<g id="Path-323">
<path id="Vector_2" fill-rule="evenodd" clip-rule="evenodd" d="M47.0723 39.488L66.2723 50.56L64.7363 31.52L47.0723 39.488Z" fill="black"/>
</g>
<g id="Path-321">
<path id="Vector_3" fill-rule="evenodd" clip-rule="evenodd" d="M1.95215 40.6563C26.4641 21.2003 56.4961 14.0643 92.0321 19.2163C73.9841 31.3923 58.1922 38.5443 44.6081 40.6563C31.0401 42.7683 16.8321 42.7683 1.95215 40.6563Z" fill="#AFF164"/>
<path id="Vector_4" d="M23.776 43.0243C16.608 43.0243 9.28 42.4963 1.84 41.4403L0 41.1843L1.456 40.0323C13.744 30.2723 27.616 23.5203 42.672 19.9363C57.712 16.3523 74.368 15.8563 92.144 18.4323L94.192 18.7363L92.48 19.8883C74.432 32.0803 58.368 39.3283 44.736 41.4563C37.952 42.4963 30.944 43.0243 23.776 43.0243ZM3.936 40.1283C18 41.9523 31.632 41.8723 44.48 39.8723C57.44 37.8563 72.688 31.0883 89.824 19.7283C56.288 15.2963 27.408 22.1443 3.936 40.1283Z" fill="#AFF164"/>
</g>
<g id="Path-325">
<path id="Vector_5" d="M33.8881 41.1844C33.7281 41.1844 33.5521 41.1364 33.4241 41.0244C33.0721 40.7684 32.9921 40.2564 33.2481 39.9044L35.9681 36.1924L32.9281 35.2324C32.6881 35.1524 32.4961 34.9604 32.4161 34.7204C32.3361 34.4804 32.3681 34.2084 32.5121 34.0004L35.2481 30.0964L31.0721 27.0564C30.7201 26.8004 30.6401 26.3044 30.8961 25.9364C31.1521 25.5844 31.6481 25.5044 32.0161 25.7604L36.8321 29.2484C37.1841 29.5044 37.2641 30.0004 37.0241 30.3524L34.4641 34.0004L37.5201 34.9764C37.7601 35.0564 37.9521 35.2484 38.0321 35.4884C38.1121 35.7284 38.0641 36.0004 37.9201 36.2084L34.5441 40.8164C34.3681 41.0724 34.1281 41.1844 33.8881 41.1844Z" fill="#2E2E30"/>
</g>
<g id="Oval-Copy-9">
<path id="Vector_6" d="M19.4867 32.7525C19.6417 33.6314 20.6845 34.1822 21.8157 33.9826C22.947 33.7831 23.7385 32.9088 23.5834 32.0299C23.4284 31.151 22.3856 30.6002 21.2544 30.7998C20.1231 30.9993 19.3316 31.8736 19.4867 32.7525Z" fill="black"/>
</g>
<g id="Path-324">
<path id="Vector_7" fill-rule="evenodd" clip-rule="evenodd" d="M92.0322 19.28L107.696 0L114.912 33.12L92.0322 19.28Z" fill="black"/>
</g>
</g>
</svg>
