<svg width="33" height="42" viewBox="0 0 33 42" fill="none" xmlns="http://www.w3.org/2000/svg">
<g id="Group 63">
<g id="Group-Copy">
<g id="Path-47">
<path id="Vector" fill-rule="evenodd" clip-rule="evenodd" d="M11.0907 19.6075C9.36911 17.6747 7.05231 17.4571 4.14031 18.9611C-0.230886 21.2203 -2.42168 34.8267 4.14031 39.3067C7.9309 41.8947 11.2427 40.4672 15.8324 40.5001C20.7683 40.5354 24.5099 42.3251 28.4155 39.3067C33.2821 35.5457 32.9915 28.8875 31.3083 23.8251C29.6251 18.7627 25.8235 17.3547 19.9035 19.6075C18.6043 18.4043 17.1963 17.8027 15.6795 17.8027C14.1627 17.8027 12.6331 18.4043 11.0907 19.6075Z" fill="#AFF164"/>
</g>
<g id="Path-50">
<path id="Vector_2" fill-rule="evenodd" clip-rule="evenodd" d="M18.4761 25.8345L19.7433 24.3497C19.9033 24.1641 20.1849 24.1385 20.3769 24.2985C20.3961 24.3113 20.4089 24.3305 20.4281 24.3497L21.6953 25.8345C21.8553 26.0201 21.8361 26.3081 21.6441 26.4681C21.5609 26.5385 21.4585 26.5769 21.3561 26.5769H18.8217C18.5721 26.5769 18.3737 26.3785 18.3737 26.1289C18.3673 26.0137 18.4057 25.9113 18.4761 25.8345Z" fill="#2E2E30"/>
</g>
<g id="Path-50-Copy">
<path id="Vector_3" fill-rule="evenodd" clip-rule="evenodd" d="M9.70856 25.8345L10.9758 24.3497C11.1358 24.1641 11.4174 24.1385 11.6094 24.2985C11.6286 24.3113 11.6414 24.3305 11.6606 24.3497L12.9278 25.8345C13.0878 26.0201 13.0686 26.3081 12.8766 26.4681C12.7934 26.5385 12.691 26.5769 12.5886 26.5769H10.0542C9.80456 26.5769 9.60616 26.3785 9.60616 26.1289C9.59976 26.0137 9.63816 25.9113 9.70856 25.8345Z" fill="#2E2E30"/>
</g>
<g id="Path-48">
<path id="Vector_4" d="M7.14222 38.4746C7.01422 38.4746 6.89262 38.3978 6.84142 38.2698C5.28622 34.257 4.73582 30.6602 5.20302 27.5817C5.67022 24.4777 7.18702 21.8153 9.69582 19.6713C9.83022 19.5561 10.035 19.5753 10.1438 19.7097C10.259 19.8441 10.2398 20.0489 10.1054 20.1577C5.31822 24.2473 4.41582 30.2634 7.43022 38.0394C7.49422 38.2058 7.41102 38.3914 7.24462 38.4554C7.21902 38.4682 7.18062 38.4746 7.14222 38.4746Z" fill="#2E2E30"/>
</g>
<g id="Path-49">
<path id="Vector_5" d="M24.3392 37.9624C24.3136 37.9624 24.288 37.9624 24.2688 37.956C24.096 37.9176 23.9872 37.7448 24.032 37.572C25.9712 29.1944 24.5824 23.2744 19.904 19.9848C19.7568 19.8824 19.7248 19.684 19.8272 19.5368C19.9296 19.3896 20.128 19.3576 20.2752 19.46C22.7392 21.1944 24.352 23.62 25.0752 26.6664C25.792 29.6872 25.6512 33.4056 24.6528 37.7128C24.6144 37.86 24.4864 37.9624 24.3392 37.9624Z" fill="#2E2E30"/>
</g>
<g id="Path_6_">
<path id="Vector_6" d="M14.7067 29.0663C14.5275 29.0663 14.3867 28.9191 14.3867 28.7399C14.4251 26.4551 14.8155 22.8263 15.5451 17.9431C15.5707 17.7703 15.7307 17.6487 15.9099 17.6743C16.0827 17.6999 16.2043 17.8663 16.1787 18.0391C15.4555 22.8903 15.0715 26.4935 15.0331 28.7463C15.0267 28.9255 14.8795 29.0663 14.7067 29.0663Z" fill="#2E2E30"/>
</g>
<g id="Path_7_">
<path id="Vector_7" d="M15.6667 38.6027C15.5131 38.6027 15.3787 38.4939 15.3531 38.3339C15.1611 37.2203 15.0139 36.0747 14.9051 34.9163C14.8859 34.7435 15.0203 34.5835 15.1931 34.5643C15.3723 34.5451 15.5259 34.6795 15.5451 34.8523C15.6539 35.9915 15.8011 37.1243 15.9931 38.2187C16.0251 38.3915 15.9035 38.5579 15.7307 38.5899C15.7051 38.6027 15.6859 38.6027 15.6667 38.6027Z" fill="#2E2E30"/>
</g>
<g id="Path-52">
<path id="Vector_8" fill-rule="evenodd" clip-rule="evenodd" d="M9.52246 30.5066V33.3482C9.52246 33.7514 9.84886 34.0714 10.2457 34.0714C10.3673 34.0714 10.4889 34.0394 10.5913 33.9818L11.2121 33.6426C11.4873 33.4954 11.8265 33.5274 12.0697 33.7258L12.6521 34.2058C12.9081 34.417 13.2793 34.4426 13.5545 34.257L14.4441 33.6874C14.7129 33.5146 15.0649 33.5274 15.3273 33.7194L15.9673 34.2058C16.2489 34.417 16.6329 34.4106 16.9081 34.1994L17.4393 33.777C17.7209 33.553 18.1241 33.5594 18.3993 33.7834L18.8345 34.1418C19.1289 34.385 19.5577 34.3722 19.8393 34.1098L20.1721 33.809C20.4345 33.5658 20.8313 33.5402 21.1257 33.745L21.4713 33.9818C21.7145 34.1482 22.0537 34.0906 22.2265 33.841C22.2905 33.7514 22.3225 33.6426 22.3225 33.5338V30.5258C22.3225 30.1674 22.0345 29.8794 21.6761 29.8794C21.5801 29.8794 21.4841 29.8986 21.3945 29.9434L20.9017 30.1802C20.6329 30.3082 20.3193 30.2698 20.0889 30.0842L19.7881 29.841C19.5321 29.6362 19.1737 29.6106 18.8985 29.7898L18.4633 30.065C18.1561 30.257 17.7529 30.2058 17.5033 29.9434L17.2025 29.6426C16.9273 29.3546 16.4729 29.329 16.1593 29.5786L15.6729 29.9818C15.3849 30.2186 14.9625 30.2122 14.6809 29.969L14.2137 29.5594C13.9321 29.3098 13.5097 29.3034 13.2217 29.5466L12.4217 30.2058C12.1913 30.3978 11.8649 30.4362 11.5961 30.3018L10.6297 29.8282C10.2521 29.6426 9.79126 29.7962 9.59926 30.1802C9.54806 30.2762 9.52246 30.3914 9.52246 30.5066Z" fill="#2E2E30"/>
</g>
<g id="Path-53">
<path id="Vector_9" d="M14.9498 18.2505C14.8218 18.2505 14.7002 18.1737 14.649 18.0457C13.977 16.2857 14.1754 14.9737 15.225 14.1545C15.2314 14.1481 15.2314 14.1481 15.2378 14.1417C15.161 13.7193 15.1866 13.2329 15.3466 12.7721C15.5834 12.1001 16.3258 10.9545 18.6554 10.8265C18.8346 10.8137 18.9818 10.9545 18.9946 11.1273C19.0074 11.3065 18.8666 11.4537 18.6938 11.4665C16.345 11.5945 15.897 12.7913 15.8458 13.4889C15.8394 13.5913 15.8394 13.6873 15.8394 13.7769C16.2618 13.6041 16.5562 13.6745 16.7098 13.7513C16.9722 13.8793 17.1386 14.1545 17.1386 14.4681C17.1386 14.8585 16.8954 15.2105 16.5178 15.3897C16.2746 15.5049 16.0058 15.4473 15.7754 15.2425C15.6538 15.1337 15.5386 14.9801 15.449 14.7945C14.7898 15.4409 14.7258 16.4265 15.2506 17.8089C15.3146 17.9753 15.2314 18.1609 15.065 18.2185C15.0202 18.2441 14.9818 18.2505 14.9498 18.2505ZM15.9738 14.4169C16.0698 14.6473 16.185 14.7881 16.249 14.8137C16.4282 14.7241 16.4922 14.5769 16.4922 14.4681C16.4922 14.4297 16.4858 14.3593 16.4218 14.3273C16.3514 14.2953 16.1978 14.3081 15.9738 14.4169Z" fill="#2E2E30"/>
</g>
</g>
<g id="Group-20-Copy-3">
<g id="Path-51">
<path id="Vector_10" d="M7.66635 10.4428C7.48715 10.4428 7.34635 10.302 7.34635 10.1228V6.35958L3.29515 7.86358C3.26955 7.87638 3.25035 7.90198 3.25035 7.92758V10.1228C3.25035 10.302 3.10955 10.4428 2.93035 10.4428C2.75115 10.4428 2.61035 10.302 2.61035 10.1228V7.92758C2.61035 7.63318 2.79595 7.37078 3.07115 7.26838L7.21195 5.73238C7.35915 5.68118 7.51275 5.68758 7.65355 5.75158C7.79435 5.81558 7.90315 5.93078 7.95435 6.07158C7.97995 6.13558 7.99275 6.20598 7.99275 6.26998V10.1228C7.98635 10.302 7.84555 10.4428 7.66635 10.4428Z" fill="white"/>
</g>
<g id="Path-54">
<path id="Vector_11" fill-rule="evenodd" clip-rule="evenodd" d="M3.1484 9.63642C3.9164 9.36122 4.6076 9.34202 5.2284 9.58522C6.342 10.0204 6.1308 12.254 4.71 12.5164C3.7564 12.702 3.078 12.1196 2.6748 10.782V10.3084C2.6748 10.0076 2.8668 9.73882 3.1484 9.63642Z" fill="white"/>
</g>
<g id="Path-54-Copy">
<path id="Vector_12" fill-rule="evenodd" clip-rule="evenodd" d="M7.88435 9.76435C8.65235 9.48915 9.34355 9.46995 9.96435 9.71315C11.0779 10.1484 10.8667 12.382 9.44595 12.6444C8.49875 12.8236 7.82035 12.2412 7.41715 10.9036V10.43C7.41075 10.1356 7.60275 9.86675 7.88435 9.76435Z" fill="white"/>
</g>
</g>
<g id="Group-20-Copy-2">
<g id="Path-51_1_">
<path id="Vector_13" d="M28.4608 4.61868C28.2816 4.61868 28.1408 4.47788 28.1408 4.29868V0.573877C28.1408 0.452277 28.1792 0.337077 28.2496 0.241077C28.4352 -0.0149234 28.7936 -0.0789234 29.056 0.106677L30.7648 1.32268C30.9056 1.42508 30.944 1.62348 30.8416 1.77068C30.7392 1.91148 30.5408 1.94988 30.3936 1.84748L28.7808 0.695477V4.29868C28.7808 4.47788 28.64 4.61868 28.4608 4.61868Z" fill="white"/>
</g>
<g id="Path-54-Copy_1_">
<path id="Vector_14" fill-rule="evenodd" clip-rule="evenodd" d="M28.2436 3.94013C27.4756 3.66493 26.7844 3.64573 26.1636 3.88893C25.05 4.32413 25.2612 6.55774 26.682 6.82014C27.6292 6.99934 28.3076 6.41694 28.7108 5.07933V4.60574C28.7172 4.31133 28.5252 4.04253 28.2436 3.94013Z" fill="white"/>
</g>
</g>
</g>
</svg>
