<svg width="32" height="32" viewBox="0 0 32 32" fill="none" xmlns="http://www.w3.org/2000/svg">
<g id="share">
<path id="Combined Shape" d="M18.7335 4C19.0792 4 19.4124 4.12209 19.6754 4.3424L27.023 11.682C27.8214 12.4804 27.8547 13.7542 27.1228 14.5923L19.7706 21.9515C19.1978 22.5242 18.2691 22.5242 17.6964 21.9515C17.4519 21.707 17.3026 21.3851 17.2725 21.0433L17.2662 16.538C13.5354 16.6732 10.7132 18.5184 8.58562 21.5953C7.74963 22.8044 7.10456 24.1171 6.55079 25.4748L6.04116 26.8094C5.86965 27.1835 5.50981 27.4144 5.04561 27.3199C4.58141 27.2254 4.48268 26.7922 4.44603 26.5188C3.60872 17.0707 8.48895 9.80025 17.2664 8.90523L17.2668 5.46667C17.2668 4.65665 17.9234 4 18.7335 4Z" fill="url(#paint0_linear_2_8076)"/>
</g>
<defs>
<linearGradient id="paint0_linear_2_8076" x1="16.0006" y1="4" x2="16.0006" y2="27.341" gradientUnits="userSpaceOnUse">
<stop stop-color="#4D88FB"/>
<stop offset="1" stop-color="#49D491"/>
</linearGradient>
</defs>
</svg>
