<svg width="56" height="56" viewBox="0 0 56 56" fill="none" xmlns="http://www.w3.org/2000/svg">
<g id="smile">
<path id="Combined Shape" fill-rule="evenodd" clip-rule="evenodd" d="M28 51.3333C40.8866 51.3333 51.3333 40.8866 51.3333 28C51.3333 15.1133 40.8866 4.66663 28 4.66663C15.1133 4.66663 4.66663 15.1133 4.66663 28C4.66663 40.8866 15.1133 51.3333 28 51.3333ZM40.7811 30.3333C40.1917 36.8743 34.6945 42 28.0001 42C21.3057 42 15.8085 36.8743 15.2191 30.3333H40.7811ZM23.3333 21C23.3333 22.933 21.7663 24.5 19.8333 24.5C17.9003 24.5 16.3333 22.933 16.3333 21C16.3333 19.067 17.9003 17.5 19.8333 17.5C21.7663 17.5 23.3333 19.067 23.3333 21ZM36.1667 24.5C38.0997 24.5 39.6667 22.933 39.6667 21C39.6667 19.067 38.0997 17.5 36.1667 17.5C34.2337 17.5 32.6667 19.067 32.6667 21C32.6667 22.933 34.2337 24.5 36.1667 24.5Z" fill="#4BAACC"/>
</g>
</svg>
